<svg width="5" height="12" viewBox="0 0 5 12" fill="none" xmlns="http://www.w3.org/2000/svg">
<path d="M2.99212 11.1279C3.52771 10.4467 4.01784 9.73245 4.3898 8.94561C4.55727 8.5915 4.50399 8.30499 4.26434 8.18306C4.02724 8.0624 3.77129 8.18518 3.5677 8.52487C3.39915 8.80601 3.26343 9.10662 3.04207 9.39517C2.92449 9.27694 2.93325 9.16004 2.91543 9.05544C2.75254 8.08247 2.57193 7.11183 2.43923 6.13462C2.20127 4.38258 1.96025 2.63185 1.56312 0.907608C1.52009 0.721158 1.47368 0.534886 1.42038 0.351206C1.38 0.212394 1.30502 0.0887793 1.13808 0.103046C0.944473 0.119133 0.900292 0.276606 0.898079 0.432769C0.894964 0.651695 0.902981 0.872014 0.926532 1.08912C1.19398 3.5832 1.41251 6.08192 1.78248 8.56324C1.806 8.72051 1.81558 8.8796 1.83233 9.04359C1.63554 8.8217 1.46226 8.61275 1.27384 8.41863C1.15081 8.29186 1.04743 8.02938 0.825022 8.17803C0.624854 8.31189 0.756897 8.54051 0.838905 8.70155C1.24263 9.49404 1.65056 10.2849 2.08099 11.0629C2.29894 11.4561 2.71072 11.4859 2.99212 11.1279Z" fill="#31261D"/>
</svg>
