<svg width="21" height="13" viewBox="0 0 21 13" fill="none" xmlns="http://www.w3.org/2000/svg">
<path d="M6.73131 5.40757C8.20265 4.19928 9.77434 3.16101 11.5188 2.37058C14.1331 1.18623 16.857 0.707421 19.7267 1.1026C20.0086 1.14126 20.3002 1.15832 20.5649 1.28176C20.6546 1.32372 20.7542 1.38331 20.7351 1.50273C20.7144 1.63362 20.5993 1.62747 20.4984 1.626C20.3838 1.62398 20.2691 1.61626 20.1546 1.61026C17.257 1.45753 14.5109 2.02304 11.8969 3.23987C9.48142 4.36433 7.45283 6.00844 5.54798 7.81742C4.55812 8.75762 3.69687 9.82208 2.70306 10.76C2.65303 10.8074 2.59783 10.8567 2.61553 10.9385C2.63776 10.9552 2.65883 10.9857 2.68159 10.9867C2.85346 10.9957 3.02524 10.999 3.19696 11.0045C3.38301 11.0102 3.57173 11.0008 3.75519 11.0274C4.01938 11.0655 4.18885 11.2493 4.2019 11.4741C4.21353 11.678 4.07835 11.85 3.83168 11.9381C3.66797 11.9962 3.49496 12.013 3.32309 12.0119C2.83564 12.009 2.3469 12.0126 1.86053 11.9861C1.12922 11.9465 0.86108 11.692 0.760852 10.984C0.746803 10.8857 0.739356 10.7864 0.735931 10.6871C0.721356 10.2335 0.70625 9.77979 0.697442 9.32619C0.695391 9.21425 0.697062 9.09545 0.731504 8.9907C0.794915 8.79608 0.999739 8.75898 1.13569 8.91547C1.19968 8.98858 1.23505 9.0869 1.27756 9.1765C1.45003 9.53844 1.54554 9.92348 1.62604 10.3979C2.31515 9.73791 2.92579 9.10627 3.50845 8.45004C4.4925 7.33943 5.58506 6.34895 6.73131 5.40757Z" fill="#31261D"/>
</svg>
