<svg width="65" height="63" viewBox="0 0 65 63" fill="none" xmlns="http://www.w3.org/2000/svg">
<path d="M41.9868 26.1674C41.3793 31.6289 40.2219 36.9412 38.2082 42.0891C35.1898 49.8036 30.5238 56.2803 23.7957 61.2442C23.1351 61.7321 22.498 62.2842 21.7021 62.5623C21.4321 62.6564 21.1062 62.7338 20.9051 62.4484C20.6843 62.1361 20.9347 61.9169 21.1462 61.7167C21.3871 61.4901 21.6397 61.2751 21.8886 61.0567C28.1858 55.5356 32.7233 48.8348 35.6754 41.0539C38.4035 33.8637 39.2849 26.3787 39.5785 18.8022C39.7307 14.8647 39.3667 10.9295 39.5317 6.98874C39.5397 6.78998 39.5544 6.57688 39.353 6.44339C39.2735 6.45368 39.1684 6.43299 39.1195 6.47693C38.7461 6.80453 38.3843 7.14377 38.0182 7.47821C37.6221 7.84115 37.2509 8.24074 36.8182 8.55539C36.1954 9.00887 35.4748 8.97025 34.995 8.53193C34.5602 8.13386 34.493 7.50586 34.8256 6.82704C35.0469 6.3771 35.3707 5.99385 35.7281 5.6498C36.7416 4.6739 37.7448 3.68208 38.8035 2.75702C40.395 1.36579 41.4619 1.35176 43.0952 2.61325C43.3224 2.7883 43.5378 2.97857 43.7449 3.17687C44.6887 4.08509 45.6339 4.99257 46.5658 5.91247C46.7956 6.13973 47.0314 6.38868 47.1712 6.67459C47.4322 7.20462 47.0835 7.69392 46.4873 7.64429C46.2077 7.62207 45.9365 7.49008 45.6682 7.3905C44.5826 6.98974 43.6095 6.38621 42.4875 5.5677C42.3925 8.32012 42.4026 10.8559 42.5201 13.3861C42.7231 17.6641 42.4599 21.9124 41.9868 26.1674Z" fill="#31261D"/>
</svg>
