<svg width="19" height="24" viewBox="0 0 19 24" fill="none" xmlns="http://www.w3.org/2000/svg">
<path d="M18.3765 22.262C18.7071 20.0925 18.8965 17.9071 18.7349 15.709C18.6623 14.7197 18.1876 14.1547 17.5073 14.1849C16.8343 14.2147 16.4233 14.8046 16.3983 15.8071C16.3775 16.637 16.4533 17.4688 16.3253 18.3808C15.9188 18.2669 15.7922 17.9984 15.6225 17.79C14.0499 15.8488 12.4412 13.9349 10.9299 11.9467C8.22022 8.38214 5.50538 4.8243 2.47953 1.51952C2.15214 1.16227 1.81753 0.809625 1.47096 0.471289C1.20883 0.215721 0.889398 0.0368037 0.539269 0.276466C0.132642 0.553401 0.231681 0.955565 0.421583 1.3025C0.687777 1.78888 0.980244 2.26444 1.30294 2.71355C5.00316 7.87674 8.6014 13.1112 12.5117 18.1184C12.7597 18.4356 12.9792 18.7743 13.2206 19.1149C12.5102 18.8713 11.8677 18.6269 11.2103 18.4341C10.781 18.3081 10.2258 17.8586 9.92103 18.4636C9.64684 19.0083 10.223 19.3475 10.6046 19.6001C12.4828 20.8431 14.3683 22.0773 16.2873 23.255C17.2581 23.8498 18.2028 23.402 18.3765 22.262Z" fill="#31261D"/>
</svg>
