<svg width="32" height="22" viewBox="0 0 32 22" fill="none" xmlns="http://www.w3.org/2000/svg">
<path d="M9.01562 6.11133C8.98828 6.70508 8.82812 7.23047 8.53516 7.6875C8.24219 8.14062 7.83008 8.49219 7.29883 8.74219C6.77148 8.99219 6.16797 9.11719 5.48828 9.11719C4.36719 9.11719 3.48438 8.75195 2.83984 8.02148C2.19531 7.29102 1.87305 6.25977 1.87305 4.92773V4.50586C1.87305 3.66992 2.01758 2.93945 2.30664 2.31445C2.59961 1.68555 3.01953 1.20117 3.56641 0.861328C4.11328 0.517578 4.74609 0.345703 5.46484 0.345703C6.5 0.345703 7.33203 0.619141 7.96094 1.16602C8.58984 1.70898 8.94727 2.45898 9.0332 3.41602H6.98242C6.9668 2.89648 6.83594 2.52344 6.58984 2.29688C6.34375 2.07031 5.96875 1.95703 5.46484 1.95703C4.95312 1.95703 4.57812 2.14844 4.33984 2.53125C4.10156 2.91406 3.97656 3.52539 3.96484 4.36523V4.96875C3.96484 5.87891 4.07812 6.5293 4.30469 6.91992C4.53516 7.31055 4.92969 7.50586 5.48828 7.50586C5.96094 7.50586 6.32227 7.39453 6.57227 7.17188C6.82227 6.94922 6.95508 6.5957 6.9707 6.11133H9.01562Z" fill="white"/>
<path d="M14.834 7.40625H12.0156L11.5234 9H9.32617L12.4551 0.46875H14.3887L17.541 9H15.332L14.834 7.40625ZM12.5078 5.81836H14.3418L13.4219 2.85938L12.5078 5.81836Z" fill="white"/>
<path d="M20.2246 7.41797H23.8047V9H18.168V0.46875H20.2246V7.41797Z" fill="white"/>
<path d="M26.7285 7.41797H30.3086V9H24.6719V0.46875H26.7285V7.41797Z" fill="white"/>
<path d="M0.970703 21V12.4688H4.03516C5.13281 12.4688 5.9668 12.6699 6.53711 13.0723C7.11133 13.4746 7.39844 14.0586 7.39844 14.8242C7.39844 15.2656 7.29688 15.6426 7.09375 15.9551C6.89062 16.2676 6.5918 16.498 6.19727 16.6465C6.64258 16.7637 6.98438 16.9824 7.22266 17.3027C7.46094 17.623 7.58008 18.0137 7.58008 18.4746C7.58008 19.3105 7.31445 19.9395 6.7832 20.3613C6.25586 20.7793 5.47266 20.9922 4.43359 21H0.970703ZM3.02734 17.373V19.418H4.375C4.74609 19.418 5.03125 19.334 5.23047 19.166C5.42969 18.9941 5.5293 18.7539 5.5293 18.4453C5.5293 17.7344 5.17578 17.377 4.46875 17.373H3.02734ZM3.02734 16.0254H4.09961C4.54883 16.0215 4.86914 15.9395 5.06055 15.7793C5.25195 15.6191 5.34766 15.3828 5.34766 15.0703C5.34766 14.7109 5.24414 14.4531 5.03711 14.2969C4.83008 14.1367 4.49609 14.0566 4.03516 14.0566H3.02734V16.0254Z" fill="white"/>
<path d="M13.5625 19.4062H10.7441L10.252 21H8.05469L11.1836 12.4688H13.1172L16.2695 21H14.0605L13.5625 19.4062ZM11.2363 17.8184H13.0703L12.1504 14.8594L11.2363 17.8184Z" fill="white"/>
<path d="M23.6699 18.1113C23.6426 18.7051 23.4824 19.2305 23.1895 19.6875C22.8965 20.1406 22.4844 20.4922 21.9531 20.7422C21.4258 20.9922 20.8223 21.1172 20.1426 21.1172C19.0215 21.1172 18.1387 20.752 17.4941 20.0215C16.8496 19.291 16.5273 18.2598 16.5273 16.9277V16.5059C16.5273 15.6699 16.6719 14.9395 16.9609 14.3145C17.2539 13.6855 17.6738 13.2012 18.2207 12.8613C18.7676 12.5176 19.4004 12.3457 20.1191 12.3457C21.1543 12.3457 21.9863 12.6191 22.6152 13.166C23.2441 13.709 23.6016 14.459 23.6875 15.416H21.6367C21.6211 14.8965 21.4902 14.5234 21.2441 14.2969C20.998 14.0703 20.623 13.957 20.1191 13.957C19.6074 13.957 19.2324 14.1484 18.9941 14.5312C18.7559 14.9141 18.6309 15.5254 18.6191 16.3652V16.9688C18.6191 17.8789 18.7324 18.5293 18.959 18.9199C19.1895 19.3105 19.584 19.5059 20.1426 19.5059C20.6152 19.5059 20.9766 19.3945 21.2266 19.1719C21.4766 18.9492 21.6094 18.5957 21.625 18.1113H23.6699Z" fill="white"/>
<path d="M27.543 17.8242L26.6992 18.75V21H24.6426V12.4688H26.6992V16.2305L27.4141 15.1465L29.2539 12.4688H31.7969L28.9141 16.2422L31.7969 21H29.3594L27.543 17.8242Z" fill="white"/>
</svg>
