<svg width="24" height="24" viewBox="0 0 24 24" fill="none" xmlns="http://www.w3.org/2000/svg">
<path fill-rule="evenodd" clip-rule="evenodd" d="M18.1738 12.046V4.09229C18.1738 3.04024 17.1153 1.9231 16.0388 1.9231H2.51698C1.44037 1.9231 0.381958 3.04024 0.381958 4.09229V12.046C0.381958 13.3239 1.44037 14.441 2.51698 14.2152H4.652V17.1075V18.5536C4.652 18.5536 5.18888 18.5536 5.36365 18.5536C5.53843 18.5536 6.07536 17.8306 6.07536 17.8306L8.92204 14.2152H16.0388C17.1153 14.441 18.1738 13.3239 18.1738 12.046ZM20.3088 9.15377V12.7691C20.5749 14.6077 18.9675 16.2509 16.7504 16.3844H10.3454L8.92204 17.8306C9.09099 18.6886 9.94812 19.4551 11.0571 19.2767H16.7504L18.8854 22.1689C18.8854 22.1689 19.4289 22.892 19.5971 22.892C19.7652 22.892 20.3088 22.892 20.3088 22.892V21.4459V19.2767H21.7321C22.9313 19.455 23.8671 18.498 23.8671 17.1075V11.323C23.867 10.1106 22.9312 9.15377 21.7321 9.15377H20.3088Z" fill="white"/>
</svg>
