<svg width="8" height="7" viewBox="0 0 8 7" fill="none" xmlns="http://www.w3.org/2000/svg">
<path d="M2.27027 5.72805L0.2857 3.7429C0.194663 3.65194 0.122443 3.54394 0.07317 3.42505C0.0238966 3.30617 -0.00146484 3.17874 -0.00146484 3.05005C-0.00146484 2.92136 0.0238966 2.79393 0.07317 2.67504C0.122443 2.55616 0.194663 2.44815 0.2857 2.35719C0.469551 2.17361 0.718744 2.0705 0.978557 2.0705C1.23837 2.0705 1.48756 2.17361 1.67141 2.35719L2.91427 3.5989C2.93933 3.62382 2.97322 3.6378 3.00856 3.6378C3.04389 3.6378 3.07779 3.62382 3.10284 3.5989L6.3257 0.376047C6.50955 0.192467 6.75874 0.0893555 7.01856 0.0893555C7.27837 0.0893555 7.52756 0.192467 7.71141 0.376047C7.80245 0.467006 7.87467 0.575015 7.92394 0.693899C7.97322 0.812784 7.99858 0.940213 7.99858 1.0689C7.99858 1.1976 7.97322 1.32502 7.92394 1.44391C7.87467 1.56279 7.80245 1.6708 7.71141 1.76176L3.7457 5.72805C3.55003 5.92367 3.28467 6.03356 3.00799 6.03356C2.7313 6.03356 2.46594 5.92367 2.27027 5.72805Z" fill="#FF5C39"/>
</svg>
