<svg width="1920" height="1213" viewBox="0 0 1960 1213" fill="none" xmlns="http://www.w3.org/2000/svg">
<g opacity="0.22">
<path opacity="0.22" d="M21.696 -49.5889V1212.35" stroke="white" stroke-width="3.27662" stroke-miterlimit="10"/>
<path opacity="0.22" d="M106.696 -49.5889V1212.35" stroke="white" stroke-width="3.27662" stroke-miterlimit="10"/>
<path opacity="0.22" d="M192.026 -49.5894V1212.35" stroke="white" stroke-width="3.27662" stroke-miterlimit="10"/>
<path opacity="0.22" d="M277.356 -49.5894V1212.35" stroke="white" stroke-width="3.27662" stroke-miterlimit="10"/>
<path opacity="0.22" d="M362.687 -49.5894V1212.35" stroke="white" stroke-width="3.27662" stroke-miterlimit="10"/>
<path opacity="0.22" d="M448.017 -49.5894V1212.35" stroke="white" stroke-width="3.27662" stroke-miterlimit="10"/>
<path opacity="0.22" d="M533.348 -49.5894V1212.35" stroke="white" stroke-width="3.27662" stroke-miterlimit="10"/>
<path opacity="0.22" d="M618.678 -49.5894V1212.35" stroke="white" stroke-width="3.27662" stroke-miterlimit="10"/>
<path opacity="0.22" d="M704.009 -49.5894V1212.35" stroke="white" stroke-width="3.27662" stroke-miterlimit="10"/>
<path opacity="0.22" d="M789.339 -49.5894V1212.35" stroke="white" stroke-width="3.27662" stroke-miterlimit="10"/>
<path opacity="0.22" d="M874.669 -49.5894V1212.35" stroke="white" stroke-width="3.27662" stroke-miterlimit="10"/>
<path opacity="0.22" d="M960 -49.5894V1212.35" stroke="white" stroke-width="3.27662" stroke-miterlimit="10"/>
<path opacity="0.22" d="M1045.33 -49.5894V1212.35" stroke="white" stroke-width="3.27662" stroke-miterlimit="10"/>
<path opacity="0.22" d="M1130.66 -49.5894V1212.35" stroke="white" stroke-width="3.27662" stroke-miterlimit="10"/>
<path opacity="0.22" d="M1215.99 -49.5894V1212.35" stroke="white" stroke-width="3.27662" stroke-miterlimit="10"/>
<path opacity="0.22" d="M1301.32 -49.5894V1212.35" stroke="white" stroke-width="3.27662" stroke-miterlimit="10"/>
<path opacity="0.22" d="M1386.65 -49.5894V1212.35" stroke="white" stroke-width="3.27662" stroke-miterlimit="10"/>
<path opacity="0.22" d="M1471.98 -49.5894V1212.35" stroke="white" stroke-width="3.27662" stroke-miterlimit="10"/>
<path opacity="0.22" d="M1557.31 -49.5894V1212.35" stroke="white" stroke-width="3.27662" stroke-miterlimit="10"/>
<path opacity="0.22" d="M1642.64 -49.5894V1212.35" stroke="white" stroke-width="3.27662" stroke-miterlimit="10"/>
<path opacity="0.22" d="M1727.97 -49.5894V1212.35" stroke="white" stroke-width="3.27662" stroke-miterlimit="10"/>
<path opacity="0.22" d="M1813.3 -49.5894V1212.35" stroke="white" stroke-width="3.27662" stroke-miterlimit="10"/>
<path opacity="0.22" d="M1898.3 -49.5894V1212.35" stroke="white" stroke-width="3.27662" stroke-miterlimit="10"/>
</g>
<g opacity="0.22">
<path opacity="0.22" d="M1960 69.135H0" stroke="white" stroke-width="3.27662" stroke-miterlimit="10"/>
<path opacity="0.22" d="M1960 154.509H0" stroke="white" stroke-width="3.27662" stroke-miterlimit="10"/>
<path opacity="0.22" d="M1960 239.884H0" stroke="white" stroke-width="3.27662" stroke-miterlimit="10"/>
<path opacity="0.22" d="M1960 325.257H0" stroke="white" stroke-width="3.27662" stroke-miterlimit="10"/>
<path opacity="0.22" d="M1960 410.631H0" stroke="white" stroke-width="3.27662" stroke-miterlimit="10"/>
<path opacity="0.22" d="M1960 496.005H0" stroke="white" stroke-width="3.27662" stroke-miterlimit="10"/>
<path opacity="0.22" d="M1960 581.379H0" stroke="white" stroke-width="3.27662" stroke-miterlimit="10"/>
<path opacity="0.22" d="M1960 666.754H0" stroke="white" stroke-width="3.27662" stroke-miterlimit="10"/>
<path opacity="0.22" d="M1960 752.127H0" stroke="white" stroke-width="3.27662" stroke-miterlimit="10"/>
<path opacity="0.22" d="M1960 837.501H0" stroke="white" stroke-width="3.27662" stroke-miterlimit="10"/>
<path opacity="0.22" d="M1960 922.875H0" stroke="white" stroke-width="3.27662" stroke-miterlimit="10"/>
<path opacity="0.22" d="M1960 1008.25H0" stroke="white" stroke-width="3.27662" stroke-miterlimit="10"/>
<path opacity="0.22" d="M1960 1093.62H0" stroke="white" stroke-width="3.27662" stroke-miterlimit="10"/>
<path opacity="0.22" d="M1960 1179H0" stroke="white" stroke-width="3.27662" stroke-miterlimit="10"/>
</g>
</svg>
