<svg width="320" height="125" viewBox="0 0 320 125" fill="none" xmlns="http://www.w3.org/2000/svg">
<g opacity="0.2">
<ellipse cx="18.5508" cy="56.4155" rx="1.73913" ry="1.74481" fill="white"/>
<ellipse cx="18.5508" cy="69.7924" rx="1.73913" ry="1.74481" fill="white"/>
<ellipse cx="18.5508" cy="121.555" rx="1.73913" ry="1.74481" fill="white"/>
<ellipse cx="67.2463" cy="69.7924" rx="1.73913" ry="1.74481" fill="white"/>
<ellipse cx="67.2463" cy="56.4155" rx="1.73913" ry="1.74481" fill="white"/>
<ellipse cx="75.3623" cy="14.5402" rx="1.73913" ry="1.74481" fill="white"/>
<ellipse cx="157.681" cy="57.5788" rx="1.73913" ry="1.74481" fill="white"/>
<ellipse cx="194.203" cy="48.8549" rx="1.73913" ry="1.74481" fill="white"/>
<ellipse cx="250.435" cy="63.395" rx="1.73913" ry="1.74481" fill="white"/>
<ellipse cx="277.101" cy="49.4365" rx="1.73913" ry="1.74481" fill="white"/>
<ellipse cx="277.681" cy="38.3862" rx="1.73913" ry="1.74481" fill="white"/>
<ellipse cx="263.768" cy="40.1308" rx="1.73913" ry="1.74481" fill="white"/>
<ellipse cx="263.768" cy="46.5285" rx="1.73913" ry="1.74481" fill="white"/>
<ellipse cx="266.667" cy="49.4365" rx="1.73913" ry="1.74481" fill="white"/>
<ellipse cx="277.101" cy="101.199" rx="1.73913" ry="1.74481" fill="white"/>
<ellipse cx="318.261" cy="115.158" rx="1.73913" ry="1.74481" fill="white"/>
<ellipse cx="314.203" cy="108.179" rx="1.73913" ry="1.74481" fill="white"/>
<ellipse cx="310.145" cy="107.015" rx="1.73913" ry="1.74481" fill="white"/>
<ellipse cx="292.174" cy="101.199" rx="1.73913" ry="1.74481" fill="white"/>
<ellipse cx="292.174" cy="49.4365" rx="1.73913" ry="1.74481" fill="white"/>
<ellipse cx="292.174" cy="38.3862" rx="1.73913" ry="1.74481" fill="white"/>
<ellipse cx="292.174" cy="9.30585" rx="1.73913" ry="1.74481" fill="white"/>
<ellipse cx="284.638" cy="9.30585" rx="1.73913" ry="1.74481" fill="white"/>
<ellipse cx="281.159" cy="12.2136" rx="1.73913" ry="1.74481" fill="white"/>
<ellipse cx="316.522" cy="49.4365" rx="1.73913" ry="1.74481" fill="white"/>
<ellipse cx="316.522" cy="38.3862" rx="1.73913" ry="1.74481" fill="white"/>
<ellipse cx="250.435" cy="120.974" rx="1.73913" ry="1.74481" fill="white"/>
<ellipse cx="235.942" cy="120.974" rx="1.73913" ry="1.74481" fill="white"/>
<ellipse cx="235.942" cy="63.395" rx="1.73913" ry="1.74481" fill="white"/>
<ellipse cx="193.043" cy="40.1308" rx="1.73913" ry="1.74481" fill="white"/>
<ellipse cx="189.565" cy="36.6411" rx="1.73913" ry="1.74481" fill="white"/>
<ellipse cx="180.29" cy="36.6411" rx="1.73913" ry="1.74481" fill="white"/>
<ellipse cx="180.29" cy="121.555" rx="1.73913" ry="1.74481" fill="white"/>
<ellipse cx="194.783" cy="121.555" rx="1.73913" ry="1.74481" fill="white"/>
<ellipse cx="194.783" cy="59.3239" rx="1.73913" ry="1.74481" fill="white"/>
<ellipse cx="97.9709" cy="63.395" rx="1.73913" ry="1.74481" fill="white"/>
<ellipse cx="84.6377" cy="57.5788" rx="1.73913" ry="1.74481" fill="white"/>
<ellipse cx="121.159" cy="34.8962" rx="1.73913" ry="1.74481" fill="white"/>
<ellipse cx="121.159" cy="47.1101" rx="1.73913" ry="1.74481" fill="white"/>
<ellipse cx="121.159" cy="111.087" rx="1.73913" ry="1.74481" fill="white"/>
<ellipse cx="121.159" cy="122.719" rx="1.73913" ry="1.74481" fill="white"/>
<ellipse cx="143.768" cy="63.395" rx="1.73913" ry="1.74481" fill="white"/>
<ellipse cx="144.348" cy="93.6386" rx="1.73913" ry="1.74481" fill="white"/>
<ellipse cx="97.9709" cy="93.6386" rx="1.73913" ry="1.74481" fill="white"/>
<ellipse cx="84.0579" cy="99.4548" rx="1.73913" ry="1.74481" fill="white"/>
<ellipse cx="157.681" cy="99.4548" rx="1.73913" ry="1.74481" fill="white"/>
<ellipse cx="75.3623" cy="1.74481" rx="1.73913" ry="1.74481" fill="white"/>
<ellipse cx="1.73913" cy="1.74481" rx="1.73913" ry="1.74481" fill="white"/>
<ellipse cx="1.73913" cy="121.555" rx="1.73913" ry="1.74481" fill="white"/>
<ellipse cx="18.5508" cy="14.5402" rx="1.73913" ry="1.74481" fill="white"/>
<path d="M18.138 14.7727V56.732H67.3067V69.9647H18.138V121.555H1.94324V1.54004H75.6545V14.7727H18.138ZM121.148 35.3755C127.325 35.3755 132.89 36.4084 137.843 38.4743C142.796 40.5401 147.026 43.4714 150.532 47.2681C154.038 51.0649 156.709 55.6712 158.546 61.0871C160.438 66.4472 161.384 72.4493 161.384 79.0936C161.384 85.7937 160.438 91.8237 158.546 97.1838C156.709 102.544 154.038 107.122 150.532 110.919C147.026 114.716 142.796 117.647 137.843 119.713C132.89 121.723 127.325 122.728 121.148 122.728C114.915 122.728 109.294 121.723 104.285 119.713C99.3319 117.647 95.1023 114.716 91.5963 110.919C88.0902 107.122 85.391 102.544 83.4989 97.1838C81.6623 91.8237 80.7441 85.7937 80.7441 79.0936C80.7441 72.4493 81.6623 66.4472 83.4989 61.0871C85.391 55.6712 88.0902 51.0649 91.5963 47.2681C95.1023 43.4714 99.3319 40.5401 104.285 38.4743C109.294 36.4084 114.915 35.3755 121.148 35.3755ZM121.148 111.086C129.495 111.086 135.728 108.295 139.847 102.711C143.965 97.0721 146.024 89.2275 146.024 79.1773C146.024 69.0714 143.965 61.1987 139.847 55.5595C135.728 49.9203 129.495 47.1006 121.148 47.1006C116.918 47.1006 113.217 47.8265 110.045 49.2782C106.928 50.7299 104.313 52.8236 102.198 55.5595C100.139 58.2954 98.5806 61.6733 97.5232 65.6934C96.5215 69.6576 96.0206 74.1523 96.0206 79.1773C96.0206 89.2275 98.0797 97.0721 102.198 102.711C106.372 108.295 112.688 111.086 121.148 111.086ZM194.255 49.0269C196.091 46.9611 198.039 45.0906 200.098 43.4156C202.158 41.7406 204.328 40.3168 206.61 39.1443C208.947 37.9159 211.396 36.9947 213.956 36.3805C216.571 35.7105 219.382 35.3755 222.387 35.3755C227.006 35.3755 231.069 36.1572 234.575 37.7205C238.137 39.228 241.086 41.4056 243.424 44.2531C245.817 47.0448 247.625 50.4228 248.85 54.387C250.074 58.3512 250.686 62.7342 250.686 67.5359V121.555H235.744V67.5359C235.744 61.115 234.269 56.1458 231.319 52.6282C228.425 49.0548 224.001 47.2681 218.046 47.2681C213.65 47.2681 209.531 48.329 205.691 50.4507C201.907 52.5724 198.401 55.4478 195.173 59.0771V121.555H180.231V36.7155H189.163C191.278 36.7155 192.585 37.7484 193.086 39.8143L194.255 49.0269ZM298.149 122.895C291.471 122.895 286.323 121.025 282.705 117.284C279.144 113.543 277.363 108.155 277.363 101.12V49.1944H267.178C266.288 49.1944 265.537 48.9432 264.924 48.4407C264.312 47.8823 264.006 47.0448 264.006 45.9281V39.9818L277.864 38.223L281.286 12.0089C281.453 11.1714 281.815 10.5014 282.371 9.9989C282.984 9.44056 283.763 9.16139 284.709 9.16139H292.222V38.3905H316.681V49.1944H292.222V100.115C292.222 103.688 293.084 106.341 294.81 108.071C296.535 109.802 298.761 110.668 301.488 110.668C303.046 110.668 304.382 110.472 305.495 110.081C306.664 109.635 307.665 109.16 308.5 108.658C309.335 108.155 310.031 107.709 310.587 107.318C311.199 106.871 311.728 106.648 312.173 106.648C312.952 106.648 313.648 107.122 314.26 108.071L318.601 115.19C316.041 117.591 312.952 119.49 309.335 120.885C305.717 122.225 301.989 122.895 298.149 122.895Z" stroke="white" stroke-width="2"/>
</g>
</svg>
