<svg width="747" height="292" viewBox="0 0 747 292" fill="none" xmlns="http://www.w3.org/2000/svg">
<g opacity="0.2">
<ellipse cx="43.4136" cy="132.749" rx="4.07003" ry="4.08333" fill="white"/>
<ellipse cx="43.4136" cy="164.055" rx="4.07003" ry="4.08333" fill="white"/>
<ellipse cx="43.4136" cy="285.194" rx="4.07003" ry="4.08333" fill="white"/>
<ellipse cx="157.374" cy="164.055" rx="4.07003" ry="4.08333" fill="white"/>
<ellipse cx="157.374" cy="132.749" rx="4.07003" ry="4.08333" fill="white"/>
<ellipse cx="176.368" cy="34.7503" rx="4.07003" ry="4.08333" fill="white"/>
<ellipse cx="369.016" cy="135.472" rx="4.07003" ry="4.08333" fill="white"/>
<ellipse cx="454.486" cy="115.055" rx="4.07003" ry="4.08333" fill="white"/>
<ellipse cx="586.084" cy="149.083" rx="4.07003" ry="4.08333" fill="white"/>
<ellipse cx="648.491" cy="116.416" rx="4.07003" ry="4.08333" fill="white"/>
<ellipse cx="649.848" cy="90.5555" rx="4.07003" ry="4.08333" fill="white"/>
<ellipse cx="617.288" cy="94.639" rx="4.07003" ry="4.08333" fill="white"/>
<ellipse cx="617.288" cy="109.611" rx="4.07003" ry="4.08333" fill="white"/>
<ellipse cx="624.071" cy="116.416" rx="4.07003" ry="4.08333" fill="white"/>
<ellipse cx="648.491" cy="237.555" rx="4.07003" ry="4.08333" fill="white"/>
<ellipse cx="744.815" cy="270.223" rx="4.07003" ry="4.08333" fill="white"/>
<ellipse cx="735.318" cy="253.889" rx="4.07003" ry="4.08333" fill="white"/>
<ellipse cx="725.821" cy="251.167" rx="4.07003" ry="4.08333" fill="white"/>
<ellipse cx="683.765" cy="237.555" rx="4.07003" ry="4.08333" fill="white"/>
<ellipse cx="683.765" cy="116.416" rx="4.07003" ry="4.08333" fill="white"/>
<ellipse cx="683.765" cy="90.5555" rx="4.07003" ry="4.08333" fill="white"/>
<ellipse cx="683.765" cy="22.4998" rx="4.07003" ry="4.08333" fill="white"/>
<ellipse cx="666.128" cy="22.4998" rx="4.07003" ry="4.08333" fill="white"/>
<ellipse cx="657.988" cy="29.3055" rx="4.07003" ry="4.08333" fill="white"/>
<ellipse cx="740.745" cy="116.416" rx="4.07003" ry="4.08333" fill="white"/>
<ellipse cx="740.745" cy="90.5555" rx="4.07003" ry="4.08333" fill="white"/>
<ellipse cx="586.084" cy="283.833" rx="4.07003" ry="4.08333" fill="white"/>
<ellipse cx="552.167" cy="283.833" rx="4.07003" ry="4.08333" fill="white"/>
<ellipse cx="552.167" cy="149.083" rx="4.07003" ry="4.08333" fill="white"/>
<ellipse cx="451.773" cy="94.639" rx="4.07003" ry="4.08333" fill="white"/>
<ellipse cx="443.633" cy="86.472" rx="4.07003" ry="4.08333" fill="white"/>
<ellipse cx="421.926" cy="86.472" rx="4.07003" ry="4.08333" fill="white"/>
<ellipse cx="421.926" cy="285.194" rx="4.07003" ry="4.08333" fill="white"/>
<ellipse cx="455.843" cy="285.194" rx="4.07003" ry="4.08333" fill="white"/>
<ellipse cx="455.843" cy="139.556" rx="4.07003" ry="4.08333" fill="white"/>
<ellipse cx="229.278" cy="149.083" rx="4.07003" ry="4.08333" fill="white"/>
<ellipse cx="198.075" cy="135.472" rx="4.07003" ry="4.08333" fill="white"/>
<ellipse cx="283.545" cy="82.3885" rx="4.07003" ry="4.08333" fill="white"/>
<ellipse cx="283.545" cy="110.972" rx="4.07003" ry="4.08333" fill="white"/>
<ellipse cx="283.545" cy="260.695" rx="4.07003" ry="4.08333" fill="white"/>
<ellipse cx="283.545" cy="287.917" rx="4.07003" ry="4.08333" fill="white"/>
<ellipse cx="336.456" cy="149.083" rx="4.07003" ry="4.08333" fill="white"/>
<ellipse cx="337.812" cy="219.861" rx="4.07003" ry="4.08333" fill="white"/>
<ellipse cx="229.278" cy="219.861" rx="4.07003" ry="4.08333" fill="white"/>
<ellipse cx="196.718" cy="233.472" rx="4.07003" ry="4.08333" fill="white"/>
<ellipse cx="369.016" cy="233.472" rx="4.07003" ry="4.08333" fill="white"/>
<ellipse cx="176.368" cy="4.8055" rx="4.07003" ry="4.08333" fill="white"/>
<ellipse cx="4.07003" cy="4.8055" rx="4.07003" ry="4.08333" fill="white"/>
<ellipse cx="4.07003" cy="285.194" rx="4.07003" ry="4.08333" fill="white"/>
<ellipse cx="43.4136" cy="34.7503" rx="4.07003" ry="4.08333" fill="white"/>
<path d="M42.4477 35.2946V133.491H157.516V164.459H42.4477V285.195H4.54764V4.32666H177.052V35.2946H42.4477ZM283.518 83.5106C297.974 83.5106 310.998 85.928 322.59 90.7626C334.181 95.5973 344.079 102.457 352.285 111.343C360.49 120.228 366.741 131.008 371.039 143.683C375.468 156.227 377.682 170.273 377.682 185.823C377.682 201.503 375.468 215.615 371.039 228.159C366.741 240.703 360.49 251.417 352.285 260.303C344.079 269.188 334.181 276.048 322.59 280.883C310.998 285.587 297.974 287.939 283.518 287.939C268.931 287.939 255.776 285.587 244.055 280.883C232.463 276.048 222.565 269.188 214.36 260.303C206.154 251.417 199.838 240.703 195.41 228.159C191.112 215.615 188.963 201.503 188.963 185.823C188.963 170.273 191.112 156.227 195.41 143.683C199.838 131.008 206.154 120.228 214.36 111.343C222.565 102.457 232.463 95.5973 244.055 90.7626C255.776 85.928 268.931 83.5106 283.518 83.5106ZM283.518 260.695C303.054 260.695 317.641 254.161 327.278 241.095C336.916 227.897 341.735 209.539 341.735 186.019C341.735 162.368 336.916 143.944 327.278 130.747C317.641 117.549 303.054 110.951 283.518 110.951C273.619 110.951 264.958 112.649 257.534 116.047C250.241 119.444 244.12 124.344 239.17 130.747C234.352 137.149 230.705 145.055 228.23 154.463C225.886 163.74 224.714 174.259 224.714 186.019C224.714 209.539 229.533 227.897 239.17 241.095C248.939 254.161 263.721 260.695 283.518 260.695ZM454.608 115.459C458.906 110.624 463.465 106.247 468.284 102.327C473.102 98.4066 478.182 95.0746 483.522 92.3306C488.992 89.456 494.722 87.3 500.714 85.8626C506.835 84.2946 513.412 83.5106 520.445 83.5106C531.255 83.5106 540.763 85.34 548.968 88.9986C557.303 92.5266 564.206 97.6226 569.676 104.287C575.276 110.82 579.509 118.725 582.375 128.003C585.24 137.28 586.673 147.537 586.673 158.775V285.195H551.703V158.775C551.703 143.748 548.251 132.119 541.349 123.887C534.576 115.524 524.222 111.343 510.286 111.343C499.997 111.343 490.359 113.825 481.373 118.791C472.516 123.756 464.311 130.485 456.757 138.979V285.195H421.788V86.6466H442.691C447.64 86.6466 450.701 89.064 451.873 93.8986L454.608 115.459ZM697.748 288.331C682.119 288.331 670.071 283.953 661.606 275.199C653.27 266.444 649.103 253.835 649.103 237.371V115.851H625.269C623.185 115.851 621.426 115.263 619.994 114.087C618.561 112.78 617.845 110.82 617.845 108.207V94.2906L650.275 90.1746L658.285 28.8267C658.675 26.8667 659.522 25.2987 660.824 24.1227C662.257 22.816 664.08 22.1627 666.294 22.1627H683.877V90.5666H741.118V115.851H683.877V235.019C683.877 243.381 685.896 249.588 689.933 253.639C693.971 257.689 699.18 259.715 705.562 259.715C709.209 259.715 712.335 259.257 714.939 258.343C717.674 257.297 720.019 256.187 721.972 255.011C723.926 253.835 725.554 252.789 726.856 251.875C728.289 250.829 729.526 250.307 730.568 250.307C732.392 250.307 734.02 251.417 735.452 253.639L745.611 270.299C739.62 275.917 732.392 280.36 723.926 283.627C715.46 286.763 706.734 288.331 697.748 288.331Z" stroke="white" stroke-width="2"/>
</g>
</svg>
