<svg width="236" height="233" viewBox="0 0 236 233" fill="none" xmlns="http://www.w3.org/2000/svg">
<path d="M73.7853 137.299H64.878C64.4268 137.299 64.061 136.934 64.061 136.482V111.766C64.061 111.315 64.4268 110.949 64.878 110.949H73.7853C74.2364 110.949 74.6022 111.315 74.6022 111.766V136.482C74.6022 136.934 74.2364 137.299 73.7853 137.299Z" fill="url(#paint0_linear)"/>
<path d="M69.3318 110.949V107.655" stroke="#ED654A" stroke-width="0.810051" stroke-miterlimit="10" stroke-linecap="round" stroke-linejoin="round"/>
<path d="M69.3317 141.472V137.3" stroke="#FF8691" stroke-width="0.810051" stroke-miterlimit="10" stroke-linecap="round" stroke-linejoin="round"/>
<path d="M147.148 150.035H138.241C137.789 150.035 137.424 149.669 137.424 149.218V111.766C137.424 111.315 137.789 110.949 138.241 110.949H147.148C147.599 110.949 147.965 111.315 147.965 111.766V149.218C147.965 149.669 147.599 150.035 147.148 150.035Z" fill="url(#paint1_linear)"/>
<path d="M142.694 110.949V100.014" stroke="#78C332" stroke-width="0.810051" stroke-miterlimit="10" stroke-linecap="round" stroke-linejoin="round"/>
<path d="M142.694 154.207V150.035" stroke="#B1DC88" stroke-width="0.810051" stroke-miterlimit="10" stroke-linecap="round" stroke-linejoin="round"/>
<path d="M15.0949 107.655H6.18783C5.73669 107.655 5.37085 107.289 5.37085 106.838V82.1215C5.37085 81.6702 5.73669 81.3044 6.18783 81.3044H15.0949C15.5463 81.3044 15.9121 81.6702 15.9121 82.1215V106.838C15.9121 107.289 15.5463 107.655 15.0949 107.655Z" fill="url(#paint2_linear)"/>
<path d="M10.6415 81.3047V78.011" stroke="#78C332" stroke-width="0.810051" stroke-miterlimit="10" stroke-linecap="round" stroke-linejoin="round"/>
<path d="M10.6415 111.827V107.655" stroke="#B1DC88" stroke-width="0.810051" stroke-miterlimit="10" stroke-linecap="round" stroke-linejoin="round"/>
<path d="M88.4576 155.437H79.5506C79.0992 155.437 78.7334 155.071 78.7334 154.62V137.369C78.7334 136.918 79.0992 136.552 79.5506 136.552H88.4576C88.9088 136.552 89.2746 136.918 89.2746 137.369V154.62C89.2746 155.071 88.9088 155.437 88.4576 155.437Z" fill="url(#paint3_linear)"/>
<path d="M84.0039 136.552V133.259" stroke="#ED654A" stroke-width="0.810051" stroke-miterlimit="10" stroke-linecap="round" stroke-linejoin="round"/>
<path d="M84.0039 165.537V155.437" stroke="#FF8691" stroke-width="0.810051" stroke-miterlimit="10" stroke-linecap="round" stroke-linejoin="round"/>
<path d="M44.4403 66.7895H35.5333C35.0822 66.7895 34.7163 66.4237 34.7163 65.9726V60.7924C34.7163 60.3411 35.0822 59.9753 35.5333 59.9753H44.4403C44.8916 59.9753 45.2575 60.3411 45.2575 60.7924V65.9726C45.2575 66.4237 44.8916 66.7895 44.4403 66.7895Z" fill="url(#paint4_linear)"/>
<path d="M39.9867 59.9756V56.6819" stroke="#78C332" stroke-width="0.810051" stroke-miterlimit="10" stroke-linecap="round" stroke-linejoin="round"/>
<path d="M39.9867 76.8904V66.7896" stroke="#B1DC88" stroke-width="0.810051" stroke-miterlimit="10" stroke-linecap="round" stroke-linejoin="round"/>
<path d="M29.7676 84.0497H20.8604C20.4094 84.0497 20.0435 83.6839 20.0435 83.2326V65.9824C20.0435 65.5311 20.4094 65.1653 20.8604 65.1653H29.7676C30.2189 65.1653 30.5847 65.5311 30.5847 65.9824V83.2326C30.5847 83.6839 30.2189 84.0497 29.7676 84.0497Z" fill="url(#paint5_linear)"/>
<path d="M25.3142 65.1656V61.8718" stroke="#78C332" stroke-width="0.810051" stroke-miterlimit="10" stroke-linecap="round" stroke-linejoin="round"/>
<path d="M25.3142 94.1507V84.0498" stroke="#B1DC88" stroke-width="0.810051" stroke-miterlimit="10" stroke-linecap="round" stroke-linejoin="round"/>
<path d="M0.422408 115.845H-8.48472C-8.93579 115.845 -9.30164 115.479 -9.30164 115.028V105.837C-9.30164 105.385 -8.93579 105.02 -8.48472 105.02H0.422408C0.873743 105.02 1.23959 105.385 1.23959 105.837V115.028C1.23959 115.479 0.873743 115.845 0.422408 115.845Z" fill="url(#paint6_linear)"/>
<path d="M103.947 154.369H93.4064V170.842H103.947V154.369Z" fill="#ED654A"/>
<path d="M98.677 154.369V151.075" stroke="#ED654A" stroke-width="0.810051" stroke-miterlimit="10" stroke-linecap="round" stroke-linejoin="round"/>
<path d="M98.677 175.296V170.842" stroke="#FF8691" stroke-width="0.810051" stroke-miterlimit="10" stroke-linecap="round" stroke-linejoin="round"/>
<path d="M161.82 112.018H152.913C152.462 112.018 152.096 111.653 152.096 111.201V96.3623C152.096 95.911 152.462 95.5452 152.913 95.5452H161.82C162.271 95.5452 162.637 95.911 162.637 96.3623V111.201C162.637 111.653 162.271 112.018 161.82 112.018Z" fill="url(#paint7_linear)"/>
<path d="M157.367 95.5452V92.2515" stroke="#78C332" stroke-width="0.810051" stroke-miterlimit="10" stroke-linecap="round" stroke-linejoin="round"/>
<path d="M157.367 116.472V112.019" stroke="#B1DC88" stroke-width="0.810051" stroke-miterlimit="10" stroke-linecap="round" stroke-linejoin="round"/>
<path d="M176.493 117.097H167.586C167.134 117.097 166.769 116.731 166.769 116.28V96.6035C166.769 96.1522 167.134 95.7864 167.586 95.7864H176.493C176.944 95.7864 177.31 96.1522 177.31 96.6035V116.28C177.31 116.731 176.944 117.097 176.493 117.097Z" fill="url(#paint8_linear)"/>
<path d="M172.039 95.7864V92.4927" stroke="#ED654A" stroke-width="0.810051" stroke-miterlimit="10" stroke-linecap="round" stroke-linejoin="round"/>
<path d="M172.039 120.896V117.097" stroke="#FF8691" stroke-width="0.810051" stroke-miterlimit="10" stroke-linecap="round" stroke-linejoin="round"/>
<path d="M235.183 78.8598H226.276C225.824 78.8598 225.459 78.494 225.459 78.0427V51.206C225.459 50.755 225.824 50.3892 226.276 50.3892H235.183C235.634 50.3892 236 50.755 236 51.206V78.0427C236 78.494 235.634 78.8598 235.183 78.8598Z" fill="url(#paint9_linear)"/>
<path d="M230.729 50.3894V47.0955" stroke="#78C332" stroke-width="0.810051" stroke-miterlimit="10" stroke-linecap="round" stroke-linejoin="round"/>
<path d="M230.729 88.8584V78.8599" stroke="#B1DC88" stroke-width="0.810051" stroke-miterlimit="10" stroke-linecap="round" stroke-linejoin="round"/>
<path d="M191.165 116.097H182.258C181.807 116.097 181.441 115.731 181.441 115.28V108.251C181.441 107.8 181.807 107.434 182.258 107.434H191.165C191.617 107.434 191.982 107.8 191.982 108.251V115.28C191.982 115.731 191.617 116.097 191.165 116.097Z" fill="url(#paint10_linear)"/>
<path d="M186.712 107.434V104.14" stroke="#78C332" stroke-width="0.810051" stroke-miterlimit="10" stroke-linecap="round" stroke-linejoin="round"/>
<path d="M186.712 119.896V116.097" stroke="#B1DC88" stroke-width="0.810051" stroke-miterlimit="10" stroke-linecap="round" stroke-linejoin="round"/>
<path d="M132.476 169.677H123.568C123.117 169.677 122.751 169.311 122.751 168.86V151.609C122.751 151.158 123.117 150.792 123.568 150.792H132.476C132.927 150.792 133.293 151.158 133.293 151.609V168.86C133.293 169.311 132.927 169.677 132.476 169.677Z" fill="url(#paint11_linear)"/>
<path d="M128.022 150.793V147.499" stroke="#78C332" stroke-width="0.810051" stroke-miterlimit="10" stroke-linecap="round" stroke-linejoin="round"/>
<path d="M128.022 173.476V169.677" stroke="#B1DC88" stroke-width="0.810051" stroke-miterlimit="10" stroke-linecap="round" stroke-linejoin="round"/>
<path d="M59.1128 110.521H50.2056C49.7544 110.521 49.3885 110.155 49.3885 109.704V68.0129C49.3885 67.5618 49.7544 67.196 50.2056 67.196H59.1128C59.5639 67.196 59.9297 67.5618 59.9297 68.0129V109.704C59.9297 110.155 59.5639 110.521 59.1128 110.521Z" fill="url(#paint12_linear)"/>
<path d="M54.6592 67.196V63.9023" stroke="#ED654A" stroke-width="0.810051" stroke-miterlimit="10" stroke-linecap="round" stroke-linejoin="round"/>
<path d="M54.6592 114.32V110.521" stroke="#FF8691" stroke-width="0.810051" stroke-miterlimit="10" stroke-linecap="round" stroke-linejoin="round"/>
<path d="M220.51 95.7977H211.603C211.152 95.7977 210.786 95.4319 210.786 94.9807V77.7304C210.786 77.2791 211.152 76.9133 211.603 76.9133H220.51C220.962 76.9133 221.327 77.2791 221.327 77.7304V94.9807C221.327 95.4319 220.962 95.7977 220.51 95.7977Z" fill="url(#paint13_linear)"/>
<path d="M216.057 76.9134V73.6196" stroke="#78C332" stroke-width="0.810051" stroke-miterlimit="10" stroke-linecap="round" stroke-linejoin="round"/>
<path d="M216.057 99.5963V95.7976" stroke="#B1DC88" stroke-width="0.810051" stroke-miterlimit="10" stroke-linecap="round" stroke-linejoin="round"/>
<path d="M117.803 178.499H108.896C108.444 178.499 108.079 178.133 108.079 177.682V168.506C108.079 168.055 108.444 167.689 108.896 167.689H117.803C118.254 167.689 118.62 168.055 118.62 168.506V177.682C118.62 178.133 118.254 178.499 117.803 178.499Z" fill="url(#paint14_linear)"/>
<path d="M113.349 167.689V161.563" stroke="#78C332" stroke-width="0.810051" stroke-miterlimit="10" stroke-linecap="round" stroke-linejoin="round"/>
<path d="M113.349 190.793V178.499" stroke="#B1DC88" stroke-width="0.810051" stroke-miterlimit="10" stroke-linecap="round" stroke-linejoin="round"/>
<path d="M205.838 117.393H196.931C196.479 117.393 196.114 117.028 196.114 116.576V92.8264C196.114 92.3753 196.479 92.0095 196.931 92.0095H205.838C206.289 92.0095 206.655 92.3753 206.655 92.8264V116.576C206.655 117.028 206.289 117.393 205.838 117.393Z" fill="url(#paint15_linear)"/>
<path d="M201.384 92.0096V86.6079" stroke="#78C332" stroke-width="0.810051" stroke-miterlimit="10" stroke-linecap="round" stroke-linejoin="round"/>
<path d="M201.384 134.258V117.394" stroke="#B1DC88" stroke-width="0.810051" stroke-miterlimit="10" stroke-linecap="round" stroke-linejoin="round"/>
<g style="mix-blend-mode:soft-light">
<path d="M-475.895 284.368L46.4086 2" stroke="url(#paint16_linear)" stroke-width="3.27662" stroke-miterlimit="10"/>
</g>
<g style="mix-blend-mode:soft-light">
<path d="M-480 440.859L42.304 158.491" stroke="url(#paint17_linear)" stroke-width="3.27662" stroke-miterlimit="10"/>
</g>
<defs>
<linearGradient id="paint0_linear" x1="69.3316" y1="137.299" x2="69.3316" y2="110.949" gradientUnits="userSpaceOnUse">
<stop stop-color="#FF8893"/>
<stop offset="0.301347" stop-color="#F97167"/>
<stop offset="0.597955" stop-color="#F35E42"/>
<stop offset="0.837271" stop-color="#F0522B"/>
<stop offset="0.989247" stop-color="#EF4E23"/>
</linearGradient>
<linearGradient id="paint1_linear" x1="142.694" y1="110.949" x2="142.694" y2="150.035" gradientUnits="userSpaceOnUse">
<stop offset="0.0107527" stop-color="#7CC538"/>
<stop offset="0.188708" stop-color="#81C740"/>
<stop offset="0.468909" stop-color="#90CE57"/>
<stop offset="0.81432" stop-color="#A8D87B"/>
<stop offset="1" stop-color="#B7DF92"/>
</linearGradient>
<linearGradient id="paint2_linear" x1="10.6415" y1="81.3044" x2="10.6415" y2="107.655" gradientUnits="userSpaceOnUse">
<stop offset="0.0107527" stop-color="#7CC538"/>
<stop offset="0.188708" stop-color="#81C740"/>
<stop offset="0.468909" stop-color="#90CE57"/>
<stop offset="0.81432" stop-color="#A8D87B"/>
<stop offset="1" stop-color="#B7DF92"/>
</linearGradient>
<linearGradient id="paint3_linear" x1="84.004" y1="155.437" x2="84.004" y2="136.552" gradientUnits="userSpaceOnUse">
<stop stop-color="#FF8893"/>
<stop offset="0.301347" stop-color="#F97167"/>
<stop offset="0.597955" stop-color="#F35E42"/>
<stop offset="0.837271" stop-color="#F0522B"/>
<stop offset="0.989247" stop-color="#EF4E23"/>
</linearGradient>
<linearGradient id="paint4_linear" x1="39.9869" y1="59.9753" x2="39.9869" y2="66.7895" gradientUnits="userSpaceOnUse">
<stop offset="0.0107527" stop-color="#7CC538"/>
<stop offset="0.188708" stop-color="#81C740"/>
<stop offset="0.468909" stop-color="#90CE57"/>
<stop offset="0.81432" stop-color="#A8D87B"/>
<stop offset="1" stop-color="#B7DF92"/>
</linearGradient>
<linearGradient id="paint5_linear" x1="25.3141" y1="65.1653" x2="25.3141" y2="84.0497" gradientUnits="userSpaceOnUse">
<stop offset="0.0107527" stop-color="#7CC538"/>
<stop offset="0.188708" stop-color="#81C740"/>
<stop offset="0.468909" stop-color="#90CE57"/>
<stop offset="0.81432" stop-color="#A8D87B"/>
<stop offset="1" stop-color="#B7DF92"/>
</linearGradient>
<linearGradient id="paint6_linear" x1="-4.03102" y1="105.02" x2="-4.03102" y2="115.845" gradientUnits="userSpaceOnUse">
<stop offset="0.0107527" stop-color="#7CC538"/>
<stop offset="0.188708" stop-color="#81C740"/>
<stop offset="0.468909" stop-color="#90CE57"/>
<stop offset="0.81432" stop-color="#A8D87B"/>
<stop offset="1" stop-color="#B7DF92"/>
</linearGradient>
<linearGradient id="paint7_linear" x1="157.367" y1="95.5452" x2="157.367" y2="112.018" gradientUnits="userSpaceOnUse">
<stop offset="0.0107527" stop-color="#7CC538"/>
<stop offset="0.188708" stop-color="#81C740"/>
<stop offset="0.468909" stop-color="#90CE57"/>
<stop offset="0.81432" stop-color="#A8D87B"/>
<stop offset="1" stop-color="#B7DF92"/>
</linearGradient>
<linearGradient id="paint8_linear" x1="172.039" y1="117.097" x2="172.039" y2="95.7864" gradientUnits="userSpaceOnUse">
<stop stop-color="#FF8893"/>
<stop offset="0.301347" stop-color="#F97167"/>
<stop offset="0.597955" stop-color="#F35E42"/>
<stop offset="0.837271" stop-color="#F0522B"/>
<stop offset="0.989247" stop-color="#EF4E23"/>
</linearGradient>
<linearGradient id="paint9_linear" x1="230.729" y1="50.3892" x2="230.729" y2="78.8598" gradientUnits="userSpaceOnUse">
<stop offset="0.0107527" stop-color="#7CC538"/>
<stop offset="0.188708" stop-color="#81C740"/>
<stop offset="0.468909" stop-color="#90CE57"/>
<stop offset="0.81432" stop-color="#A8D87B"/>
<stop offset="1" stop-color="#B7DF92"/>
</linearGradient>
<linearGradient id="paint10_linear" x1="186.712" y1="107.434" x2="186.712" y2="116.097" gradientUnits="userSpaceOnUse">
<stop offset="0.0107527" stop-color="#7CC538"/>
<stop offset="0.188708" stop-color="#81C740"/>
<stop offset="0.468909" stop-color="#90CE57"/>
<stop offset="0.81432" stop-color="#A8D87B"/>
<stop offset="1" stop-color="#B7DF92"/>
</linearGradient>
<linearGradient id="paint11_linear" x1="128.022" y1="150.792" x2="128.022" y2="169.677" gradientUnits="userSpaceOnUse">
<stop offset="0.0107527" stop-color="#7CC538"/>
<stop offset="0.188708" stop-color="#81C740"/>
<stop offset="0.468909" stop-color="#90CE57"/>
<stop offset="0.81432" stop-color="#A8D87B"/>
<stop offset="1" stop-color="#B7DF92"/>
</linearGradient>
<linearGradient id="paint12_linear" x1="54.6591" y1="110.521" x2="54.6591" y2="67.196" gradientUnits="userSpaceOnUse">
<stop stop-color="#FF8893"/>
<stop offset="0.301347" stop-color="#F97167"/>
<stop offset="0.597955" stop-color="#F35E42"/>
<stop offset="0.837271" stop-color="#F0522B"/>
<stop offset="0.989247" stop-color="#EF4E23"/>
</linearGradient>
<linearGradient id="paint13_linear" x1="216.057" y1="76.9133" x2="216.057" y2="95.7977" gradientUnits="userSpaceOnUse">
<stop offset="0.0107527" stop-color="#7CC538"/>
<stop offset="0.188708" stop-color="#81C740"/>
<stop offset="0.468909" stop-color="#90CE57"/>
<stop offset="0.81432" stop-color="#A8D87B"/>
<stop offset="1" stop-color="#B7DF92"/>
</linearGradient>
<linearGradient id="paint14_linear" x1="113.349" y1="167.689" x2="113.349" y2="178.499" gradientUnits="userSpaceOnUse">
<stop offset="0.0107527" stop-color="#7CC538"/>
<stop offset="0.188708" stop-color="#81C740"/>
<stop offset="0.468909" stop-color="#90CE57"/>
<stop offset="0.81432" stop-color="#A8D87B"/>
<stop offset="1" stop-color="#B7DF92"/>
</linearGradient>
<linearGradient id="paint15_linear" x1="201.384" y1="92.0095" x2="201.384" y2="117.393" gradientUnits="userSpaceOnUse">
<stop offset="0.0107527" stop-color="#7CC538"/>
<stop offset="0.188708" stop-color="#81C740"/>
<stop offset="0.468909" stop-color="#90CE57"/>
<stop offset="0.81432" stop-color="#A8D87B"/>
<stop offset="1" stop-color="#B7DF92"/>
</linearGradient>
<linearGradient id="paint16_linear" x1="-476.268" y1="143.184" x2="46.7817" y2="143.184" gradientUnits="userSpaceOnUse">
<stop offset="0.0107527" stop-color="#28A6F0"/>
<stop offset="0.167454" stop-color="#30A9F1"/>
<stop offset="0.414181" stop-color="#47B3F2"/>
<stop offset="0.718149" stop-color="#6BC2F5"/>
<stop offset="1" stop-color="#93D2F7"/>
</linearGradient>
<linearGradient id="paint17_linear" x1="-480.373" y1="299.675" x2="42.6771" y2="299.675" gradientUnits="userSpaceOnUse">
<stop offset="0.0107527" stop-color="#28A6F0"/>
<stop offset="0.167454" stop-color="#30A9F1"/>
<stop offset="0.414181" stop-color="#47B3F2"/>
<stop offset="0.718149" stop-color="#6BC2F5"/>
<stop offset="1" stop-color="#93D2F7"/>
</linearGradient>
</defs>
</svg>
