<svg width="543" height="501" viewBox="0 0 543 501" fill="none" xmlns="http://www.w3.org/2000/svg">
<path d="M44.1117 250.417H34.0352C33.5247 250.417 33.1108 250.004 33.1108 249.493V191.722C33.1108 191.212 33.5247 190.798 34.0352 190.798H44.1117C44.6223 190.798 45.0362 191.212 45.0362 191.722V249.493C45.0362 250.004 44.6223 250.417 44.1117 250.417Z" fill="url(#paint0_linear)"/>
<path d="M39.0734 190.798V181.358" stroke="#78C332" stroke-width="0.916398" stroke-miterlimit="10" stroke-linecap="round" stroke-linejoin="round"/>
<path d="M39.0734 259.857V250.417" stroke="#B1DC88" stroke-width="0.916398" stroke-miterlimit="10" stroke-linecap="round" stroke-linejoin="round"/>
<path d="M60.7105 204.212H50.6341C50.1235 204.212 49.7097 203.798 49.7097 203.288V161.714C49.7097 161.203 50.1235 160.79 50.6341 160.79H60.7105C61.2211 160.79 61.635 161.203 61.635 161.714V203.288C61.635 203.798 61.2211 204.212 60.7105 204.212Z" fill="url(#paint1_linear)"/>
<path d="M55.6723 160.789V143.102" stroke="#78C332" stroke-width="0.916398" stroke-miterlimit="10" stroke-linecap="round" stroke-linejoin="round"/>
<path d="M55.6723 213.652V204.212" stroke="#B1DC88" stroke-width="0.916398" stroke-miterlimit="10" stroke-linecap="round" stroke-linejoin="round"/>
<path d="M193.501 197.182H183.424C182.914 197.182 182.5 196.769 182.5 196.258V154.684C182.5 154.174 182.914 153.76 183.424 153.76H193.501C194.011 153.76 194.425 154.174 194.425 154.684V196.258C194.425 196.769 194.011 197.182 193.501 197.182Z" fill="url(#paint2_linear)"/>
<path d="M188.463 153.76V141.91" stroke="#78C332" stroke-width="0.916398" stroke-miterlimit="10" stroke-linecap="round" stroke-linejoin="round"/>
<path d="M188.463 206.622V197.182" stroke="#B1DC88" stroke-width="0.916398" stroke-miterlimit="10" stroke-linecap="round" stroke-linejoin="round"/>
<path d="M209.369 151.782H199.293C198.782 151.782 198.368 151.368 198.368 150.857V109.283C198.368 108.773 198.782 108.359 199.293 108.359H209.369C209.88 108.359 210.294 108.773 210.294 109.283V150.857C210.294 151.368 209.88 151.782 209.369 151.782Z" fill="url(#paint3_linear)"/>
<path d="M204.331 108.359V96.51" stroke="#78C332" stroke-width="0.916398" stroke-miterlimit="10" stroke-linecap="round" stroke-linejoin="round"/>
<path d="M204.331 161.222V151.782" stroke="#B1DC88" stroke-width="0.916398" stroke-miterlimit="10" stroke-linecap="round" stroke-linejoin="round"/>
<path d="M77.3095 164.267H67.233C66.7224 164.267 66.3085 163.854 66.3085 163.343V159.528C66.3085 159.017 66.7224 158.604 67.233 158.604H77.3095C77.8201 158.604 78.234 159.017 78.234 159.528V163.343C78.234 163.854 77.8201 164.267 77.3095 164.267Z" fill="url(#paint4_linear)"/>
<path d="M72.2712 158.604V140.917" stroke="#78C332" stroke-width="0.916398" stroke-miterlimit="10" stroke-linecap="round" stroke-linejoin="round"/>
<path d="M72.2712 173.707V164.267" stroke="#B1DC88" stroke-width="0.916398" stroke-miterlimit="10" stroke-linecap="round" stroke-linejoin="round"/>
<path d="M93.908 194.325H83.8317C83.321 194.325 82.9072 193.911 82.9072 193.401V165.44C82.9072 164.929 83.321 164.516 83.8317 164.516H93.908C94.4186 164.516 94.8325 164.929 94.8325 165.44V193.401C94.8325 193.911 94.4186 194.325 93.908 194.325Z" fill="url(#paint5_linear)"/>
<path d="M88.8698 164.516V160.789" stroke="#ED654A" stroke-width="0.916398" stroke-miterlimit="10" stroke-linecap="round" stroke-linejoin="round"/>
<path d="M88.8698 199.045V194.325" stroke="#FF8691" stroke-width="0.916398" stroke-miterlimit="10" stroke-linecap="round" stroke-linejoin="round"/>
<path d="M359.489 155.447H349.412C348.902 155.447 348.488 155.033 348.488 154.522V126.561C348.488 126.051 348.902 125.637 349.412 125.637H359.489C359.999 125.637 360.413 126.051 360.413 126.561V154.522C360.413 155.033 359.999 155.447 359.489 155.447Z" fill="url(#paint6_linear)"/>
<path d="M354.451 125.637V121.911" stroke="#ED654A" stroke-width="0.916398" stroke-miterlimit="10" stroke-linecap="round" stroke-linejoin="round"/>
<path d="M354.451 160.167V155.447" stroke="#FF8691" stroke-width="0.916398" stroke-miterlimit="10" stroke-linecap="round" stroke-linejoin="round"/>
<path d="M442.483 169.854H432.406C431.896 169.854 431.482 169.441 431.482 168.93V126.561C431.482 126.051 431.896 125.637 432.406 125.637H442.483C442.993 125.637 443.407 126.051 443.407 126.561V168.93C443.407 169.441 442.993 169.854 442.483 169.854Z" fill="url(#paint7_linear)"/>
<path d="M437.444 125.637V113.266" stroke="#78C332" stroke-width="0.916398" stroke-miterlimit="10" stroke-linecap="round" stroke-linejoin="round"/>
<path d="M437.444 174.574V169.854" stroke="#B1DC88" stroke-width="0.916398" stroke-miterlimit="10" stroke-linecap="round" stroke-linejoin="round"/>
<path d="M293.093 121.91H283.017C282.507 121.91 282.093 121.496 282.093 120.986V93.0247C282.093 92.5142 282.507 92.1003 283.017 92.1003H293.093C293.604 92.1003 294.018 92.5142 294.018 93.0247V120.986C294.018 121.496 293.604 121.91 293.093 121.91Z" fill="url(#paint8_linear)"/>
<path d="M288.055 92.1006V88.3745" stroke="#78C332" stroke-width="0.916398" stroke-miterlimit="10" stroke-linecap="round" stroke-linejoin="round"/>
<path d="M288.055 126.63V121.91" stroke="#B1DC88" stroke-width="0.916398" stroke-miterlimit="10" stroke-linecap="round" stroke-linejoin="round"/>
<path d="M110.507 215.887H100.431C99.92 215.887 99.5062 215.473 99.5062 214.963V195.448C99.5062 194.937 99.92 194.524 100.431 194.524H110.507C111.018 194.524 111.432 194.937 111.432 195.448V214.963C111.432 215.473 111.018 215.887 110.507 215.887Z" fill="url(#paint9_linear)"/>
<path d="M105.469 194.524V190.798" stroke="#ED654A" stroke-width="0.916398" stroke-miterlimit="10" stroke-linecap="round" stroke-linejoin="round"/>
<path d="M105.469 227.314V215.887" stroke="#FF8691" stroke-width="0.916398" stroke-miterlimit="10" stroke-linecap="round" stroke-linejoin="round"/>
<path d="M376.088 175.965H366.011C365.501 175.965 365.087 175.551 365.087 175.041V155.526C365.087 155.015 365.501 154.601 366.011 154.601H376.088C376.598 154.601 377.012 155.015 377.012 155.526V175.041C377.012 175.551 376.598 175.965 376.088 175.965Z" fill="url(#paint10_linear)"/>
<path d="M371.049 154.602V150.875" stroke="#ED654A" stroke-width="0.916398" stroke-miterlimit="10" stroke-linecap="round" stroke-linejoin="round"/>
<path d="M371.049 187.392V175.965" stroke="#FF8691" stroke-width="0.916398" stroke-miterlimit="10" stroke-linecap="round" stroke-linejoin="round"/>
<path d="M326.291 75.6797H316.215C315.705 75.6797 315.291 75.2659 315.291 74.7556V68.8953C315.291 68.3848 315.705 67.9709 316.215 67.9709H326.291C326.802 67.9709 327.216 68.3848 327.216 68.8953V74.7556C327.216 75.2659 326.802 75.6797 326.291 75.6797Z" fill="url(#paint11_linear)"/>
<path d="M321.253 67.9713V64.2451" stroke="#78C332" stroke-width="0.916398" stroke-miterlimit="10" stroke-linecap="round" stroke-linejoin="round"/>
<path d="M321.253 87.1067V75.6797" stroke="#B1DC88" stroke-width="0.916398" stroke-miterlimit="10" stroke-linecap="round" stroke-linejoin="round"/>
<path d="M309.692 95.2061H299.616C299.106 95.2061 298.692 94.7923 298.692 94.2818V74.7669C298.692 74.2564 299.106 73.8425 299.616 73.8425H309.692C310.203 73.8425 310.617 74.2564 310.617 74.7669V94.2818C310.617 94.7923 310.203 95.2061 309.692 95.2061Z" fill="url(#paint12_linear)"/>
<path d="M304.654 73.8428V70.1167" stroke="#78C332" stroke-width="0.916398" stroke-miterlimit="10" stroke-linecap="round" stroke-linejoin="round"/>
<path d="M304.654 106.633V95.2063" stroke="#B1DC88" stroke-width="0.916398" stroke-miterlimit="10" stroke-linecap="round" stroke-linejoin="round"/>
<path d="M276.495 131.176H266.418C265.908 131.176 265.494 130.762 265.494 130.252V119.853C265.494 119.343 265.908 118.929 266.418 118.929H276.495C277.005 118.929 277.419 119.343 277.419 119.853V130.252C277.419 130.762 277.005 131.176 276.495 131.176Z" fill="url(#paint13_linear)"/>
<path d="M271.456 118.929V115.203" stroke="#78C332" stroke-width="0.916398" stroke-miterlimit="10" stroke-linecap="round" stroke-linejoin="round"/>
<path d="M271.456 142.603V131.176" stroke="#B1DC88" stroke-width="0.916398" stroke-miterlimit="10" stroke-linecap="round" stroke-linejoin="round"/>
<path d="M393.611 174.758H381.686V193.394H393.611V174.758Z" fill="#ED654A"/>
<path d="M387.649 174.757V171.031" stroke="#ED654A" stroke-width="0.916398" stroke-miterlimit="10" stroke-linecap="round" stroke-linejoin="round"/>
<path d="M387.649 198.431V193.393" stroke="#FF8691" stroke-width="0.916398" stroke-miterlimit="10" stroke-linecap="round" stroke-linejoin="round"/>
<path d="M459.081 126.847H449.005C448.494 126.847 448.081 126.433 448.081 125.922V109.135C448.081 108.625 448.494 108.211 449.005 108.211H459.081C459.592 108.211 460.006 108.625 460.006 109.135V125.922C460.006 126.433 459.592 126.847 459.081 126.847Z" fill="url(#paint14_linear)"/>
<path d="M454.043 108.21V104.484" stroke="#78C332" stroke-width="0.916398" stroke-miterlimit="10" stroke-linecap="round" stroke-linejoin="round"/>
<path d="M454.043 131.885V126.847" stroke="#B1DC88" stroke-width="0.916398" stroke-miterlimit="10" stroke-linecap="round" stroke-linejoin="round"/>
<path d="M176.902 217.304H166.825C166.315 217.304 165.901 216.89 165.901 216.379V196.865C165.901 196.354 166.315 195.94 166.825 195.94H176.902C177.412 195.94 177.826 196.354 177.826 196.865V216.379C177.826 216.89 177.412 217.304 176.902 217.304Z" fill="url(#paint15_linear)"/>
<path d="M171.864 195.94V192.214" stroke="#78C332" stroke-width="0.916398" stroke-miterlimit="10" stroke-linecap="round" stroke-linejoin="round"/>
<path d="M171.864 221.601V217.304" stroke="#B1DC88" stroke-width="0.916398" stroke-miterlimit="10" stroke-linecap="round" stroke-linejoin="round"/>
<path d="M475.681 132.592H465.604C465.093 132.592 464.68 132.178 464.68 131.668V109.408C464.68 108.897 465.093 108.484 465.604 108.484H475.681C476.191 108.484 476.605 108.897 476.605 109.408V131.668C476.605 132.178 476.191 132.592 475.681 132.592Z" fill="url(#paint16_linear)"/>
<path d="M470.642 108.483V104.757" stroke="#ED654A" stroke-width="0.916398" stroke-miterlimit="10" stroke-linecap="round" stroke-linejoin="round"/>
<path d="M470.642 136.89V132.592" stroke="#FF8691" stroke-width="0.916398" stroke-miterlimit="10" stroke-linecap="round" stroke-linejoin="round"/>
<path d="M259.896 149.434H249.819C249.309 149.434 248.895 149.02 248.895 148.51V128.994C248.895 128.484 249.309 128.07 249.819 128.07H259.896C260.406 128.07 260.82 128.484 260.82 128.994V148.51C260.82 149.02 260.406 149.434 259.896 149.434Z" fill="url(#paint17_linear)"/>
<path d="M254.858 128.071V124.344" stroke="#ED654A" stroke-width="0.916398" stroke-miterlimit="10" stroke-linecap="round" stroke-linejoin="round"/>
<path d="M254.858 153.732V149.434" stroke="#FF8691" stroke-width="0.916398" stroke-miterlimit="10" stroke-linecap="round" stroke-linejoin="round"/>
<path d="M10.9143 315.491H0.837829C0.327204 315.491 -0.0866699 315.077 -0.0866699 314.566V295.052C-0.0866699 294.541 0.327204 294.127 0.837829 294.127H10.9143C11.4248 294.127 11.8385 294.541 11.8385 295.052V314.566C11.8385 315.077 11.4248 315.491 10.9143 315.491Z" fill="url(#paint18_linear)"/>
<path d="M5.87561 294.128V290.401" stroke="#78C332" stroke-width="0.916398" stroke-miterlimit="10" stroke-linecap="round" stroke-linejoin="round"/>
<path d="M5.87561 319.789V315.491" stroke="#B1DC88" stroke-width="0.916398" stroke-miterlimit="10" stroke-linecap="round" stroke-linejoin="round"/>
<path d="M27.5132 294.315H17.4368C16.9263 294.315 16.5124 293.901 16.5124 293.391V254.089C16.5124 253.579 16.9263 253.165 17.4368 253.165H27.5132C28.0238 253.165 28.4374 253.579 28.4374 254.089V293.391C28.4374 293.901 28.0238 294.315 27.5132 294.315Z" fill="url(#paint19_linear)"/>
<path d="M22.4751 253.165V249.439" stroke="#78C332" stroke-width="0.916398" stroke-miterlimit="10" stroke-linecap="round" stroke-linejoin="round"/>
<path d="M22.4751 298.613V294.315" stroke="#B1DC88" stroke-width="0.916398" stroke-miterlimit="10" stroke-linecap="round" stroke-linejoin="round"/>
<path d="M542.076 89.3346H531.999C531.489 89.3346 531.075 88.9208 531.075 88.4103V58.0503C531.075 57.54 531.489 57.1262 531.999 57.1262H542.076C542.586 57.1262 543 57.54 543 58.0503V88.4103C543 88.9208 542.586 89.3346 542.076 89.3346Z" fill="url(#paint20_linear)"/>
<path d="M537.037 57.1265V53.4001" stroke="#78C332" stroke-width="0.916398" stroke-miterlimit="10" stroke-linecap="round" stroke-linejoin="round"/>
<path d="M537.037 100.646V89.3347" stroke="#B1DC88" stroke-width="0.916398" stroke-miterlimit="10" stroke-linecap="round" stroke-linejoin="round"/>
<path d="M492.279 131.46H482.203C481.692 131.46 481.278 131.047 481.278 130.536V122.585C481.278 122.074 481.692 121.661 482.203 121.661H492.279C492.79 121.661 493.203 122.074 493.203 122.585V130.536C493.203 131.047 492.79 131.46 492.279 131.46Z" fill="url(#paint21_linear)"/>
<path d="M487.241 121.66V117.934" stroke="#78C332" stroke-width="0.916398" stroke-miterlimit="10" stroke-linecap="round" stroke-linejoin="round"/>
<path d="M487.241 135.758V131.46" stroke="#B1DC88" stroke-width="0.916398" stroke-miterlimit="10" stroke-linecap="round" stroke-linejoin="round"/>
<path d="M425.884 192.075H415.808C415.297 192.075 414.883 191.661 414.883 191.15V171.635C414.883 171.125 415.297 170.711 415.808 170.711H425.884C426.395 170.711 426.809 171.125 426.809 171.635V191.15C426.809 191.661 426.395 192.075 425.884 192.075Z" fill="url(#paint22_linear)"/>
<path d="M420.846 170.711V166.985" stroke="#78C332" stroke-width="0.916398" stroke-miterlimit="10" stroke-linecap="round" stroke-linejoin="round"/>
<path d="M420.846 196.372V192.074" stroke="#B1DC88" stroke-width="0.916398" stroke-miterlimit="10" stroke-linecap="round" stroke-linejoin="round"/>
<path d="M342.89 125.152H332.813C332.303 125.152 331.889 124.738 331.889 124.228V77.0638C331.889 76.5535 332.303 76.1396 332.813 76.1396H342.89C343.4 76.1396 343.814 76.5535 343.814 77.0638V124.228C343.814 124.738 343.4 125.152 342.89 125.152Z" fill="url(#paint23_linear)"/>
<path d="M337.852 76.1397V72.4136" stroke="#ED654A" stroke-width="0.916398" stroke-miterlimit="10" stroke-linecap="round" stroke-linejoin="round"/>
<path d="M337.852 129.45V125.152" stroke="#FF8691" stroke-width="0.916398" stroke-miterlimit="10" stroke-linecap="round" stroke-linejoin="round"/>
<path d="M243.297 128.866H233.221C232.71 128.866 232.296 128.452 232.296 127.941V108.426C232.296 107.916 232.71 107.502 233.221 107.502H243.297C243.808 107.502 244.221 107.916 244.221 108.426V127.941C244.221 128.452 243.808 128.866 243.297 128.866Z" fill="url(#paint24_linear)"/>
<path d="M238.259 107.502V103.776" stroke="#ED654A" stroke-width="0.916398" stroke-miterlimit="10" stroke-linecap="round" stroke-linejoin="round"/>
<path d="M238.259 133.163V128.866" stroke="#FF8691" stroke-width="0.916398" stroke-miterlimit="10" stroke-linecap="round" stroke-linejoin="round"/>
<path d="M525.477 108.496H515.4C514.89 108.496 514.476 108.082 514.476 107.572V88.0569C514.476 87.5464 514.89 87.1326 515.4 87.1326H525.477C525.987 87.1326 526.401 87.5464 526.401 88.0569V107.572C526.401 108.082 525.987 108.496 525.477 108.496Z" fill="url(#paint25_linear)"/>
<path d="M520.439 87.1327V83.4065" stroke="#78C332" stroke-width="0.916398" stroke-miterlimit="10" stroke-linecap="round" stroke-linejoin="round"/>
<path d="M520.439 112.793V108.496" stroke="#B1DC88" stroke-width="0.916398" stroke-miterlimit="10" stroke-linecap="round" stroke-linejoin="round"/>
<path d="M226.698 107.143H216.622C216.111 107.143 215.698 106.729 215.698 106.218V100.031C215.698 99.52 216.111 99.1062 216.622 99.1062H226.698C227.209 99.1062 227.623 99.52 227.623 100.031V106.218C227.623 106.729 227.209 107.143 226.698 107.143Z" fill="url(#paint26_linear)"/>
<path d="M221.66 99.106V82.8103" stroke="#ED654A" stroke-width="0.916398" stroke-miterlimit="10" stroke-linecap="round" stroke-linejoin="round"/>
<path d="M221.66 111.44V107.142" stroke="#FF8691" stroke-width="0.916398" stroke-miterlimit="10" stroke-linecap="round" stroke-linejoin="round"/>
<path d="M127.106 240.282H117.029C116.519 240.282 116.105 239.868 116.105 239.358V215.123C116.105 214.612 116.519 214.199 117.029 214.199H127.106C127.616 214.199 128.03 214.612 128.03 215.123V239.358C128.03 239.868 127.616 240.282 127.106 240.282Z" fill="url(#paint27_linear)"/>
<path d="M122.068 214.199V200.337" stroke="#ED654A" stroke-width="0.916398" stroke-miterlimit="10" stroke-linecap="round" stroke-linejoin="round"/>
<path d="M122.068 246.989V240.282" stroke="#FF8691" stroke-width="0.916398" stroke-miterlimit="10" stroke-linecap="round" stroke-linejoin="round"/>
<path d="M143.705 259.177H133.628C133.118 259.177 132.704 258.763 132.704 258.252V239.135C132.704 238.625 133.118 238.211 133.628 238.211H143.705C144.215 238.211 144.629 238.625 144.629 239.135V258.252C144.629 258.763 144.215 259.177 143.705 259.177Z" fill="url(#paint28_linear)"/>
<path d="M138.666 238.211V224.35" stroke="#78C332" stroke-width="0.916398" stroke-miterlimit="10" stroke-linecap="round" stroke-linejoin="round"/>
<path d="M138.666 278.255V259.177" stroke="#B1DC88" stroke-width="0.916398" stroke-miterlimit="10" stroke-linecap="round" stroke-linejoin="round"/>
<path d="M409.285 202.055H399.209C398.698 202.055 398.284 201.641 398.284 201.131V190.751C398.284 190.24 398.698 189.826 399.209 189.826H409.285C409.796 189.826 410.21 190.24 410.21 190.751V201.131C410.21 201.641 409.796 202.055 409.285 202.055Z" fill="url(#paint29_linear)"/>
<path d="M404.247 189.826V182.896" stroke="#78C332" stroke-width="0.916398" stroke-miterlimit="10" stroke-linecap="round" stroke-linejoin="round"/>
<path d="M404.247 215.962V202.055" stroke="#B1DC88" stroke-width="0.916398" stroke-miterlimit="10" stroke-linecap="round" stroke-linejoin="round"/>
<path d="M160.303 245.299H150.227C149.717 245.299 149.303 244.885 149.303 244.375V217.507C149.303 216.996 149.717 216.582 150.227 216.582H160.303C160.814 216.582 161.228 216.996 161.228 217.507V244.375C161.228 244.885 160.814 245.299 160.303 245.299Z" fill="url(#paint30_linear)"/>
<path d="M155.266 216.583V210.472" stroke="#78C332" stroke-width="0.916398" stroke-miterlimit="10" stroke-linecap="round" stroke-linejoin="round"/>
<path d="M155.266 264.377V245.299" stroke="#B1DC88" stroke-width="0.916398" stroke-miterlimit="10" stroke-linecap="round" stroke-linejoin="round"/>
<path d="M508.878 132.927H498.802C498.291 132.927 497.877 132.513 497.877 132.003V105.135C497.877 104.624 498.291 104.21 498.802 104.21H508.878C509.389 104.21 509.802 104.624 509.802 105.135V132.003C509.802 132.513 509.389 132.927 508.878 132.927Z" fill="url(#paint31_linear)"/>
<path d="M503.84 104.211V98.0999" stroke="#78C332" stroke-width="0.916398" stroke-miterlimit="10" stroke-linecap="round" stroke-linejoin="round"/>
<path d="M503.84 152.005V132.927" stroke="#B1DC88" stroke-width="0.916398" stroke-miterlimit="10" stroke-linecap="round" stroke-linejoin="round"/>
<g style="mix-blend-mode:soft-light">
<path d="M-262.356 321.823L328.518 2.38428" stroke="url(#paint32_linear)" stroke-width="3.70679" stroke-miterlimit="10"/>
</g>
<g style="mix-blend-mode:soft-light">
<path d="M-267 498.86L323.875 179.421" stroke="url(#paint33_linear)" stroke-width="3.70679" stroke-miterlimit="10"/>
</g>
<defs>
<linearGradient id="paint0_linear" x1="39.0735" y1="190.798" x2="39.0735" y2="250.417" gradientUnits="userSpaceOnUse">
<stop offset="0.0107527" stop-color="#7CC538"/>
<stop offset="0.188708" stop-color="#81C740"/>
<stop offset="0.468909" stop-color="#90CE57"/>
<stop offset="0.81432" stop-color="#A8D87B"/>
<stop offset="1" stop-color="#B7DF92"/>
</linearGradient>
<linearGradient id="paint1_linear" x1="55.6723" y1="160.79" x2="55.6723" y2="204.212" gradientUnits="userSpaceOnUse">
<stop offset="0.0107527" stop-color="#7CC538"/>
<stop offset="0.188708" stop-color="#81C740"/>
<stop offset="0.468909" stop-color="#90CE57"/>
<stop offset="0.81432" stop-color="#A8D87B"/>
<stop offset="1" stop-color="#B7DF92"/>
</linearGradient>
<linearGradient id="paint2_linear" x1="188.463" y1="153.76" x2="188.463" y2="197.182" gradientUnits="userSpaceOnUse">
<stop offset="0.0107527" stop-color="#7CC538"/>
<stop offset="0.188708" stop-color="#81C740"/>
<stop offset="0.468909" stop-color="#90CE57"/>
<stop offset="0.81432" stop-color="#A8D87B"/>
<stop offset="1" stop-color="#B7DF92"/>
</linearGradient>
<linearGradient id="paint3_linear" x1="204.331" y1="108.359" x2="204.331" y2="151.782" gradientUnits="userSpaceOnUse">
<stop offset="0.0107527" stop-color="#7CC538"/>
<stop offset="0.188708" stop-color="#81C740"/>
<stop offset="0.468909" stop-color="#90CE57"/>
<stop offset="0.81432" stop-color="#A8D87B"/>
<stop offset="1" stop-color="#B7DF92"/>
</linearGradient>
<linearGradient id="paint4_linear" x1="72.2713" y1="158.604" x2="72.2713" y2="164.267" gradientUnits="userSpaceOnUse">
<stop offset="0.0107527" stop-color="#7CC538"/>
<stop offset="0.188708" stop-color="#81C740"/>
<stop offset="0.468909" stop-color="#90CE57"/>
<stop offset="0.81432" stop-color="#A8D87B"/>
<stop offset="1" stop-color="#B7DF92"/>
</linearGradient>
<linearGradient id="paint5_linear" x1="88.8698" y1="194.325" x2="88.8698" y2="164.516" gradientUnits="userSpaceOnUse">
<stop stop-color="#FF8893"/>
<stop offset="0.301347" stop-color="#F97167"/>
<stop offset="0.597955" stop-color="#F35E42"/>
<stop offset="0.837271" stop-color="#F0522B"/>
<stop offset="0.989247" stop-color="#EF4E23"/>
</linearGradient>
<linearGradient id="paint6_linear" x1="354.451" y1="155.447" x2="354.451" y2="125.637" gradientUnits="userSpaceOnUse">
<stop stop-color="#FF8893"/>
<stop offset="0.301347" stop-color="#F97167"/>
<stop offset="0.597955" stop-color="#F35E42"/>
<stop offset="0.837271" stop-color="#F0522B"/>
<stop offset="0.989247" stop-color="#EF4E23"/>
</linearGradient>
<linearGradient id="paint7_linear" x1="437.444" y1="125.637" x2="437.444" y2="169.854" gradientUnits="userSpaceOnUse">
<stop offset="0.0107527" stop-color="#7CC538"/>
<stop offset="0.188708" stop-color="#81C740"/>
<stop offset="0.468909" stop-color="#90CE57"/>
<stop offset="0.81432" stop-color="#A8D87B"/>
<stop offset="1" stop-color="#B7DF92"/>
</linearGradient>
<linearGradient id="paint8_linear" x1="288.055" y1="92.1003" x2="288.055" y2="121.91" gradientUnits="userSpaceOnUse">
<stop offset="0.0107527" stop-color="#7CC538"/>
<stop offset="0.188708" stop-color="#81C740"/>
<stop offset="0.468909" stop-color="#90CE57"/>
<stop offset="0.81432" stop-color="#A8D87B"/>
<stop offset="1" stop-color="#B7DF92"/>
</linearGradient>
<linearGradient id="paint9_linear" x1="105.469" y1="215.887" x2="105.469" y2="194.524" gradientUnits="userSpaceOnUse">
<stop stop-color="#FF8893"/>
<stop offset="0.301347" stop-color="#F97167"/>
<stop offset="0.597955" stop-color="#F35E42"/>
<stop offset="0.837271" stop-color="#F0522B"/>
<stop offset="0.989247" stop-color="#EF4E23"/>
</linearGradient>
<linearGradient id="paint10_linear" x1="371.049" y1="175.965" x2="371.049" y2="154.601" gradientUnits="userSpaceOnUse">
<stop stop-color="#FF8893"/>
<stop offset="0.301347" stop-color="#F97167"/>
<stop offset="0.597955" stop-color="#F35E42"/>
<stop offset="0.837271" stop-color="#F0522B"/>
<stop offset="0.989247" stop-color="#EF4E23"/>
</linearGradient>
<linearGradient id="paint11_linear" x1="321.253" y1="67.9709" x2="321.253" y2="75.6797" gradientUnits="userSpaceOnUse">
<stop offset="0.0107527" stop-color="#7CC538"/>
<stop offset="0.188708" stop-color="#81C740"/>
<stop offset="0.468909" stop-color="#90CE57"/>
<stop offset="0.81432" stop-color="#A8D87B"/>
<stop offset="1" stop-color="#B7DF92"/>
</linearGradient>
<linearGradient id="paint12_linear" x1="304.654" y1="73.8425" x2="304.654" y2="95.2061" gradientUnits="userSpaceOnUse">
<stop offset="0.0107527" stop-color="#7CC538"/>
<stop offset="0.188708" stop-color="#81C740"/>
<stop offset="0.468909" stop-color="#90CE57"/>
<stop offset="0.81432" stop-color="#A8D87B"/>
<stop offset="1" stop-color="#B7DF92"/>
</linearGradient>
<linearGradient id="paint13_linear" x1="271.456" y1="118.929" x2="271.456" y2="131.176" gradientUnits="userSpaceOnUse">
<stop offset="0.0107527" stop-color="#7CC538"/>
<stop offset="0.188708" stop-color="#81C740"/>
<stop offset="0.468909" stop-color="#90CE57"/>
<stop offset="0.81432" stop-color="#A8D87B"/>
<stop offset="1" stop-color="#B7DF92"/>
</linearGradient>
<linearGradient id="paint14_linear" x1="454.043" y1="108.211" x2="454.043" y2="126.847" gradientUnits="userSpaceOnUse">
<stop offset="0.0107527" stop-color="#7CC538"/>
<stop offset="0.188708" stop-color="#81C740"/>
<stop offset="0.468909" stop-color="#90CE57"/>
<stop offset="0.81432" stop-color="#A8D87B"/>
<stop offset="1" stop-color="#B7DF92"/>
</linearGradient>
<linearGradient id="paint15_linear" x1="171.864" y1="195.94" x2="171.864" y2="217.304" gradientUnits="userSpaceOnUse">
<stop offset="0.0107527" stop-color="#7CC538"/>
<stop offset="0.188708" stop-color="#81C740"/>
<stop offset="0.468909" stop-color="#90CE57"/>
<stop offset="0.81432" stop-color="#A8D87B"/>
<stop offset="1" stop-color="#B7DF92"/>
</linearGradient>
<linearGradient id="paint16_linear" x1="470.642" y1="132.592" x2="470.642" y2="108.484" gradientUnits="userSpaceOnUse">
<stop stop-color="#FF8893"/>
<stop offset="0.301347" stop-color="#F97167"/>
<stop offset="0.597955" stop-color="#F35E42"/>
<stop offset="0.837271" stop-color="#F0522B"/>
<stop offset="0.989247" stop-color="#EF4E23"/>
</linearGradient>
<linearGradient id="paint17_linear" x1="254.858" y1="149.434" x2="254.858" y2="128.07" gradientUnits="userSpaceOnUse">
<stop stop-color="#FF8893"/>
<stop offset="0.301347" stop-color="#F97167"/>
<stop offset="0.597955" stop-color="#F35E42"/>
<stop offset="0.837271" stop-color="#F0522B"/>
<stop offset="0.989247" stop-color="#EF4E23"/>
</linearGradient>
<linearGradient id="paint18_linear" x1="5.87589" y1="294.127" x2="5.87589" y2="315.491" gradientUnits="userSpaceOnUse">
<stop offset="0.0107527" stop-color="#7CC538"/>
<stop offset="0.188708" stop-color="#81C740"/>
<stop offset="0.468909" stop-color="#90CE57"/>
<stop offset="0.81432" stop-color="#A8D87B"/>
<stop offset="1" stop-color="#B7DF92"/>
</linearGradient>
<linearGradient id="paint19_linear" x1="22.4749" y1="253.165" x2="22.4749" y2="294.315" gradientUnits="userSpaceOnUse">
<stop offset="0.0107527" stop-color="#7CC538"/>
<stop offset="0.188708" stop-color="#81C740"/>
<stop offset="0.468909" stop-color="#90CE57"/>
<stop offset="0.81432" stop-color="#A8D87B"/>
<stop offset="1" stop-color="#B7DF92"/>
</linearGradient>
<linearGradient id="paint20_linear" x1="537.037" y1="57.1262" x2="537.037" y2="89.3346" gradientUnits="userSpaceOnUse">
<stop offset="0.0107527" stop-color="#7CC538"/>
<stop offset="0.188708" stop-color="#81C740"/>
<stop offset="0.468909" stop-color="#90CE57"/>
<stop offset="0.81432" stop-color="#A8D87B"/>
<stop offset="1" stop-color="#B7DF92"/>
</linearGradient>
<linearGradient id="paint21_linear" x1="487.241" y1="121.661" x2="487.241" y2="131.46" gradientUnits="userSpaceOnUse">
<stop offset="0.0107527" stop-color="#7CC538"/>
<stop offset="0.188708" stop-color="#81C740"/>
<stop offset="0.468909" stop-color="#90CE57"/>
<stop offset="0.81432" stop-color="#A8D87B"/>
<stop offset="1" stop-color="#B7DF92"/>
</linearGradient>
<linearGradient id="paint22_linear" x1="420.846" y1="170.711" x2="420.846" y2="192.075" gradientUnits="userSpaceOnUse">
<stop offset="0.0107527" stop-color="#7CC538"/>
<stop offset="0.188708" stop-color="#81C740"/>
<stop offset="0.468909" stop-color="#90CE57"/>
<stop offset="0.81432" stop-color="#A8D87B"/>
<stop offset="1" stop-color="#B7DF92"/>
</linearGradient>
<linearGradient id="paint23_linear" x1="337.852" y1="125.152" x2="337.852" y2="76.1396" gradientUnits="userSpaceOnUse">
<stop stop-color="#FF8893"/>
<stop offset="0.301347" stop-color="#F97167"/>
<stop offset="0.597955" stop-color="#F35E42"/>
<stop offset="0.837271" stop-color="#F0522B"/>
<stop offset="0.989247" stop-color="#EF4E23"/>
</linearGradient>
<linearGradient id="paint24_linear" x1="238.259" y1="128.866" x2="238.259" y2="107.502" gradientUnits="userSpaceOnUse">
<stop stop-color="#FF8893"/>
<stop offset="0.301347" stop-color="#F97167"/>
<stop offset="0.597955" stop-color="#F35E42"/>
<stop offset="0.837271" stop-color="#F0522B"/>
<stop offset="0.989247" stop-color="#EF4E23"/>
</linearGradient>
<linearGradient id="paint25_linear" x1="520.438" y1="87.1326" x2="520.438" y2="108.496" gradientUnits="userSpaceOnUse">
<stop offset="0.0107527" stop-color="#7CC538"/>
<stop offset="0.188708" stop-color="#81C740"/>
<stop offset="0.468909" stop-color="#90CE57"/>
<stop offset="0.81432" stop-color="#A8D87B"/>
<stop offset="1" stop-color="#B7DF92"/>
</linearGradient>
<linearGradient id="paint26_linear" x1="221.66" y1="107.143" x2="221.66" y2="99.1062" gradientUnits="userSpaceOnUse">
<stop stop-color="#FF8893"/>
<stop offset="0.301347" stop-color="#F97167"/>
<stop offset="0.597955" stop-color="#F35E42"/>
<stop offset="0.837271" stop-color="#F0522B"/>
<stop offset="0.989247" stop-color="#EF4E23"/>
</linearGradient>
<linearGradient id="paint27_linear" x1="122.067" y1="240.282" x2="122.067" y2="214.199" gradientUnits="userSpaceOnUse">
<stop stop-color="#FF8893"/>
<stop offset="0.301347" stop-color="#F97167"/>
<stop offset="0.597955" stop-color="#F35E42"/>
<stop offset="0.837271" stop-color="#F0522B"/>
<stop offset="0.989247" stop-color="#EF4E23"/>
</linearGradient>
<linearGradient id="paint28_linear" x1="138.666" y1="238.211" x2="138.666" y2="259.177" gradientUnits="userSpaceOnUse">
<stop offset="0.0107527" stop-color="#7CC538"/>
<stop offset="0.188708" stop-color="#81C740"/>
<stop offset="0.468909" stop-color="#90CE57"/>
<stop offset="0.81432" stop-color="#A8D87B"/>
<stop offset="1" stop-color="#B7DF92"/>
</linearGradient>
<linearGradient id="paint29_linear" x1="404.247" y1="189.826" x2="404.247" y2="202.055" gradientUnits="userSpaceOnUse">
<stop offset="0.0107527" stop-color="#7CC538"/>
<stop offset="0.188708" stop-color="#81C740"/>
<stop offset="0.468909" stop-color="#90CE57"/>
<stop offset="0.81432" stop-color="#A8D87B"/>
<stop offset="1" stop-color="#B7DF92"/>
</linearGradient>
<linearGradient id="paint30_linear" x1="155.265" y1="216.582" x2="155.265" y2="245.299" gradientUnits="userSpaceOnUse">
<stop offset="0.0107527" stop-color="#7CC538"/>
<stop offset="0.188708" stop-color="#81C740"/>
<stop offset="0.468909" stop-color="#90CE57"/>
<stop offset="0.81432" stop-color="#A8D87B"/>
<stop offset="1" stop-color="#B7DF92"/>
</linearGradient>
<linearGradient id="paint31_linear" x1="503.84" y1="104.21" x2="503.84" y2="132.927" gradientUnits="userSpaceOnUse">
<stop offset="0.0107527" stop-color="#7CC538"/>
<stop offset="0.188708" stop-color="#81C740"/>
<stop offset="0.468909" stop-color="#90CE57"/>
<stop offset="0.81432" stop-color="#A8D87B"/>
<stop offset="1" stop-color="#B7DF92"/>
</linearGradient>
<linearGradient id="paint32_linear" x1="-262.778" y1="162.104" x2="328.94" y2="162.104" gradientUnits="userSpaceOnUse">
<stop offset="0.0107527" stop-color="#28A6F0"/>
<stop offset="0.167454" stop-color="#30A9F1"/>
<stop offset="0.414181" stop-color="#47B3F2"/>
<stop offset="0.718149" stop-color="#6BC2F5"/>
<stop offset="1" stop-color="#93D2F7"/>
</linearGradient>
<linearGradient id="paint33_linear" x1="-267.422" y1="339.14" x2="324.297" y2="339.14" gradientUnits="userSpaceOnUse">
<stop offset="0.0107527" stop-color="#28A6F0"/>
<stop offset="0.167454" stop-color="#30A9F1"/>
<stop offset="0.414181" stop-color="#47B3F2"/>
<stop offset="0.718149" stop-color="#6BC2F5"/>
<stop offset="1" stop-color="#93D2F7"/>
</linearGradient>
</defs>
</svg>
