<svg width="217" height="228" viewBox="0 0 217 228" fill="none" xmlns="http://www.w3.org/2000/svg">
<g opacity="0.4">
<path d="M108.297 76.8938C169.799 76.8938 196.939 45.6922 211.176 2.48153C212.152 -0.481271 216.576 -0.217259 216.595 2.90228C216.595 62.7388 169.8 111.934 108.298 111.934C46.7956 111.934 19.6563 143.136 5.41917 186.346C4.44298 189.309 0.0193971 189.045 0 185.926C0 126.089 46.7956 76.8938 108.297 76.8938Z" fill="url(#paint0_linear)"/>
<path d="M50.2911 156.301V228.45C50.2911 228.754 50.5365 229 50.8392 229H73.0896C73.3923 229 73.6377 228.754 73.6377 228.45V154.813C73.6377 154.208 74.469 154.047 74.6941 154.608L104.409 228.655C104.492 228.864 104.694 229 104.917 229H114.371C114.594 229 114.795 228.864 114.879 228.655L144.594 154.608C144.819 154.047 145.65 154.208 145.65 154.813V228.45C145.65 228.754 145.896 229 146.198 229H168.613C168.916 229 169.161 228.754 169.161 228.45V119.538C169.161 119.234 168.916 118.988 168.613 118.988H167.984C156.615 124.944 144.261 129.255 131.226 131.597L110.152 184.188C109.968 184.648 109.32 184.648 109.135 184.188L89.6944 135.671C72.0153 136.308 57.8711 142.927 50.2911 156.301Z" fill="white"/>
</g>
<defs>
<linearGradient id="paint0_linear" x1="217.288" y1="0.40381" x2="-0.0279152" y2="187.384" gradientUnits="userSpaceOnUse">
<stop stop-color="#78C332"/>
<stop offset="1" stop-color="#FF383B"/>
<stop offset="1" stop-color="#EF4E23"/>
</linearGradient>
</defs>
</svg>
