<svg width="663" height="701" viewBox="0 0 663 701" fill="none" xmlns="http://www.w3.org/2000/svg">
<g opacity="0.4">
<path d="M331.651 234.244C519.994 234.244 603.107 138.692 646.707 6.36284C649.696 -2.71048 663.243 -1.90196 663.303 7.65136C663.303 190.895 519.997 341.552 331.652 341.552C143.307 341.552 60.1958 437.104 16.5957 569.433C13.6062 578.506 0.0594018 577.698 0 568.144C0 384.9 143.307 234.244 331.651 234.244Z" fill="url(#paint0_linear)"/>
<path d="M154.012 477.421V698.372C154.012 699.302 154.764 700.055 155.691 700.055H223.831C224.757 700.055 225.509 699.302 225.509 698.372V472.865C225.509 471.013 228.055 470.518 228.744 472.236L319.743 699.001C319.999 699.638 320.615 700.055 321.3 700.055H350.25C350.935 700.055 351.551 699.638 351.807 699.001L442.806 472.236C443.495 470.518 446.041 471.013 446.041 472.865V698.372C446.041 699.302 446.792 700.055 447.719 700.055H516.363C517.29 700.055 518.041 699.302 518.041 698.372V364.837C518.041 363.908 517.29 363.154 516.363 363.154H514.435C479.62 381.394 441.786 394.595 401.869 401.768L337.332 562.823C336.768 564.231 334.782 564.231 334.218 562.823L274.681 414.245C220.54 416.195 177.225 436.463 154.012 477.421Z" fill="white"/>
</g>
<defs>
<linearGradient id="paint0_linear" x1="665.425" y1="5.54295e-06" x2="-0.0855355" y2="572.61" gradientUnits="userSpaceOnUse">
<stop stop-color="#78C332"/>
<stop offset="1" stop-color="#FF383B"/>
<stop offset="1" stop-color="#EF4E23"/>
</linearGradient>
</defs>
</svg>
