<svg width="200" height="34" viewBox="0 0 200 34" fill="none" xmlns="http://www.w3.org/2000/svg">
<path d="M29.1478 26.1102C29.1478 26.2029 29.072 26.2781 28.9786 26.2781H23.5518C23.4584 26.2781 23.3827 26.2029 23.3827 26.1102V8.73364C23.3827 8.54949 23.1272 8.49964 23.057 8.67009L15.8465 26.1738C15.8205 26.2369 15.7586 26.2781 15.6899 26.2781H13.4175C13.3488 26.2781 13.287 26.2369 13.261 26.1738L6.05042 8.67009C5.9802 8.49964 5.72473 8.54949 5.72473 8.73364V26.1102C5.72473 26.2029 5.64901 26.2781 5.5556 26.2781H0.169133C0.0757232 26.2781 0 26.2029 0 26.1102V0.167902C0 0.075173 0.0757235 0 0.169133 0H7.90907C7.97778 0 8.03967 0.0412731 8.06565 0.104427L14.3971 15.4965C14.4544 15.6358 14.653 15.6358 14.7103 15.4965L21.0418 0.104427C21.0678 0.0412735 21.1297 0 21.1984 0H28.9786C29.072 0 29.1478 0.0751719 29.1478 0.167901V26.1102Z" fill="#2E2E2E"/>
<path d="M50.8965 23.8749C49.0151 25.7922 46.5156 26.7509 43.3979 26.7509C40.2802 26.7509 37.7806 25.7922 35.8993 23.8749C34.0448 21.9312 33.1175 19.5543 33.1175 16.7439C33.1175 13.9336 34.0448 11.5697 35.8993 9.65238C37.7806 7.73503 40.2802 6.77636 43.3979 6.77636C46.5156 6.77636 49.0151 7.73503 50.8965 9.65238C52.7778 11.5697 53.7185 13.9336 53.7185 16.7439C53.7185 19.5543 52.7778 21.9312 50.8965 23.8749ZM39.7695 20.7231C40.6564 21.7737 41.8659 22.299 43.3979 22.299C44.9298 22.299 46.1393 21.7737 47.0262 20.7231C47.94 19.6462 48.3969 18.3198 48.3969 16.7439C48.3969 15.1943 47.94 13.8942 47.0262 12.8436C46.1393 11.7667 44.9298 11.2283 43.3979 11.2283C41.8659 11.2283 40.6564 11.7667 39.7695 12.8436C38.8826 13.8942 38.4391 15.1943 38.4391 16.7439C38.4391 18.3198 38.8826 19.6462 39.7695 20.7231Z" fill="#2E2E2E"/>
<path d="M76.0619 26.1102C76.0619 26.2029 75.9861 26.2781 75.8927 26.2781H71.0707C70.9773 26.2781 70.9015 26.2029 70.9015 26.1102V24.3095C70.9015 24.1513 70.6983 24.0786 70.5921 24.1966C69.0579 25.8994 67.1587 26.7509 64.8946 26.7509C62.3682 26.7509 60.2987 25.871 58.6861 24.1112C57.0735 22.3252 56.2672 19.8826 56.2672 16.7833C56.2672 13.7366 57.0735 11.3071 58.6861 9.49479C60.2987 7.6825 62.3682 6.77636 64.8946 6.77636C67.2025 6.77636 69.1006 7.62297 70.589 9.31619C70.6947 9.43646 70.9015 9.36435 70.9015 9.20473V0.167901C70.9015 0.0751719 70.9773 0 71.0707 0H75.8927C75.9861 0 76.0619 0.0751719 76.0619 0.167901V26.1102ZM66.4669 22.299C67.3269 22.299 68.1735 22.102 69.0067 21.708C69.8211 21.2972 70.4429 20.7861 70.8722 20.1745C70.8915 20.147 70.9015 20.1142 70.9015 20.0806V13.4466C70.9015 13.4131 70.8915 13.3802 70.8721 13.3527C70.4429 12.7417 69.8211 12.2437 69.0067 11.8586C68.1735 11.4384 67.3269 11.2283 66.4669 11.2283C65.0155 11.2283 63.833 11.7404 62.9192 12.7648C62.0053 13.7891 61.5484 15.1286 61.5484 16.7833C61.5484 18.4117 62.0053 19.7381 62.9192 20.7625C63.833 21.7868 65.0155 22.299 66.4669 22.299Z" fill="#2E2E2E"/>
<path d="M80.6066 33.76C80.5202 33.7407 80.4651 33.6571 80.4799 33.5704L81.1835 29.4449C81.2019 29.3372 81.3173 29.2754 81.4206 29.313C81.8511 29.4697 82.3216 29.5481 82.8323 29.5481C84.203 29.5481 85.1033 29.0884 85.5334 28.1692L86.2297 26.6192C86.2484 26.5775 86.2492 26.53 86.2319 26.4876L78.4519 7.48024C78.4067 7.36983 78.4885 7.24913 78.6086 7.24913H83.7236C83.7938 7.24913 83.8567 7.29216 83.8816 7.35726L88.7618 20.0748C88.8171 20.219 89.0226 20.219 89.0779 20.0748L93.958 7.35726C93.983 7.29216 94.0459 7.24913 94.1161 7.24913H99.2705C99.3908 7.24913 99.4726 7.37029 99.4269 7.48077L90.3712 29.3905C89.6993 31.0715 88.7586 32.2402 87.5491 32.8969C86.3397 33.5798 84.8211 33.9475 82.9935 34C82.116 34 81.3204 33.92 80.6066 33.76Z" fill="#2E2E2E"/>
<path d="M112.761 26.1102C112.761 26.2029 112.685 26.2781 112.592 26.2781H107.165C107.072 26.2781 106.996 26.2029 106.996 26.1102V5.09258C106.996 4.99985 106.92 4.92468 106.827 4.92468H99.3038C99.2104 4.92468 99.1346 4.84951 99.1346 4.75678V0.167901C99.1346 0.0751718 99.2104 0 99.3038 0H120.413C120.507 0 120.582 0.0751719 120.582 0.167901V4.75678C120.582 4.84951 120.507 4.92468 120.413 4.92468H112.93C112.837 4.92468 112.761 4.99985 112.761 5.09258V26.1102Z" fill="#2E2E2E"/>
<path d="M126.495 26.1102C126.495 26.2029 126.42 26.2781 126.326 26.2781H121.544C121.451 26.2781 121.375 26.2029 121.375 26.1102V7.41703C121.375 7.32431 121.451 7.24913 121.544 7.24913H126.326C126.42 7.24913 126.495 7.3243 126.495 7.41703V9.37381C126.495 9.53218 126.7 9.60557 126.807 9.48861C127.481 8.75635 128.304 8.14118 129.277 7.64311C130.351 7.09348 131.437 6.80525 132.535 6.77843C132.628 6.77614 132.704 6.85153 132.704 6.94426V11.4513C132.704 11.5591 132.603 11.6391 132.496 11.6217C132.175 11.5695 131.774 11.5435 131.293 11.5435C130.433 11.5435 129.519 11.7536 128.551 12.1738C127.606 12.5843 126.93 13.0825 126.524 13.6684C126.505 13.6956 126.495 13.7279 126.495 13.7609V26.1102Z" fill="#2E2E2E"/>
<path d="M152.714 26.1102C152.714 26.2029 152.639 26.2781 152.545 26.2781H147.763C147.67 26.2781 147.594 26.2029 147.594 26.1102V24.7642C147.594 24.6081 147.395 24.5334 147.285 24.6449C145.899 26.0489 143.947 26.7509 141.426 26.7509C139.679 26.7509 138.107 26.1993 136.709 25.0962C135.338 23.9668 134.653 22.4171 134.653 20.4473C134.653 18.3986 135.325 16.8621 136.669 15.8378C138.04 14.8134 139.625 14.3013 141.426 14.3013C143.989 14.3013 145.942 14.9656 147.284 16.2943C147.395 16.4043 147.594 16.329 147.594 16.1733V14.0649C147.594 13.0931 147.205 12.3183 146.425 11.7404C145.646 11.1626 144.611 10.8737 143.321 10.8737C141.264 10.8737 139.422 11.5761 137.794 12.981C137.712 13.0513 137.586 13.0315 137.532 12.9385L135.77 9.89024C135.73 9.82069 135.745 9.73242 135.807 9.68047C138.099 7.7444 140.899 6.77636 144.208 6.77636C146.707 6.77636 148.75 7.34106 150.336 8.47045C151.921 9.59985 152.714 11.4384 152.714 13.9861V26.1102ZM143.482 23.3627C145.364 23.3627 146.724 22.826 147.56 21.7526C147.582 21.7238 147.594 21.6884 147.594 21.652V19.4001C147.594 19.3638 147.582 19.3283 147.56 19.2996C146.724 18.2262 145.364 17.6895 143.482 17.6895C142.434 17.6895 141.56 17.9521 140.862 18.4774C140.163 18.9764 139.813 19.6725 139.813 20.5655C139.813 21.4322 140.163 22.1151 140.862 22.6141C141.56 23.1132 142.434 23.3627 143.482 23.3627Z" fill="#2E2E2E"/>
<path d="M176.338 26.1102C176.338 26.2029 176.262 26.2781 176.168 26.2781H171.346C171.253 26.2781 171.177 26.2029 171.177 26.1102V24.3095C171.177 24.1513 170.974 24.0786 170.868 24.1966C169.334 25.8994 167.434 26.7509 165.17 26.7509C162.644 26.7509 160.574 25.871 158.962 24.1112C157.349 22.3252 156.543 19.8826 156.543 16.7833C156.543 13.7366 157.349 11.3071 158.962 9.49479C160.574 7.6825 162.644 6.77636 165.17 6.77636C167.478 6.77636 169.376 7.62297 170.865 9.31619C170.971 9.43646 171.177 9.36435 171.177 9.20473V0.167901C171.177 0.0751719 171.253 0 171.346 0H176.168C176.262 0 176.338 0.0751719 176.338 0.167901V26.1102ZM166.743 22.299C167.603 22.299 168.449 22.102 169.282 21.708C170.097 21.2972 170.719 20.7861 171.148 20.1745C171.167 20.147 171.177 20.1142 171.177 20.0806V13.4466C171.177 13.4131 171.167 13.3802 171.148 13.3527C170.719 12.7417 170.097 12.2437 169.282 11.8586C168.449 11.4384 167.603 11.2283 166.743 11.2283C165.291 11.2283 164.109 11.7404 163.195 12.7648C162.281 13.7891 161.824 15.1286 161.824 16.7833C161.824 18.4117 162.281 19.7381 163.195 20.7625C164.109 21.7868 165.291 22.299 166.743 22.299Z" fill="#2E2E2E"/>
<path d="M190.566 26.7509C187.556 26.7509 185.07 25.8316 183.108 23.993C181.146 22.1545 180.165 19.7381 180.165 16.7439C180.165 13.9336 181.106 11.5697 182.987 9.65238C184.895 7.73503 187.314 6.77636 190.244 6.77636C193.146 6.77636 195.498 7.74817 197.299 9.69177C199.1 11.6091 200 14.1306 200 17.2561V18.1913C200 18.284 199.924 18.3592 199.831 18.3592H185.719C185.617 18.3592 185.538 18.4481 185.554 18.5479C185.747 19.7251 186.316 20.7128 187.26 21.511C188.255 22.3515 189.545 22.7717 191.131 22.7717C191.991 22.7717 192.918 22.601 193.912 22.2596C194.852 21.9455 195.609 21.5314 196.185 21.0172C196.263 20.9476 196.386 20.9589 196.446 21.0445L198.504 23.9899C198.553 24.0593 198.542 24.1538 198.478 24.2094C196.526 25.9037 193.889 26.7509 190.566 26.7509ZM194.859 14.971C194.957 14.971 195.035 14.888 195.024 14.791C194.91 13.7856 194.472 12.8738 193.711 12.0556C192.931 11.1889 191.776 10.7555 190.244 10.7555C188.792 10.7555 187.664 11.1889 186.857 12.0556C186.097 12.8481 185.635 13.7574 185.473 14.7834C185.457 14.8829 185.536 14.971 185.637 14.971H194.859Z" fill="#2E2E2E"/>
</svg>
