<svg width="320" height="180" viewBox="0 0 320 180" fill="none" xmlns="http://www.w3.org/2000/svg">
<path d="M160 64.6386C180.372 64.6386 197.651 51.5287 203.698 33.373C204.113 32.1281 205.992 32.239 206 33.5498C206 58.6911 185.406 79.3614 160 79.3614C139.628 79.3614 122.349 92.4713 116.302 110.627C115.887 111.872 114.008 111.761 114 110.45C114 85.3089 134.594 64.6386 160 64.6386Z" fill="url(#paint0_linear)"/>
<path d="M135.5 98.2714V128.768C135.5 128.896 135.604 129 135.733 129H145.186C145.314 129 145.418 128.896 145.418 128.768V97.6426C145.418 97.387 145.772 97.3187 145.867 97.5558L158.491 128.854C158.527 128.942 158.612 129 158.707 129H162.723C162.818 129 162.904 128.942 162.939 128.854L175.563 97.5558C175.659 97.3187 176.012 97.387 176.012 97.6426V128.768C176.012 128.896 176.116 129 176.245 129H185.767C185.896 129 186 128.896 186 128.768V82.7324C186 82.604 185.896 82.5 185.767 82.5H185.5C180.67 85.0176 175.422 86.8396 169.884 87.8296L160.931 110.059C160.853 110.253 160.577 110.253 160.499 110.059L152.24 89.5517C145.879 90.9607 140.139 94.0254 135.5 98.2714Z" fill="white"/>
<defs>
<linearGradient id="paint0_linear" x1="206.294" y1="32.5" x2="114.843" y2="112.045" gradientUnits="userSpaceOnUse">
<stop stop-color="#78C332"/>
<stop offset="1" stop-color="#FF383B"/>
<stop offset="1" stop-color="#EF4E23"/>
</linearGradient>
</defs>
</svg>
