<svg width="200" height="60" viewBox="0 0 200 60" fill="none" xmlns="http://www.w3.org/2000/svg">
<path d="M24.7591 17.3746C35.7238 17.3746 45.0239 10.2872 48.2787 0.47195C48.5019 -0.201044 49.5132 -0.141074 49.5176 0.567523C49.5176 14.1593 38.4332 25.3339 24.7592 25.3339C13.7945 25.3339 4.49436 32.4213 1.23952 42.2365C1.01635 42.9095 0.00504483 42.8495 0.000610352 42.1409C0.000610352 28.5492 11.0851 17.3746 24.7591 17.3746Z" fill="url(#paint0_linear)"/>
<path fill-rule="evenodd" clip-rule="evenodd" d="M59.0476 49.7266C57.2873 51.5513 54.9487 52.4636 52.0317 52.4636C49.1147 52.4636 46.776 51.5513 45.0158 49.7266C43.2806 47.877 42.4131 45.6149 42.4131 42.9404C42.4131 40.2659 43.2806 38.0163 45.0158 36.1917C46.776 34.367 49.1147 33.4547 52.0317 33.4547C54.9487 33.4547 57.2873 34.367 59.0476 36.1917C60.8078 38.0163 61.688 40.2659 61.688 42.9404C61.688 45.6149 60.8078 47.877 59.0476 49.7266ZM48.6369 46.7272C49.4667 47.727 50.5983 48.2269 52.0317 48.2269C53.465 48.2269 54.5966 47.727 55.4265 46.7272C56.2814 45.7024 56.7089 44.4401 56.7089 42.9404C56.7089 41.4657 56.2814 40.2284 55.4265 39.2286C54.5966 38.2038 53.465 37.6914 52.0317 37.6914C50.5983 37.6914 49.4667 38.2038 48.6369 39.2286C47.807 40.2284 47.3921 41.4657 47.3921 42.9404C47.3921 44.4401 47.807 45.7024 48.6369 46.7272Z" fill="#2E2E2E"/>
<path fill-rule="evenodd" clip-rule="evenodd" d="M82.4673 52.0137C82.5367 52.0137 82.593 51.9578 82.593 51.8887V27.1308C82.593 27.0618 82.5367 27.0059 82.4673 27.0059H77.8906C77.8212 27.0059 77.7649 27.0618 77.7649 27.1308V35.8621C77.7649 35.9814 77.6105 36.0343 77.5333 35.9429C76.1317 34.2841 74.3355 33.4547 72.1446 33.4547C69.7808 33.4547 67.8445 34.317 66.3357 36.0417C64.827 37.7664 64.0726 40.0784 64.0726 42.9779C64.0726 45.9273 64.827 48.2519 66.3357 49.9516C67.8445 51.6263 69.7808 52.4636 72.1446 52.4636C74.2926 52.4636 76.0895 51.6306 77.5353 49.9644C77.613 49.8748 77.7649 49.9281 77.7649 50.0464V51.8887C77.7649 51.9578 77.8212 52.0137 77.8906 52.0137H82.4673ZM75.992 47.6645C75.2125 48.0395 74.4204 48.2269 73.6157 48.2269C72.2578 48.2269 71.1513 47.7395 70.2963 46.7647C69.4414 45.7899 69.0139 44.5276 69.0139 42.9779C69.0139 41.4032 69.4414 40.1284 70.2963 39.1536C71.1513 38.1788 72.2578 37.6914 73.6157 37.6914C74.4204 37.6914 75.2125 37.8913 75.992 38.2913C76.758 38.6596 77.3418 39.1366 77.7436 39.7221C77.7576 39.7425 77.7649 39.7667 77.7649 39.7913V46.127C77.7649 46.1516 77.7576 46.1758 77.7436 46.1962C77.3418 46.7821 76.758 47.2716 75.992 47.6645Z" fill="#2E2E2E"/>
<path d="M86.8149 59.127C86.7511 59.1122 86.7104 59.0504 86.7212 58.9861L87.3921 54.9849C87.4056 54.9043 87.4921 54.8581 87.5688 54.8876C87.9818 55.0463 88.4347 55.1256 88.9276 55.1256C90.2101 55.1256 91.0525 54.6882 91.4548 53.8134L92.1126 52.3242C92.1262 52.2935 92.1268 52.2586 92.1142 52.2275L84.8097 34.076C84.7766 33.9939 84.8375 33.9046 84.9264 33.9046H89.7835C89.8359 33.9046 89.8828 33.9369 89.9012 33.9857L94.5056 46.1902C94.5464 46.2983 94.7003 46.2983 94.741 46.1902L99.3454 33.9857C99.3638 33.9369 99.4107 33.9046 99.4632 33.9046H104.357C104.446 33.9046 104.507 33.9942 104.474 34.0764L95.9812 54.9757C95.3526 56.5754 94.4724 57.6877 93.3408 58.3125C92.2092 58.9624 90.7885 59.3124 89.0785 59.3624C88.245 59.3624 87.4905 59.2839 86.8149 59.127Z" fill="#2E2E2E"/>
<path d="M116.804 52.0137C116.874 52.0137 116.93 51.9578 116.93 51.8887V31.8175C116.93 31.7484 116.986 31.6925 117.056 31.6925H124.122C124.191 31.6925 124.248 31.6365 124.248 31.5675V27.1308C124.248 27.0618 124.191 27.0059 124.122 27.0059H104.306C104.237 27.0059 104.181 27.0618 104.181 27.1308V31.5675C104.181 31.6365 104.237 31.6925 104.306 31.6925H111.41C111.48 31.6925 111.536 31.7484 111.536 31.8175V51.8887C111.536 51.9578 111.592 52.0137 111.662 52.0137H116.804Z" fill="#2E2E2E"/>
<path d="M132.359 51.8887C132.359 51.9578 132.302 52.0137 132.233 52.0137H127.694C127.624 52.0137 127.568 51.9578 127.568 51.8887V34.0296C127.568 33.9605 127.624 33.9046 127.694 33.9046H132.233C132.302 33.9046 132.359 33.9605 132.359 34.0296V36.0208C132.359 36.1391 132.511 36.193 132.59 36.104C133.231 35.3771 134.021 34.7689 134.961 34.2795C135.976 33.7509 137.003 33.4764 138.042 33.4559C138.111 33.4545 138.167 33.5106 138.167 33.5796V37.9467C138.167 38.0271 138.092 38.0866 138.013 38.0726C137.706 38.0184 137.317 37.9913 136.847 37.9913C136.043 37.9913 135.188 38.1913 134.282 38.5912C133.393 38.9839 132.759 39.461 132.379 40.0225C132.366 40.0426 132.359 40.0663 132.359 40.0906V51.8887Z" fill="#2E2E2E"/>
<path fill-rule="evenodd" clip-rule="evenodd" d="M155.632 52.0137C155.702 52.0137 155.758 51.9578 155.758 51.8887V40.3159C155.758 37.8913 155.016 36.1417 153.533 35.0669C152.049 33.9921 150.138 33.4547 147.799 33.4547C144.693 33.4547 142.066 34.3822 139.917 36.2373C139.872 36.276 139.861 36.3409 139.89 36.3922L141.573 39.3539C141.613 39.424 141.708 39.4388 141.769 39.3853C143.299 38.031 145.033 37.3539 146.969 37.3539C148.176 37.3539 149.145 37.6289 149.874 38.1788C150.603 38.7287 150.968 39.466 150.968 40.3909V42.4871C150.968 42.6035 150.819 42.6588 150.738 42.5747C149.481 41.2688 147.634 40.6158 145.197 40.6158C143.512 40.6158 142.028 41.1032 140.746 42.0781C139.488 43.0529 138.86 44.5151 138.86 46.4647C138.86 48.3394 139.501 49.8141 140.783 50.8889C142.091 51.9387 143.562 52.4636 145.197 52.4636C147.592 52.4636 149.439 51.7745 150.738 50.3961C150.819 50.311 150.968 50.3659 150.968 50.4826V51.8887C150.968 51.9578 151.024 52.0137 151.093 52.0137H155.632ZM150.943 47.6975C150.161 48.7253 148.887 49.2392 147.12 49.2392C146.14 49.2392 145.322 49.0018 144.668 48.5269C144.015 48.052 143.688 47.4021 143.688 46.5772C143.688 45.7274 144.015 45.065 144.668 44.5901C145.322 44.0902 146.14 43.8402 147.12 43.8402C148.887 43.8402 150.161 44.3541 150.943 45.3819C150.959 45.4032 150.968 45.4294 150.968 45.4561V47.6234C150.968 47.6501 150.959 47.6762 150.943 47.6975Z" fill="#2E2E2E"/>
<path fill-rule="evenodd" clip-rule="evenodd" d="M177.861 51.8887C177.861 51.9578 177.805 52.0137 177.735 52.0137H173.158C173.089 52.0137 173.033 51.9578 173.033 51.8887V50.0464C173.033 49.9281 172.881 49.8748 172.803 49.9644C171.357 51.6306 169.56 52.4636 167.412 52.4636C165.049 52.4636 163.112 51.6263 161.604 49.9516C160.095 48.2519 159.34 45.9273 159.34 42.9779C159.34 40.0784 160.095 37.7664 161.604 36.0417C163.112 34.317 165.049 33.4547 167.412 33.4547C169.603 33.4547 171.4 34.2841 172.801 35.9429C172.878 36.0343 173.033 35.9814 173.033 35.8621V27.1308C173.033 27.0618 173.089 27.0059 173.158 27.0059H177.735C177.805 27.0059 177.861 27.0618 177.861 27.1308V51.8887ZM168.883 48.2269C169.688 48.2269 170.48 48.0395 171.26 47.6645C172.026 47.2716 172.61 46.7821 173.011 46.1962C173.025 46.1758 173.033 46.1516 173.033 46.127V39.7913C173.033 39.7667 173.025 39.7425 173.011 39.7221C172.61 39.1366 172.026 38.6596 171.26 38.2913C170.48 37.8913 169.688 37.6914 168.883 37.6914C167.526 37.6914 166.419 38.1788 165.564 39.1536C164.709 40.1284 164.282 41.4032 164.282 42.9779C164.282 44.5276 164.709 45.7899 165.564 46.7647C166.419 47.7395 167.526 48.2269 168.883 48.2269Z" fill="#2E2E2E"/>
<path fill-rule="evenodd" clip-rule="evenodd" d="M184.195 49.8391C186.031 51.5888 188.357 52.4636 191.174 52.4636C194.296 52.4636 196.771 51.6505 198.599 50.0243C198.646 49.9829 198.654 49.9135 198.618 49.8622L196.653 47.0016C196.609 46.937 196.516 46.9285 196.458 46.9818C195.917 47.4828 195.199 47.8854 194.304 48.1894C193.374 48.5144 192.506 48.6768 191.702 48.6768C190.218 48.6768 189.011 48.2769 188.081 47.4771C187.187 46.7086 186.653 45.7555 186.478 44.6179C186.467 44.5436 186.525 44.4776 186.601 44.4776H199.874C199.944 44.4776 200 44.4217 200 44.3526V43.4278C200 40.4534 199.158 38.0538 197.473 36.2291C195.788 34.3795 193.588 33.4547 190.872 33.4547C188.131 33.4547 185.868 34.367 184.082 36.1917C182.322 38.0163 181.442 40.2659 181.442 42.9404C181.442 45.7899 182.36 48.0894 184.195 49.8391ZM195.349 41.1192C195.356 41.1915 195.298 41.2532 195.225 41.2532H186.525C186.449 41.2532 186.391 41.1877 186.402 41.1137C186.549 40.1213 186.983 39.2429 187.703 38.4787C188.458 37.6539 189.514 37.2415 190.872 37.2415C192.305 37.2415 193.386 37.6539 194.116 38.4787C194.837 39.2675 195.248 40.1476 195.349 41.1192Z" fill="#2E2E2E"/>
<path d="M11.4274 35.4878V51.8887C11.4274 51.9578 11.4837 52.0137 11.5531 52.0137H16.6579C16.7273 52.0137 16.7836 51.9578 16.7836 51.8887V35.1496C16.7836 35.0121 16.9743 34.9754 17.026 35.1029L23.8432 51.9354C23.8624 51.9827 23.9085 52.0137 23.9599 52.0137H26.1286C26.18 52.0137 26.2261 51.9827 26.2453 51.9354L33.0625 35.1029C33.1142 34.9754 33.3049 35.0121 33.3049 35.1496V51.8887C33.3049 51.9578 33.3612 52.0137 33.4306 52.0137H38.5731C38.6426 52.0137 38.6988 51.9578 38.6988 51.8887V27.1308C38.6988 27.0618 38.6426 27.0059 38.5731 27.0059H38.4287C35.8205 28.3598 32.9862 29.3397 29.9957 29.8721L25.1609 41.8271C25.1187 41.9316 24.9698 41.9316 24.9276 41.8271L20.4674 30.7983C17.0325 31.5561 13.9327 33.2043 11.4274 35.4878Z" fill="#2E2E2E"/>
<defs>
<linearGradient id="paint0_linear" x1="49.676" y1="4.11137e-07" x2="0.26673" y2="42.7868" gradientUnits="userSpaceOnUse">
<stop stop-color="#78C332"/>
<stop offset="1" stop-color="#FF383B"/>
<stop offset="1" stop-color="#EF4E23"/>
</linearGradient>
</defs>
</svg>
