<svg width="201" height="60" viewBox="0 0 201 60" fill="none" xmlns="http://www.w3.org/2000/svg">
<path d="M24.8211 17.3918C35.8132 17.3918 45.1365 10.2974 48.3995 0.472419C48.6232 -0.201244 49.6371 -0.141215 49.6415 0.568088C49.6415 14.1733 38.5293 25.3591 24.8212 25.3591C13.8291 25.3591 4.50571 32.4535 1.24274 42.2785C1.01901 42.9521 0.00517798 42.8921 0.000732422 42.1828C0.000732422 28.5775 11.1129 17.3918 24.8211 17.3918Z" fill="white"/>
<path fill-rule="evenodd" clip-rule="evenodd" d="M59.1952 49.7763C57.4305 51.6028 55.0861 52.516 52.1618 52.516C49.2375 52.516 46.893 51.6028 45.1283 49.7763C43.3889 47.9248 42.5192 45.6605 42.5192 42.9833C42.5192 40.3062 43.3889 38.0544 45.1283 36.2279C46.893 34.4014 49.2375 33.4882 52.1618 33.4882C55.0861 33.4882 57.4305 34.4014 59.1952 36.2279C60.9599 38.0544 61.8422 40.3062 61.8422 42.9833C61.8422 45.6605 60.9599 47.9248 59.1952 49.7763ZM48.7585 46.7739C49.5904 47.7747 50.7248 48.2751 52.1618 48.2751C53.5987 48.2751 54.7331 47.7747 55.5651 46.7739C56.4222 45.7481 56.8507 44.4846 56.8507 42.9833C56.8507 41.5072 56.4222 40.2687 55.5651 39.2678C54.7331 38.242 53.5987 37.7291 52.1618 37.7291C50.7248 37.7291 49.5904 38.242 48.7585 39.2678C47.9266 40.2687 47.5106 41.5072 47.5106 42.9833C47.5106 44.4846 47.9266 45.7481 48.7585 46.7739Z" fill="white"/>
<path fill-rule="evenodd" clip-rule="evenodd" d="M82.6735 52.0657C82.7431 52.0657 82.7995 52.0097 82.7995 51.9406V27.1581C82.7995 27.089 82.7431 27.033 82.6735 27.033H78.0854C78.0157 27.033 77.9593 27.089 77.9593 27.1581V35.898C77.9593 36.0174 77.8045 36.0703 77.7272 35.9789C76.3221 34.3184 74.5214 33.4882 72.325 33.4882C69.9553 33.4882 68.0142 34.3514 66.5016 36.0778C64.9891 37.8042 64.2328 40.1185 64.2328 43.0209C64.2328 45.9733 64.9891 48.3001 66.5016 50.0015C68.0142 51.6779 69.9553 52.516 72.325 52.516C74.4784 52.516 76.2798 51.6821 77.7292 50.0143C77.8071 49.9247 77.9593 49.978 77.9593 50.0964V51.9406C77.9593 52.0097 78.0157 52.0657 78.0854 52.0657H82.6735ZM76.182 47.7122C75.4006 48.0875 74.6065 48.2751 73.7998 48.2751C72.4384 48.2751 71.3292 47.7872 70.4721 46.8114C69.615 45.8356 69.1864 44.5721 69.1864 43.0209C69.1864 41.4446 69.615 40.1686 70.4721 39.1928C71.3292 38.217 72.4384 37.7291 73.7998 37.7291C74.6065 37.7291 75.4006 37.9293 76.182 38.3296C76.9499 38.6983 77.5352 39.1758 77.938 39.7619C77.952 39.7823 77.9593 39.8064 77.9593 39.8311V46.1731C77.9593 46.1978 77.952 46.2219 77.938 46.2423C77.5352 46.8289 76.9499 47.3188 76.182 47.7122Z" fill="white"/>
<path d="M87.032 59.186C86.968 59.1712 86.9272 59.1093 86.938 59.045L87.6106 55.0398C87.6242 54.9591 87.7108 54.9129 87.7877 54.9424C88.2018 55.1013 88.6558 55.1807 89.1499 55.1807C90.4356 55.1807 91.2801 54.7428 91.6835 53.8671L92.3429 52.3764C92.3565 52.3457 92.3571 52.3108 92.3445 52.2797L85.0217 34.1101C84.9886 34.0279 85.0496 33.9385 85.1387 33.9385H90.0079C90.0605 33.9385 90.1075 33.9709 90.126 34.0197L94.7419 46.2364C94.7827 46.3446 94.937 46.3446 94.9779 46.2364L99.5938 34.0197C99.6123 33.9709 99.6593 33.9385 99.7118 33.9385H104.618C104.708 33.9385 104.769 34.0283 104.735 34.1105L96.2212 55.0306C95.591 56.6319 94.7086 57.7453 93.5742 58.3708C92.4398 59.0213 91.0154 59.3716 89.3012 59.4216C88.4657 59.4216 87.7093 59.3431 87.032 59.186Z" fill="white"/>
<path d="M117.096 52.0657C117.166 52.0657 117.222 52.0097 117.222 51.9406V31.8493C117.222 31.7803 117.279 31.7242 117.348 31.7242H124.432C124.502 31.7242 124.558 31.6682 124.558 31.5991V27.1581C124.558 27.089 124.502 27.033 124.432 27.033H104.567C104.497 27.033 104.441 27.089 104.441 27.1581V31.5991C104.441 31.6682 104.497 31.7242 104.567 31.7242H111.689C111.758 31.7242 111.815 31.7803 111.815 31.8493V51.9406C111.815 52.0097 111.871 52.0657 111.941 52.0657H117.096Z" fill="white"/>
<path d="M132.689 51.9406C132.689 52.0097 132.633 52.0657 132.563 52.0657H128.013C127.943 52.0657 127.887 52.0097 127.887 51.9406V34.0636C127.887 33.9945 127.943 33.9385 128.013 33.9385H132.563C132.633 33.9385 132.689 33.9945 132.689 34.0636V36.0568C132.689 36.1753 132.842 36.2293 132.921 36.1402C133.564 35.4125 134.356 34.8037 135.299 34.3138C136.316 33.7847 137.346 33.5099 138.387 33.4894C138.456 33.488 138.513 33.5442 138.513 33.6133V37.9847C138.513 38.0651 138.437 38.1247 138.358 38.1107C138.05 38.0565 137.661 38.0293 137.189 38.0293C136.383 38.0293 135.525 38.2295 134.618 38.6298C133.727 39.023 133.091 39.5005 132.71 40.0625C132.696 40.0827 132.689 40.1064 132.689 40.1307V51.9406Z" fill="white"/>
<path fill-rule="evenodd" clip-rule="evenodd" d="M156.021 52.0657C156.091 52.0657 156.147 52.0097 156.147 51.9406V40.3562C156.147 37.9293 155.404 36.1778 153.916 35.102C152.429 34.0261 150.513 33.4882 148.169 33.4882C145.055 33.4882 142.421 34.4167 140.267 36.2736C140.222 36.3123 140.211 36.3772 140.24 36.4287L141.927 39.3933C141.967 39.4634 142.062 39.4783 142.123 39.4247C143.657 38.0691 145.395 37.3913 147.337 37.3913C148.547 37.3913 149.517 37.6665 150.248 38.217C150.98 38.7674 151.345 39.5055 151.345 40.4313V42.5296C151.345 42.6461 151.196 42.7014 151.115 42.6173C149.855 41.3101 148.003 40.6565 145.56 40.6565C143.87 40.6565 142.383 41.1444 141.097 42.1201C139.837 43.0959 139.207 44.5596 139.207 46.5112C139.207 48.3877 139.85 49.8639 141.135 50.9398C142.446 51.9906 143.921 52.516 145.56 52.516C147.961 52.516 149.813 51.8262 151.115 50.4465C151.196 50.3613 151.345 50.4162 151.345 50.533V51.9406C151.345 52.0097 151.402 52.0657 151.471 52.0657H156.021ZM151.32 47.7452C150.536 48.774 149.259 49.2884 147.488 49.2884C146.505 49.2884 145.686 49.0507 145.03 48.5754C144.375 48.1 144.047 47.4495 144.047 46.6238C144.047 45.7731 144.375 45.1101 145.03 44.6347C145.686 44.1343 146.505 43.8841 147.488 43.8841C149.259 43.8841 150.536 44.3985 151.32 45.4273C151.336 45.4486 151.345 45.4748 151.345 45.5015V47.671C151.345 47.6977 151.336 47.7239 151.32 47.7452Z" fill="white"/>
<path fill-rule="evenodd" clip-rule="evenodd" d="M178.305 51.9406C178.305 52.0097 178.249 52.0657 178.179 52.0657H173.591C173.522 52.0657 173.465 52.0097 173.465 51.9406V50.0964C173.465 49.978 173.313 49.9247 173.235 50.0143C171.786 51.6821 169.984 52.516 167.831 52.516C165.461 52.516 163.52 51.6779 162.007 50.0015C160.495 48.3001 159.739 45.9733 159.739 43.0209C159.739 40.1185 160.495 37.8042 162.007 36.0778C163.52 34.3514 165.461 33.4882 167.831 33.4882C170.027 33.4882 171.828 34.3184 173.233 35.9789C173.31 36.0703 173.465 36.0174 173.465 35.898V27.1581C173.465 27.089 173.522 27.033 173.591 27.033H178.179C178.249 27.033 178.305 27.089 178.305 27.1581V51.9406ZM169.306 48.2751C170.112 48.2751 170.906 48.0875 171.688 47.7122C172.456 47.3188 173.041 46.8289 173.444 46.2423C173.458 46.2219 173.465 46.1978 173.465 46.1731V39.8311C173.465 39.8064 173.458 39.7823 173.444 39.7619C173.041 39.1758 172.456 38.6983 171.688 38.3296C170.906 37.9293 170.112 37.7291 169.306 37.7291C167.944 37.7291 166.835 38.217 165.978 39.1928C165.121 40.1686 164.692 41.4446 164.692 43.0209C164.692 44.5721 165.121 45.8356 165.978 46.8114C166.835 47.7872 167.944 48.2751 169.306 48.2751Z" fill="white"/>
<path fill-rule="evenodd" clip-rule="evenodd" d="M184.656 49.8889C186.496 51.6403 188.828 52.516 191.651 52.516C194.782 52.516 197.263 51.7021 199.096 50.0743C199.142 50.0328 199.15 49.9634 199.115 49.912L197.145 47.0486C197.1 46.9839 197.007 46.9754 196.949 47.0287C196.406 47.5303 195.686 47.9332 194.79 48.2376C193.857 48.5629 192.988 48.7255 192.181 48.7255C190.693 48.7255 189.483 48.3252 188.551 47.5245C187.655 46.7553 187.119 45.8013 186.944 44.6625C186.933 44.5881 186.992 44.5221 187.067 44.5221H200.374C200.444 44.5221 200.5 44.4661 200.5 44.397V43.4712C200.5 40.4938 199.655 38.0919 197.966 36.2654C196.277 34.4139 194.072 33.4882 191.349 33.4882C188.601 33.4882 186.332 34.4014 184.542 36.2279C182.778 38.0544 181.895 40.3062 181.895 42.9833C181.895 45.8356 182.816 48.1375 184.656 49.8889ZM195.837 41.1604C195.844 41.2327 195.786 41.2945 195.713 41.2945H186.991C186.915 41.2945 186.857 41.2289 186.868 41.1548C187.015 40.1614 187.45 39.2822 188.173 38.5172C188.929 37.6916 189.988 37.2787 191.349 37.2787C192.786 37.2787 193.87 37.6916 194.601 38.5172C195.324 39.3068 195.736 40.1878 195.837 41.1604Z" fill="white"/>
<path d="M11.4561 35.5233V51.9406C11.4561 52.0097 11.5125 52.0657 11.5821 52.0657H16.6996C16.7692 52.0657 16.8257 52.0097 16.8257 51.9406V35.1848C16.8257 35.0472 17.0169 35.0104 17.0686 35.1381L23.9029 51.9873C23.9221 52.0347 23.9684 52.0657 24.0199 52.0657H26.1941C26.2455 52.0657 26.2918 52.0347 26.311 51.9873L33.1453 35.1381C33.1971 35.0104 33.3883 35.0472 33.3883 35.1848V51.9406C33.3883 52.0097 33.4447 52.0657 33.5143 52.0657H38.6696C38.7393 52.0657 38.7957 52.0097 38.7957 51.9406V27.1581C38.7957 27.089 38.7393 27.033 38.6696 27.033H38.5249C35.9101 28.3883 33.0687 29.3692 30.0708 29.9021L25.2239 41.8689C25.1816 41.9735 25.0324 41.9735 24.99 41.8689L20.5186 30.8292C17.0752 31.5877 13.9676 33.2375 11.4561 35.5233Z" fill="white"/>
</svg>
