<svg width="823" height="244" viewBox="0 0 823 244" fill="none" xmlns="http://www.w3.org/2000/svg">
<path d="M101.882 71.2094C147.002 71.2094 185.272 42.1973 198.665 2.01884C199.584 -0.736057 203.745 -0.490572 203.763 2.41006C203.763 58.0477 158.151 103.791 101.882 103.791C56.7626 103.791 18.4927 132.803 5.09908 172.981C4.18072 175.736 0.0192244 175.491 0.000976562 172.59C0.000976562 116.953 45.6135 71.2094 101.882 71.2094Z" fill="url(#paint0_linear)"/>
<path fill-rule="evenodd" clip-rule="evenodd" d="M242.981 203.643C235.738 211.113 226.114 214.847 214.111 214.847C202.107 214.847 192.484 211.113 185.24 203.643C178.1 196.072 174.53 186.812 174.53 175.864C174.53 164.916 178.1 155.707 185.24 148.238C192.484 140.769 202.107 137.034 214.111 137.034C226.114 137.034 235.738 140.769 242.981 148.238C250.225 155.707 253.846 164.916 253.846 175.864C253.846 186.812 250.225 196.072 242.981 203.643ZM200.141 191.365C203.556 195.458 208.212 197.504 214.111 197.504C220.009 197.504 224.665 195.458 228.08 191.365C231.599 187.17 233.358 182.003 233.358 175.864C233.358 169.827 231.599 164.763 228.08 160.67C224.665 156.475 220.009 154.377 214.111 154.377C208.212 154.377 203.556 156.475 200.141 160.67C196.726 164.763 195.019 169.827 195.019 175.864C195.019 182.003 196.726 187.17 200.141 191.365Z" fill="white"/>
<path fill-rule="evenodd" clip-rule="evenodd" d="M339.353 213.006C339.639 213.006 339.871 212.777 339.871 212.494V111.148C339.871 110.865 339.639 110.636 339.353 110.636H320.52C320.234 110.636 320.003 110.865 320.003 111.148V146.889C320.003 147.377 319.368 147.594 319.05 147.22C313.282 140.43 305.891 137.034 296.875 137.034C287.148 137.034 279.181 140.564 272.972 147.624C266.763 154.684 263.659 164.149 263.659 176.018C263.659 188.091 266.763 197.607 272.972 204.564C279.181 211.42 287.148 214.847 296.875 214.847C305.715 214.847 313.109 211.437 319.058 204.617C319.378 204.25 320.003 204.468 320.003 204.952V212.494C320.003 212.777 320.234 213.006 320.52 213.006H339.353ZM312.708 195.202C309.5 196.737 306.24 197.504 302.929 197.504C297.341 197.504 292.788 195.509 289.27 191.519C285.752 187.528 283.992 182.361 283.992 176.018C283.992 169.572 285.752 164.353 289.27 160.363C292.788 156.372 297.341 154.377 302.929 154.377C306.24 154.377 309.5 155.196 312.708 156.833C315.859 158.341 318.262 160.293 319.915 162.69C319.973 162.774 320.003 162.872 320.003 162.973V188.908C320.003 189.009 319.973 189.108 319.915 189.192C318.262 191.59 315.859 193.594 312.708 195.202Z" fill="white"/>
<path d="M357.244 242.124C356.981 242.063 356.814 241.81 356.858 241.547L359.619 225.168C359.675 224.838 360.03 224.649 360.346 224.77C362.045 225.419 363.909 225.744 365.937 225.744C371.215 225.744 374.681 223.954 376.337 220.373L379.044 214.276C379.099 214.151 379.102 214.008 379.05 213.881L348.992 139.578C348.856 139.242 349.106 138.876 349.473 138.876H369.459C369.675 138.876 369.868 139.008 369.944 139.208L388.891 189.167C389.059 189.61 389.692 189.61 389.86 189.167L408.807 139.208C408.882 139.008 409.075 138.876 409.291 138.876H429.43C429.797 138.876 430.048 139.243 429.91 139.579L394.963 225.13C392.376 231.679 388.754 236.232 384.098 238.79C379.441 241.45 373.595 242.883 366.558 243.087C363.129 243.087 360.024 242.766 357.244 242.124Z" fill="white"/>
<path d="M480.649 213.006C480.935 213.006 481.167 212.777 481.167 212.494V130.332C481.167 130.05 481.398 129.821 481.684 129.821H510.762C511.047 129.821 511.279 129.592 511.279 129.309V111.148C511.279 110.865 511.047 110.636 510.762 110.636H429.221C428.935 110.636 428.703 110.865 428.703 111.148V129.309C428.703 129.592 428.935 129.821 429.221 129.821H458.453C458.739 129.821 458.971 130.05 458.971 130.332V212.494C458.971 212.777 459.202 213.006 459.488 213.006H480.649Z" fill="white"/>
<path d="M544.656 212.494C544.656 212.777 544.424 213.006 544.138 213.006H525.46C525.175 213.006 524.943 212.777 524.943 212.494V139.388C524.943 139.105 525.175 138.876 525.46 138.876H544.138C544.424 138.876 544.656 139.105 544.656 139.388V147.539C544.656 148.023 545.283 148.244 545.606 147.88C548.245 144.904 551.498 142.414 555.366 140.411C559.543 138.247 563.769 137.123 568.042 137.039C568.327 137.034 568.559 137.263 568.559 137.546V155.422C568.559 155.751 568.25 155.995 567.922 155.938C566.66 155.716 565.061 155.605 563.126 155.605C559.815 155.605 556.297 156.424 552.572 158.061C548.913 159.668 546.303 161.621 544.74 163.92C544.684 164.002 544.656 164.099 544.656 164.198V212.494Z" fill="white"/>
<path fill-rule="evenodd" clip-rule="evenodd" d="M640.427 213.006C640.713 213.006 640.945 212.777 640.945 212.494V165.121C640.945 155.196 637.892 148.034 631.787 143.634C625.682 139.234 617.818 137.034 608.194 137.034C595.412 137.034 584.6 140.831 575.759 148.425C575.574 148.584 575.529 148.849 575.649 149.059L582.573 161.183C582.737 161.47 583.129 161.53 583.378 161.311C589.675 155.768 596.809 152.996 604.779 152.996C609.746 152.996 613.73 154.121 616.731 156.372C619.732 158.623 621.232 161.642 621.232 165.428V174.009C621.232 174.485 620.621 174.711 620.288 174.367C615.115 169.021 607.514 166.349 597.484 166.349C590.551 166.349 584.446 168.344 579.168 172.334C573.995 176.325 571.408 182.31 571.408 190.291C571.408 197.965 574.046 204.002 579.324 208.401C584.704 212.699 590.758 214.847 597.484 214.847C607.34 214.847 614.942 212.026 620.289 206.384C620.619 206.035 621.232 206.26 621.232 206.738V212.494C621.232 212.777 621.464 213.006 621.75 213.006H640.427ZM621.13 195.337C617.913 199.545 612.67 201.648 605.4 201.648C601.364 201.648 598.001 200.676 595.311 198.732C592.621 196.788 591.275 194.128 591.275 190.751C591.275 187.273 592.621 184.561 595.311 182.617C598.001 180.571 601.364 179.548 605.4 179.548C612.67 179.548 617.913 181.651 621.13 185.858C621.197 185.946 621.232 186.053 621.232 186.162V195.034C621.232 195.143 621.197 195.25 621.13 195.337Z" fill="white"/>
<path fill-rule="evenodd" clip-rule="evenodd" d="M731.897 212.494C731.897 212.777 731.666 213.006 731.38 213.006H712.547C712.261 213.006 712.03 212.777 712.03 212.494V204.952C712.03 204.468 711.405 204.25 711.085 204.617C705.135 211.437 697.741 214.847 688.902 214.847C679.175 214.847 671.207 211.42 664.999 204.564C658.79 197.607 655.686 188.091 655.686 176.018C655.686 164.149 658.79 154.684 664.999 147.624C671.207 140.564 679.175 137.034 688.902 137.034C697.918 137.034 705.309 140.43 711.077 147.22C711.394 147.594 712.03 147.377 712.03 146.889V111.148C712.03 110.865 712.261 110.636 712.547 110.636H731.38C731.666 110.636 731.897 110.865 731.897 111.148V212.494ZM694.956 197.504C698.267 197.504 701.526 196.737 704.734 195.202C707.886 193.594 710.289 191.59 711.942 189.192C712 189.108 712.03 189.009 712.03 188.908V162.973C712.03 162.872 712 162.774 711.942 162.69C710.289 160.293 707.886 158.341 704.734 156.833C701.526 155.196 698.267 154.377 694.956 154.377C689.368 154.377 684.815 156.372 681.297 160.363C677.778 164.353 676.019 169.572 676.019 176.018C676.019 182.361 677.778 187.528 681.297 191.519C684.815 195.509 689.368 197.504 694.956 197.504Z" fill="white"/>
<path fill-rule="evenodd" clip-rule="evenodd" d="M757.964 204.104C765.518 211.266 775.09 214.847 786.679 214.847C799.528 214.847 809.713 211.519 817.235 204.862C817.427 204.692 817.46 204.409 817.315 204.198L809.227 192.489C809.044 192.224 808.664 192.189 808.426 192.407C806.196 194.458 803.242 196.106 799.562 197.351C795.734 198.681 792.164 199.346 788.852 199.346C782.747 199.346 777.78 197.709 773.952 194.435C770.273 191.289 768.075 187.388 767.358 182.731C767.311 182.427 767.552 182.157 767.863 182.157H822.483C822.769 182.157 823 181.928 823 181.645V177.859C823 165.683 819.534 155.861 812.601 148.392C805.668 140.82 796.613 137.034 785.438 137.034C774.159 137.034 764.845 140.769 757.499 148.238C750.255 155.707 746.633 164.916 746.633 175.864C746.633 187.528 750.41 196.942 757.964 204.104ZM803.86 168.409C803.891 168.705 803.652 168.958 803.352 168.958H767.549C767.239 168.958 766.998 168.69 767.044 168.386C767.648 164.324 769.433 160.729 772.399 157.6C775.504 154.224 779.85 152.536 785.438 152.536C791.336 152.536 795.785 154.224 798.786 157.6C801.755 160.829 803.446 164.432 803.86 168.409Z" fill="white"/>
<path d="M47.0244 145.357V212.494C47.0244 212.777 47.2561 213.006 47.5418 213.006H68.5479C68.8336 213.006 69.0653 212.777 69.0653 212.494V143.972C69.0653 143.41 69.8501 143.259 70.0626 143.781L98.1156 212.685C98.1945 212.879 98.3844 213.006 98.5956 213.006H107.52C107.731 213.006 107.921 212.879 108 212.685L136.053 143.781C136.266 143.259 137.05 143.41 137.05 143.972V212.494C137.05 212.777 137.282 213.006 137.568 213.006H158.729C159.015 213.006 159.247 212.777 159.247 212.494V111.148C159.247 110.865 159.015 110.636 158.729 110.636H158.135C147.402 116.179 135.739 120.19 123.433 122.369L103.538 171.307C103.364 171.734 102.752 171.734 102.578 171.307L84.224 126.161C70.0894 129.262 57.3337 136.009 47.0244 145.357Z" fill="white"/>
<defs>
<linearGradient id="paint0_linear" x1="204.415" y1="0.0869157" x2="2.01004" y2="176.284" gradientUnits="userSpaceOnUse">
<stop stop-color="#78C332"/>
<stop offset="1" stop-color="#FF383B"/>
<stop offset="1" stop-color="#EF4E23"/>
</linearGradient>
</defs>
</svg>
