<svg width="107" height="112" viewBox="0 0 107 112" fill="none" xmlns="http://www.w3.org/2000/svg">
<path d="M53.4999 37.476C83.8823 37.476 97.2896 22.1889 104.323 1.01797C104.805 -0.433642 106.99 -0.30429 107 1.22412C107 30.5408 83.8828 54.644 53.5001 54.644C23.1175 54.644 9.71042 69.9311 2.67712 91.102C2.19488 92.5536 0.00958234 92.4243 0 90.8959C0 61.5791 23.1175 37.476 53.4999 37.476Z" fill="white"/>
<path d="M24.8443 76.3811V111.73C24.8443 111.879 24.9655 112 25.115 112H36.107C36.2565 112 36.3777 111.879 36.3777 111.73V75.6522C36.3777 75.3559 36.7884 75.2768 36.8996 75.5516L51.579 111.831C51.6203 111.933 51.7197 112 51.8302 112H56.5002C56.6107 112 56.7101 111.933 56.7513 111.831L71.4307 75.5516C71.5419 75.2768 71.9526 75.3559 71.9526 75.6522V111.73C71.9526 111.879 72.0738 112 72.2234 112H83.2965C83.446 112 83.5673 111.879 83.5673 111.73V58.3692C83.5673 58.2205 83.446 58.0999 83.2965 58.0999H82.9856C77.3694 61.0181 71.2663 63.1301 64.827 64.2776L54.4164 90.0444C54.3254 90.2696 54.005 90.2696 53.914 90.0444L44.3099 66.2738C35.5762 66.5857 28.5889 69.8284 24.8443 76.3811Z" fill="white"/>
</svg>
