<svg width="590" height="191" viewBox="0 0 590 191" fill="none" xmlns="http://www.w3.org/2000/svg">
<path d="M127.199 128H117.319L111.183 112.608H76.6551L70.5191 128H60.6391L88.5111 58.632H99.2231L127.199 128ZM108.583 104.912L93.9191 67.576L79.1511 104.912H108.583ZM175.164 128H167.364V122.28C163.135 126.925 157.588 129.248 150.724 129.248C146.079 129.248 141.988 127.757 138.452 124.776C134.916 121.795 133.148 117.739 133.148 112.608C133.148 107.339 134.882 103.283 138.348 100.44C141.884 97.528 146.01 96.072 150.724 96.072C157.866 96.072 163.412 98.36 167.364 102.936V93.888C167.364 90.56 166.186 87.96 163.828 86.088C161.471 84.216 158.42 83.28 154.676 83.28C148.783 83.28 143.652 85.6027 139.284 90.248L135.644 84.84C140.983 79.2933 147.674 76.52 155.716 76.52C161.471 76.52 166.151 77.9067 169.756 80.68C173.362 83.4533 175.164 87.7173 175.164 93.472V128ZM153.532 123.632C159.772 123.632 164.383 121.552 167.364 117.392V107.928C164.383 103.768 159.772 101.688 153.532 101.688C149.927 101.688 146.946 102.728 144.588 104.808C142.3 106.819 141.156 109.453 141.156 112.712C141.156 115.901 142.3 118.536 144.588 120.616C146.946 122.627 149.927 123.632 153.532 123.632Z" fill="white"/>
<path d="M208.152 86H205.496V64.656H214.072C216.141 64.656 217.773 65.2747 218.968 66.512C220.163 67.7493 220.76 69.2747 220.76 71.088C220.76 72.9013 220.152 74.4267 218.936 75.664C217.741 76.9013 216.12 77.52 214.072 77.52H208.152V86ZM213.752 75.152C215.011 75.152 216.035 74.7787 216.824 74.032C217.613 73.264 218.008 72.2827 218.008 71.088C218.008 69.8933 217.613 68.9227 216.824 68.176C216.035 67.408 215.011 67.024 213.752 67.024H208.152V75.152H213.752ZM226.581 86H224.181V70.544H226.581V73.04C228.011 71.1627 229.728 70.224 231.733 70.224V72.688C231.435 72.624 231.115 72.592 230.773 72.592C230.048 72.592 229.259 72.848 228.405 73.36C227.552 73.872 226.944 74.4373 226.581 75.056V86ZM247.032 84.048C245.645 85.6053 243.8 86.384 241.496 86.384C239.192 86.384 237.336 85.6053 235.928 84.048C234.541 82.4907 233.848 80.56 233.848 78.256C233.848 75.952 234.541 74.032 235.928 72.496C237.336 70.9387 239.192 70.16 241.496 70.16C243.8 70.16 245.645 70.9387 247.032 72.496C248.44 74.032 249.144 75.952 249.144 78.256C249.144 80.56 248.44 82.4907 247.032 84.048ZM237.72 82.512C238.658 83.664 239.917 84.24 241.496 84.24C243.074 84.24 244.322 83.664 245.24 82.512C246.157 81.3387 246.616 79.92 246.616 78.256C246.616 76.592 246.157 75.184 245.24 74.032C244.322 72.88 243.074 72.304 241.496 72.304C239.917 72.304 238.658 72.8907 237.72 74.064C236.802 75.216 236.344 76.6133 236.344 78.256C236.344 79.92 236.802 81.3387 237.72 82.512ZM264.669 86H261.885L257.245 79.664L252.605 86H249.853L255.773 78.064L250.173 70.544H252.957L257.245 76.432L261.533 70.544H264.317L258.717 78.064L264.669 86ZM268.615 68.336C268.189 68.336 267.815 68.1867 267.495 67.888C267.175 67.568 267.015 67.184 267.015 66.736C267.015 66.288 267.175 65.904 267.495 65.584C267.815 65.264 268.189 65.104 268.615 65.104C269.063 65.104 269.447 65.264 269.767 65.584C270.087 65.904 270.247 66.288 270.247 66.736C270.247 67.184 270.087 67.568 269.767 67.888C269.447 68.1867 269.063 68.336 268.615 68.336ZM269.831 86H267.431V70.544H269.831V86ZM295.675 86H293.275V75.504C293.275 73.3707 292.325 72.304 290.427 72.304C289.659 72.304 288.891 72.5387 288.123 73.008C287.355 73.4773 286.757 74.032 286.331 74.672V86H283.931V75.504C283.931 73.3707 282.981 72.304 281.083 72.304C280.336 72.304 279.579 72.5387 278.811 73.008C278.064 73.4773 277.467 74.0427 277.019 74.704V86H274.619V70.544H277.019V72.784C277.403 72.1867 278.075 71.6 279.035 71.024C279.995 70.448 280.987 70.16 282.011 70.16C283.141 70.16 284.059 70.4267 284.763 70.96C285.467 71.4933 285.936 72.1867 286.171 73.04C286.64 72.272 287.355 71.6 288.315 71.024C289.275 70.448 290.288 70.16 291.355 70.16C294.235 70.16 295.675 71.7173 295.675 74.832V86ZM312.527 86H310.127V84.24C308.825 85.6693 307.119 86.384 305.007 86.384C303.577 86.384 302.319 85.9253 301.231 85.008C300.143 84.0907 299.599 82.8427 299.599 81.264C299.599 79.6427 300.132 78.3947 301.199 77.52C302.287 76.624 303.556 76.176 305.007 76.176C307.204 76.176 308.911 76.88 310.127 78.288V75.504C310.127 74.48 309.764 73.68 309.039 73.104C308.313 72.528 307.375 72.24 306.223 72.24C304.409 72.24 302.831 72.9547 301.487 74.384L300.367 72.72C302.009 71.0133 304.068 70.16 306.543 70.16C308.313 70.16 309.753 70.5867 310.863 71.44C311.972 72.2933 312.527 73.6053 312.527 75.376V86ZM305.871 84.656C307.791 84.656 309.209 84.016 310.127 82.736V79.824C309.209 78.544 307.791 77.904 305.871 77.904C304.761 77.904 303.844 78.224 303.119 78.864C302.415 79.4827 302.062 80.2933 302.062 81.296C302.062 82.2773 302.415 83.088 303.119 83.728C303.844 84.3467 304.761 84.656 305.871 84.656ZM343.348 86H340.788L328.34 68.976V86H325.684V64.656H328.404L340.692 81.328V64.656H343.348V86ZM360.532 84.048C359.145 85.6053 357.3 86.384 354.996 86.384C352.692 86.384 350.836 85.6053 349.428 84.048C348.041 82.4907 347.348 80.56 347.348 78.256C347.348 75.952 348.041 74.032 349.428 72.496C350.836 70.9387 352.692 70.16 354.996 70.16C357.3 70.16 359.145 70.9387 360.532 72.496C361.94 74.032 362.644 75.952 362.644 78.256C362.644 80.56 361.94 82.4907 360.532 84.048ZM351.22 82.512C352.158 83.664 353.417 84.24 354.996 84.24C356.574 84.24 357.822 83.664 358.74 82.512C359.657 81.3387 360.116 79.92 360.116 78.256C360.116 76.592 359.657 75.184 358.74 74.032C357.822 72.88 356.574 72.304 354.996 72.304C353.417 72.304 352.158 72.8907 351.22 74.064C350.302 75.216 349.844 76.6133 349.844 78.256C349.844 79.92 350.302 81.3387 351.22 82.512ZM373.308 86H370.684L364.252 70.544H366.844L371.996 83.216L377.116 70.544H379.74L373.308 86ZM394.308 86H391.908V84.24C390.606 85.6693 388.9 86.384 386.788 86.384C385.358 86.384 384.1 85.9253 383.012 85.008C381.924 84.0907 381.38 82.8427 381.38 81.264C381.38 79.6427 381.913 78.3947 382.98 77.52C384.068 76.624 385.337 76.176 386.788 76.176C388.985 76.176 390.692 76.88 391.908 78.288V75.504C391.908 74.48 391.545 73.68 390.82 73.104C390.094 72.528 389.156 72.24 388.004 72.24C386.19 72.24 384.612 72.9547 383.268 74.384L382.148 72.72C383.79 71.0133 385.849 70.16 388.324 70.16C390.094 70.16 391.534 70.5867 392.644 71.44C393.753 72.2933 394.308 73.6053 394.308 75.376V86ZM387.652 84.656C389.572 84.656 390.99 84.016 391.908 82.736V79.824C390.99 78.544 389.572 77.904 387.652 77.904C386.542 77.904 385.625 78.224 384.9 78.864C384.196 79.4827 383.844 80.2933 383.844 81.296C383.844 82.2773 384.196 83.088 384.9 83.728C385.625 84.3467 386.542 84.656 387.652 84.656ZM422.953 86H419.817L414.377 77.52H410.121V86H407.465V64.656H416.041C418.025 64.656 419.635 65.2427 420.873 66.416C422.11 67.5893 422.729 69.1467 422.729 71.088C422.729 72.9227 422.195 74.384 421.129 75.472C420.062 76.56 418.75 77.168 417.193 77.296L422.953 86ZM415.721 75.184C416.979 75.184 418.003 74.8 418.793 74.032C419.582 73.264 419.977 72.2827 419.977 71.088C419.977 69.8933 419.582 68.9227 418.793 68.176C418.003 67.408 416.979 67.024 415.721 67.024H410.121V75.184H415.721ZM432.845 86.384C430.541 86.384 428.653 85.6373 427.181 84.144C425.709 82.6293 424.973 80.6667 424.973 78.256C424.973 75.9947 425.698 74.0853 427.149 72.528C428.599 70.9493 430.413 70.16 432.589 70.16C434.871 70.16 436.674 70.9493 437.997 72.528C439.341 74.0853 440.013 76.0587 440.013 78.448V79.056H427.501C427.607 80.5707 428.162 81.84 429.165 82.864C430.167 83.888 431.469 84.4 433.069 84.4C434.989 84.4 436.578 83.7493 437.837 82.448L438.989 84.016C437.41 85.5947 435.362 86.384 432.845 86.384ZM437.645 77.296C437.623 75.9733 437.175 74.7893 436.301 73.744C435.426 72.6773 434.178 72.144 432.557 72.144C431.021 72.144 429.805 72.6667 428.909 73.712C428.034 74.7573 427.565 75.952 427.501 77.296H437.645ZM450.108 92.272C448.743 92.272 447.58 92.1013 446.62 91.76C445.66 91.44 444.743 90.8427 443.868 89.968L445.084 88.176C446.257 89.584 447.932 90.288 450.108 90.288C451.537 90.288 452.721 89.904 453.66 89.136C454.599 88.3893 455.068 87.2267 455.068 85.648V83.44C454.492 84.2507 453.745 84.912 452.828 85.424C451.911 85.936 450.929 86.192 449.884 86.192C447.836 86.192 446.172 85.4773 444.892 84.048C443.633 82.5973 443.004 80.6453 443.004 78.192C443.004 75.7387 443.633 73.7867 444.892 72.336C446.172 70.8853 447.836 70.16 449.884 70.16C451.996 70.16 453.724 71.0667 455.068 72.88V70.544H457.468V85.552C457.468 87.92 456.775 89.6267 455.388 90.672C454.001 91.7387 452.241 92.272 450.108 92.272ZM450.46 84.08C451.377 84.08 452.263 83.8347 453.116 83.344C453.991 82.8533 454.641 82.256 455.068 81.552V74.8C454.641 74.096 454.001 73.5093 453.148 73.04C452.295 72.5493 451.399 72.304 450.46 72.304C448.924 72.304 447.708 72.848 446.812 73.936C445.937 75.024 445.5 76.4427 445.5 78.192C445.5 79.92 445.948 81.3387 446.844 82.448C447.74 83.536 448.945 84.08 450.46 84.08ZM475.107 86H472.707V83.824C472.067 84.5493 471.256 85.1573 470.275 85.648C469.315 86.1387 468.291 86.384 467.203 86.384C463.918 86.384 462.275 84.7413 462.275 81.456V70.544H464.675V80.72C464.675 82 464.963 82.9067 465.539 83.44C466.136 83.9733 467 84.24 468.131 84.24C469.027 84.24 469.891 84.016 470.723 83.568C471.576 83.12 472.238 82.5653 472.707 81.904V70.544H475.107V86ZM482.3 86H479.9V64.656H482.3V86ZM499.152 86H496.752V84.24C495.45 85.6693 493.744 86.384 491.632 86.384C490.202 86.384 488.944 85.9253 487.856 85.008C486.768 84.0907 486.224 82.8427 486.224 81.264C486.224 79.6427 486.757 78.3947 487.824 77.52C488.912 76.624 490.181 76.176 491.632 76.176C493.829 76.176 495.536 76.88 496.752 78.288V75.504C496.752 74.48 496.389 73.68 495.664 73.104C494.938 72.528 494 72.24 492.848 72.24C491.034 72.24 489.456 72.9547 488.112 74.384L486.992 72.72C488.634 71.0133 490.693 70.16 493.168 70.16C494.938 70.16 496.378 70.5867 497.488 71.44C498.597 72.2933 499.152 73.6053 499.152 75.376V86ZM492.496 84.656C494.416 84.656 495.834 84.016 496.752 82.736V79.824C495.834 78.544 494.416 77.904 492.496 77.904C491.386 77.904 490.469 78.224 489.744 78.864C489.04 79.4827 488.688 80.2933 488.688 81.296C488.688 82.2773 489.04 83.088 489.744 83.728C490.469 84.3467 491.386 84.656 492.496 84.656ZM506.363 86H503.963V70.544H506.363V73.04C507.792 71.1627 509.509 70.224 511.515 70.224V72.688C511.216 72.624 510.896 72.592 510.555 72.592C509.829 72.592 509.04 72.848 508.187 73.36C507.333 73.872 506.725 74.4373 506.363 75.056V86Z" fill="white"/>
<path d="M212.04 129H210.54V127.9C209.727 128.793 208.66 129.24 207.34 129.24C206.447 129.24 205.66 128.953 204.98 128.38C204.3 127.807 203.96 127.027 203.96 126.04C203.96 125.027 204.293 124.247 204.96 123.7C205.64 123.14 206.433 122.86 207.34 122.86C208.713 122.86 209.78 123.3 210.54 124.18V122.44C210.54 121.8 210.313 121.3 209.86 120.94C209.407 120.58 208.82 120.4 208.1 120.4C206.967 120.4 205.98 120.847 205.14 121.74L204.44 120.7C205.467 119.633 206.753 119.1 208.3 119.1C209.407 119.1 210.307 119.367 211 119.9C211.693 120.433 212.04 121.253 212.04 122.36V129ZM207.88 128.16C209.08 128.16 209.967 127.76 210.54 126.96V125.14C209.967 124.34 209.08 123.94 207.88 123.94C207.187 123.94 206.613 124.14 206.16 124.54C205.72 124.927 205.5 125.433 205.5 126.06C205.5 126.673 205.72 127.18 206.16 127.58C206.613 127.967 207.187 128.16 207.88 128.16ZM216.547 126.38C216.814 126.807 217.214 127.167 217.747 127.46C218.294 127.753 218.854 127.9 219.427 127.9C220.387 127.9 221.147 127.553 221.707 126.86C222.267 126.167 222.547 125.273 222.547 124.18C222.547 123.087 222.267 122.193 221.707 121.5C221.147 120.793 220.387 120.44 219.427 120.44C218.854 120.44 218.294 120.593 217.747 120.9C217.214 121.193 216.814 121.56 216.547 122V126.38ZM216.547 129H215.047V115.66H216.547V120.8C217.387 119.667 218.474 119.1 219.807 119.1C221.074 119.1 222.107 119.567 222.907 120.5C223.707 121.42 224.107 122.647 224.107 124.18C224.107 125.727 223.707 126.96 222.907 127.88C222.12 128.787 221.087 129.24 219.807 129.24C218.46 129.24 217.374 128.68 216.547 127.56V129ZM230.811 129.24C229.384 129.24 228.224 128.76 227.331 127.8C226.437 126.827 225.991 125.613 225.991 124.16C225.991 122.707 226.437 121.5 227.331 120.54C228.224 119.58 229.384 119.1 230.811 119.1C232.304 119.1 233.484 119.66 234.351 120.78L233.351 121.7C232.737 120.86 231.917 120.44 230.891 120.44C229.877 120.44 229.064 120.787 228.451 121.48C227.851 122.173 227.551 123.067 227.551 124.16C227.551 125.253 227.851 126.153 228.451 126.86C229.064 127.553 229.877 127.9 230.891 127.9C231.904 127.9 232.724 127.48 233.351 126.64L234.351 127.56C233.484 128.68 232.304 129.24 230.811 129.24ZM244.953 129H243.453V127.56C242.626 128.68 241.54 129.24 240.193 129.24C238.913 129.24 237.873 128.787 237.073 127.88C236.286 126.96 235.893 125.727 235.893 124.18C235.893 122.647 236.286 121.42 237.073 120.5C237.873 119.567 238.913 119.1 240.193 119.1C241.526 119.1 242.613 119.667 243.453 120.8V115.66H244.953V129ZM240.553 127.9C241.14 127.9 241.7 127.753 242.233 127.46C242.766 127.167 243.173 126.807 243.453 126.38V122C243.173 121.56 242.76 121.193 242.213 120.9C241.68 120.593 241.126 120.44 240.553 120.44C239.606 120.44 238.853 120.793 238.293 121.5C237.733 122.193 237.453 123.087 237.453 124.18C237.453 125.273 237.733 126.167 238.293 126.86C238.853 127.553 239.606 127.9 240.553 127.9ZM252.317 129.24C250.877 129.24 249.697 128.773 248.777 127.84C247.857 126.893 247.397 125.667 247.397 124.16C247.397 122.747 247.85 121.553 248.757 120.58C249.664 119.593 250.797 119.1 252.157 119.1C253.584 119.1 254.71 119.593 255.537 120.58C256.377 121.553 256.797 122.787 256.797 124.28V124.66H248.977C249.044 125.607 249.39 126.4 250.017 127.04C250.644 127.68 251.457 128 252.457 128C253.657 128 254.65 127.593 255.437 126.78L256.157 127.76C255.17 128.747 253.89 129.24 252.317 129.24ZM255.317 123.56C255.304 122.733 255.024 121.993 254.477 121.34C253.93 120.673 253.15 120.34 252.137 120.34C251.177 120.34 250.417 120.667 249.857 121.32C249.31 121.973 249.017 122.72 248.977 123.56H255.317ZM261.147 129H259.647V120.66H258.047V119.34H259.647V118.6C259.647 117.613 259.893 116.847 260.387 116.3C260.893 115.74 261.58 115.46 262.447 115.46C263.273 115.46 263.953 115.707 264.487 116.2L263.867 117.18C263.507 116.86 263.107 116.7 262.667 116.7C262.173 116.7 261.793 116.867 261.527 117.2C261.273 117.52 261.147 117.987 261.147 118.6V119.34H263.107V120.66H261.147V129ZM268.771 132.92C267.917 132.92 267.191 132.813 266.591 132.6C265.991 132.4 265.417 132.027 264.871 131.48L265.631 130.36C266.364 131.24 267.411 131.68 268.771 131.68C269.664 131.68 270.404 131.44 270.991 130.96C271.577 130.493 271.871 129.767 271.871 128.78V127.4C271.511 127.907 271.044 128.32 270.471 128.64C269.897 128.96 269.284 129.12 268.631 129.12C267.351 129.12 266.311 128.673 265.511 127.78C264.724 126.873 264.331 125.653 264.331 124.12C264.331 122.587 264.724 121.367 265.511 120.46C266.311 119.553 267.351 119.1 268.631 119.1C269.951 119.1 271.031 119.667 271.871 120.8V119.34H273.371V128.72C273.371 130.2 272.937 131.267 272.071 131.92C271.204 132.587 270.104 132.92 268.771 132.92ZM268.991 127.8C269.564 127.8 270.117 127.647 270.651 127.34C271.197 127.033 271.604 126.66 271.871 126.22V122C271.604 121.56 271.204 121.193 270.671 120.9C270.137 120.593 269.577 120.44 268.991 120.44C268.031 120.44 267.271 120.78 266.711 121.46C266.164 122.14 265.891 123.027 265.891 124.12C265.891 125.2 266.171 126.087 266.731 126.78C267.291 127.46 268.044 127.8 268.991 127.8ZM284.415 129H282.915V122.64C282.915 121.84 282.728 121.273 282.355 120.94C281.982 120.607 281.442 120.44 280.735 120.44C280.188 120.44 279.648 120.587 279.115 120.88C278.595 121.173 278.182 121.527 277.875 121.94V129H276.375V115.66H277.875V120.74C278.248 120.3 278.748 119.92 279.375 119.6C280.002 119.267 280.655 119.1 281.335 119.1C283.388 119.1 284.415 120.127 284.415 122.18V129ZM288.15 117.96C287.883 117.96 287.65 117.867 287.45 117.68C287.25 117.48 287.15 117.24 287.15 116.96C287.15 116.68 287.25 116.44 287.45 116.24C287.65 116.04 287.883 115.94 288.15 115.94C288.43 115.94 288.67 116.04 288.87 116.24C289.07 116.44 289.17 116.68 289.17 116.96C289.17 117.24 289.07 117.48 288.87 117.68C288.67 117.867 288.43 117.96 288.15 117.96ZM288.91 129H287.41V119.34H288.91V129ZM292.642 117.96C292.376 117.96 292.142 117.867 291.942 117.68C291.742 117.48 291.642 117.24 291.642 116.96C291.642 116.68 291.742 116.44 291.942 116.24C292.142 116.04 292.376 115.94 292.642 115.94C292.922 115.94 293.162 116.04 293.362 116.24C293.562 116.44 293.662 116.68 293.662 116.96C293.662 117.24 293.562 117.48 293.362 117.68C293.162 117.867 292.922 117.96 292.642 117.96ZM290.542 132.92C289.756 132.92 289.049 132.68 288.422 132.2L288.962 131.06C289.376 131.473 289.836 131.68 290.342 131.68C290.822 131.68 291.202 131.533 291.482 131.24C291.762 130.96 291.902 130.527 291.902 129.94V119.34H293.402V129.94C293.402 130.887 293.156 131.62 292.662 132.14C292.169 132.66 291.462 132.92 290.542 132.92ZM304.895 129H302.975L299.495 124.66L297.895 126.24V129H296.395V115.66H297.895V124.48L302.975 119.34H304.875L300.595 123.72L304.895 129ZM308.168 129H306.668V115.66H308.168V129ZM324.32 129H322.82V122.44C322.82 121.107 322.227 120.44 321.04 120.44C320.56 120.44 320.08 120.587 319.6 120.88C319.12 121.173 318.747 121.52 318.48 121.92V129H316.98V122.44C316.98 121.107 316.387 120.44 315.2 120.44C314.733 120.44 314.26 120.587 313.78 120.88C313.313 121.173 312.94 121.527 312.66 121.94V129H311.16V119.34H312.66V120.74C312.9 120.367 313.32 120 313.92 119.64C314.52 119.28 315.14 119.1 315.78 119.1C316.487 119.1 317.06 119.267 317.5 119.6C317.94 119.933 318.233 120.367 318.38 120.9C318.673 120.42 319.12 120 319.72 119.64C320.32 119.28 320.953 119.1 321.62 119.1C323.42 119.1 324.32 120.073 324.32 122.02V129ZM335.333 129H333.833V122.68C333.833 121.867 333.646 121.293 333.273 120.96C332.899 120.613 332.366 120.44 331.673 120.44C331.113 120.44 330.566 120.587 330.033 120.88C329.513 121.173 329.106 121.527 328.813 121.94V129H327.313V119.34H328.813V120.74C329.186 120.3 329.686 119.92 330.313 119.6C330.939 119.267 331.586 119.1 332.253 119.1C334.306 119.1 335.333 120.14 335.333 122.22V129ZM346.008 127.78C345.141 128.753 343.988 129.24 342.548 129.24C341.108 129.24 339.948 128.753 339.068 127.78C338.201 126.807 337.768 125.6 337.768 124.16C337.768 122.72 338.201 121.52 339.068 120.56C339.948 119.587 341.108 119.1 342.548 119.1C343.988 119.1 345.141 119.587 346.008 120.56C346.888 121.52 347.328 122.72 347.328 124.16C347.328 125.6 346.888 126.807 346.008 127.78ZM340.188 126.82C340.775 127.54 341.561 127.9 342.548 127.9C343.535 127.9 344.315 127.54 344.888 126.82C345.461 126.087 345.748 125.2 345.748 124.16C345.748 123.12 345.461 122.24 344.888 121.52C344.315 120.8 343.535 120.44 342.548 120.44C341.561 120.44 340.775 120.807 340.188 121.54C339.615 122.26 339.328 123.133 339.328 124.16C339.328 125.2 339.615 126.087 340.188 126.82ZM354.533 129.24C353.173 129.24 352.087 128.673 351.273 127.54V132.68H349.773V119.34H351.273V120.78C351.633 120.273 352.1 119.867 352.673 119.56C353.247 119.253 353.867 119.1 354.533 119.1C355.813 119.1 356.847 119.56 357.633 120.48C358.433 121.387 358.833 122.613 358.833 124.16C358.833 125.707 358.433 126.94 357.633 127.86C356.847 128.78 355.813 129.24 354.533 129.24ZM354.153 127.9C355.1 127.9 355.853 127.553 356.413 126.86C356.973 126.153 357.253 125.253 357.253 124.16C357.253 123.067 356.973 122.173 356.413 121.48C355.853 120.787 355.1 120.44 354.153 120.44C353.58 120.44 353.02 120.593 352.473 120.9C351.94 121.193 351.54 121.553 351.273 121.98V126.34C351.54 126.78 351.94 127.153 352.473 127.46C353.02 127.753 353.58 127.9 354.153 127.9ZM365.259 127.9C365.845 127.9 366.405 127.753 366.939 127.46C367.485 127.153 367.885 126.78 368.139 126.34V121.98C367.885 121.553 367.485 121.193 366.939 120.9C366.405 120.593 365.845 120.44 365.259 120.44C364.312 120.44 363.559 120.787 362.999 121.48C362.452 122.173 362.179 123.067 362.179 124.16C362.179 125.253 362.452 126.153 362.999 126.86C363.559 127.553 364.312 127.9 365.259 127.9ZM364.899 129.24C363.619 129.24 362.579 128.78 361.779 127.86C360.992 126.94 360.599 125.707 360.599 124.16C360.599 122.613 360.992 121.387 361.779 120.48C362.579 119.56 363.619 119.1 364.899 119.1C365.565 119.1 366.185 119.253 366.759 119.56C367.332 119.867 367.792 120.273 368.139 120.78V119.34H369.639V132.68H368.139V127.54C367.325 128.673 366.245 129.24 364.899 129.24ZM374.164 129H372.664V119.34H374.164V120.9C375.057 119.727 376.131 119.14 377.384 119.14V120.68C377.197 120.64 376.997 120.62 376.784 120.62C376.331 120.62 375.837 120.78 375.304 121.1C374.771 121.42 374.391 121.773 374.164 122.16V129ZM382.326 129.24C380.686 129.24 379.386 128.733 378.426 127.72L379.206 126.64C379.539 127.027 379.992 127.353 380.566 127.62C381.152 127.887 381.759 128.02 382.386 128.02C383.106 128.02 383.666 127.867 384.066 127.56C384.466 127.253 384.666 126.853 384.666 126.36C384.666 125.933 384.459 125.6 384.046 125.36C383.632 125.107 383.132 124.92 382.546 124.8C381.972 124.667 381.392 124.52 380.806 124.36C380.219 124.187 379.719 123.9 379.306 123.5C378.892 123.087 378.686 122.547 378.686 121.88C378.686 121.093 379.006 120.433 379.646 119.9C380.299 119.367 381.179 119.1 382.286 119.1C383.739 119.1 384.932 119.567 385.866 120.5L385.166 121.54C384.486 120.727 383.526 120.32 382.286 120.32C381.632 120.32 381.112 120.467 380.726 120.76C380.339 121.04 380.146 121.4 380.146 121.84C380.146 122.227 380.352 122.533 380.766 122.76C381.179 122.973 381.672 123.147 382.246 123.28C382.832 123.4 383.419 123.547 384.006 123.72C384.592 123.893 385.092 124.2 385.506 124.64C385.919 125.067 386.126 125.627 386.126 126.32C386.126 127.173 385.792 127.873 385.126 128.42C384.459 128.967 383.526 129.24 382.326 129.24ZM391.003 129.24C390.296 129.24 389.763 129.047 389.403 128.66C389.043 128.273 388.863 127.713 388.863 126.98V120.66H387.263V119.34H388.863V116.7H390.363V119.34H392.323V120.66H390.363V126.66C390.363 127.033 390.443 127.333 390.603 127.56C390.776 127.787 391.023 127.9 391.343 127.9C391.783 127.9 392.123 127.767 392.363 127.5L392.803 128.62C392.363 129.033 391.763 129.24 391.003 129.24ZM402.461 129H400.961V127.64C400.561 128.093 400.055 128.473 399.441 128.78C398.841 129.087 398.201 129.24 397.521 129.24C395.468 129.24 394.441 128.213 394.441 126.16V119.34H395.941V125.7C395.941 126.5 396.121 127.067 396.481 127.4C396.855 127.733 397.395 127.9 398.101 127.9C398.661 127.9 399.201 127.76 399.721 127.48C400.255 127.2 400.668 126.853 400.961 126.44V119.34H402.461V129ZM409.677 129H408.037L404.017 119.34H405.637L408.857 127.26L412.057 119.34H413.697L409.677 129ZM425.122 129H423.622L421.102 121.24L418.582 129H417.082L414.002 119.34H415.562L417.922 127.04L420.462 119.34H421.742L424.282 127.04L426.642 119.34H428.202L425.122 129ZM437.949 129H436.209L433.309 125.04L430.409 129H428.689L432.389 124.04L428.889 119.34H430.629L433.309 123.02L435.989 119.34H437.729L434.229 124.04L437.949 129ZM439.136 132.78L439.376 131.42C439.616 131.527 439.889 131.58 440.196 131.58C440.542 131.58 440.829 131.507 441.056 131.36C441.282 131.213 441.476 130.947 441.636 130.56L442.276 129.1L438.236 119.34H439.856L443.076 127.26L446.276 119.34H447.916L443.076 130.96C442.542 132.24 441.596 132.893 440.236 132.92C439.836 132.92 439.469 132.873 439.136 132.78ZM456.38 129H449.02V127.84L454.34 120.66H449.02V119.34H456.3V120.48L450.94 127.7H456.38V129Z" fill="white"/>
<path d="M208.22 185H206.56V173.86L204.42 176.12L203.42 175.1L206.76 171.66H208.22V185ZM220.017 185H210.857V183.68C212.244 182.587 213.317 181.72 214.077 181.08C214.851 180.427 215.591 179.74 216.297 179.02C217.017 178.287 217.524 177.64 217.817 177.08C218.111 176.507 218.257 175.94 218.257 175.38C218.257 174.58 217.984 173.973 217.437 173.56C216.891 173.147 216.237 172.94 215.477 172.94C213.944 172.94 212.737 173.5 211.857 174.62L210.837 173.56C211.344 172.893 212.004 172.38 212.817 172.02C213.644 171.647 214.531 171.46 215.477 171.46C216.691 171.46 217.737 171.8 218.617 172.48C219.511 173.16 219.957 174.127 219.957 175.38C219.957 176.62 219.424 177.86 218.357 179.1C217.291 180.327 215.664 181.8 213.477 183.52H220.017V185ZM226.855 185.24C225.788 185.24 224.842 185.033 224.015 184.62C223.188 184.207 222.555 183.68 222.115 183.04L223.095 182C223.495 182.533 224.022 182.96 224.675 183.28C225.328 183.6 226.042 183.76 226.815 183.76C227.788 183.76 228.548 183.54 229.095 183.1C229.655 182.647 229.935 182.033 229.935 181.26C229.935 180.46 229.635 179.867 229.035 179.48C228.448 179.093 227.642 178.9 226.615 178.9C225.828 178.9 225.368 178.907 225.235 178.92V177.4C225.382 177.413 225.842 177.42 226.615 177.42C227.522 177.42 228.262 177.24 228.835 176.88C229.422 176.507 229.715 175.953 229.715 175.22C229.715 174.513 229.428 173.96 228.855 173.56C228.295 173.147 227.588 172.94 226.735 172.94C225.388 172.94 224.215 173.48 223.215 174.56L222.295 173.52C223.428 172.147 224.948 171.46 226.855 171.46C228.175 171.46 229.255 171.78 230.095 172.42C230.948 173.047 231.375 173.913 231.375 175.02C231.375 175.9 231.082 176.607 230.495 177.14C229.908 177.66 229.242 177.987 228.495 178.12C229.228 178.187 229.922 178.507 230.575 179.08C231.242 179.653 231.575 180.427 231.575 181.4C231.575 182.533 231.148 183.46 230.295 184.18C229.442 184.887 228.295 185.24 226.855 185.24ZM241.308 185H239.648V181.62H233.308V180.24L239.028 171.66H241.308V180.16H243.188V181.62H241.308V185ZM239.648 180.16V173.2L234.968 180.16H239.648ZM249.84 185.24C247.787 185.24 246.22 184.527 245.14 183.1L246.16 182C247.08 183.173 248.307 183.76 249.84 183.76C250.747 183.76 251.487 183.487 252.06 182.94C252.634 182.393 252.92 181.713 252.92 180.9C252.92 180.033 252.634 179.34 252.06 178.82C251.5 178.287 250.767 178.02 249.86 178.02C248.66 178.02 247.634 178.44 246.78 179.28L245.56 178.86V171.66H253.72V173.14H247.22V177.78C248.02 176.98 249.06 176.58 250.34 176.58C251.514 176.58 252.514 176.967 253.34 177.74C254.167 178.5 254.58 179.533 254.58 180.84C254.58 182.173 254.134 183.24 253.24 184.04C252.347 184.84 251.214 185.24 249.84 185.24ZM261.777 185.24C260.884 185.24 260.097 185.053 259.417 184.68C258.737 184.307 258.197 183.8 257.797 183.16C257.411 182.507 257.117 181.78 256.917 180.98C256.731 180.167 256.637 179.293 256.637 178.36C256.637 177.107 256.824 175.973 257.197 174.96C257.571 173.947 258.171 173.113 258.997 172.46C259.837 171.793 260.857 171.46 262.057 171.46C263.591 171.46 264.824 171.993 265.757 173.06L264.917 174.3C264.144 173.393 263.191 172.94 262.057 172.94C261.231 172.94 260.524 173.2 259.937 173.72C259.364 174.24 258.944 174.887 258.677 175.66C258.424 176.42 258.297 177.26 258.297 178.18C258.297 178.407 258.304 178.58 258.317 178.7C258.651 178.167 259.164 177.687 259.857 177.26C260.564 176.833 261.311 176.62 262.097 176.62C263.364 176.62 264.404 176.993 265.217 177.74C266.044 178.473 266.457 179.52 266.457 180.88C266.457 182.093 266.031 183.127 265.177 183.98C264.324 184.82 263.191 185.24 261.777 185.24ZM261.717 183.76C262.677 183.76 263.424 183.473 263.957 182.9C264.504 182.313 264.777 181.66 264.777 180.94C264.777 180.007 264.491 179.293 263.917 178.8C263.344 178.307 262.604 178.06 261.697 178.06C261.044 178.06 260.417 178.247 259.817 178.62C259.217 178.98 258.731 179.46 258.357 180.06C258.451 181.047 258.771 181.913 259.317 182.66C259.864 183.393 260.664 183.76 261.717 183.76ZM271.694 185H269.854L275.234 173.14H268.054V171.66H277.154V172.8L271.694 185ZM286.947 184.26C286.04 184.913 284.907 185.24 283.547 185.24C282.187 185.24 281.047 184.913 280.127 184.26C279.22 183.607 278.767 182.727 278.767 181.62C278.767 180.78 279.067 180.053 279.667 179.44C280.28 178.827 281.04 178.387 281.947 178.12C281.093 177.88 280.387 177.493 279.827 176.96C279.267 176.413 278.987 175.733 278.987 174.92C278.987 173.8 279.44 172.947 280.347 172.36C281.253 171.76 282.32 171.46 283.547 171.46C284.773 171.46 285.84 171.76 286.747 172.36C287.667 172.947 288.127 173.8 288.127 174.92C288.127 175.733 287.847 176.413 287.287 176.96C286.727 177.493 286.013 177.88 285.147 178.12C286.053 178.387 286.807 178.827 287.407 179.44C288.02 180.053 288.327 180.78 288.327 181.62C288.327 182.713 287.867 183.593 286.947 184.26ZM283.547 177.44C283.813 177.4 284.08 177.333 284.347 177.24C284.627 177.147 284.94 177.02 285.287 176.86C285.633 176.687 285.913 176.453 286.127 176.16C286.34 175.853 286.447 175.513 286.447 175.14C286.447 174.473 286.167 173.94 285.607 173.54C285.06 173.14 284.373 172.94 283.547 172.94C282.707 172.94 282.013 173.14 281.467 173.54C280.92 173.94 280.647 174.473 280.647 175.14C280.647 175.513 280.753 175.853 280.967 176.16C281.18 176.453 281.46 176.687 281.807 176.86C282.153 177.02 282.46 177.147 282.727 177.24C283.007 177.32 283.28 177.387 283.547 177.44ZM283.547 183.76C284.4 183.76 285.127 183.547 285.727 183.12C286.34 182.693 286.647 182.133 286.647 181.44C286.647 180.907 286.433 180.44 286.007 180.04C285.593 179.627 285.167 179.34 284.727 179.18C284.3 179.007 283.907 178.9 283.547 178.86C283.187 178.9 282.787 179.007 282.347 179.18C281.92 179.34 281.493 179.627 281.067 180.04C280.64 180.44 280.427 180.907 280.427 181.44C280.427 182.133 280.727 182.693 281.327 183.12C281.94 183.547 282.68 183.76 283.547 183.76ZM294.728 185.22C293.194 185.22 291.961 184.687 291.028 183.62L291.868 182.38C292.641 183.287 293.594 183.74 294.728 183.74C295.581 183.74 296.301 183.473 296.888 182.94C297.474 182.407 297.888 181.76 298.128 181C298.368 180.24 298.488 179.413 298.488 178.52C298.488 178.28 298.481 178.1 298.468 177.98C298.134 178.513 297.621 178.993 296.928 179.42C296.234 179.847 295.494 180.06 294.708 180.06C293.441 180.06 292.394 179.693 291.568 178.96C290.741 178.213 290.328 177.16 290.328 175.8C290.328 174.6 290.754 173.573 291.608 172.72C292.461 171.867 293.588 171.44 294.988 171.44C295.894 171.44 296.688 171.627 297.368 172C298.048 172.373 298.581 172.887 298.968 173.54C299.368 174.193 299.661 174.92 299.848 175.72C300.048 176.52 300.148 177.393 300.148 178.34C300.148 179.593 299.961 180.727 299.588 181.74C299.214 182.74 298.608 183.573 297.768 184.24C296.941 184.893 295.928 185.22 294.728 185.22ZM295.088 178.62C295.741 178.62 296.368 178.44 296.968 178.08C297.581 177.72 298.061 177.24 298.408 176.64C298.328 175.653 298.014 174.787 297.468 174.04C296.921 173.293 296.121 172.92 295.068 172.92C294.121 172.92 293.374 173.213 292.828 173.8C292.281 174.387 292.008 175.033 292.008 175.74C292.008 176.673 292.294 177.387 292.868 177.88C293.441 178.373 294.181 178.62 295.088 178.62ZM307.284 185.24C306.404 185.24 305.624 185.04 304.944 184.64C304.277 184.227 303.744 183.68 303.344 183C302.957 182.32 302.664 181.587 302.464 180.8C302.277 180.013 302.184 179.193 302.184 178.34C302.184 177.487 302.277 176.667 302.464 175.88C302.664 175.093 302.957 174.367 303.344 173.7C303.744 173.02 304.277 172.48 304.944 172.08C305.624 171.667 306.404 171.46 307.284 171.46C308.151 171.46 308.924 171.667 309.604 172.08C310.284 172.48 310.817 173.02 311.204 173.7C311.604 174.367 311.897 175.093 312.084 175.88C312.284 176.667 312.384 177.487 312.384 178.34C312.384 179.193 312.284 180.013 312.084 180.8C311.897 181.587 311.604 182.32 311.204 183C310.817 183.68 310.284 184.227 309.604 184.64C308.924 185.04 308.151 185.24 307.284 185.24ZM305.284 182.94C305.817 183.487 306.484 183.76 307.284 183.76C308.084 183.76 308.751 183.487 309.284 182.94C309.817 182.38 310.184 181.713 310.384 180.94C310.584 180.167 310.684 179.3 310.684 178.34C310.684 177.38 310.584 176.513 310.384 175.74C310.184 174.967 309.817 174.307 309.284 173.76C308.751 173.213 308.084 172.94 307.284 172.94C306.484 172.94 305.817 173.213 305.284 173.76C304.751 174.307 304.384 174.967 304.184 175.74C303.984 176.513 303.884 177.38 303.884 178.34C303.884 179.3 303.984 180.167 304.184 180.94C304.384 181.713 304.751 182.38 305.284 182.94ZM316.33 181.26H315.09L314.77 171.66H316.65L316.33 181.26ZM316.47 184.88C316.257 185.093 316.003 185.2 315.71 185.2C315.417 185.2 315.157 185.093 314.93 184.88C314.717 184.653 314.61 184.393 314.61 184.1C314.61 183.793 314.717 183.533 314.93 183.32C315.143 183.107 315.403 183 315.71 183C316.017 183 316.277 183.107 316.49 183.32C316.703 183.533 316.81 183.793 316.81 184.1C316.81 184.393 316.697 184.653 316.47 184.88ZM325.06 186.4C323.246 186.4 321.733 185.8 320.52 184.6C319.32 183.387 318.72 181.893 318.72 180.12C318.72 177.987 319.513 176.14 321.1 174.58C322.7 173.02 324.553 172.24 326.66 172.24C328.513 172.24 330.026 172.853 331.2 174.08C332.373 175.293 332.96 176.793 332.96 178.58C332.96 180.06 332.613 181.22 331.92 182.06C331.226 182.887 330.42 183.3 329.5 183.3C328.966 183.3 328.533 183.147 328.2 182.84C327.88 182.52 327.706 182.133 327.68 181.68L327.66 181.56C327.3 182.067 326.833 182.487 326.26 182.82C325.7 183.14 325.113 183.3 324.5 183.3C323.58 183.3 322.84 183 322.28 182.4C321.72 181.8 321.44 181.013 321.44 180.04C321.44 178.68 321.92 177.507 322.88 176.52C323.84 175.52 324.926 175.02 326.14 175.02C326.753 175.02 327.28 175.167 327.72 175.46C328.173 175.753 328.5 176.127 328.7 176.58L328.96 175.34H330.32L329.18 180.76C329.153 180.92 329.14 181.06 329.14 181.18C329.14 181.513 329.226 181.773 329.4 181.96C329.586 182.133 329.813 182.22 330.08 182.22C330.586 182.22 331.073 181.92 331.54 181.32C332.006 180.72 332.24 179.807 332.24 178.58C332.24 176.927 331.713 175.573 330.66 174.52C329.62 173.453 328.26 172.92 326.58 172.92C324.66 172.92 322.98 173.647 321.54 175.1C320.113 176.54 319.4 178.2 319.4 180.08C319.4 181.693 319.94 183.04 321.02 184.12C322.113 185.2 323.486 185.74 325.14 185.74C326.433 185.74 327.673 185.367 328.86 184.62L329.22 185.14C327.913 185.98 326.526 186.4 325.06 186.4ZM324.9 182.18C326.06 182.18 327.053 181.58 327.88 180.38L328.46 177.62C328.326 177.233 328.08 176.893 327.72 176.6C327.373 176.293 326.933 176.14 326.4 176.14C325.426 176.14 324.593 176.533 323.9 177.32C323.206 178.093 322.86 178.973 322.86 179.96C322.86 180.613 323.04 181.147 323.4 181.56C323.773 181.973 324.273 182.18 324.9 182.18ZM339.104 187V185.22C337.184 185.113 335.657 184.413 334.524 183.12L335.504 181.86C336.477 182.953 337.677 183.58 339.104 183.74V178.86C338.597 178.727 338.184 178.607 337.864 178.5C337.557 178.393 337.197 178.24 336.784 178.04C336.37 177.827 336.044 177.6 335.804 177.36C335.564 177.12 335.357 176.813 335.184 176.44C335.024 176.067 334.944 175.64 334.944 175.16C334.944 174.133 335.33 173.28 336.104 172.6C336.877 171.92 337.877 171.547 339.104 171.48V169.64H340.324V171.5C341.937 171.66 343.25 172.267 344.264 173.32L343.264 174.54C342.477 173.7 341.497 173.193 340.324 173.02V177.36C340.95 177.533 341.47 177.707 341.884 177.88C342.297 178.04 342.73 178.273 343.184 178.58C343.65 178.873 343.997 179.253 344.224 179.72C344.45 180.173 344.564 180.707 344.564 181.32C344.564 182.333 344.217 183.213 343.524 183.96C342.83 184.693 341.764 185.113 340.324 185.22V187H339.104ZM342.844 181.46C342.844 180.86 342.624 180.393 342.184 180.06C341.757 179.727 341.137 179.44 340.324 179.2V183.74C341.19 183.647 341.824 183.38 342.224 182.94C342.637 182.5 342.844 182.007 342.844 181.46ZM336.664 175.06C336.664 175.567 336.87 175.967 337.284 176.26C337.697 176.54 338.304 176.8 339.104 177.04V172.96C338.384 173.013 337.797 173.233 337.344 173.62C336.89 173.993 336.664 174.473 336.664 175.06ZM357.799 185H355.719C355.319 184.653 354.832 184.187 354.259 183.6C353.166 184.693 351.886 185.24 350.419 185.24C349.206 185.24 348.206 184.92 347.419 184.28C346.646 183.627 346.259 182.707 346.259 181.52C346.259 180.573 346.519 179.8 347.039 179.2C347.559 178.6 348.279 178.053 349.199 177.56C348.519 176.4 348.179 175.4 348.179 174.56C348.179 173.68 348.499 172.947 349.139 172.36C349.792 171.76 350.592 171.46 351.539 171.46C352.432 171.46 353.159 171.693 353.719 172.16C354.279 172.613 354.559 173.253 354.559 174.08C354.559 174.56 354.472 174.993 354.299 175.38C354.126 175.753 353.846 176.1 353.459 176.42C353.072 176.727 352.732 176.967 352.439 177.14C352.159 177.313 351.732 177.547 351.159 177.84C351.586 178.427 352.099 179.06 352.699 179.74C353.179 180.313 353.706 180.907 354.279 181.52C354.866 180.653 355.346 179.64 355.719 178.48L357.019 179.04C356.366 180.56 355.759 181.707 355.199 182.48C355.866 183.173 356.732 184.013 357.799 185ZM350.559 184C351.546 184 352.479 183.56 353.359 182.68C352.479 181.76 351.866 181.087 351.519 180.66C350.906 179.953 350.346 179.247 349.839 178.54C349.212 178.927 348.726 179.347 348.379 179.8C348.046 180.24 347.879 180.78 347.879 181.42C347.879 182.22 348.139 182.853 348.659 183.32C349.192 183.773 349.826 184 350.559 184ZM349.739 174.58C349.739 175.207 350.006 175.973 350.539 176.88C351.406 176.453 352.059 176.04 352.499 175.64C352.952 175.24 353.179 174.74 353.179 174.14C353.179 173.66 353.032 173.293 352.739 173.04C352.446 172.773 352.066 172.64 351.599 172.64C351.079 172.64 350.639 172.827 350.279 173.2C349.919 173.56 349.739 174.02 349.739 174.58ZM362.212 177.22H361.292L361.392 174.92L359.472 176.18L359.032 175.38L361.072 174.34L359.032 173.3L359.472 172.52L361.392 173.76L361.292 171.46H362.212L362.092 173.76L364.012 172.52L364.472 173.3L362.432 174.34L364.472 175.38L364.012 176.18L362.092 174.92L362.212 177.22ZM369.748 188.28L368.848 188.98C366.968 186.407 366.028 183.46 366.028 180.14C366.028 176.833 366.968 173.887 368.848 171.3L369.748 171.98C369.042 173.38 368.515 174.7 368.168 175.94C367.835 177.18 367.668 178.58 367.668 180.14C367.668 181.7 367.835 183.107 368.168 184.36C368.515 185.6 369.042 186.907 369.748 188.28ZM371.349 188.98L370.449 188.28C371.156 186.907 371.683 185.6 372.029 184.36C372.376 183.107 372.549 181.7 372.549 180.14C372.549 178.567 372.376 177.16 372.029 175.92C371.683 174.68 371.156 173.367 370.449 171.98L371.349 171.3C373.243 173.873 374.189 176.82 374.189 180.14C374.189 183.473 373.243 186.42 371.349 188.98ZM384.47 178.78H380.63V183.04H379.49V178.78H375.65V177.74H379.49V173.6H380.63V177.74H384.47V178.78ZM389.111 181.3C388.591 180.86 388.331 180.32 388.331 179.68C388.331 179.28 388.417 178.913 388.591 178.58C388.777 178.247 389.004 177.973 389.271 177.76C389.537 177.547 389.824 177.327 390.131 177.1C390.451 176.86 390.744 176.64 391.011 176.44C391.277 176.24 391.497 176 391.671 175.72C391.857 175.44 391.951 175.133 391.951 174.8C391.951 174.267 391.744 173.827 391.331 173.48C390.931 173.12 390.351 172.94 389.591 172.94C388.297 172.94 387.237 173.487 386.411 174.58L385.411 173.5C386.464 172.14 387.911 171.46 389.751 171.46C390.937 171.46 391.884 171.76 392.591 172.36C393.311 172.947 393.671 173.68 393.671 174.56C393.671 175.24 393.464 175.847 393.051 176.38C392.651 176.9 392.211 177.3 391.731 177.58C391.251 177.86 390.804 178.193 390.391 178.58C389.991 178.967 389.791 179.373 389.791 179.8C389.791 180.173 389.971 180.5 390.331 180.78L389.111 181.3ZM390.291 184.88C390.077 185.093 389.824 185.2 389.531 185.2C389.237 185.2 388.977 185.093 388.751 184.88C388.537 184.667 388.431 184.407 388.431 184.1C388.431 183.793 388.537 183.533 388.751 183.32C388.977 183.107 389.237 183 389.531 183C389.824 183 390.077 183.107 390.291 183.32C390.517 183.533 390.631 183.793 390.631 184.1C390.631 184.407 390.517 184.667 390.291 184.88ZM399.149 188.8H397.929C397.262 188.8 396.676 188.547 396.169 188.04C395.676 187.547 395.429 186.907 395.429 186.12V182C395.429 181.6 395.336 181.273 395.149 181.02C394.976 180.753 394.722 180.62 394.389 180.62V179.62C394.722 179.62 394.976 179.493 395.149 179.24C395.336 178.973 395.429 178.64 395.429 178.24V174.14C395.429 173.34 395.676 172.693 396.169 172.2C396.676 171.693 397.262 171.44 397.929 171.44H399.149V172.54H397.929C397.569 172.54 397.256 172.693 396.989 173C396.736 173.293 396.609 173.673 396.609 174.14V178.36C396.609 179.267 396.302 179.853 395.689 180.12C396.302 180.387 396.609 180.973 396.609 181.88V186.1C396.609 186.553 396.736 186.933 396.989 187.24C397.256 187.547 397.569 187.7 397.929 187.7H399.149V188.8ZM399.824 188.8V187.7H401.044C401.404 187.7 401.711 187.547 401.964 187.24C402.231 186.933 402.364 186.553 402.364 186.1V181.88C402.364 180.973 402.671 180.387 403.284 180.12C402.671 179.853 402.364 179.267 402.364 178.36V174.14C402.364 173.673 402.231 173.293 401.964 173C401.711 172.693 401.404 172.54 401.044 172.54H399.824V171.44H401.044C401.711 171.44 402.291 171.693 402.784 172.2C403.291 172.693 403.544 173.34 403.544 174.14V178.24C403.544 178.64 403.631 178.973 403.804 179.24C403.991 179.493 404.251 179.62 404.584 179.62V180.62C404.251 180.62 403.991 180.753 403.804 181.02C403.631 181.273 403.544 181.6 403.544 182V186.12C403.544 186.907 403.291 187.547 402.784 188.04C402.291 188.547 401.711 188.8 401.044 188.8H399.824Z" fill="white"/>
<path d="M215.98 157H214.08L212.9 154.04H206.26L205.08 157H203.18L208.54 143.66H210.6L215.98 157ZM212.4 152.56L209.58 145.38L206.74 152.56H212.4ZM223.804 157H217.724V143.66H223.664C224.811 143.66 225.717 143.973 226.384 144.6C227.064 145.227 227.404 146.047 227.404 147.06C227.404 147.86 227.177 148.54 226.724 149.1C226.271 149.647 225.717 149.987 225.064 150.12C225.771 150.227 226.377 150.6 226.884 151.24C227.404 151.88 227.664 152.6 227.664 153.4C227.664 154.48 227.317 155.353 226.624 156.02C225.944 156.673 225.004 157 223.804 157ZM223.384 149.44C224.117 149.44 224.684 149.24 225.084 148.84C225.484 148.44 225.684 147.927 225.684 147.3C225.684 146.673 225.477 146.16 225.064 145.76C224.664 145.347 224.104 145.14 223.384 145.14H219.384V149.44H223.384ZM223.464 155.52C224.237 155.52 224.844 155.313 225.284 154.9C225.724 154.487 225.944 153.927 225.944 153.22C225.944 152.567 225.724 152.02 225.284 151.58C224.857 151.14 224.251 150.92 223.464 150.92H219.384V155.52H223.464ZM236.622 157.24C234.676 157.24 233.042 156.6 231.722 155.32C230.416 154.027 229.762 152.367 229.762 150.34C229.762 148.313 230.416 146.66 231.722 145.38C233.042 144.087 234.676 143.44 236.622 143.44C238.756 143.44 240.442 144.32 241.682 146.08L240.282 146.86C239.896 146.287 239.376 145.82 238.722 145.46C238.069 145.1 237.369 144.92 236.622 144.92C235.156 144.92 233.929 145.433 232.942 146.46C231.969 147.473 231.482 148.767 231.482 150.34C231.482 151.913 231.969 153.213 232.942 154.24C233.929 155.253 235.156 155.76 236.622 155.76C237.369 155.76 238.069 155.587 238.722 155.24C239.376 154.88 239.896 154.407 240.282 153.82L241.702 154.6C240.409 156.36 238.716 157.24 236.622 157.24ZM248.378 157H243.818V143.66H248.378C250.418 143.66 252.064 144.293 253.318 145.56C254.584 146.827 255.218 148.42 255.218 150.34C255.218 152.273 254.584 153.867 253.318 155.12C252.064 156.373 250.418 157 248.378 157ZM248.378 155.52C249.951 155.52 251.198 155.027 252.118 154.04C253.038 153.053 253.498 151.82 253.498 150.34C253.498 148.847 253.044 147.607 252.138 146.62C251.231 145.633 249.978 145.14 248.378 145.14H245.478V155.52H248.378ZM266.562 157H257.822V143.66H266.562V145.14H259.482V149.44H266.422V150.92H259.482V155.52H266.562V157ZM270.868 157H269.208V143.66H277.948V145.14H270.868V149.44H277.808V150.92H270.868V157ZM286.525 157.26C284.591 157.26 282.965 156.62 281.645 155.34C280.325 154.047 279.665 152.38 279.665 150.34C279.665 148.3 280.325 146.64 281.645 145.36C282.965 144.08 284.591 143.44 286.525 143.44C288.631 143.44 290.358 144.273 291.705 145.94L290.385 146.76C289.958 146.2 289.398 145.753 288.705 145.42C288.025 145.087 287.298 144.92 286.525 144.92C285.058 144.92 283.831 145.433 282.845 146.46C281.871 147.473 281.385 148.767 281.385 150.34C281.385 151.913 281.871 153.213 282.845 154.24C283.831 155.267 285.058 155.78 286.525 155.78C287.258 155.78 287.938 155.64 288.565 155.36C289.205 155.067 289.718 154.727 290.105 154.34V151.62H285.525V150.14H291.765V154.96C290.391 156.493 288.645 157.26 286.525 157.26ZM305.582 157H303.922V150.88H296.122V157H294.462V143.66H296.122V149.4H303.922V143.66H305.582V157ZM310.361 157H308.701V143.66H310.361V157ZM315.626 157.24C314.186 157.24 313.026 156.727 312.146 155.7L313.006 154.44C313.739 155.32 314.579 155.76 315.526 155.76C316.339 155.76 316.986 155.507 317.466 155C317.959 154.48 318.206 153.8 318.206 152.96V143.66H319.866V152.98C319.866 154.367 319.472 155.427 318.686 156.16C317.899 156.88 316.879 157.24 315.626 157.24ZM333.098 157H331.038L325.978 151L324.638 152.52V157H322.978V143.66H324.638V150.56L330.538 143.66H332.618L327.058 150L333.098 157ZM342.85 157H334.99V143.66H336.65V155.52H342.85V157ZM358.245 157H356.585V146.02L352.045 157H351.365L346.845 146.02V157H345.185V143.66H347.565L351.705 153.7L355.865 143.66H358.245V157ZM372.397 157H370.797L363.017 146.36V157H361.357V143.66H363.057L370.737 154.08V143.66H372.397V157ZM381.597 157.24C379.637 157.24 378.044 156.587 376.817 155.28C375.59 153.973 374.977 152.327 374.977 150.34C374.977 148.353 375.59 146.707 376.817 145.4C378.044 144.093 379.637 143.44 381.597 143.44C383.544 143.44 385.13 144.093 386.357 145.4C387.597 146.707 388.217 148.353 388.217 150.34C388.217 152.327 387.597 153.973 386.357 155.28C385.13 156.587 383.544 157.24 381.597 157.24ZM381.597 155.76C383.064 155.76 384.244 155.253 385.137 154.24C386.044 153.213 386.497 151.913 386.497 150.34C386.497 148.753 386.044 147.453 385.137 146.44C384.244 145.427 383.064 144.92 381.597 144.92C380.117 144.92 378.93 145.427 378.037 146.44C377.144 147.453 376.697 148.753 376.697 150.34C376.697 151.913 377.144 153.213 378.037 154.24C378.93 155.253 380.117 155.76 381.597 155.76ZM392.47 157H390.81V143.66H396.17C397.463 143.66 398.483 144.047 399.23 144.82C399.977 145.593 400.35 146.547 400.35 147.68C400.35 148.813 399.97 149.767 399.21 150.54C398.463 151.313 397.45 151.7 396.17 151.7H392.47V157ZM395.97 150.22C396.757 150.22 397.397 149.987 397.89 149.52C398.383 149.04 398.63 148.427 398.63 147.68C398.63 146.933 398.383 146.327 397.89 145.86C397.397 145.38 396.757 145.14 395.97 145.14H392.47V150.22H395.97ZM408.628 157.24C406.668 157.24 405.075 156.587 403.848 155.28C402.622 153.973 402.008 152.327 402.008 150.34C402.008 148.353 402.622 146.707 403.848 145.4C405.075 144.093 406.668 143.44 408.628 143.44C410.575 143.44 412.162 144.093 413.388 145.4C414.628 146.707 415.248 148.353 415.248 150.34C415.248 152.327 414.635 153.967 413.408 155.26L414.688 156.62L413.528 157.62L412.228 156.24C411.188 156.907 409.988 157.24 408.628 157.24ZM408.628 155.76C409.575 155.76 410.422 155.533 411.168 155.08L409.268 153.02L410.428 152.04L412.308 154.08C413.122 153.08 413.528 151.833 413.528 150.34C413.528 148.753 413.075 147.453 412.168 146.44C411.275 145.427 410.095 144.92 408.628 144.92C407.148 144.92 405.962 145.427 405.068 146.44C404.175 147.453 403.728 148.753 403.728 150.34C403.728 151.913 404.175 153.213 405.068 154.24C405.962 155.253 407.148 155.76 408.628 155.76ZM427.521 157H425.561L422.161 151.7H419.501V157H417.841V143.66H423.201C424.441 143.66 425.448 144.027 426.221 144.76C426.995 145.493 427.381 146.467 427.381 147.68C427.381 148.827 427.048 149.74 426.381 150.42C425.715 151.1 424.895 151.48 423.921 151.56L427.521 157ZM423.001 150.24C423.788 150.24 424.428 150 424.921 149.52C425.415 149.04 425.661 148.427 425.661 147.68C425.661 146.933 425.415 146.327 424.921 145.86C424.428 145.38 423.788 145.14 423.001 145.14H419.501V150.24H423.001ZM434.329 157.24C432.169 157.24 430.463 156.533 429.209 155.12L430.189 153.86C431.323 155.127 432.723 155.76 434.389 155.76C435.469 155.76 436.263 155.533 436.769 155.08C437.276 154.613 437.529 154.073 437.529 153.46C437.529 152.993 437.383 152.6 437.089 152.28C436.796 151.96 436.416 151.713 435.949 151.54C435.496 151.353 434.983 151.187 434.409 151.04C433.849 150.893 433.289 150.733 432.729 150.56C432.169 150.373 431.656 150.153 431.189 149.9C430.736 149.647 430.363 149.287 430.069 148.82C429.776 148.353 429.629 147.8 429.629 147.16C429.629 146.067 430.063 145.18 430.929 144.5C431.796 143.807 432.889 143.46 434.209 143.46C436.196 143.46 437.776 144.08 438.949 145.32L437.949 146.54C436.976 145.473 435.689 144.94 434.089 144.94C433.289 144.94 432.629 145.14 432.109 145.54C431.603 145.927 431.349 146.433 431.349 147.06C431.349 147.527 431.543 147.913 431.929 148.22C432.329 148.527 432.816 148.753 433.389 148.9C433.976 149.047 434.609 149.233 435.289 149.46C435.983 149.673 436.616 149.907 437.189 150.16C437.776 150.4 438.263 150.793 438.649 151.34C439.049 151.887 439.249 152.547 439.249 153.32C439.249 154.413 438.843 155.34 438.029 156.1C437.229 156.86 435.996 157.24 434.329 157.24ZM446.571 157H444.911V145.14H440.691V143.66H450.811V145.14H446.571V157ZM462.497 155.8C461.577 156.76 460.23 157.24 458.457 157.24C456.684 157.24 455.33 156.76 454.397 155.8C453.477 154.827 453.017 153.5 453.017 151.82V143.66H454.677V151.78C454.677 153.02 455.004 153.993 455.657 154.7C456.31 155.407 457.244 155.76 458.457 155.76C459.67 155.76 460.604 155.407 461.257 154.7C461.91 153.993 462.237 153.02 462.237 151.78V143.66H463.897V151.8C463.897 153.493 463.43 154.827 462.497 155.8ZM473.061 157H471.001L465.641 143.66H467.541L472.041 155.18L476.541 143.66H478.441L473.061 157ZM492.185 157H490.385L487.445 146.24L484.505 157H482.705L478.905 143.66H480.745L483.705 154.78L486.765 143.66H488.145L491.205 154.78L494.145 143.66H495.985L492.185 157ZM509.061 157H507.061L502.801 151.32L498.541 157H496.521L501.721 150.16L496.821 143.66H498.841L502.801 149L506.741 143.66H508.761L503.881 150.14L509.061 157ZM516.428 157H514.768V151.36L509.508 143.66H511.448L515.588 149.86L519.728 143.66H521.668L516.428 151.36V157ZM532.568 157H522.808V155.62L530.308 145.14H522.808V143.66H532.428V145.04L524.928 155.52H532.568V157Z" fill="white"/>
<path d="M212.168 22H204.872V5.992H212C213.376 5.992 214.464 6.368 215.264 7.12C216.08 7.872 216.488 8.856 216.488 10.072C216.488 11.032 216.216 11.848 215.672 12.52C215.128 13.176 214.464 13.584 213.68 13.744C214.528 13.872 215.256 14.32 215.864 15.088C216.488 15.856 216.8 16.72 216.8 17.68C216.8 18.976 216.384 20.024 215.552 20.824C214.736 21.608 213.608 22 212.168 22ZM211.664 12.928C212.544 12.928 213.224 12.688 213.704 12.208C214.184 11.728 214.424 11.112 214.424 10.36C214.424 9.608 214.176 8.992 213.68 8.512C213.2 8.016 212.528 7.768 211.664 7.768H206.864V12.928H211.664ZM211.76 20.224C212.688 20.224 213.416 19.976 213.944 19.48C214.472 18.984 214.736 18.312 214.736 17.464C214.736 16.68 214.472 16.024 213.944 15.496C213.432 14.968 212.704 14.704 211.76 14.704H206.864V20.224H211.76ZM223.806 22H222.006V11.992H218.646V10.408H227.19V11.992H223.806V22ZM238.766 20.536C237.726 21.704 236.342 22.288 234.614 22.288C232.886 22.288 231.494 21.704 230.438 20.536C229.398 19.368 228.878 17.92 228.878 16.192C228.878 14.464 229.398 13.024 230.438 11.872C231.494 10.704 232.886 10.12 234.614 10.12C236.342 10.12 237.726 10.704 238.766 11.872C239.822 13.024 240.35 14.464 240.35 16.192C240.35 17.92 239.822 19.368 238.766 20.536ZM231.782 19.384C232.486 20.248 233.43 20.68 234.614 20.68C235.798 20.68 236.734 20.248 237.422 19.384C238.11 18.504 238.454 17.44 238.454 16.192C238.454 14.944 238.11 13.888 237.422 13.024C236.734 12.16 235.798 11.728 234.614 11.728C233.43 11.728 232.486 12.168 231.782 13.048C231.094 13.912 230.75 14.96 230.75 16.192C230.75 17.44 231.094 18.504 231.782 19.384ZM248.996 22.288C247.364 22.288 246.06 21.608 245.084 20.248V26.416H243.284V10.408H245.084V12.136C245.516 11.528 246.076 11.04 246.764 10.672C247.452 10.304 248.196 10.12 248.996 10.12C250.532 10.12 251.772 10.672 252.716 11.776C253.676 12.864 254.156 14.336 254.156 16.192C254.156 18.048 253.676 19.528 252.716 20.632C251.772 21.736 250.532 22.288 248.996 22.288ZM248.54 20.68C249.676 20.68 250.58 20.264 251.252 19.432C251.924 18.584 252.26 17.504 252.26 16.192C252.26 14.88 251.924 13.808 251.252 12.976C250.58 12.144 249.676 11.728 248.54 11.728C247.852 11.728 247.18 11.912 246.524 12.28C245.884 12.632 245.404 13.064 245.084 13.576V18.808C245.404 19.336 245.884 19.784 246.524 20.152C247.18 20.504 247.852 20.68 248.54 20.68ZM258.747 22H257.019V10.408H258.819V19.264L264.891 10.408H266.667V22H264.867V12.976L258.747 22ZM270.021 10.408H271.821V13.672C271.821 14.712 272.061 15.432 272.541 15.832C273.021 16.232 273.765 16.432 274.773 16.432C276.021 16.432 277.045 16.224 277.845 15.808V10.408H279.645V22H277.845V17.272C276.821 17.784 275.645 18.04 274.317 18.04C272.813 18.04 271.717 17.736 271.029 17.128C270.357 16.52 270.021 15.552 270.021 14.224V10.408ZM285.045 22H283.245V10.408H285.045V15.232H291.093V10.408H292.893V22H291.093V16.816H285.045V22ZM305.704 20.536C304.664 21.704 303.28 22.288 301.552 22.288C299.824 22.288 298.432 21.704 297.376 20.536C296.336 19.368 295.816 17.92 295.816 16.192C295.816 14.464 296.336 13.024 297.376 11.872C298.432 10.704 299.824 10.12 301.552 10.12C303.28 10.12 304.664 10.704 305.704 11.872C306.76 13.024 307.288 14.464 307.288 16.192C307.288 17.92 306.76 19.368 305.704 20.536ZM298.72 19.384C299.424 20.248 300.368 20.68 301.552 20.68C302.736 20.68 303.672 20.248 304.36 19.384C305.048 18.504 305.392 17.44 305.392 16.192C305.392 14.944 305.048 13.888 304.36 13.024C303.672 12.16 302.736 11.728 301.552 11.728C300.368 11.728 299.424 12.168 298.72 13.048C298.032 13.912 297.688 14.96 297.688 16.192C297.688 17.44 298.032 18.504 298.72 19.384ZM315.454 22.288C313.726 22.288 312.31 21.728 311.206 20.608C310.102 19.472 309.55 18 309.55 16.192C309.55 14.496 310.094 13.064 311.182 11.896C312.27 10.712 313.63 10.12 315.262 10.12C316.974 10.12 318.326 10.712 319.318 11.896C320.326 13.064 320.83 14.544 320.83 16.336V16.792H311.446C311.526 17.928 311.942 18.88 312.694 19.648C313.446 20.416 314.422 20.8 315.622 20.8C317.062 20.8 318.254 20.312 319.198 19.336L320.062 20.512C318.878 21.696 317.342 22.288 315.454 22.288ZM319.054 15.472C319.038 14.48 318.702 13.592 318.046 12.808C317.39 12.008 316.454 11.608 315.238 11.608C314.086 11.608 313.174 12 312.502 12.784C311.846 13.568 311.494 14.464 311.446 15.472H319.054ZM331.733 22H329.933V10.408H331.733V15.232H337.781V10.408H339.581V22H337.781V16.816H331.733V22ZM352.223 22H350.423V20.68C349.447 21.752 348.167 22.288 346.583 22.288C345.511 22.288 344.567 21.944 343.751 21.256C342.935 20.568 342.527 19.632 342.527 18.448C342.527 17.232 342.927 16.296 343.727 15.64C344.543 14.968 345.495 14.632 346.583 14.632C348.231 14.632 349.511 15.16 350.423 16.216V14.128C350.423 13.36 350.151 12.76 349.607 12.328C349.063 11.896 348.359 11.68 347.495 11.68C346.135 11.68 344.951 12.216 343.943 13.288L343.103 12.04C344.335 10.76 345.879 10.12 347.735 10.12C349.063 10.12 350.143 10.44 350.975 11.08C351.807 11.72 352.223 12.704 352.223 14.032V22ZM347.231 20.992C348.671 20.992 349.735 20.512 350.423 19.552V17.368C349.735 16.408 348.671 15.928 347.231 15.928C346.399 15.928 345.711 16.168 345.167 16.648C344.639 17.112 344.375 17.72 344.375 18.472C344.375 19.208 344.639 19.816 345.167 20.296C345.711 20.76 346.399 20.992 347.231 20.992ZM355.591 10.408H357.391V13.672C357.391 14.712 357.631 15.432 358.111 15.832C358.591 16.232 359.335 16.432 360.343 16.432C361.591 16.432 362.615 16.224 363.415 15.808V10.408H365.215V22H363.415V17.272C362.391 17.784 361.215 18.04 359.887 18.04C358.383 18.04 357.287 17.736 356.599 17.128C355.927 16.52 355.591 15.552 355.591 14.224V10.408ZM374.048 22.288C372.32 22.288 370.904 21.728 369.8 20.608C368.696 19.472 368.144 18 368.144 16.192C368.144 14.496 368.688 13.064 369.776 11.896C370.864 10.712 372.224 10.12 373.856 10.12C375.568 10.12 376.92 10.712 377.912 11.896C378.92 13.064 379.424 14.544 379.424 16.336V16.792H370.04C370.12 17.928 370.536 18.88 371.288 19.648C372.04 20.416 373.016 20.8 374.216 20.8C375.656 20.8 376.848 20.312 377.792 19.336L378.656 20.512C377.472 21.696 375.936 22.288 374.048 22.288ZM377.648 15.472C377.632 14.48 377.296 13.592 376.64 12.808C375.984 12.008 375.048 11.608 373.832 11.608C372.68 11.608 371.768 12 371.096 12.784C370.44 13.568 370.088 14.464 370.04 15.472H377.648ZM388.051 22.288C386.419 22.288 385.115 21.608 384.139 20.248V26.416H382.339V10.408H384.139V12.136C384.571 11.528 385.131 11.04 385.819 10.672C386.507 10.304 387.251 10.12 388.051 10.12C389.587 10.12 390.827 10.672 391.771 11.776C392.731 12.864 393.211 14.336 393.211 16.192C393.211 18.048 392.731 19.528 391.771 20.632C390.827 21.736 389.587 22.288 388.051 22.288ZM387.595 20.68C388.731 20.68 389.635 20.264 390.307 19.432C390.979 18.584 391.315 17.504 391.315 16.192C391.315 14.88 390.979 13.808 390.307 12.976C389.635 12.144 388.731 11.728 387.595 11.728C386.907 11.728 386.235 11.912 385.579 12.28C384.939 12.632 384.459 13.064 384.139 13.576V18.808C384.459 19.336 384.939 19.784 385.579 20.152C386.235 20.504 386.907 20.68 387.595 20.68ZM399.985 22H398.185V11.992H394.825V10.408H403.369V11.992H399.985V22ZM414.778 22H412.978V20.68C412.002 21.752 410.722 22.288 409.138 22.288C408.066 22.288 407.122 21.944 406.306 21.256C405.49 20.568 405.082 19.632 405.082 18.448C405.082 17.232 405.482 16.296 406.282 15.64C407.098 14.968 408.05 14.632 409.138 14.632C410.786 14.632 412.066 15.16 412.978 16.216V14.128C412.978 13.36 412.706 12.76 412.162 12.328C411.618 11.896 410.914 11.68 410.05 11.68C408.69 11.68 407.506 12.216 406.498 13.288L405.658 12.04C406.89 10.76 408.434 10.12 410.29 10.12C411.618 10.12 412.698 10.44 413.53 11.08C414.362 11.72 414.778 12.704 414.778 14.032V22ZM409.786 20.992C411.226 20.992 412.29 20.512 412.978 19.552V17.368C412.29 16.408 411.226 15.928 409.786 15.928C408.954 15.928 408.266 16.168 407.722 16.648C407.194 17.112 406.93 17.72 406.93 18.472C406.93 19.208 407.194 19.816 407.722 20.296C408.266 20.76 408.954 20.992 409.786 20.992ZM420.186 22H418.386V10.408H420.186V15.232H426.234V10.408H428.034V22H426.234V16.816H420.186V22ZM433.356 22H431.628V10.408H433.428V19.264L439.5 10.408H441.276V22H439.476V12.976L433.356 22ZM450.102 22.288C448.374 22.288 446.958 21.728 445.854 20.608C444.75 19.472 444.198 18 444.198 16.192C444.198 14.496 444.742 13.064 445.83 11.896C446.918 10.712 448.278 10.12 449.91 10.12C451.622 10.12 452.974 10.712 453.966 11.896C454.974 13.064 455.478 14.544 455.478 16.336V16.792H446.094C446.174 17.928 446.59 18.88 447.342 19.648C448.094 20.416 449.07 20.8 450.27 20.8C451.71 20.8 452.902 20.312 453.846 19.336L454.71 20.512C453.526 21.696 451.99 22.288 450.102 22.288ZM453.702 15.472C453.686 14.48 453.35 13.592 452.694 12.808C452.038 12.008 451.102 11.608 449.886 11.608C448.734 11.608 447.822 12 447.15 12.784C446.494 13.568 446.142 14.464 446.094 15.472H453.702Z" fill="white"/>
<rect x="203" y="38" width="355" height="2" fill="white"/>
</svg>
