<svg width="590" height="191" viewBox="0 0 590 191" fill="none" xmlns="http://www.w3.org/2000/svg">
<path d="M126.99 128H110.142L105.878 116.248H76.1335L71.7655 128H54.9175L81.7495 58.632H100.262L126.99 128ZM101.822 103.248L91.0055 73.4L80.1895 103.248H101.822ZM176.451 128H163.243V122.8C159.638 127.099 154.334 129.248 147.331 129.248C142.825 129.248 138.769 127.792 135.163 124.88C131.627 121.899 129.859 117.808 129.859 112.608C129.859 107.2 131.593 103.144 135.059 100.44C138.595 97.736 142.686 96.384 147.331 96.384C154.473 96.384 159.777 98.4293 163.243 102.52V95.76C163.243 93.1947 162.238 91.1493 160.227 89.624C158.217 88.0987 155.547 87.336 152.219 87.336C146.742 87.336 141.854 89.312 137.555 93.264L132.563 84.424C138.526 79.1547 145.841 76.52 154.507 76.52C160.955 76.52 166.225 78.0107 170.315 80.992C174.406 83.9733 176.451 88.8267 176.451 95.552V128ZM152.635 120.304C157.558 120.304 161.094 118.848 163.243 115.936V109.696C161.094 106.784 157.558 105.328 152.635 105.328C149.931 105.328 147.678 106.021 145.875 107.408C144.073 108.725 143.171 110.563 143.171 112.92C143.171 115.208 144.073 117.011 145.875 118.328C147.678 119.645 149.931 120.304 152.635 120.304Z" fill="white"/>
<path d="M209.656 89H205.112V67.656H215.096C217.336 67.656 219.085 68.3173 220.344 69.64C221.624 70.9413 222.264 72.5733 222.264 74.536C222.264 76.4773 221.624 78.1093 220.344 79.432C219.064 80.7547 217.315 81.416 215.096 81.416H209.656V89ZM214.488 77.416C215.405 77.416 216.152 77.16 216.728 76.648C217.325 76.1147 217.624 75.4107 217.624 74.536C217.624 73.6613 217.325 72.968 216.728 72.456C216.152 71.9227 215.405 71.656 214.488 71.656H209.656V77.416H214.488ZM229.049 89H224.985V73.544H229.049V75.656C229.625 74.9307 230.361 74.3333 231.257 73.864C232.153 73.3947 233.059 73.16 233.977 73.16V77.128C233.699 77.064 233.326 77.032 232.857 77.032C232.174 77.032 231.449 77.2027 230.681 77.544C229.913 77.8853 229.369 78.3013 229.049 78.792V89ZM249.636 87.048C248.143 88.6053 246.159 89.384 243.684 89.384C241.209 89.384 239.225 88.6053 237.732 87.048C236.26 85.4693 235.524 83.5387 235.524 81.256C235.524 78.9733 236.26 77.0533 237.732 75.496C239.225 73.9387 241.209 73.16 243.684 73.16C246.159 73.16 248.143 73.9387 249.636 75.496C251.129 77.0533 251.876 78.9733 251.876 81.256C251.876 83.5387 251.129 85.4693 249.636 87.048ZM240.804 84.488C241.508 85.3413 242.468 85.768 243.684 85.768C244.9 85.768 245.86 85.3413 246.564 84.488C247.289 83.6133 247.652 82.536 247.652 81.256C247.652 79.9973 247.289 78.9413 246.564 78.088C245.86 77.2133 244.9 76.776 243.684 76.776C242.468 76.776 241.508 77.2133 240.804 78.088C240.1 78.9413 239.748 79.9973 239.748 81.256C239.748 82.536 240.1 83.6133 240.804 84.488ZM267.909 89H263.365L259.845 83.784L256.293 89H251.781L257.253 81.064L252.101 73.544H256.645L259.845 78.312L263.013 73.544H267.557L262.373 81.064L267.909 89ZM271.938 71.88C271.277 71.88 270.701 71.6453 270.21 71.176C269.741 70.6853 269.506 70.1093 269.506 69.448C269.506 68.7867 269.741 68.2213 270.21 67.752C270.701 67.2827 271.277 67.048 271.938 67.048C272.621 67.048 273.197 67.2827 273.666 67.752C274.136 68.2213 274.37 68.7867 274.37 69.448C274.37 70.1093 274.136 70.6853 273.666 71.176C273.197 71.6453 272.621 71.88 271.938 71.88ZM273.986 89H269.922V73.544H273.986V89ZM301.28 89H297.184V79.24C297.184 77.5973 296.416 76.776 294.88 76.776C294.219 76.776 293.6 76.9573 293.024 77.32C292.469 77.6827 292.021 78.0987 291.68 78.568V89H287.584V79.24C287.584 77.5973 286.816 76.776 285.28 76.776C284.64 76.776 284.032 76.9573 283.456 77.32C282.88 77.6827 282.421 78.1093 282.08 78.6V89H278.016V73.544H282.08V75.56C282.464 75.0053 283.136 74.472 284.096 73.96C285.056 73.4267 286.069 73.16 287.136 73.16C289.376 73.16 290.805 74.0987 291.424 75.976C291.915 75.208 292.64 74.5467 293.6 73.992C294.581 73.4373 295.627 73.16 296.736 73.16C298.187 73.16 299.307 73.5547 300.096 74.344C300.885 75.112 301.28 76.2747 301.28 77.832V89ZM318.61 89H314.546V87.4C313.437 88.7227 311.805 89.384 309.65 89.384C308.263 89.384 307.015 88.936 305.906 88.04C304.818 87.1227 304.274 85.864 304.274 84.264C304.274 82.6 304.807 81.352 305.874 80.52C306.962 79.688 308.221 79.272 309.65 79.272C311.847 79.272 313.479 79.9013 314.546 81.16V79.08C314.546 78.2907 314.237 77.6613 313.618 77.192C312.999 76.7227 312.178 76.488 311.154 76.488C309.469 76.488 307.965 77.096 306.642 78.312L305.106 75.592C306.941 73.9707 309.191 73.16 311.858 73.16C313.842 73.16 315.463 73.6187 316.722 74.536C317.981 75.4533 318.61 76.9467 318.61 79.016V89ZM311.282 86.632C312.797 86.632 313.885 86.184 314.546 85.288V83.368C313.885 82.472 312.797 82.024 311.282 82.024C310.45 82.024 309.757 82.2373 309.202 82.664C308.647 83.0693 308.37 83.6347 308.37 84.36C308.37 85.064 308.647 85.6187 309.202 86.024C309.757 86.4293 310.45 86.632 311.282 86.632ZM350.029 89H345.645L335.469 75.08V89H330.924V67.656H335.597L345.485 81.064V67.656H350.029V89ZM367.261 87.048C365.768 88.6053 363.784 89.384 361.309 89.384C358.834 89.384 356.85 88.6053 355.357 87.048C353.885 85.4693 353.149 83.5387 353.149 81.256C353.149 78.9733 353.885 77.0533 355.357 75.496C356.85 73.9387 358.834 73.16 361.309 73.16C363.784 73.16 365.768 73.9387 367.261 75.496C368.754 77.0533 369.501 78.9733 369.501 81.256C369.501 83.5387 368.754 85.4693 367.261 87.048ZM358.429 84.488C359.133 85.3413 360.093 85.768 361.309 85.768C362.525 85.768 363.485 85.3413 364.189 84.488C364.914 83.6133 365.277 82.536 365.277 81.256C365.277 79.9973 364.914 78.9413 364.189 78.088C363.485 77.2133 362.525 76.776 361.309 76.776C360.093 76.776 359.133 77.2133 358.429 78.088C357.725 78.9413 357.373 79.9973 357.373 81.256C357.373 82.536 357.725 83.6133 358.429 84.488ZM380.9 89H376.516L370.308 73.544H374.66L378.692 84.296L382.724 73.544H387.108L380.9 89ZM402.266 89H398.202V87.4C397.093 88.7227 395.461 89.384 393.306 89.384C391.92 89.384 390.672 88.936 389.562 88.04C388.474 87.1227 387.93 85.864 387.93 84.264C387.93 82.6 388.464 81.352 389.53 80.52C390.618 79.688 391.877 79.272 393.306 79.272C395.504 79.272 397.136 79.9013 398.202 81.16V79.08C398.202 78.2907 397.893 77.6613 397.274 77.192C396.656 76.7227 395.834 76.488 394.81 76.488C393.125 76.488 391.621 77.096 390.298 78.312L388.762 75.592C390.597 73.9707 392.848 73.16 395.514 73.16C397.498 73.16 399.12 73.6187 400.378 74.536C401.637 75.4533 402.266 76.9467 402.266 79.016V89ZM394.938 86.632C396.453 86.632 397.541 86.184 398.202 85.288V83.368C397.541 82.472 396.453 82.024 394.938 82.024C394.106 82.024 393.413 82.2373 392.858 82.664C392.304 83.0693 392.026 83.6347 392.026 84.36C392.026 85.064 392.304 85.6187 392.858 86.024C393.413 86.4293 394.106 86.632 394.938 86.632ZM426.165 89H414.581V67.656H425.813C427.754 67.656 429.258 68.1893 430.325 69.256C431.413 70.3013 431.957 71.5813 431.957 73.096C431.957 74.3973 431.605 75.4853 430.901 76.36C430.197 77.2347 429.322 77.7787 428.277 77.992C429.429 78.1627 430.399 78.7493 431.189 79.752C431.978 80.7547 432.373 81.9173 432.373 83.24C432.373 84.904 431.829 86.28 430.741 87.368C429.653 88.456 428.127 89 426.165 89ZM424.821 76.2C425.589 76.2 426.197 75.9867 426.645 75.56C427.093 75.1333 427.317 74.5787 427.317 73.896C427.317 73.2133 427.082 72.6587 426.613 72.232C426.165 71.784 425.567 71.56 424.821 71.56H419.125V76.2H424.821ZM424.981 85.064C425.834 85.064 426.506 84.8507 426.997 84.424C427.487 83.976 427.733 83.368 427.733 82.6C427.733 81.896 427.487 81.3093 426.997 80.84C426.506 80.3493 425.834 80.104 424.981 80.104H419.125V85.064H424.981ZM448.824 87.048C447.33 88.6053 445.346 89.384 442.872 89.384C440.397 89.384 438.413 88.6053 436.92 87.048C435.448 85.4693 434.712 83.5387 434.712 81.256C434.712 78.9733 435.448 77.0533 436.92 75.496C438.413 73.9387 440.397 73.16 442.872 73.16C445.346 73.16 447.33 73.9387 448.824 75.496C450.317 77.0533 451.064 78.9733 451.064 81.256C451.064 83.5387 450.317 85.4693 448.824 87.048ZM439.992 84.488C440.696 85.3413 441.656 85.768 442.872 85.768C444.088 85.768 445.048 85.3413 445.752 84.488C446.477 83.6133 446.84 82.536 446.84 81.256C446.84 79.9973 446.477 78.9413 445.752 78.088C445.048 77.2133 444.088 76.776 442.872 76.776C441.656 76.776 440.696 77.2133 439.992 78.088C439.288 78.9413 438.936 79.9973 438.936 81.256C438.936 82.536 439.288 83.6133 439.992 84.488ZM458.143 89H454.079V67.656H458.143V89ZM476.892 89H472.796V87.016C471.538 88.5947 469.948 89.384 468.028 89.384C466.023 89.384 464.38 88.6693 463.1 87.24C461.82 85.7893 461.18 83.8053 461.18 81.288C461.18 78.8133 461.82 76.84 463.1 75.368C464.38 73.896 466.023 73.16 468.028 73.16C469.991 73.16 471.58 73.9493 472.796 75.528V67.656H476.892V89ZM469.276 85.768C469.959 85.768 470.631 85.608 471.292 85.288C471.954 84.9467 472.455 84.52 472.796 84.008V78.536C472.455 78.024 471.954 77.608 471.292 77.288C470.631 76.9467 469.959 76.776 469.276 76.776C468.124 76.776 467.186 77.192 466.46 78.024C465.735 78.856 465.372 79.944 465.372 81.288C465.372 82.6107 465.735 83.688 466.46 84.52C467.186 85.352 468.124 85.768 469.276 85.768Z" fill="white"/>
<path d="M212.6 129H210.06V128C209.367 128.827 208.347 129.24 207 129.24C206.133 129.24 205.353 128.96 204.66 128.4C203.98 127.827 203.64 127.04 203.64 126.04C203.64 125 203.973 124.22 204.64 123.7C205.32 123.18 206.107 122.92 207 122.92C208.373 122.92 209.393 123.313 210.06 124.1V122.8C210.06 122.307 209.867 121.913 209.48 121.62C209.093 121.327 208.58 121.18 207.94 121.18C206.887 121.18 205.947 121.56 205.12 122.32L204.16 120.62C205.307 119.607 206.713 119.1 208.38 119.1C209.62 119.1 210.633 119.387 211.42 119.96C212.207 120.533 212.6 121.467 212.6 122.76V129ZM208.02 127.52C208.967 127.52 209.647 127.24 210.06 126.68V125.48C209.647 124.92 208.967 124.64 208.02 124.64C207.5 124.64 207.067 124.773 206.72 125.04C206.373 125.293 206.2 125.647 206.2 126.1C206.2 126.54 206.373 126.887 206.72 127.14C207.067 127.393 207.5 127.52 208.02 127.52ZM217.659 125.9C217.873 126.207 218.186 126.467 218.599 126.68C219.013 126.88 219.426 126.98 219.839 126.98C220.573 126.98 221.166 126.727 221.619 126.22C222.073 125.7 222.299 125.02 222.299 124.18C222.299 123.34 222.073 122.66 221.619 122.14C221.166 121.62 220.573 121.36 219.839 121.36C219.426 121.36 219.013 121.467 218.599 121.68C218.186 121.893 217.873 122.16 217.659 122.48V125.9ZM217.659 129H215.119V115.66H217.659V120.58C218.419 119.593 219.413 119.1 220.639 119.1C221.893 119.1 222.919 119.56 223.719 120.48C224.519 121.4 224.919 122.633 224.919 124.18C224.919 125.753 224.519 126.993 223.719 127.9C222.919 128.793 221.893 129.24 220.639 129.24C219.439 129.24 218.446 128.747 217.659 127.76V129ZM231.338 129.24C229.845 129.24 228.618 128.767 227.658 127.82C226.698 126.873 226.218 125.653 226.218 124.16C226.218 122.68 226.698 121.467 227.658 120.52C228.618 119.573 229.845 119.1 231.338 119.1C233.045 119.1 234.318 119.68 235.158 120.84L233.498 122.4C233.031 121.707 232.351 121.36 231.458 121.36C230.685 121.36 230.051 121.62 229.558 122.14C229.078 122.647 228.838 123.32 228.838 124.16C228.838 125 229.078 125.68 229.558 126.2C230.051 126.72 230.685 126.98 231.458 126.98C232.325 126.98 233.005 126.633 233.498 125.94L235.158 127.48C234.318 128.653 233.045 129.24 231.338 129.24ZM246.019 129H243.459V127.76C242.672 128.747 241.679 129.24 240.479 129.24C239.225 129.24 238.199 128.793 237.399 127.9C236.599 126.993 236.199 125.753 236.199 124.18C236.199 122.633 236.599 121.4 237.399 120.48C238.199 119.56 239.225 119.1 240.479 119.1C241.705 119.1 242.699 119.593 243.459 120.58V115.66H246.019V129ZM241.259 126.98C241.685 126.98 242.105 126.88 242.519 126.68C242.932 126.467 243.245 126.2 243.459 125.88V122.46C243.245 122.14 242.932 121.88 242.519 121.68C242.105 121.467 241.685 121.36 241.259 121.36C240.539 121.36 239.952 121.62 239.499 122.14C239.045 122.66 238.819 123.34 238.819 124.18C238.819 125.007 239.045 125.68 239.499 126.2C239.952 126.72 240.539 126.98 241.259 126.98ZM253.077 129.24C251.584 129.24 250.351 128.773 249.377 127.84C248.404 126.907 247.917 125.68 247.917 124.16C247.917 122.733 248.384 121.533 249.317 120.56C250.264 119.587 251.464 119.1 252.917 119.1C254.357 119.1 255.524 119.593 256.417 120.58C257.311 121.553 257.757 122.833 257.757 124.42V124.98H250.577C250.657 125.62 250.944 126.153 251.437 126.58C251.931 127.007 252.571 127.22 253.357 127.22C253.784 127.22 254.244 127.133 254.737 126.96C255.244 126.787 255.644 126.553 255.937 126.26L257.057 127.9C256.084 128.793 254.757 129.24 253.077 129.24ZM255.297 123.26C255.257 122.713 255.037 122.22 254.637 121.78C254.251 121.34 253.677 121.12 252.917 121.12C252.197 121.12 251.637 121.34 251.237 121.78C250.837 122.207 250.604 122.7 250.537 123.26H255.297ZM262.712 129H260.152V121.56H258.552V119.34H260.152V118.82C260.152 117.793 260.452 116.98 261.052 116.38C261.652 115.767 262.439 115.46 263.412 115.46C264.532 115.46 265.372 115.76 265.932 116.36L264.972 117.86C264.705 117.593 264.352 117.46 263.912 117.46C263.552 117.46 263.259 117.58 263.032 117.82C262.819 118.047 262.712 118.38 262.712 118.82V119.34H264.672V121.56H262.712V129ZM270.095 132.92C268.428 132.92 267.042 132.44 265.935 131.48L267.075 129.64C267.795 130.44 268.802 130.84 270.095 130.84C270.815 130.84 271.435 130.647 271.955 130.26C272.488 129.887 272.755 129.267 272.755 128.4V127.42C271.955 128.433 270.962 128.94 269.775 128.94C268.522 128.94 267.495 128.513 266.695 127.66C265.908 126.793 265.515 125.58 265.515 124.02C265.515 122.473 265.908 121.267 266.695 120.4C267.495 119.533 268.522 119.1 269.775 119.1C270.975 119.1 271.968 119.593 272.755 120.58V119.34H275.315V128.34C275.315 129.22 275.155 129.973 274.835 130.6C274.528 131.227 274.108 131.7 273.575 132.02C273.042 132.34 272.488 132.567 271.915 132.7C271.355 132.847 270.748 132.92 270.095 132.92ZM270.575 126.68C270.988 126.68 271.402 126.573 271.815 126.36C272.228 126.147 272.542 125.887 272.755 125.58V122.46C272.542 122.14 272.228 121.88 271.815 121.68C271.415 121.467 271.002 121.36 270.575 121.36C269.842 121.36 269.248 121.6 268.795 122.08C268.355 122.56 268.135 123.207 268.135 124.02C268.135 124.833 268.355 125.48 268.795 125.96C269.248 126.44 269.842 126.68 270.575 126.68ZM286.914 129H284.374V123.12C284.374 122.48 284.221 122.027 283.914 121.76C283.608 121.493 283.161 121.36 282.574 121.36C281.681 121.36 280.948 121.74 280.374 122.5V129H277.834V115.66H280.374V120.6C280.721 120.187 281.188 119.833 281.774 119.54C282.374 119.247 283.041 119.1 283.774 119.1C284.814 119.1 285.594 119.367 286.114 119.9C286.648 120.433 286.914 121.18 286.914 122.14V129ZM290.696 118.3C290.282 118.3 289.922 118.153 289.616 117.86C289.322 117.553 289.176 117.193 289.176 116.78C289.176 116.367 289.322 116.013 289.616 115.72C289.922 115.427 290.282 115.28 290.696 115.28C291.122 115.28 291.482 115.427 291.776 115.72C292.069 116.013 292.216 116.367 292.216 116.78C292.216 117.193 292.069 117.553 291.776 117.86C291.482 118.153 291.122 118.3 290.696 118.3ZM291.976 129H289.436V119.34H291.976V129ZM295.754 118.3C295.341 118.3 294.981 118.153 294.674 117.86C294.381 117.553 294.234 117.193 294.234 116.78C294.234 116.367 294.381 116.013 294.674 115.72C294.981 115.427 295.341 115.28 295.754 115.28C296.181 115.28 296.541 115.427 296.834 115.72C297.128 116.013 297.274 116.367 297.274 116.78C297.274 117.193 297.128 117.553 296.834 117.86C296.541 118.153 296.181 118.3 295.754 118.3ZM293.594 132.92C293.008 132.92 292.554 132.867 292.234 132.76C291.901 132.667 291.548 132.493 291.174 132.24L291.874 130.34C292.274 130.673 292.708 130.84 293.174 130.84C293.574 130.84 293.894 130.707 294.134 130.44C294.374 130.173 294.494 129.78 294.494 129.26V119.34H297.034V129.26C297.034 130.393 296.741 131.287 296.154 131.94C295.581 132.593 294.728 132.92 293.594 132.92ZM308.993 129H305.813L303.253 125.28L302.093 126.52V129H299.553V115.66H302.093V123.64L305.753 119.34H308.873L305.053 123.72L308.993 129ZM312.796 129H310.256V115.66H312.796V129ZM329.855 129H327.295V122.9C327.295 121.873 326.815 121.36 325.855 121.36C325.441 121.36 325.055 121.473 324.695 121.7C324.348 121.927 324.068 122.187 323.855 122.48V129H321.295V122.9C321.295 121.873 320.815 121.36 319.855 121.36C319.455 121.36 319.075 121.473 318.715 121.7C318.355 121.927 318.068 122.193 317.855 122.5V129H315.315V119.34H317.855V120.6C318.095 120.253 318.515 119.92 319.115 119.6C319.715 119.267 320.348 119.1 321.015 119.1C322.415 119.1 323.308 119.687 323.695 120.86C324.001 120.38 324.455 119.967 325.055 119.62C325.668 119.273 326.321 119.1 327.015 119.1C327.921 119.1 328.621 119.347 329.115 119.84C329.608 120.32 329.855 121.047 329.855 122.02V129ZM341.406 129H338.866V123.16C338.866 121.96 338.273 121.36 337.086 121.36C336.166 121.36 335.433 121.74 334.886 122.5V129H332.346V119.34H334.886V120.6C335.726 119.6 336.853 119.1 338.266 119.1C339.306 119.1 340.086 119.373 340.606 119.92C341.139 120.467 341.406 121.22 341.406 122.18V129ZM352.128 127.78C351.195 128.753 349.955 129.24 348.408 129.24C346.861 129.24 345.621 128.753 344.688 127.78C343.768 126.793 343.308 125.587 343.308 124.16C343.308 122.733 343.768 121.533 344.688 120.56C345.621 119.587 346.861 119.1 348.408 119.1C349.955 119.1 351.195 119.587 352.128 120.56C353.061 121.533 353.528 122.733 353.528 124.16C353.528 125.587 353.061 126.793 352.128 127.78ZM346.608 126.18C347.048 126.713 347.648 126.98 348.408 126.98C349.168 126.98 349.768 126.713 350.208 126.18C350.661 125.633 350.888 124.96 350.888 124.16C350.888 123.373 350.661 122.713 350.208 122.18C349.768 121.633 349.168 121.36 348.408 121.36C347.648 121.36 347.048 121.633 346.608 122.18C346.168 122.713 345.948 123.373 345.948 124.16C345.948 124.96 346.168 125.633 346.608 126.18ZM360.932 129.24C359.719 129.24 358.726 128.747 357.952 127.76V132.68H355.412V119.34H357.952V120.56C358.712 119.587 359.706 119.1 360.932 119.1C362.199 119.1 363.226 119.553 364.012 120.46C364.812 121.353 365.212 122.587 365.212 124.16C365.212 125.733 364.812 126.973 364.012 127.88C363.226 128.787 362.199 129.24 360.932 129.24ZM360.132 126.98C360.866 126.98 361.452 126.72 361.892 126.2C362.346 125.68 362.572 125 362.572 124.16C362.572 123.333 362.346 122.66 361.892 122.14C361.452 121.62 360.866 121.36 360.132 121.36C359.719 121.36 359.306 121.467 358.892 121.68C358.479 121.893 358.166 122.153 357.952 122.46V125.88C358.166 126.187 358.479 126.447 358.892 126.66C359.319 126.873 359.732 126.98 360.132 126.98ZM371.493 126.98C371.893 126.98 372.299 126.873 372.713 126.66C373.139 126.447 373.459 126.187 373.673 125.88V122.46C373.459 122.153 373.146 121.893 372.733 121.68C372.319 121.467 371.906 121.36 371.493 121.36C370.773 121.36 370.186 121.62 369.733 122.14C369.279 122.66 369.053 123.333 369.053 124.16C369.053 125 369.279 125.68 369.733 126.2C370.186 126.72 370.773 126.98 371.493 126.98ZM370.693 129.24C369.426 129.24 368.393 128.787 367.593 127.88C366.806 126.973 366.413 125.733 366.413 124.16C366.413 122.587 366.806 121.353 367.593 120.46C368.393 119.553 369.426 119.1 370.693 119.1C371.919 119.1 372.913 119.587 373.673 120.56V119.34H376.233V132.68H373.673V127.76C372.899 128.747 371.906 129.24 370.693 129.24ZM381.273 129H378.733V119.34H381.273V120.66C381.633 120.207 382.093 119.833 382.653 119.54C383.213 119.247 383.779 119.1 384.353 119.1V121.58C384.179 121.54 383.946 121.52 383.653 121.52C383.226 121.52 382.773 121.627 382.293 121.84C381.813 122.053 381.473 122.313 381.273 122.62V129ZM389.42 129.24C388.58 129.24 387.773 129.107 387 128.84C386.24 128.573 385.606 128.207 385.1 127.74L386.2 125.96C386.573 126.307 387.08 126.613 387.72 126.88C388.36 127.147 388.966 127.28 389.54 127.28C390.073 127.28 390.473 127.187 390.74 127C391.02 126.813 391.16 126.56 391.16 126.24C391.16 126 391.013 125.807 390.72 125.66C390.44 125.5 390.086 125.387 389.66 125.32C389.246 125.253 388.786 125.153 388.28 125.02C387.786 124.887 387.326 124.727 386.9 124.54C386.486 124.353 386.133 124.06 385.84 123.66C385.56 123.247 385.42 122.74 385.42 122.14C385.42 121.287 385.773 120.567 386.48 119.98C387.186 119.393 388.153 119.1 389.38 119.1C390.873 119.1 392.173 119.54 393.28 120.42L392.26 122.16C391.953 121.84 391.54 121.573 391.02 121.36C390.513 121.147 389.973 121.04 389.4 121.04C388.946 121.04 388.58 121.133 388.3 121.32C388.02 121.493 387.88 121.72 387.88 122C387.88 122.213 388.02 122.393 388.3 122.54C388.58 122.673 388.933 122.773 389.36 122.84C389.786 122.907 390.246 123.013 390.74 123.16C391.233 123.293 391.693 123.46 392.12 123.66C392.546 123.847 392.9 124.153 393.18 124.58C393.46 125.007 393.6 125.527 393.6 126.14C393.6 127.047 393.226 127.793 392.48 128.38C391.746 128.953 390.726 129.24 389.42 129.24ZM398.711 129.24C397.818 129.24 397.138 129.013 396.671 128.56C396.204 128.107 395.971 127.453 395.971 126.6V121.56H394.371V119.34H395.971V116.7H398.531V119.34H400.491V121.56H398.531V125.92C398.531 126.227 398.611 126.48 398.771 126.68C398.931 126.88 399.144 126.98 399.411 126.98C399.811 126.98 400.104 126.887 400.291 126.7L400.831 128.62C400.364 129.033 399.658 129.24 398.711 129.24ZM411.289 129H408.749V127.78C407.882 128.753 406.749 129.24 405.349 129.24C404.309 129.24 403.529 128.973 403.009 128.44C402.489 127.907 402.229 127.16 402.229 126.2V119.34H404.769V125.2C404.769 126.387 405.362 126.98 406.549 126.98C407.442 126.98 408.175 126.613 408.749 125.88V119.34H411.289V129ZM419.051 129H416.311L412.431 119.34H415.151L417.671 126.06L420.191 119.34H422.931L419.051 129ZM435.245 129H432.545L430.505 122.42L428.465 129H425.745L422.805 119.34H425.445L427.245 125.84L429.365 119.34H431.625L433.745 125.84L435.545 119.34H438.185L435.245 129ZM448.256 129H445.416L443.216 125.74L440.996 129H438.176L441.596 124.04L438.376 119.34H441.216L443.216 122.32L445.196 119.34H448.036L444.796 124.04L448.256 129ZM449.174 132.78L449.554 130.5C449.794 130.607 450.061 130.66 450.354 130.66C451.034 130.66 451.481 130.427 451.694 129.96L452.054 129.14L448.134 119.34H450.854L453.374 126.06L455.894 119.34H458.634L454.094 130.58C453.761 131.433 453.294 132.027 452.694 132.36C452.094 132.707 451.341 132.893 450.434 132.92C449.967 132.92 449.547 132.873 449.174 132.78ZM467.228 129H459.348V127.1L463.708 121.56H459.348V119.34H467.148V121.18L462.728 126.78H467.228V129Z" fill="white"/>
<path d="M209.9 185H207.06V175.32L204.84 177.58L203.22 175.88L207.42 171.66H209.9V185ZM222.203 185H212.163V182.78C215.016 180.66 216.903 179.153 217.823 178.26C218.756 177.353 219.223 176.507 219.223 175.72C219.223 175.173 219.009 174.747 218.583 174.44C218.156 174.133 217.649 173.98 217.063 173.98C215.663 173.98 214.469 174.493 213.483 175.52L211.863 173.64C212.489 172.92 213.256 172.38 214.163 172.02C215.083 171.647 216.029 171.46 217.003 171.46C218.469 171.46 219.683 171.847 220.643 172.62C221.616 173.393 222.103 174.427 222.103 175.72C222.103 176.813 221.669 177.887 220.803 178.94C219.949 179.98 218.603 181.167 216.763 182.5H222.203V185ZM228.875 185.24C227.702 185.24 226.662 185.047 225.755 184.66C224.848 184.26 224.135 183.74 223.615 183.1L225.095 181.2C225.548 181.667 226.108 182.04 226.775 182.32C227.442 182.587 228.108 182.72 228.775 182.72C229.575 182.72 230.195 182.567 230.635 182.26C231.075 181.94 231.295 181.527 231.295 181.02C231.295 180.487 231.082 180.1 230.655 179.86C230.228 179.607 229.548 179.48 228.615 179.48C227.775 179.48 227.222 179.493 226.955 179.52V176.96C227.115 176.973 227.668 176.98 228.615 176.98C230.255 176.98 231.075 176.507 231.075 175.56C231.075 175.053 230.842 174.667 230.375 174.4C229.922 174.12 229.328 173.98 228.595 173.98C227.302 173.98 226.175 174.44 225.215 175.36L223.795 173.58C225.048 172.167 226.748 171.46 228.895 171.46C230.455 171.46 231.682 171.787 232.575 172.44C233.482 173.093 233.935 173.973 233.935 175.08C233.935 175.88 233.648 176.553 233.075 177.1C232.502 177.633 231.815 177.973 231.015 178.12C231.802 178.2 232.515 178.527 233.155 179.1C233.808 179.66 234.135 180.4 234.135 181.32C234.135 182.48 233.655 183.427 232.695 184.16C231.735 184.88 230.462 185.24 228.875 185.24ZM244.673 185H241.833V182.24H235.453V180L240.753 171.66H244.673V179.74H246.393V182.24H244.673V185ZM241.833 179.74V174.18L238.233 179.74H241.833ZM253.007 185.24C250.807 185.24 249.093 184.573 247.867 183.24L249.447 181.26C250.38 182.233 251.56 182.72 252.987 182.72C253.747 182.72 254.347 182.533 254.787 182.16C255.24 181.773 255.467 181.3 255.467 180.74C255.467 180.14 255.253 179.66 254.827 179.3C254.4 178.94 253.813 178.76 253.067 178.76C251.96 178.76 251.027 179.12 250.267 179.84L248.287 179.32V171.66H257.447V174.16H251.127V177.42C251.873 176.673 252.853 176.3 254.067 176.3C255.253 176.3 256.26 176.693 257.087 177.48C257.927 178.267 258.347 179.313 258.347 180.62C258.347 182.033 257.86 183.16 256.887 184C255.913 184.827 254.62 185.24 253.007 185.24ZM265.495 185.24C263.575 185.24 262.135 184.6 261.175 183.32C260.215 182.04 259.735 180.387 259.735 178.36C259.735 176.293 260.288 174.627 261.395 173.36C262.501 172.093 264.021 171.46 265.955 171.46C267.501 171.46 268.815 171.92 269.895 172.84L268.615 175.02C267.881 174.327 266.995 173.98 265.955 173.98C264.981 173.98 264.181 174.347 263.555 175.08C262.928 175.8 262.615 176.693 262.615 177.76C262.615 177.88 262.621 177.973 262.635 178.04C262.968 177.56 263.448 177.153 264.075 176.82C264.701 176.487 265.361 176.32 266.055 176.32C267.321 176.32 268.395 176.707 269.275 177.48C270.155 178.24 270.595 179.3 270.595 180.66C270.595 181.98 270.121 183.073 269.175 183.94C268.228 184.807 267.001 185.24 265.495 185.24ZM265.335 182.72C266.055 182.72 266.628 182.52 267.055 182.12C267.495 181.72 267.715 181.267 267.715 180.76C267.715 180.107 267.475 179.613 266.995 179.28C266.515 178.933 265.928 178.76 265.235 178.76C264.168 178.76 263.301 179.18 262.635 180.02C262.701 180.767 262.955 181.407 263.395 181.94C263.835 182.46 264.481 182.72 265.335 182.72ZM276.763 185H273.643L278.423 174.16H271.703V171.66H281.723V173.64L276.763 185ZM288.181 185.24C286.674 185.24 285.401 184.92 284.361 184.28C283.334 183.64 282.821 182.727 282.821 181.54C282.821 180.767 283.088 180.08 283.621 179.48C284.154 178.867 284.841 178.413 285.681 178.12C283.921 177.507 283.041 176.46 283.041 174.98C283.041 173.82 283.548 172.947 284.561 172.36C285.588 171.76 286.794 171.46 288.181 171.46C289.061 171.46 289.874 171.573 290.621 171.8C291.368 172.027 292.001 172.42 292.521 172.98C293.054 173.527 293.321 174.193 293.321 174.98C293.321 176.447 292.434 177.493 290.661 178.12C291.501 178.413 292.188 178.867 292.721 179.48C293.268 180.08 293.541 180.767 293.541 181.54C293.541 182.713 293.021 183.627 291.981 184.28C290.941 184.92 289.674 185.24 288.181 185.24ZM288.181 177C288.728 176.92 289.234 176.747 289.701 176.48C290.181 176.213 290.421 175.86 290.421 175.42C290.421 174.953 290.214 174.587 289.801 174.32C289.388 174.04 288.848 173.9 288.181 173.9C287.514 173.9 286.968 174.04 286.541 174.32C286.128 174.587 285.921 174.953 285.921 175.42C285.921 175.86 286.161 176.213 286.641 176.48C287.121 176.747 287.634 176.92 288.181 177ZM288.181 182.8C288.874 182.8 289.461 182.653 289.941 182.36C290.421 182.053 290.661 181.66 290.661 181.18C290.661 180.687 290.388 180.287 289.841 179.98C289.308 179.673 288.754 179.48 288.181 179.4C287.608 179.48 287.048 179.673 286.501 179.98C285.968 180.287 285.701 180.687 285.701 181.18C285.701 181.66 285.934 182.053 286.401 182.36C286.881 182.653 287.474 182.8 288.181 182.8ZM299.51 185.22C297.923 185.22 296.617 184.76 295.59 183.84L296.85 181.66C297.583 182.353 298.47 182.7 299.51 182.7C300.55 182.7 301.363 182.333 301.95 181.6C302.55 180.853 302.85 179.967 302.85 178.94V178.64C302.503 179.12 302.017 179.527 301.39 179.86C300.763 180.193 300.103 180.36 299.41 180.36C298.143 180.36 297.063 179.98 296.17 179.22C295.29 178.447 294.85 177.38 294.85 176.02C294.85 174.7 295.323 173.607 296.27 172.74C297.23 171.873 298.463 171.44 299.97 171.44C301.263 171.44 302.35 171.76 303.23 172.4C304.123 173.04 304.757 173.867 305.13 174.88C305.517 175.88 305.71 177.033 305.71 178.34C305.71 180.393 305.157 182.053 304.05 183.32C302.957 184.587 301.443 185.22 299.51 185.22ZM300.21 177.92C301.277 177.92 302.15 177.507 302.83 176.68C302.763 175.933 302.51 175.293 302.07 174.76C301.63 174.227 300.977 173.96 300.11 173.96C299.39 173.96 298.817 174.16 298.39 174.56C297.963 174.96 297.75 175.413 297.75 175.92C297.75 176.573 297.99 177.073 298.47 177.42C298.95 177.753 299.53 177.92 300.21 177.92ZM315.718 184.22C314.865 184.9 313.831 185.24 312.618 185.24C311.405 185.24 310.365 184.9 309.498 184.22C308.645 183.527 308.031 182.673 307.658 181.66C307.285 180.647 307.098 179.54 307.098 178.34C307.098 177.14 307.285 176.033 307.658 175.02C308.031 174.007 308.645 173.16 309.498 172.48C310.365 171.8 311.405 171.46 312.618 171.46C313.831 171.46 314.865 171.8 315.718 172.48C316.571 173.16 317.185 174.007 317.558 175.02C317.945 176.033 318.138 177.14 318.138 178.34C318.138 179.54 317.945 180.647 317.558 181.66C317.185 182.673 316.571 183.527 315.718 184.22ZM310.618 181.52C311.045 182.32 311.711 182.72 312.618 182.72C313.525 182.72 314.185 182.32 314.598 181.52C315.025 180.72 315.238 179.66 315.238 178.34C315.238 177.02 315.025 175.967 314.598 175.18C314.185 174.38 313.525 173.98 312.618 173.98C311.711 173.98 311.045 174.38 310.618 175.18C310.191 175.967 309.978 177.02 309.978 178.34C309.978 179.66 310.191 180.72 310.618 181.52ZM322.5 180.66H320.26L319.84 171.66H322.9L322.5 180.66ZM322.52 184.72C322.2 185.04 321.82 185.2 321.38 185.2C320.94 185.2 320.56 185.04 320.24 184.72C319.934 184.4 319.78 184.027 319.78 183.6C319.78 183.16 319.934 182.78 320.24 182.46C320.56 182.14 320.94 181.98 321.38 181.98C321.82 181.98 322.2 182.14 322.52 182.46C322.84 182.78 323 183.16 323 183.6C323 184.027 322.84 184.4 322.52 184.72ZM330.978 186.4C329.164 186.4 327.651 185.8 326.438 184.6C325.238 183.387 324.638 181.893 324.638 180.12C324.638 178.733 325.004 177.433 325.738 176.22C326.484 174.993 327.471 174.027 328.698 173.32C329.924 172.6 331.218 172.24 332.578 172.24C334.444 172.24 335.958 172.833 337.118 174.02C338.291 175.207 338.878 176.653 338.878 178.36C338.878 179.907 338.464 181.12 337.638 182C336.811 182.867 335.904 183.3 334.918 183.3C334.358 183.3 333.911 183.16 333.578 182.88C333.244 182.587 333.044 182.233 332.978 181.82L332.958 181.7C332.611 182.193 332.178 182.587 331.658 182.88C331.138 183.16 330.611 183.3 330.078 183.3C329.131 183.3 328.378 182.987 327.818 182.36C327.258 181.733 326.978 180.927 326.978 179.94C326.978 178.62 327.438 177.473 328.358 176.5C329.278 175.527 330.324 175.04 331.498 175.04C332.071 175.04 332.571 175.167 332.998 175.42C333.438 175.66 333.771 175.98 333.998 176.38L334.217 175.32H336.478L335.458 180.2C335.418 180.44 335.398 180.6 335.398 180.68C335.398 181.28 335.644 181.58 336.138 181.58C336.604 181.58 337.031 181.307 337.418 180.76C337.818 180.2 338.018 179.4 338.018 178.36C338.018 176.773 337.511 175.487 336.498 174.5C335.498 173.513 334.164 173.02 332.498 173.02C330.604 173.02 328.951 173.733 327.538 175.16C326.124 176.573 325.418 178.213 325.418 180.08C325.418 181.653 325.951 182.973 327.018 184.04C328.098 185.107 329.444 185.64 331.058 185.64C332.338 185.64 333.558 185.273 334.718 184.54L335.138 185.14C333.831 185.98 332.444 186.4 330.978 186.4ZM330.958 181.5C331.798 181.5 332.538 181.067 333.178 180.2L333.678 177.86C333.344 177.18 332.804 176.84 332.058 176.84C331.284 176.84 330.631 177.133 330.098 177.72C329.564 178.307 329.298 178.98 329.298 179.74C329.298 180.26 329.444 180.687 329.738 181.02C330.044 181.34 330.451 181.5 330.958 181.5ZM344.922 187V185.2C342.975 185.027 341.402 184.333 340.202 183.12L341.742 180.96C342.622 181.893 343.682 182.467 344.922 182.68V179.52C344.428 179.4 344.008 179.287 343.662 179.18C343.328 179.06 342.948 178.893 342.522 178.68C342.108 178.453 341.775 178.213 341.522 177.96C341.268 177.693 341.055 177.353 340.882 176.94C340.708 176.513 340.622 176.04 340.622 175.52C340.622 174.48 341.008 173.587 341.782 172.84C342.555 172.08 343.602 171.633 344.922 171.5V169.64H346.822V171.54C348.422 171.713 349.775 172.307 350.882 173.32L349.302 175.4C348.608 174.773 347.782 174.34 346.822 174.1V176.92C347.315 177.04 347.735 177.16 348.082 177.28C348.428 177.4 348.808 177.573 349.222 177.8C349.648 178.013 349.988 178.253 350.242 178.52C350.508 178.787 350.728 179.133 350.902 179.56C351.088 179.973 351.182 180.44 351.182 180.96C351.182 182.107 350.808 183.06 350.062 183.82C349.315 184.58 348.235 185.033 346.822 185.18V187H344.922ZM348.302 181.28C348.302 180.747 347.808 180.32 346.822 180V182.68C347.288 182.587 347.648 182.413 347.902 182.16C348.168 181.893 348.302 181.6 348.302 181.28ZM343.522 175.28C343.522 175.773 343.988 176.153 344.922 176.42V173.98C344.482 174.033 344.135 174.18 343.882 174.42C343.642 174.647 343.522 174.933 343.522 175.28ZM364.647 185H361.407C361.127 184.733 360.793 184.4 360.407 184C359.313 184.827 358.1 185.24 356.767 185.24C355.487 185.24 354.433 184.907 353.607 184.24C352.78 183.573 352.367 182.62 352.367 181.38C352.367 180.46 352.62 179.7 353.127 179.1C353.647 178.5 354.347 177.98 355.227 177.54C354.64 176.433 354.347 175.473 354.347 174.66C354.347 173.753 354.707 172.993 355.427 172.38C356.147 171.767 357.06 171.46 358.167 171.46C359.153 171.46 359.98 171.72 360.647 172.24C361.327 172.747 361.667 173.427 361.667 174.28C361.667 174.76 361.58 175.193 361.407 175.58C361.233 175.967 360.967 176.307 360.607 176.6C360.26 176.893 359.927 177.133 359.607 177.32C359.3 177.493 358.893 177.7 358.387 177.94C358.68 178.327 359.067 178.807 359.547 179.38C359.693 179.567 359.9 179.82 360.167 180.14C360.433 180.46 360.6 180.66 360.667 180.74C361.2 179.913 361.607 179.053 361.887 178.16L363.927 179.1C363.367 180.327 362.747 181.4 362.067 182.32C362.96 183.28 363.82 184.173 364.647 185ZM357.127 183.24C357.78 183.24 358.42 183.013 359.047 182.56C358.38 181.827 357.887 181.26 357.567 180.86C357.1 180.287 356.653 179.7 356.227 179.1C355.453 179.647 355.067 180.327 355.067 181.14C355.067 181.767 355.267 182.273 355.667 182.66C356.067 183.047 356.553 183.24 357.127 183.24ZM356.887 174.72C356.887 175.187 357.08 175.787 357.467 176.52C358.12 176.213 358.613 175.9 358.947 175.58C359.293 175.26 359.467 174.873 359.467 174.42C359.467 174.073 359.353 173.8 359.127 173.6C358.9 173.4 358.62 173.3 358.287 173.3C357.887 173.3 357.553 173.44 357.287 173.72C357.02 173.987 356.887 174.32 356.887 174.72ZM368.956 177.68H367.696L367.796 175.48L365.936 176.66L365.316 175.58L367.256 174.58L365.316 173.58L365.936 172.48L367.796 173.66L367.696 171.46H368.956L368.856 173.66L370.696 172.48L371.336 173.58L369.396 174.58L371.336 175.58L370.696 176.66L368.856 175.48L368.956 177.68ZM377.408 187.74L375.808 188.98C374.835 187.887 374.061 186.547 373.488 184.96C372.928 183.36 372.648 181.753 372.648 180.14C372.648 178.527 372.928 176.927 373.488 175.34C374.061 173.74 374.835 172.393 375.808 171.3L377.408 172.5C376.715 173.767 376.201 174.993 375.868 176.18C375.548 177.367 375.388 178.687 375.388 180.14C375.388 181.593 375.548 182.913 375.868 184.1C376.201 185.287 376.715 186.5 377.408 187.74ZM379.706 188.98L378.106 187.74C378.812 186.513 379.326 185.307 379.646 184.12C379.979 182.933 380.146 181.607 380.146 180.14C380.146 178.673 379.979 177.347 379.646 176.16C379.326 174.973 378.812 173.753 378.106 172.5L379.706 171.3C380.692 172.407 381.472 173.753 382.046 175.34C382.619 176.927 382.906 178.527 382.906 180.14C382.906 181.753 382.612 183.36 382.026 184.96C381.452 186.547 380.679 187.887 379.706 188.98ZM393.203 179.04H389.623V183.1H387.883V179.04H384.283V177.46H387.883V173.56H389.623V177.46H393.203V179.04ZM397.341 180.92C396.901 180.44 396.681 179.853 396.681 179.16C396.681 178.627 396.835 178.147 397.141 177.72C397.448 177.293 397.781 176.973 398.141 176.76C398.501 176.547 398.835 176.293 399.141 176C399.448 175.707 399.601 175.413 399.601 175.12C399.601 174.787 399.468 174.513 399.201 174.3C398.948 174.087 398.561 173.98 398.041 173.98C397.095 173.98 396.275 174.393 395.581 175.22L393.961 173.4C395.068 172.107 396.528 171.46 398.341 171.46C399.621 171.46 400.635 171.753 401.381 172.34C402.128 172.913 402.501 173.673 402.501 174.62C402.501 175.153 402.388 175.633 402.161 176.06C401.935 176.487 401.655 176.833 401.321 177.1C401.001 177.367 400.675 177.613 400.341 177.84C400.008 178.067 399.728 178.313 399.501 178.58C399.275 178.847 399.161 179.133 399.161 179.44C399.161 179.787 399.281 180.067 399.521 180.28L397.341 180.92ZM399.441 184.74C399.121 185.06 398.741 185.22 398.301 185.22C397.861 185.22 397.481 185.06 397.161 184.74C396.841 184.42 396.681 184.04 396.681 183.6C396.681 183.16 396.841 182.78 397.161 182.46C397.481 182.14 397.861 181.98 398.301 181.98C398.741 181.98 399.121 182.14 399.441 182.46C399.761 182.78 399.921 183.16 399.921 183.6C399.921 184.04 399.761 184.42 399.441 184.74ZM408.322 188.8H407.102C406.262 188.8 405.536 188.507 404.922 187.92C404.309 187.333 404.002 186.567 404.002 185.62V182.18C404.002 181.793 403.909 181.473 403.722 181.22C403.549 180.967 403.296 180.84 402.962 180.84V179.4C403.296 179.4 403.549 179.273 403.722 179.02C403.909 178.767 404.002 178.447 404.002 178.06V174.64C404.002 173.693 404.309 172.927 404.922 172.34C405.536 171.74 406.262 171.44 407.102 171.44H408.322V173.14H407.102C406.756 173.14 406.462 173.28 406.222 173.56C405.982 173.827 405.862 174.18 405.862 174.62V178.32C405.862 179.253 405.556 179.853 404.942 180.12C405.556 180.387 405.862 180.987 405.862 181.92V185.6C405.862 186.04 405.982 186.4 406.222 186.68C406.462 186.96 406.756 187.1 407.102 187.1H408.322V188.8ZM409.004 188.8V187.1H410.224C410.571 187.1 410.864 186.96 411.104 186.68C411.357 186.4 411.484 186.04 411.484 185.6V181.92C411.484 180.987 411.791 180.387 412.404 180.12C411.791 179.853 411.484 179.253 411.484 178.32V174.62C411.484 174.18 411.357 173.827 411.104 173.56C410.864 173.28 410.571 173.14 410.224 173.14H409.004V171.44H410.224C411.064 171.44 411.791 171.74 412.404 172.34C413.017 172.927 413.324 173.693 413.324 174.64V178.06C413.324 178.447 413.411 178.767 413.584 179.02C413.771 179.273 414.031 179.4 414.364 179.4V180.84C414.031 180.84 413.771 180.967 413.584 181.22C413.411 181.473 413.324 181.793 413.324 182.18V185.62C413.324 186.567 413.017 187.333 412.404 187.92C411.791 188.507 411.064 188.8 410.224 188.8H409.004Z" fill="white"/>
<path d="M216.76 157H213.52L212.7 154.74H206.98L206.14 157H202.9L208.06 143.66H211.62L216.76 157ZM211.92 152.24L209.84 146.5L207.76 152.24H211.92ZM225.232 157H217.992V143.66H225.012C226.225 143.66 227.165 143.993 227.832 144.66C228.512 145.313 228.852 146.113 228.852 147.06C228.852 147.873 228.632 148.553 228.192 149.1C227.752 149.647 227.205 149.987 226.552 150.12C227.272 150.227 227.879 150.593 228.372 151.22C228.865 151.847 229.112 152.573 229.112 153.4C229.112 154.44 228.772 155.3 228.092 155.98C227.412 156.66 226.459 157 225.232 157ZM224.392 149C224.872 149 225.252 148.867 225.532 148.6C225.812 148.333 225.952 147.987 225.952 147.56C225.952 147.133 225.805 146.787 225.512 146.52C225.232 146.24 224.859 146.1 224.392 146.1H220.832V149H224.392ZM224.492 154.54C225.025 154.54 225.445 154.407 225.752 154.14C226.059 153.86 226.212 153.48 226.212 153C226.212 152.56 226.059 152.193 225.752 151.9C225.445 151.593 225.025 151.44 224.492 151.44H220.832V154.54H224.492ZM237.714 157.24C235.687 157.24 233.994 156.6 232.634 155.32C231.287 154.027 230.614 152.367 230.614 150.34C230.614 148.313 231.287 146.66 232.634 145.38C233.994 144.087 235.687 143.44 237.714 143.44C240.207 143.44 242.067 144.527 243.294 146.7L240.854 147.9C240.56 147.34 240.127 146.88 239.554 146.52C238.994 146.147 238.38 145.96 237.714 145.96C236.5 145.96 235.5 146.373 234.714 147.2C233.927 148.027 233.534 149.073 233.534 150.34C233.534 151.607 233.927 152.653 234.714 153.48C235.5 154.307 236.5 154.72 237.714 154.72C238.38 154.72 238.994 154.54 239.554 154.18C240.127 153.82 240.56 153.353 240.854 152.78L243.294 153.96C242.027 156.147 240.167 157.24 237.714 157.24ZM250.244 157H244.984V143.66H250.244C252.337 143.66 254.037 144.273 255.344 145.5C256.664 146.727 257.324 148.34 257.324 150.34C257.324 152.34 256.671 153.953 255.364 155.18C254.057 156.393 252.351 157 250.244 157ZM250.244 154.5C251.524 154.5 252.537 154.1 253.284 153.3C254.044 152.5 254.424 151.513 254.424 150.34C254.424 149.113 254.057 148.113 253.324 147.34C252.591 146.553 251.564 146.16 250.244 146.16H247.824V154.5H250.244ZM268.78 157H259.34V143.66H268.78V146.16H262.18V148.98H268.64V151.48H262.18V154.5H268.78V157ZM273.84 157H271V143.66H280.44V146.16H273.84V148.98H280.3V151.48H273.84V157ZM288.885 157.26C286.885 157.26 285.199 156.62 283.825 155.34C282.465 154.06 281.785 152.393 281.785 150.34C281.785 148.273 282.465 146.607 283.825 145.34C285.199 144.073 286.885 143.44 288.885 143.44C291.312 143.44 293.152 144.433 294.405 146.42L292.045 147.7C291.725 147.193 291.285 146.78 290.725 146.46C290.179 146.127 289.565 145.96 288.885 145.96C287.672 145.96 286.672 146.373 285.885 147.2C285.099 148.027 284.705 149.073 284.705 150.34C284.705 151.607 285.099 152.653 285.885 153.48C286.672 154.307 287.672 154.72 288.885 154.72C289.445 154.72 289.985 154.62 290.505 154.42C291.025 154.22 291.432 153.98 291.725 153.7V152.1H288.205V149.62H294.565V154.74C293.059 156.42 291.165 157.26 288.885 157.26ZM308.82 157H305.96V151.4H299.66V157H296.82V143.66H299.66V148.9H305.96V143.66H308.82V157ZM314.289 157H311.449V143.66H314.289V157ZM319.317 157.24C317.811 157.24 316.617 156.807 315.737 155.94L316.977 153.76C317.644 154.4 318.351 154.72 319.097 154.72C319.724 154.72 320.224 154.527 320.597 154.14C320.984 153.753 321.177 153.233 321.177 152.58V143.66H324.017V152.62C324.017 154.14 323.591 155.293 322.737 156.08C321.884 156.853 320.744 157.24 319.317 157.24ZM338.084 157H334.584L330.544 151.66L329.504 152.9V157H326.664V143.66H329.504V149.62L334.224 143.66H337.724L332.424 149.92L338.084 157ZM347.859 157H339.379V143.66H342.219V154.5H347.859V157ZM364.307 157H361.447V147.66L357.687 157H356.447L352.687 147.66V157H349.847V143.66H353.827L357.067 151.72L360.307 143.66H364.307V157ZM378.897 157H376.157L369.797 148.3V157H366.957V143.66H369.877L376.057 152.04V143.66H378.897V157ZM387.847 157.24C385.834 157.24 384.167 156.593 382.847 155.3C381.54 153.993 380.887 152.34 380.887 150.34C380.887 148.34 381.54 146.693 382.847 145.4C384.167 144.093 385.834 143.44 387.847 143.44C389.874 143.44 391.54 144.087 392.847 145.38C394.167 146.673 394.827 148.327 394.827 150.34C394.827 152.353 394.167 154.007 392.847 155.3C391.54 156.593 389.874 157.24 387.847 157.24ZM384.907 153.48C385.654 154.307 386.634 154.72 387.847 154.72C389.06 154.72 390.04 154.307 390.787 153.48C391.534 152.653 391.907 151.607 391.907 150.34C391.907 149.073 391.534 148.027 390.787 147.2C390.04 146.373 389.06 145.96 387.847 145.96C386.634 145.96 385.654 146.373 384.907 147.2C384.174 148.027 383.807 149.073 383.807 150.34C383.807 151.607 384.174 152.653 384.907 153.48ZM399.66 157H396.82V143.66H403.06C404.46 143.66 405.553 144.073 406.34 144.9C407.14 145.713 407.54 146.733 407.54 147.96C407.54 149.173 407.14 150.193 406.34 151.02C405.54 151.847 404.447 152.26 403.06 152.26H399.66V157ZM402.68 149.76C403.253 149.76 403.72 149.6 404.08 149.28C404.453 148.947 404.64 148.507 404.64 147.96C404.64 147.413 404.453 146.98 404.08 146.66C403.72 146.327 403.253 146.16 402.68 146.16H399.66V149.76H402.68ZM415.62 157.24C413.607 157.24 411.94 156.593 410.62 155.3C409.314 153.993 408.66 152.34 408.66 150.34C408.66 148.34 409.314 146.693 410.62 145.4C411.94 144.093 413.607 143.44 415.62 143.44C417.647 143.44 419.314 144.087 420.62 145.38C421.94 146.673 422.6 148.327 422.6 150.34C422.6 152.22 422.02 153.793 420.86 155.06L421.84 156.2L419.86 157.82L418.78 156.58C417.794 157.02 416.74 157.24 415.62 157.24ZM415.62 154.72C416.087 154.72 416.554 154.647 417.02 154.5L415.56 152.78L417.52 151.16L419 152.9C419.454 152.153 419.68 151.3 419.68 150.34C419.68 149.073 419.307 148.027 418.56 147.2C417.814 146.373 416.834 145.96 415.62 145.96C414.407 145.96 413.427 146.373 412.68 147.2C411.947 148.027 411.58 149.073 411.58 150.34C411.58 151.607 411.947 152.653 412.68 153.48C413.427 154.307 414.407 154.72 415.62 154.72ZM435.393 157H432.133L429.513 152.26H427.433V157H424.593V143.66H430.833C432.207 143.66 433.293 144.06 434.093 144.86C434.907 145.66 435.313 146.693 435.313 147.96C435.313 149.053 435.027 149.94 434.453 150.62C433.893 151.3 433.207 151.733 432.393 151.92L435.393 157ZM430.413 149.76C431 149.76 431.48 149.6 431.853 149.28C432.227 148.947 432.413 148.507 432.413 147.96C432.413 147.413 432.227 146.98 431.853 146.66C431.48 146.327 431 146.16 430.413 146.16H427.433V149.76H430.413ZM442.185 157.24C439.812 157.24 437.932 156.533 436.545 155.12L438.085 152.96C439.232 154.16 440.645 154.76 442.325 154.76C443.058 154.76 443.625 154.62 444.025 154.34C444.438 154.047 444.645 153.693 444.645 153.28C444.645 152.92 444.452 152.62 444.065 152.38C443.692 152.14 443.218 151.967 442.645 151.86C442.085 151.753 441.472 151.6 440.805 151.4C440.138 151.2 439.518 150.973 438.945 150.72C438.385 150.467 437.912 150.067 437.525 149.52C437.152 148.973 436.965 148.307 436.965 147.52C436.965 146.373 437.425 145.413 438.345 144.64C439.265 143.853 440.492 143.46 442.025 143.46C444.145 143.46 445.878 144.08 447.225 145.32L445.645 147.4C444.592 146.427 443.298 145.94 441.765 145.94C441.165 145.94 440.698 146.06 440.365 146.3C440.032 146.54 439.865 146.867 439.865 147.28C439.865 147.6 440.052 147.873 440.425 148.1C440.812 148.313 441.285 148.473 441.845 148.58C442.418 148.687 443.032 148.847 443.685 149.06C444.352 149.26 444.965 149.493 445.525 149.76C446.098 150.013 446.572 150.42 446.945 150.98C447.332 151.527 447.525 152.187 447.525 152.96C447.525 154.24 447.065 155.273 446.145 156.06C445.238 156.847 443.918 157.24 442.185 157.24ZM455.123 157H452.263V146.16H448.363V143.66H459.003V146.16H455.123V157ZM471.324 155.74C470.311 156.74 468.817 157.24 466.844 157.24C464.871 157.24 463.371 156.74 462.344 155.74C461.331 154.727 460.824 153.373 460.824 151.68V143.66H463.704V151.58C463.704 152.54 463.977 153.307 464.524 153.88C465.071 154.44 465.844 154.72 466.844 154.72C467.844 154.72 468.611 154.44 469.144 153.88C469.691 153.307 469.964 152.54 469.964 151.58V143.66H472.864V151.66C472.864 153.38 472.351 154.74 471.324 155.74ZM482.792 157H479.232L474.072 143.66H477.312L481.012 153.92L484.692 143.66H487.932L482.792 157ZM502.384 157H499.364L497.024 147.84L494.704 157H491.684L487.864 143.66H491.044L493.384 153.3L495.924 143.66H498.144L500.664 153.3L502.984 143.66H506.184L502.384 157ZM519.623 157H516.223L512.883 152.12L509.523 157H506.143L510.983 150.16L506.443 143.66H509.823L512.883 148.22L515.903 143.66H519.323L514.783 150.14L519.623 157ZM527.443 157H524.603V151.54L519.462 143.66H522.703L526.023 149.02L529.303 143.66H532.543L527.443 151.54V157ZM543.453 157H533.293V154.7L539.593 146.16H533.293V143.66H543.313V145.94L537.013 154.5H543.453V157Z" fill="white"/>
<path d="M212.168 22.288C209.816 22.288 207.904 21.504 206.432 19.936C204.96 18.368 204.224 16.392 204.224 14.008C204.224 11.624 204.96 9.648 206.432 8.08C207.904 6.512 209.816 5.728 212.168 5.728C214.504 5.728 216.408 6.512 217.88 8.08C219.368 9.648 220.112 11.624 220.112 14.008C220.112 16.392 219.368 18.368 217.88 19.936C216.408 21.504 214.504 22.288 212.168 22.288ZM212.168 20.512C213.928 20.512 215.344 19.904 216.416 18.688C217.504 17.456 218.048 15.896 218.048 14.008C218.048 12.104 217.504 10.544 216.416 9.328C215.344 8.112 213.928 7.504 212.168 7.504C210.392 7.504 208.968 8.112 207.896 9.328C206.824 10.544 206.288 12.104 206.288 14.008C206.288 15.896 206.824 17.456 207.896 18.688C208.968 19.904 210.392 20.512 212.168 20.512ZM228.264 22.288C226.552 22.288 225.16 21.712 224.088 20.56C223.016 19.392 222.48 17.936 222.48 16.192C222.48 14.448 223.016 13 224.088 11.848C225.16 10.696 226.552 10.12 228.264 10.12C230.056 10.12 231.472 10.792 232.512 12.136L231.312 13.24C230.576 12.232 229.592 11.728 228.36 11.728C227.144 11.728 226.168 12.144 225.432 12.976C224.712 13.808 224.352 14.88 224.352 16.192C224.352 17.504 224.712 18.584 225.432 19.432C226.168 20.264 227.144 20.68 228.36 20.68C229.576 20.68 230.56 20.176 231.312 19.168L232.512 20.272C231.472 21.616 230.056 22.288 228.264 22.288ZM236.834 22H235.034V10.408H236.834V15.232H242.882V10.408H244.682V22H242.882V16.816H236.834V22ZM257.493 20.536C256.453 21.704 255.069 22.288 253.341 22.288C251.613 22.288 250.221 21.704 249.165 20.536C248.125 19.368 247.605 17.92 247.605 16.192C247.605 14.464 248.125 13.024 249.165 11.872C250.221 10.704 251.613 10.12 253.341 10.12C255.069 10.12 256.453 10.704 257.493 11.872C258.549 13.024 259.077 14.464 259.077 16.192C259.077 17.92 258.549 19.368 257.493 20.536ZM250.509 19.384C251.213 20.248 252.157 20.68 253.341 20.68C254.525 20.68 255.461 20.248 256.149 19.384C256.837 18.504 257.181 17.44 257.181 16.192C257.181 14.944 256.837 13.888 256.149 13.024C255.461 12.16 254.525 11.728 253.341 11.728C252.157 11.728 251.213 12.168 250.509 13.048C249.821 13.912 249.477 14.96 249.477 16.192C249.477 17.44 249.821 18.504 250.509 19.384ZM268.515 22H262.011V10.408H268.395C269.403 10.408 270.195 10.68 270.771 11.224C271.363 11.768 271.659 12.488 271.659 13.384C271.659 14.04 271.475 14.608 271.107 15.088C270.755 15.552 270.315 15.864 269.787 16.024C270.379 16.168 270.875 16.512 271.275 17.056C271.691 17.6 271.899 18.2 271.899 18.856C271.899 19.8 271.595 20.56 270.987 21.136C270.395 21.712 269.571 22 268.515 22ZM268.155 20.416C268.731 20.416 269.187 20.256 269.523 19.936C269.859 19.616 270.027 19.184 270.027 18.64C270.027 18.144 269.859 17.72 269.523 17.368C269.187 17.016 268.731 16.84 268.155 16.84H263.811V20.416H268.155ZM268.083 15.256C268.627 15.256 269.051 15.112 269.355 14.824C269.659 14.52 269.811 14.128 269.811 13.648C269.811 13.136 269.659 12.736 269.355 12.448C269.051 12.144 268.627 11.992 268.083 11.992H263.811V15.256H268.083ZM277.1 22H275.3V10.408H277.1V15.232H283.148V10.408H284.948V22H283.148V16.816H277.1V22ZM297.758 20.536C296.718 21.704 295.334 22.288 293.606 22.288C291.878 22.288 290.486 21.704 289.43 20.536C288.39 19.368 287.87 17.92 287.87 16.192C287.87 14.464 288.39 13.024 289.43 11.872C290.486 10.704 291.878 10.12 293.606 10.12C295.334 10.12 296.718 10.704 297.758 11.872C298.814 13.024 299.342 14.464 299.342 16.192C299.342 17.92 298.814 19.368 297.758 20.536ZM290.774 19.384C291.478 20.248 292.422 20.68 293.606 20.68C294.79 20.68 295.726 20.248 296.414 19.384C297.102 18.504 297.446 17.44 297.446 16.192C297.446 14.944 297.102 13.888 296.414 13.024C295.726 12.16 294.79 11.728 293.606 11.728C292.422 11.728 291.478 12.168 290.774 13.048C290.086 13.912 289.742 14.96 289.742 16.192C289.742 17.44 290.086 18.504 290.774 19.384ZM307.509 22.288C305.781 22.288 304.365 21.728 303.261 20.608C302.157 19.472 301.605 18 301.605 16.192C301.605 14.496 302.149 13.064 303.237 11.896C304.325 10.712 305.685 10.12 307.317 10.12C309.029 10.12 310.381 10.712 311.373 11.896C312.381 13.064 312.885 14.544 312.885 16.336V16.792H303.501C303.581 17.928 303.997 18.88 304.749 19.648C305.501 20.416 306.477 20.8 307.677 20.8C309.117 20.8 310.309 20.312 311.253 19.336L312.117 20.512C310.933 21.696 309.397 22.288 307.509 22.288ZM311.109 15.472C311.093 14.48 310.757 13.592 310.101 12.808C309.445 12.008 308.509 11.608 307.293 11.608C306.141 11.608 305.229 12 304.557 12.784C303.901 13.568 303.549 14.464 303.501 15.472H311.109ZM323.788 22H321.988V10.408H323.788V15.232H329.836V10.408H331.636V22H329.836V16.816H323.788V22ZM344.278 22H342.478V20.68C341.502 21.752 340.222 22.288 338.638 22.288C337.566 22.288 336.622 21.944 335.806 21.256C334.99 20.568 334.582 19.632 334.582 18.448C334.582 17.232 334.982 16.296 335.782 15.64C336.598 14.968 337.55 14.632 338.638 14.632C340.286 14.632 341.566 15.16 342.478 16.216V14.128C342.478 13.36 342.206 12.76 341.662 12.328C341.118 11.896 340.414 11.68 339.55 11.68C338.19 11.68 337.006 12.216 335.998 13.288L335.158 12.04C336.39 10.76 337.934 10.12 339.79 10.12C341.118 10.12 342.198 10.44 343.03 11.08C343.862 11.72 344.278 12.704 344.278 14.032V22ZM339.286 20.992C340.726 20.992 341.79 20.512 342.478 19.552V17.368C341.79 16.408 340.726 15.928 339.286 15.928C338.454 15.928 337.766 16.168 337.222 16.648C336.694 17.112 336.43 17.72 336.43 18.472C336.43 19.208 336.694 19.816 337.222 20.296C337.766 20.76 338.454 20.992 339.286 20.992ZM347.646 10.408H349.446V13.672C349.446 14.712 349.686 15.432 350.166 15.832C350.646 16.232 351.39 16.432 352.398 16.432C353.646 16.432 354.67 16.224 355.47 15.808V10.408H357.27V22H355.47V17.272C354.446 17.784 353.27 18.04 351.942 18.04C350.438 18.04 349.342 17.736 348.654 17.128C347.982 16.52 347.646 15.552 347.646 14.224V10.408ZM366.102 22.288C364.374 22.288 362.958 21.728 361.854 20.608C360.75 19.472 360.198 18 360.198 16.192C360.198 14.496 360.742 13.064 361.83 11.896C362.918 10.712 364.278 10.12 365.91 10.12C367.622 10.12 368.974 10.712 369.966 11.896C370.974 13.064 371.478 14.544 371.478 16.336V16.792H362.094C362.174 17.928 362.59 18.88 363.342 19.648C364.094 20.416 365.07 20.8 366.27 20.8C367.71 20.8 368.902 20.312 369.846 19.336L370.71 20.512C369.526 21.696 367.99 22.288 366.102 22.288ZM369.702 15.472C369.686 14.48 369.35 13.592 368.694 12.808C368.038 12.008 367.102 11.608 365.886 11.608C364.734 11.608 363.822 12 363.15 12.784C362.494 13.568 362.142 14.464 362.094 15.472H369.702ZM380.106 22.288C378.474 22.288 377.17 21.608 376.194 20.248V26.416H374.394V10.408H376.194V12.136C376.626 11.528 377.186 11.04 377.874 10.672C378.562 10.304 379.306 10.12 380.106 10.12C381.642 10.12 382.882 10.672 383.826 11.776C384.786 12.864 385.266 14.336 385.266 16.192C385.266 18.048 384.786 19.528 383.826 20.632C382.882 21.736 381.642 22.288 380.106 22.288ZM379.65 20.68C380.786 20.68 381.69 20.264 382.362 19.432C383.034 18.584 383.37 17.504 383.37 16.192C383.37 14.88 383.034 13.808 382.362 12.976C381.69 12.144 380.786 11.728 379.65 11.728C378.962 11.728 378.29 11.912 377.634 12.28C376.994 12.632 376.514 13.064 376.194 13.576V18.808C376.514 19.336 376.994 19.784 377.634 20.152C378.29 20.504 378.962 20.68 379.65 20.68ZM392.04 22H390.24V11.992H386.88V10.408H395.424V11.992H392.04V22ZM406.832 22H405.032V20.68C404.056 21.752 402.776 22.288 401.192 22.288C400.12 22.288 399.176 21.944 398.36 21.256C397.544 20.568 397.136 19.632 397.136 18.448C397.136 17.232 397.536 16.296 398.336 15.64C399.152 14.968 400.104 14.632 401.192 14.632C402.84 14.632 404.12 15.16 405.032 16.216V14.128C405.032 13.36 404.76 12.76 404.216 12.328C403.672 11.896 402.968 11.68 402.104 11.68C400.744 11.68 399.56 12.216 398.552 13.288L397.712 12.04C398.944 10.76 400.488 10.12 402.344 10.12C403.672 10.12 404.752 10.44 405.584 11.08C406.416 11.72 406.832 12.704 406.832 14.032V22ZM401.84 20.992C403.28 20.992 404.344 20.512 405.032 19.552V17.368C404.344 16.408 403.28 15.928 401.84 15.928C401.008 15.928 400.32 16.168 399.776 16.648C399.248 17.112 398.984 17.72 398.984 18.472C398.984 19.208 399.248 19.816 399.776 20.296C400.32 20.76 401.008 20.992 401.84 20.992ZM412.241 22H410.441V10.408H412.241V15.232H418.289V10.408H420.089V22H418.289V16.816H412.241V22ZM425.411 22H423.683V10.408H425.483V19.264L431.555 10.408H433.331V22H431.531V12.976L425.411 22ZM442.157 22.288C440.429 22.288 439.013 21.728 437.909 20.608C436.805 19.472 436.253 18 436.253 16.192C436.253 14.496 436.797 13.064 437.885 11.896C438.973 10.712 440.333 10.12 441.965 10.12C443.677 10.12 445.029 10.712 446.021 11.896C447.029 13.064 447.533 14.544 447.533 16.336V16.792H438.149C438.229 17.928 438.645 18.88 439.397 19.648C440.149 20.416 441.125 20.8 442.325 20.8C443.765 20.8 444.957 20.312 445.901 19.336L446.765 20.512C445.581 21.696 444.045 22.288 442.157 22.288ZM445.757 15.472C445.741 14.48 445.405 13.592 444.749 12.808C444.093 12.008 443.157 11.608 441.941 11.608C440.789 11.608 439.877 12 439.205 12.784C438.549 13.568 438.197 14.464 438.149 15.472H445.757Z" fill="white"/>
<rect x="203" y="38" width="355" height="2" fill="white"/>
</svg>
