<svg width="94" height="114" viewBox="0 0 94 114" fill="none" xmlns="http://www.w3.org/2000/svg">
<path d="M93.9999 54.3361C93.9999 80.2934 61.0912 113.295 46.9999 113.295C32.9085 113.295 -0.00012207 80.2934 -0.00012207 54.3361C-0.00012207 28.3787 21.0425 7.33606 46.9999 7.33606C72.9573 7.33606 93.9999 28.3787 93.9999 54.3361Z" fill="#272F72"/>
<circle cx="20.6002" cy="10.6823" r="10.6824" fill="#272F72"/>
<circle cx="72.5901" cy="10.6823" r="10.6824" fill="#272F72"/>
<path d="M60.0574 59.1824C58.4381 67.1701 54.2114 78.5523 46.9999 78.5523C39.7885 78.5523 35.3819 66.9512 33.9425 59.1824C33.9425 51.1377 39.7885 44.6161 46.9999 44.6161C54.2114 44.6161 60.0574 51.1377 60.0574 59.1824Z" fill="#4250C2"/>
<path d="M47 60.0792C47 65.2212 42.6068 69.3896 37.1875 69.3896C36.5533 69.3395 35.2764 69.0492 35.2423 68.2889" stroke="#272F72" stroke-width="2.13909"/>
<path d="M47 60.0792C47 65.2212 51.3932 69.3896 56.8125 69.3896C57.4467 69.3395 58.7236 69.0492 58.7577 68.2889" stroke="#272F72" stroke-width="2.13909"/>
<path d="M50.4388 59.0988C50.4388 60.2001 48.8992 62.1738 46.9999 62.1738C45.1007 62.1738 43.561 60.2001 43.561 59.0988C43.561 57.9974 45.1007 58.844 46.9999 58.844C48.8992 58.844 50.4388 57.9974 50.4388 59.0988Z" fill="#272F72"/>
<path d="M36.0383 39.1838C35.7532 40.2476 33.7552 41.7555 31.9207 41.264C30.0862 40.7724 29.1098 38.4675 29.3949 37.4037C29.6799 36.3398 31.1702 36.7269 33.0047 37.2184C34.8392 37.71 36.3233 38.1199 36.0383 39.1838Z" fill="#FF383B"/>
<path d="M57.9618 39.1838C58.2469 40.2476 60.2449 41.7555 62.0794 41.264C63.914 40.7724 64.8903 38.4675 64.6053 37.4037C64.3202 36.3398 62.83 36.7269 60.9954 37.2184C59.1609 37.71 57.6768 38.1199 57.9618 39.1838Z" fill="#FF383B"/>
</svg>
