<svg width="120" height="125" viewBox="0 0 120 125" fill="none" xmlns="http://www.w3.org/2000/svg">
<path d="M2.21321 0.848113C8.02541 18.4814 24.6328 31.214 44.2126 31.214L44.2124 45.5131C19.7946 45.5131 3.8147e-06 25.7185 3.8147e-06 1.30069C3.8147e-06 1.207 0.000293732 1.11337 0.00087738 1.01981C0.00879288 -0.253199 1.81468 -0.360936 2.21321 0.848113Z" fill="#4250C2"/>
<path d="M117.787 0.848113C111.975 18.4814 95.3674 31.214 75.7875 31.214L75.7877 45.5131C100.206 45.5131 120 25.7185 120 1.30069C120 1.207 120 1.11337 119.999 1.01981C119.991 -0.253199 118.185 -0.360936 117.787 0.848113Z" fill="#4250C2"/>
<ellipse cx="23.8213" cy="44.2577" rx="5.02875" ry="2.64699" transform="rotate(-15 23.8213 44.2577)" fill="#272F72"/>
<ellipse rx="5.02875" ry="2.64699" transform="matrix(-0.965926 -0.258819 -0.258819 0.965926 95.3641 44.2577)" fill="#272F72"/>
<path d="M26.4594 62.9523C24.7776 59.8834 23.8213 56.3603 23.8213 52.6139C23.8213 40.7161 33.4664 31.0709 45.3643 31.0709C50.797 31.0709 55.7601 33.0819 59.5496 36.4001C63.3392 33.0819 68.3023 31.0709 73.735 31.0709C85.6329 31.0709 95.278 40.7161 95.278 52.6139C95.278 56.1091 94.4456 59.4099 92.9683 62.3289L71.8371 113.272H47.3321L26.4594 62.9523Z" fill="#272F72"/>
<path d="M76.9968 107.604C77.1916 113.762 74.6071 124.807 59.5845 124.807C44.5619 124.807 42.2739 113.764 42.1723 107.604C41.9565 94.517 59.2894 102.406 59.5845 106.765C59.0357 103.073 76.5783 94.3778 76.9968 107.604Z" fill="#4250C2"/>
<ellipse cx="42.1703" cy="61.3699" rx="4.81659" ry="2.64887" transform="rotate(15 42.1703 61.3699)" fill="#07CD47"/>
<ellipse rx="4.81659" ry="2.64887" transform="matrix(-0.965926 0.258819 0.258819 0.965926 77.7018 61.3699)" fill="#07CD47"/>
<circle cx="52.4812" cy="109.621" r="2.50501" fill="#272F72"/>
<circle cx="66.7783" cy="109.621" r="2.50501" fill="#272F72"/>
<path d="M53.3006 108.861C51.8329 110.412 50.9329 112.505 50.9329 114.808C50.9329 119.586 54.8064 123.46 59.5845 123.46C64.3627 123.46 68.2362 119.586 68.2362 114.808C68.2362 112.505 67.3361 110.412 65.8685 108.861" stroke="#5769FF" stroke-width="2.79941"/>
</svg>
