<svg width="326" height="326" viewBox="0 0 326 326" fill="none" xmlns="http://www.w3.org/2000/svg">
<g clip-path="url(#clip0)">
<rect width="1101.05" height="578.049" transform="translate(-343.074 -125.792)" fill="white"/>
<rect x="-343.074" y="-125.792" width="1101.05" height="578.049" fill="#0B124D"/>
<rect x="-343.074" y="-125.792" width="1101.05" height="578.049" fill="url(#paint0_linear)"/>
<g clip-path="url(#clip1)">
<g style="mix-blend-mode:overlay">
<path d="M11.2109 297.731H-3.87128V507.85H11.2109V297.731Z" fill="url(#paint1_linear)"/>
<path d="M95.1826 297.731H80.1005V507.85H95.1826V297.731Z" fill="url(#paint2_linear)"/>
</g>
<path d="M1.41586 87.6511H-11.8883C-12.5625 87.6511 -13.1086 87.1045 -13.1086 86.4298V31.4872C-13.1086 30.8125 -12.5625 30.2656 -11.8883 30.2656H1.41586C2.09001 30.2656 2.63646 30.8125 2.63646 31.4872V86.4298C2.63646 87.1045 2.09001 87.6511 1.41586 87.6511Z" fill="url(#paint3_linear)"/>
<path d="M22.3682 27.6544H9.06386C8.38971 27.6544 7.84326 27.1075 7.84326 26.4328V-28.5099C7.84326 -29.1846 8.38971 -29.7314 9.06386 -29.7314H22.3682C23.0421 -29.7314 23.5885 -29.1846 23.5885 -28.5099V26.4328C23.5885 27.1075 23.0421 27.6544 22.3682 27.6544Z" fill="url(#paint4_linear)"/>
<path d="M15.7159 40.1293V27.6543" stroke="#B1DC88" stroke-width="0.45367" stroke-miterlimit="10" stroke-linecap="round" stroke-linejoin="round"/>
<path d="M220.576 32.4959H207.271C206.598 32.4959 206.051 31.949 206.051 31.2743V-5.67782C206.051 -6.35252 206.598 -6.89941 207.271 -6.89941H220.576C221.25 -6.89941 221.796 -6.35252 221.796 -5.67782V31.2743C221.796 31.949 221.25 32.4959 220.576 32.4959Z" fill="url(#paint5_linear)"/>
<path d="M213.924 38.7325V32.4951" stroke="#FF8691" stroke-width="0.45367" stroke-miterlimit="10" stroke-linecap="round" stroke-linejoin="round"/>
<path d="M330.156 51.5359H316.852C316.178 51.5359 315.631 50.989 315.631 50.3143V-5.6788C315.631 -6.35349 316.178 -6.90039 316.852 -6.90039H330.156C330.83 -6.90039 331.376 -6.35349 331.376 -5.6788V50.3143C331.376 50.989 330.83 51.5359 330.156 51.5359Z" fill="url(#paint6_linear)"/>
<path d="M323.503 57.7725V51.5352" stroke="#B1DC88" stroke-width="0.45367" stroke-miterlimit="10" stroke-linecap="round" stroke-linejoin="round"/>
<path d="M242.492 59.6133H229.188C228.514 59.6133 227.967 59.0664 227.967 58.3917V32.6015C227.967 31.9268 228.514 31.3799 229.188 31.3799H242.492C243.166 31.3799 243.712 31.9268 243.712 32.6015V58.3917C243.712 59.0664 243.166 59.6133 242.492 59.6133Z" fill="url(#paint7_linear)"/>
<path d="M235.839 31.3793V26.4551" stroke="#ED654A" stroke-width="0.45367" stroke-miterlimit="10" stroke-linecap="round" stroke-linejoin="round"/>
<path d="M235.839 74.7147V59.6133" stroke="#FF8691" stroke-width="0.45367" stroke-miterlimit="10" stroke-linecap="round" stroke-linejoin="round"/>
<path d="M110.996 0.421125H97.6917C97.0179 0.421125 96.4715 -0.125773 96.4715 -0.800474V-14.5424C96.4715 -15.2171 97.0179 -15.7637 97.6917 -15.7637H110.996C111.67 -15.7637 112.217 -15.2171 112.217 -14.5424V-0.800474C112.217 -0.125774 111.67 0.421125 110.996 0.421125Z" fill="url(#paint8_linear)"/>
<path d="M104.344 15.5214V0.419922" stroke="#B1DC88" stroke-width="0.45367" stroke-miterlimit="10" stroke-linecap="round" stroke-linejoin="round"/>
<path d="M265.628 58.0176H249.883V82.6462H265.628V58.0176Z" fill="#ED654A"/>
<path d="M257.756 58.017V53.0928" stroke="#ED654A" stroke-width="0.45367" stroke-miterlimit="10" stroke-linecap="round" stroke-linejoin="round"/>
<path d="M257.756 89.3034V82.6455" stroke="#FF8691" stroke-width="0.45367" stroke-miterlimit="10" stroke-linecap="round" stroke-linejoin="round"/>
<path d="M89.0797 24.5504H75.7754C75.1015 24.5504 74.5551 24.0035 74.5551 23.3291V-2.46134C74.5551 -3.13572 75.1015 -3.68262 75.7754 -3.68262H89.0797C89.7538 -3.68262 90.3003 -3.13572 90.3003 -2.46134V23.3291C90.3003 24.0035 89.7538 24.5504 89.0797 24.5504Z" fill="url(#paint9_linear)"/>
<path d="M82.4278 30.2304V24.5508" stroke="#FF8691" stroke-width="0.45367" stroke-miterlimit="10" stroke-linecap="round" stroke-linejoin="round"/>
<path d="M308.24 80.9029H294.936C294.261 80.9029 293.715 80.356 293.715 79.6816V53.8912C293.715 53.2165 294.261 52.6699 294.936 52.6699H308.24C308.914 52.6699 309.46 53.2165 309.46 53.8912V79.6816C309.46 80.356 308.914 80.9029 308.24 80.9029Z" fill="url(#paint10_linear)"/>
<path d="M301.588 52.6698V47.7451" stroke="#78C332" stroke-width="0.45367" stroke-miterlimit="10" stroke-linecap="round" stroke-linejoin="round"/>
<path d="M301.588 86.5829V80.9033" stroke="#B1DC88" stroke-width="0.45367" stroke-miterlimit="10" stroke-linecap="round" stroke-linejoin="round"/>
<path d="M60.5122 3.04876V-2.63086" stroke="#FF8691" stroke-width="0.45367" stroke-miterlimit="10" stroke-linecap="round" stroke-linejoin="round"/>
<path d="M286.324 94.0924H273.019C272.345 94.0924 271.799 93.5455 271.799 92.8709V79.1529C271.799 78.4785 272.345 77.9316 273.019 77.9316H286.324C286.997 77.9316 287.544 78.4785 287.544 79.1529V92.8709C287.544 93.5455 286.997 94.0924 286.324 94.0924Z" fill="url(#paint11_linear)"/>
<path d="M279.671 77.932V68.7725" stroke="#78C332" stroke-width="0.45367" stroke-miterlimit="10" stroke-linecap="round" stroke-linejoin="round"/>
<path d="M279.671 112.473V94.0928" stroke="#B1DC88" stroke-width="0.45367" stroke-miterlimit="10" stroke-linecap="round" stroke-linejoin="round"/>
<g style="mix-blend-mode:soft-light">
<path d="M-600.468 252.375L179.684 -169.784" stroke="url(#paint12_linear)" stroke-width="1.83508" stroke-miterlimit="10"/>
</g>
<g style="mix-blend-mode:soft-light">
<path d="M-606.599 486.34L173.553 64.1807" stroke="url(#paint13_linear)" stroke-width="1.83508" stroke-miterlimit="10"/>
</g>
<g opacity="0.22">
<path opacity="0.22" d="M58.9787 -394.631V741.281" stroke="white" stroke-width="1.83508" stroke-miterlimit="10"/>
<path opacity="0.22" d="M135.764 -394.631V741.281" stroke="white" stroke-width="1.83508" stroke-miterlimit="10"/>
<path opacity="0.22" d="M212.549 -394.631V741.281" stroke="white" stroke-width="1.83508" stroke-miterlimit="10"/>
<path opacity="0.22" d="M289.334 -394.631V741.281" stroke="white" stroke-width="1.83508" stroke-miterlimit="10"/>
</g>
<g opacity="0.22">
<path opacity="0.22" d="M846.056 19.6309H-881.668" stroke="white" stroke-width="1.83508" stroke-miterlimit="10"/>
<path opacity="0.22" d="M846.056 96.4785H-881.668" stroke="white" stroke-width="1.83508" stroke-miterlimit="10"/>
<path opacity="0.22" d="M846.056 173.326H-881.668" stroke="white" stroke-width="1.83508" stroke-miterlimit="10"/>
<path opacity="0.22" d="M846.056 250.174H-881.668" stroke="white" stroke-width="1.83508" stroke-miterlimit="10"/>
</g>
</g>
</g>
<defs>
<linearGradient id="paint0_linear" x1="770.359" y1="-557.035" x2="207.449" y2="452.257" gradientUnits="userSpaceOnUse">
<stop stop-color="#0037AE"/>
<stop offset="1" stop-color="#02143B"/>
</linearGradient>
<linearGradient id="paint1_linear" x1="3.66983" y1="507.85" x2="3.66983" y2="297.731" gradientUnits="userSpaceOnUse">
<stop offset="0.0053763" stop-color="#28A6F0" stop-opacity="0"/>
<stop offset="0.17622" stop-color="#30AAF1" stop-opacity="0.171767"/>
<stop offset="0.445205" stop-color="#47B6F5" stop-opacity="0.442206"/>
<stop offset="0.776755" stop-color="#6BC8FB" stop-opacity="0.775548"/>
<stop offset="1" stop-color="#88D7FF"/>
</linearGradient>
<linearGradient id="paint2_linear" x1="87.6415" y1="507.85" x2="87.6415" y2="297.731" gradientUnits="userSpaceOnUse">
<stop offset="0.0053763" stop-color="#28A6F0" stop-opacity="0"/>
<stop offset="0.17622" stop-color="#30AAF1" stop-opacity="0.171767"/>
<stop offset="0.445205" stop-color="#47B6F5" stop-opacity="0.442206"/>
<stop offset="0.776755" stop-color="#6BC8FB" stop-opacity="0.775548"/>
<stop offset="1" stop-color="#88D7FF"/>
</linearGradient>
<linearGradient id="paint3_linear" x1="-5.23609" y1="30.2656" x2="-5.23609" y2="87.6511" gradientUnits="userSpaceOnUse">
<stop offset="0.0107527" stop-color="#7CC538"/>
<stop offset="0.188708" stop-color="#81C740"/>
<stop offset="0.468909" stop-color="#90CE57"/>
<stop offset="0.81432" stop-color="#A8D87B"/>
<stop offset="1" stop-color="#B7DF92"/>
</linearGradient>
<linearGradient id="paint4_linear" x1="15.7159" y1="-29.7314" x2="15.7159" y2="27.6544" gradientUnits="userSpaceOnUse">
<stop offset="0.0107527" stop-color="#7CC538"/>
<stop offset="0.188708" stop-color="#81C740"/>
<stop offset="0.468909" stop-color="#90CE57"/>
<stop offset="0.81432" stop-color="#A8D87B"/>
<stop offset="1" stop-color="#B7DF92"/>
</linearGradient>
<linearGradient id="paint5_linear" x1="213.924" y1="32.4959" x2="213.924" y2="-6.89941" gradientUnits="userSpaceOnUse">
<stop stop-color="#FF8893"/>
<stop offset="0.301347" stop-color="#F97167"/>
<stop offset="0.597955" stop-color="#F35E42"/>
<stop offset="0.837271" stop-color="#F0522B"/>
<stop offset="0.989247" stop-color="#EF4E23"/>
</linearGradient>
<linearGradient id="paint6_linear" x1="323.504" y1="-6.90039" x2="323.504" y2="51.5359" gradientUnits="userSpaceOnUse">
<stop offset="0.0107527" stop-color="#7CC538"/>
<stop offset="0.188708" stop-color="#81C740"/>
<stop offset="0.468909" stop-color="#90CE57"/>
<stop offset="0.81432" stop-color="#A8D87B"/>
<stop offset="1" stop-color="#B7DF92"/>
</linearGradient>
<linearGradient id="paint7_linear" x1="235.84" y1="59.6133" x2="235.84" y2="31.3799" gradientUnits="userSpaceOnUse">
<stop stop-color="#FF8893"/>
<stop offset="0.301347" stop-color="#F97167"/>
<stop offset="0.597955" stop-color="#F35E42"/>
<stop offset="0.837271" stop-color="#F0522B"/>
<stop offset="0.989247" stop-color="#EF4E23"/>
</linearGradient>
<linearGradient id="paint8_linear" x1="104.344" y1="-15.7637" x2="104.344" y2="0.421125" gradientUnits="userSpaceOnUse">
<stop offset="0.0107527" stop-color="#7CC538"/>
<stop offset="0.188708" stop-color="#81C740"/>
<stop offset="0.468909" stop-color="#90CE57"/>
<stop offset="0.81432" stop-color="#A8D87B"/>
<stop offset="1" stop-color="#B7DF92"/>
</linearGradient>
<linearGradient id="paint9_linear" x1="82.4276" y1="24.5504" x2="82.4276" y2="-3.68262" gradientUnits="userSpaceOnUse">
<stop stop-color="#FF8893"/>
<stop offset="0.301347" stop-color="#F97167"/>
<stop offset="0.597955" stop-color="#F35E42"/>
<stop offset="0.837271" stop-color="#F0522B"/>
<stop offset="0.989247" stop-color="#EF4E23"/>
</linearGradient>
<linearGradient id="paint10_linear" x1="301.588" y1="52.6699" x2="301.588" y2="80.9029" gradientUnits="userSpaceOnUse">
<stop offset="0.0107527" stop-color="#7CC538"/>
<stop offset="0.188708" stop-color="#81C740"/>
<stop offset="0.468909" stop-color="#90CE57"/>
<stop offset="0.81432" stop-color="#A8D87B"/>
<stop offset="1" stop-color="#B7DF92"/>
</linearGradient>
<linearGradient id="paint11_linear" x1="279.671" y1="77.9316" x2="279.671" y2="94.0924" gradientUnits="userSpaceOnUse">
<stop offset="0.0107527" stop-color="#7CC538"/>
<stop offset="0.188708" stop-color="#81C740"/>
<stop offset="0.468909" stop-color="#90CE57"/>
<stop offset="0.81432" stop-color="#A8D87B"/>
<stop offset="1" stop-color="#B7DF92"/>
</linearGradient>
<linearGradient id="paint12_linear" x1="-601.025" y1="41.2954" x2="180.241" y2="41.2954" gradientUnits="userSpaceOnUse">
<stop offset="0.0107527" stop-color="#28A6F0"/>
<stop offset="0.167454" stop-color="#30A9F1"/>
<stop offset="0.414181" stop-color="#47B3F2"/>
<stop offset="0.718149" stop-color="#6BC2F5"/>
<stop offset="1" stop-color="#93D2F7"/>
</linearGradient>
<linearGradient id="paint13_linear" x1="-607.156" y1="275.26" x2="174.111" y2="275.26" gradientUnits="userSpaceOnUse">
<stop offset="0.0107527" stop-color="#28A6F0"/>
<stop offset="0.167454" stop-color="#30A9F1"/>
<stop offset="0.414181" stop-color="#47B3F2"/>
<stop offset="0.718149" stop-color="#6BC2F5"/>
<stop offset="1" stop-color="#93D2F7"/>
</linearGradient>
<clipPath id="clip0">
<rect width="1101.05" height="578.049" fill="white" transform="translate(-343.074 -125.792)"/>
</clipPath>
<clipPath id="clip1">
<rect width="1727.72" height="1135.91" fill="white" transform="translate(-881.669 -394.631)"/>
</clipPath>
</defs>
</svg>
