<svg width="56" height="56" viewBox="0 0 56 56" fill="none" xmlns="http://www.w3.org/2000/svg">
<g clip-path="url(#clip0)">
<rect width="183.508" height="96.3415" transform="translate(-56.3456 -20.1318)" fill="white"/>
<rect x="-56.3456" y="-20.1318" width="183.508" height="96.3415" fill="#0B124D"/>
<rect x="-56.3456" y="-20.1318" width="183.508" height="96.3415" fill="url(#paint0_linear)"/>
<g clip-path="url(#clip1)">
<g style="mix-blend-mode:overlay">
<path d="M2.70181 50.4551H0.18811V85.4749H2.70181V50.4551Z" fill="url(#paint1_linear)"/>
<path d="M16.697 50.4551H14.1833V85.4749H16.697V50.4551Z" fill="url(#paint2_linear)"/>
</g>
<path d="M1.06919 15.4417H-1.14818C-1.26054 15.4417 -1.35156 15.3506 -1.35156 15.2381V6.08103C-1.35156 5.96858 -1.26054 5.87744 -1.14818 5.87744H1.06919C1.18155 5.87744 1.27262 5.96858 1.27262 6.08103V15.2381C1.27262 15.3506 1.18155 15.4417 1.06919 15.4417Z" fill="url(#paint3_linear)"/>
<path d="M4.56121 5.44223H2.34381C2.23146 5.44223 2.14038 5.35109 2.14038 5.23864V-3.91848C2.14038 -4.03092 2.23146 -4.12207 2.34381 -4.12207H4.56121C4.67352 -4.12207 4.76459 -4.03092 4.76459 -3.91848V5.23864C4.76459 5.35109 4.67352 5.44223 4.56121 5.44223Z" fill="url(#paint4_linear)"/>
<path d="M3.45251 7.52155V5.44238" stroke="#B1DC88" stroke-width="0.0756117" stroke-miterlimit="10" stroke-linecap="round" stroke-linejoin="round"/>
<path d="M37.5959 6.24899H35.3784C35.2661 6.24899 35.175 6.15784 35.175 6.04539V-0.113295C35.175 -0.225745 35.2661 -0.316895 35.3784 -0.316895H37.5959C37.7082 -0.316895 37.7992 -0.225745 37.7992 -0.113295V6.04539C37.7992 6.15784 37.7082 6.24899 37.5959 6.24899Z" fill="url(#paint5_linear)"/>
<path d="M36.4871 7.28859V6.24902" stroke="#FF8691" stroke-width="0.0756117" stroke-miterlimit="10" stroke-linecap="round" stroke-linejoin="round"/>
<path d="M55.8593 9.422H53.6419C53.5296 9.422 53.4385 9.33085 53.4385 9.2184V-0.113784C53.4385 -0.226233 53.5296 -0.317383 53.6419 -0.317383H55.8593C55.9716 -0.317383 56.0626 -0.226233 56.0626 -0.113784V9.2184C56.0626 9.33085 55.9716 9.422 55.8593 9.422Z" fill="url(#paint6_linear)"/>
<path d="M54.7505 10.4614V9.42188" stroke="#B1DC88" stroke-width="0.0756117" stroke-miterlimit="10" stroke-linecap="round" stroke-linejoin="round"/>
<path d="M41.2486 10.7685H39.0312C38.9188 10.7685 38.8278 10.6774 38.8278 10.565V6.26659C38.8278 6.15414 38.9188 6.06299 39.0312 6.06299H41.2486C41.3609 6.06299 41.4519 6.15414 41.4519 6.26659V10.565C41.4519 10.6774 41.3609 10.7685 41.2486 10.7685Z" fill="url(#paint7_linear)"/>
<path d="M40.1398 6.0629V5.24219" stroke="#ED654A" stroke-width="0.0756117" stroke-miterlimit="10" stroke-linecap="round" stroke-linejoin="round"/>
<path d="M40.1398 13.2855V10.7686" stroke="#FF8691" stroke-width="0.0756117" stroke-miterlimit="10" stroke-linecap="round" stroke-linejoin="round"/>
<path d="M19.3325 0.903033H17.1151C17.0028 0.903033 16.9117 0.811883 16.9117 0.699433V-1.59089C16.9117 -1.70334 17.0028 -1.79443 17.1151 -1.79443H19.3325C19.4449 -1.79443 19.5359 -1.70334 19.5359 -1.59089V0.699433C19.5359 0.811883 19.4449 0.903033 19.3325 0.903033Z" fill="url(#paint8_linear)"/>
<path d="M18.2239 3.41974V0.902832" stroke="#B1DC88" stroke-width="0.0756117" stroke-miterlimit="10" stroke-linecap="round" stroke-linejoin="round"/>
<path d="M45.1046 10.5024H42.4805V14.6072H45.1046V10.5024Z" fill="#ED654A"/>
<path d="M43.7925 10.5023V9.68164" stroke="#ED654A" stroke-width="0.0756117" stroke-miterlimit="10" stroke-linecap="round" stroke-linejoin="round"/>
<path d="M43.7925 15.7166V14.6069" stroke="#FF8691" stroke-width="0.0756117" stroke-miterlimit="10" stroke-linecap="round" stroke-linejoin="round"/>
<path d="M15.6798 4.92524H13.4624C13.3501 4.92524 13.259 4.83409 13.259 4.72169V0.423273C13.259 0.310876 13.3501 0.219727 13.4624 0.219727H15.6798C15.7922 0.219727 15.8832 0.310876 15.8832 0.423273V4.72169C15.8832 4.83409 15.7922 4.92524 15.6798 4.92524Z" fill="url(#paint9_linear)"/>
<path d="M14.5712 0.219692V-0.601074" stroke="#ED654A" stroke-width="0.0756117" stroke-miterlimit="10" stroke-linecap="round" stroke-linejoin="round"/>
<path d="M14.5712 5.87189V4.92529" stroke="#FF8691" stroke-width="0.0756117" stroke-miterlimit="10" stroke-linecap="round" stroke-linejoin="round"/>
<path d="M52.2065 14.3168H49.9891C49.8767 14.3168 49.7856 14.2257 49.7856 14.1133V9.81487C49.7856 9.70242 49.8767 9.61133 49.9891 9.61133H52.2065C52.3188 9.61133 52.4099 9.70242 52.4099 9.81487V14.1133C52.4099 14.2257 52.3188 14.3168 52.2065 14.3168Z" fill="url(#paint10_linear)"/>
<path d="M51.0978 9.61131V8.79053" stroke="#78C332" stroke-width="0.0756117" stroke-miterlimit="10" stroke-linecap="round" stroke-linejoin="round"/>
<path d="M51.0978 15.2635V14.3169" stroke="#B1DC88" stroke-width="0.0756117" stroke-miterlimit="10" stroke-linecap="round" stroke-linejoin="round"/>
<path d="M32.8345 0.523263V-0.42334" stroke="#FF8691" stroke-width="0.0756117" stroke-miterlimit="10" stroke-linecap="round" stroke-linejoin="round"/>
<path d="M12.0272 0.394526H9.80981C9.69752 0.394526 9.60645 0.303377 9.60645 0.190927V-4.10744C9.60645 -4.21989 9.69752 -4.31104 9.80981 -4.31104H12.0272C12.1396 -4.31104 12.2306 -4.21989 12.2306 -4.10744V0.190927C12.2306 0.303377 12.1396 0.394526 12.0272 0.394526Z" fill="url(#paint11_linear)"/>
<path d="M10.9186 1.34113V0.394531" stroke="#FF8691" stroke-width="0.0756117" stroke-miterlimit="10" stroke-linecap="round" stroke-linejoin="round"/>
<path d="M48.5537 16.5148H46.3364C46.224 16.5148 46.1329 16.4236 46.1329 16.3112V14.0248C46.1329 13.9124 46.224 13.8213 46.3364 13.8213H48.5537C48.666 13.8213 48.7571 13.9124 48.7571 14.0248V16.3112C48.7571 16.4236 48.666 16.5148 48.5537 16.5148Z" fill="url(#paint12_linear)"/>
<path d="M47.4449 13.8215V12.2949" stroke="#78C332" stroke-width="0.0756117" stroke-miterlimit="10" stroke-linecap="round" stroke-linejoin="round"/>
<path d="M47.4449 19.5785V16.5151" stroke="#B1DC88" stroke-width="0.0756117" stroke-miterlimit="10" stroke-linecap="round" stroke-linejoin="round"/>
<g style="mix-blend-mode:soft-light">
<path d="M-99.2446 42.896L30.7807 -27.4639" stroke="url(#paint13_linear)" stroke-width="0.305846" stroke-miterlimit="10"/>
</g>
<g style="mix-blend-mode:soft-light">
<path d="M-100.266 81.8901L29.7588 11.5303" stroke="url(#paint14_linear)" stroke-width="0.305846" stroke-miterlimit="10"/>
</g>
<g opacity="0.22">
<path opacity="0.22" d="M10.6631 -64.9385V124.38" stroke="white" stroke-width="0.305846" stroke-miterlimit="10"/>
<path opacity="0.22" d="M23.4606 -64.9385V124.38" stroke="white" stroke-width="0.305846" stroke-miterlimit="10"/>
<path opacity="0.22" d="M36.2582 -64.9385V124.38" stroke="white" stroke-width="0.305846" stroke-miterlimit="10"/>
<path opacity="0.22" d="M49.0557 -64.9385V124.38" stroke="white" stroke-width="0.305846" stroke-miterlimit="10"/>
</g>
<g opacity="0.22">
<path opacity="0.22" d="M141.843 4.10547H-146.111" stroke="white" stroke-width="0.305846" stroke-miterlimit="10"/>
<path opacity="0.22" d="M141.843 16.9136H-146.111" stroke="white" stroke-width="0.305846" stroke-miterlimit="10"/>
<path opacity="0.22" d="M141.843 29.7212H-146.111" stroke="white" stroke-width="0.305846" stroke-miterlimit="10"/>
<path opacity="0.22" d="M141.843 42.5293H-146.111" stroke="white" stroke-width="0.305846" stroke-miterlimit="10"/>
<path opacity="0.22" d="M141.843 55.3374H-146.111" stroke="white" stroke-width="0.305846" stroke-miterlimit="10"/>
</g>
</g>
</g>
<defs>
<linearGradient id="paint0_linear" x1="129.227" y1="-92.0056" x2="35.4082" y2="76.2097" gradientUnits="userSpaceOnUse">
<stop stop-color="#0037AE"/>
<stop offset="1" stop-color="#02143B"/>
</linearGradient>
<linearGradient id="paint1_linear" x1="1.44496" y1="85.4749" x2="1.44496" y2="50.4551" gradientUnits="userSpaceOnUse">
<stop offset="0.0053763" stop-color="#28A6F0" stop-opacity="0"/>
<stop offset="0.17622" stop-color="#30AAF1" stop-opacity="0.171767"/>
<stop offset="0.445205" stop-color="#47B6F5" stop-opacity="0.442206"/>
<stop offset="0.776755" stop-color="#6BC8FB" stop-opacity="0.775548"/>
<stop offset="1" stop-color="#88D7FF"/>
</linearGradient>
<linearGradient id="paint2_linear" x1="15.4402" y1="85.4749" x2="15.4402" y2="50.4551" gradientUnits="userSpaceOnUse">
<stop offset="0.0053763" stop-color="#28A6F0" stop-opacity="0"/>
<stop offset="0.17622" stop-color="#30AAF1" stop-opacity="0.171767"/>
<stop offset="0.445205" stop-color="#47B6F5" stop-opacity="0.442206"/>
<stop offset="0.776755" stop-color="#6BC8FB" stop-opacity="0.775548"/>
<stop offset="1" stop-color="#88D7FF"/>
</linearGradient>
<linearGradient id="paint3_linear" x1="-0.0394712" y1="5.87744" x2="-0.0394712" y2="15.4417" gradientUnits="userSpaceOnUse">
<stop offset="0.0107527" stop-color="#7CC538"/>
<stop offset="0.188708" stop-color="#81C740"/>
<stop offset="0.468909" stop-color="#90CE57"/>
<stop offset="0.81432" stop-color="#A8D87B"/>
<stop offset="1" stop-color="#B7DF92"/>
</linearGradient>
<linearGradient id="paint4_linear" x1="3.45249" y1="-4.12207" x2="3.45249" y2="5.44224" gradientUnits="userSpaceOnUse">
<stop offset="0.0107527" stop-color="#7CC538"/>
<stop offset="0.188708" stop-color="#81C740"/>
<stop offset="0.468909" stop-color="#90CE57"/>
<stop offset="0.81432" stop-color="#A8D87B"/>
<stop offset="1" stop-color="#B7DF92"/>
</linearGradient>
<linearGradient id="paint5_linear" x1="36.4871" y1="6.24899" x2="36.4871" y2="-0.316895" gradientUnits="userSpaceOnUse">
<stop stop-color="#FF8893"/>
<stop offset="0.301347" stop-color="#F97167"/>
<stop offset="0.597955" stop-color="#F35E42"/>
<stop offset="0.837271" stop-color="#F0522B"/>
<stop offset="0.989247" stop-color="#EF4E23"/>
</linearGradient>
<linearGradient id="paint6_linear" x1="54.7506" y1="-0.317383" x2="54.7506" y2="9.422" gradientUnits="userSpaceOnUse">
<stop offset="0.0107527" stop-color="#7CC538"/>
<stop offset="0.188708" stop-color="#81C740"/>
<stop offset="0.468909" stop-color="#90CE57"/>
<stop offset="0.81432" stop-color="#A8D87B"/>
<stop offset="1" stop-color="#B7DF92"/>
</linearGradient>
<linearGradient id="paint7_linear" x1="40.1399" y1="10.7685" x2="40.1399" y2="6.06299" gradientUnits="userSpaceOnUse">
<stop stop-color="#FF8893"/>
<stop offset="0.301347" stop-color="#F97167"/>
<stop offset="0.597955" stop-color="#F35E42"/>
<stop offset="0.837271" stop-color="#F0522B"/>
<stop offset="0.989247" stop-color="#EF4E23"/>
</linearGradient>
<linearGradient id="paint8_linear" x1="18.2238" y1="-1.79443" x2="18.2238" y2="0.903033" gradientUnits="userSpaceOnUse">
<stop offset="0.0107527" stop-color="#7CC538"/>
<stop offset="0.188708" stop-color="#81C740"/>
<stop offset="0.468909" stop-color="#90CE57"/>
<stop offset="0.81432" stop-color="#A8D87B"/>
<stop offset="1" stop-color="#B7DF92"/>
</linearGradient>
<linearGradient id="paint9_linear" x1="14.5711" y1="4.92524" x2="14.5711" y2="0.219727" gradientUnits="userSpaceOnUse">
<stop stop-color="#FF8893"/>
<stop offset="0.301347" stop-color="#F97167"/>
<stop offset="0.597955" stop-color="#F35E42"/>
<stop offset="0.837271" stop-color="#F0522B"/>
<stop offset="0.989247" stop-color="#EF4E23"/>
</linearGradient>
<linearGradient id="paint10_linear" x1="51.0978" y1="9.61133" x2="51.0978" y2="14.3168" gradientUnits="userSpaceOnUse">
<stop offset="0.0107527" stop-color="#7CC538"/>
<stop offset="0.188708" stop-color="#81C740"/>
<stop offset="0.468909" stop-color="#90CE57"/>
<stop offset="0.81432" stop-color="#A8D87B"/>
<stop offset="1" stop-color="#B7DF92"/>
</linearGradient>
<linearGradient id="paint11_linear" x1="10.9185" y1="0.394526" x2="10.9185" y2="-4.31104" gradientUnits="userSpaceOnUse">
<stop stop-color="#FF8893"/>
<stop offset="0.301347" stop-color="#F97167"/>
<stop offset="0.597955" stop-color="#F35E42"/>
<stop offset="0.837271" stop-color="#F0522B"/>
<stop offset="0.989247" stop-color="#EF4E23"/>
</linearGradient>
<linearGradient id="paint12_linear" x1="47.445" y1="13.8213" x2="47.445" y2="16.5148" gradientUnits="userSpaceOnUse">
<stop offset="0.0107527" stop-color="#7CC538"/>
<stop offset="0.188708" stop-color="#81C740"/>
<stop offset="0.468909" stop-color="#90CE57"/>
<stop offset="0.81432" stop-color="#A8D87B"/>
<stop offset="1" stop-color="#B7DF92"/>
</linearGradient>
<linearGradient id="paint13_linear" x1="-99.3375" y1="7.71607" x2="30.8735" y2="7.71607" gradientUnits="userSpaceOnUse">
<stop offset="0.0107527" stop-color="#28A6F0"/>
<stop offset="0.167454" stop-color="#30A9F1"/>
<stop offset="0.414181" stop-color="#47B3F2"/>
<stop offset="0.718149" stop-color="#6BC2F5"/>
<stop offset="1" stop-color="#93D2F7"/>
</linearGradient>
<linearGradient id="paint14_linear" x1="-100.359" y1="46.7102" x2="29.8517" y2="46.7102" gradientUnits="userSpaceOnUse">
<stop offset="0.0107527" stop-color="#28A6F0"/>
<stop offset="0.167454" stop-color="#30A9F1"/>
<stop offset="0.414181" stop-color="#47B3F2"/>
<stop offset="0.718149" stop-color="#6BC2F5"/>
<stop offset="1" stop-color="#93D2F7"/>
</linearGradient>
<clipPath id="clip0">
<rect width="183.508" height="96.3415" fill="white" transform="translate(-56.3456 -20.1318)"/>
</clipPath>
<clipPath id="clip1">
<rect width="287.954" height="189.319" fill="white" transform="translate(-146.111 -64.9385)"/>
</clipPath>
</defs>
</svg>
