<svg width="146" height="146" viewBox="0 0 146 146" fill="none" xmlns="http://www.w3.org/2000/svg">
<g clip-path="url(#clip0)">
<path d="M128.242 67.943C123.325 65.4846 114.105 65.4561 113.715 65.4561C112.546 65.4561 111.598 66.4039 111.598 67.5729C111.598 68.742 112.546 69.6898 113.715 69.6898C116.094 69.6901 123.002 70.0565 126.349 71.7299C126.653 71.8821 126.976 71.9537 127.294 71.9537C128.07 71.9537 128.818 71.5247 129.189 70.7832C129.712 69.7375 129.288 68.466 128.242 67.943Z" fill="white"/>
<path d="M138.796 98.0816L130.054 95.5837C129.676 95.4759 129.413 95.1264 129.413 94.7338V91.8156C130.124 91.3228 130.802 90.7713 131.437 90.1557C134.51 87.1729 136.203 83.172 136.203 78.8897V74.8628L137.048 73.1724C137.976 71.3166 138.466 69.239 138.466 67.1644V56.2554C138.466 55.0864 137.518 54.1386 136.349 54.1386H115.979C108.571 54.1386 102.545 60.1652 102.545 67.5726V67.6987C102.545 69.4238 102.952 71.1515 103.724 72.6943L104.808 74.8625V78.3201C104.808 83.7997 107.508 88.7162 111.598 91.6748L111.599 94.7333C111.599 95.2049 111.599 95.4002 109.851 95.8998L105.585 97.1185L93.2447 92.6313C93.289 92.049 93.0925 91.4569 92.6677 91.0107L88.7244 86.8678V79.9131C89.1413 79.5696 89.5523 79.2168 89.9505 78.8437C94.9252 74.1809 97.7782 67.5977 97.7782 60.7822V55.2281C99.2803 51.9593 100.042 48.5003 100.042 44.938V22.3044C100.042 21.1353 99.0937 20.1875 97.9247 20.1875H66.2367C55.085 20.1875 46.0126 29.2602 46.0126 40.4116V44.9386C46.0126 48.5009 46.7738 51.9599 48.276 55.2286V60.0074C48.276 67.9206 51.7945 75.0497 57.3297 79.7497V86.8681L53.3864 91.0109C52.9616 91.4572 52.7651 92.0493 52.8095 92.6316L39.785 97.3675C38.8412 97.7107 37.9642 98.1756 37.168 98.7387L35.1228 97.7161C41.2109 95.066 43.1396 91.3389 43.2321 91.1537C43.5302 90.5579 43.5302 89.8562 43.2321 89.2604C41.706 86.2082 41.5211 80.6137 41.3727 76.1185C41.3233 74.622 41.2764 73.2083 41.187 71.9494C40.4652 61.7957 32.7463 54.1386 23.2316 54.1386C13.7169 54.1386 5.99765 61.7955 5.27622 71.9494C5.18675 73.2085 5.13989 74.6223 5.0905 76.1191C4.94204 80.6139 4.75688 86.2079 3.23103 89.2601C2.93298 89.856 2.93298 90.5576 3.23103 91.1535C3.32361 91.3386 5.24828 95.0581 11.3486 97.7113L5.6677 100.552C2.63069 102.071 0.744125 105.124 0.744125 108.519V124.158C0.744125 125.327 1.69192 126.275 2.861 126.275C4.03009 126.275 4.97788 125.327 4.97788 124.158V108.519C4.97788 106.737 5.96774 105.136 7.56104 104.339L14.6351 100.802L17.0957 103.14C18.8163 104.775 21.0235 105.593 23.2316 105.593C25.4391 105.593 27.6474 104.775 29.3674 103.14L31.8278 100.802L34.1344 101.955C33.0483 103.693 32.4318 105.731 32.4318 107.866V124.159C32.4318 125.328 33.3796 126.276 34.5487 126.276C35.7178 126.276 36.6656 125.328 36.6656 124.159V107.866C36.6656 104.96 38.5005 102.34 41.2318 101.347L54.9639 96.3534L60.6803 104.928C61.411 106.025 62.5821 106.728 63.8932 106.858C64.0394 106.872 64.1847 106.879 64.3298 106.879C65.4865 106.879 66.5943 106.424 67.4224 105.596L70.9099 102.108V124.159C70.9099 125.328 71.8577 126.276 73.0268 126.276C74.1959 126.276 75.1437 125.328 75.1437 124.159V102.108L78.6311 105.596C79.459 106.424 80.5668 106.879 81.7238 106.879C81.8686 106.879 82.0142 106.872 82.1601 106.858C83.4715 106.728 84.6425 106.025 85.3733 104.929L91.09 96.3539L104.822 101.347C107.553 102.34 109.388 104.96 109.388 107.866V124.159C109.388 125.328 110.336 126.276 111.505 126.276C112.674 126.276 113.622 125.328 113.622 124.159V107.866C113.622 104.923 112.452 102.163 110.491 100.121L111.014 99.9718C111.541 99.8211 112.261 99.6148 112.984 99.2605L118.388 104.665V124.159C118.388 125.328 119.336 126.276 120.505 126.276C121.674 126.276 122.622 125.328 122.622 124.159V104.665L127.989 99.2981C128.275 99.4432 128.575 99.5657 128.89 99.6557L137.633 102.154C139.629 102.724 141.023 104.572 141.023 106.647V124.159C141.023 125.328 141.97 126.276 143.139 126.276C144.309 126.276 145.256 125.328 145.256 124.159V106.647C145.256 102.691 142.6 99.1685 138.796 98.0816ZM14.3246 94.3426C10.3649 92.9178 8.37872 91.0183 7.53084 89.981C8.10889 88.4698 8.48372 86.7391 8.73746 84.9121C9.90485 87.7111 11.86 90.1007 14.3246 91.8055V94.3426ZM26.4515 100.072C24.6459 101.787 21.8175 101.787 20.0125 100.071L18.0438 98.2007C18.376 97.5783 18.5586 96.8727 18.5586 96.1335V93.8772C20.0354 94.3387 21.6053 94.5876 23.2322 94.5876C24.8571 94.5876 26.4261 94.3375 27.9054 93.8786L27.9051 96.1332C27.9051 96.8727 28.0874 97.5786 28.4199 98.2013L26.4515 100.072ZM23.2327 90.3538C16.9114 90.3538 11.7691 85.2112 11.7691 78.8902C11.7691 77.7212 10.8213 76.7734 9.65223 76.7734C9.53369 76.7734 9.41796 76.7855 9.30478 76.8044C9.31099 76.6224 9.31692 76.44 9.32313 76.2597C9.37027 74.8041 9.41571 73.4293 9.49954 72.25C9.76993 68.4464 11.2899 64.9414 13.7793 62.3803C16.291 59.796 19.6481 58.3729 23.2322 58.3729C26.8162 58.3729 30.173 59.796 32.685 62.3803C35.1745 64.9414 36.6944 68.4464 36.9648 72.25C37.0483 73.429 37.094 74.8035 37.142 76.2588C37.1463 76.3839 37.1505 76.5106 37.1547 76.6365C34.8516 73.088 31.2946 70.473 26.6988 68.9962C22.4529 67.6321 18.8011 67.7165 18.647 67.7205C18.0927 67.736 17.5665 67.968 17.1818 68.3671L13.3624 72.3282C12.5509 73.1699 12.5752 74.51 13.4169 75.3215C14.2586 76.1329 15.5987 76.1084 16.4102 75.267L19.5883 71.9712C22.3253 72.1049 31.1306 73.1289 34.5552 80.6698C33.6935 86.2268 28.9172 90.3538 23.2327 90.3538ZM32.1386 94.3497L32.1388 91.8249C34.6015 90.1295 36.5595 87.7444 37.7277 84.9242C37.9814 86.747 38.356 88.4738 38.9329 89.9816C38.0898 91.0089 36.0943 92.9254 32.1386 94.3497ZM52.5097 60.0071V54.755C52.5097 54.4363 52.4377 54.1216 52.2992 53.8346C50.937 51.0138 50.2463 48.0208 50.2463 44.9386V40.4119C50.2463 31.5947 57.4197 24.4215 66.2367 24.4215H95.8078V44.9389C95.8078 48.0211 95.1171 51.0141 93.755 53.8349C93.6164 54.1219 93.5444 54.4366 93.5444 54.7553V60.7827C93.5444 66.5155 91.2398 71.8329 87.0552 75.7553C86.5327 76.2447 85.9905 76.7036 85.43 77.1313C85.4176 77.1397 85.4057 77.149 85.3936 77.1578C81.4734 80.1341 76.6718 81.5807 71.6573 81.2558C60.9202 80.5606 52.5097 71.2271 52.5097 60.0071ZM64.4289 102.602C64.4142 102.617 64.38 102.651 64.3109 102.644C64.242 102.637 64.2149 102.597 64.2034 102.579L57.6199 92.7039L59.7384 90.4778L69.7259 97.3046L64.4289 102.602ZM73.0271 94.4327L61.5635 86.5968V82.6453C64.5296 84.2488 67.8509 85.2516 71.3832 85.4802C71.9412 85.5164 72.4959 85.5341 73.0488 85.5341C77.0965 85.5341 80.9922 84.5666 84.4907 82.73V86.5968L73.0271 94.4327ZM81.8508 102.58C81.8392 102.597 81.8121 102.638 81.7432 102.644C81.6741 102.653 81.6402 102.617 81.6253 102.602L76.3283 97.3054L86.3157 90.4783L88.4346 92.7044L81.8508 102.58ZM120.505 100.794L115.701 95.9901C115.785 95.6094 115.833 95.1925 115.832 94.7327L115.832 93.8394C117.165 94.2768 118.57 94.5365 120.024 94.58C120.187 94.5851 120.349 94.5873 120.511 94.5873C122.118 94.5873 123.686 94.3446 125.179 93.8814V94.7338C125.179 95.1561 125.232 95.5698 125.332 95.9675L120.505 100.794ZM128.488 87.1176C126.245 89.2948 123.281 90.4447 120.151 90.3482C114.025 90.1645 109.042 84.7687 109.042 78.3207V74.3632C109.042 74.0344 108.965 73.7104 108.818 73.4166L107.51 70.8012C107.031 69.843 106.778 68.7704 106.778 67.699V67.5728C106.778 62.4997 110.906 58.3726 115.979 58.3726H134.233V67.1647C134.233 68.5856 133.897 70.0084 133.261 71.2794L132.193 73.4166C132.046 73.7107 131.969 74.0344 131.969 74.3632V78.89C131.969 82.0173 130.733 84.9392 128.488 87.1176Z" fill="white"/>
<path d="M134.086 108.46C132.917 108.46 131.969 109.408 131.969 110.577V124.157C131.969 125.326 132.917 126.274 134.086 126.274C135.255 126.274 136.203 125.326 136.203 124.157V110.577C136.203 109.408 135.255 108.46 134.086 108.46Z" fill="white"/>
<path d="M11.9147 111.258C10.7457 111.258 9.79787 112.206 9.79787 113.375V124.157C9.79787 125.326 10.7457 126.274 11.9147 126.274C13.0838 126.274 14.0316 125.326 14.0316 124.157V113.375C14.0316 112.206 13.0838 111.258 11.9147 111.258Z" fill="white"/>
<path d="M90.3677 45.7053C82.3614 37.699 65.6101 39.2297 58.779 40.2593C56.6274 40.5836 55.066 42.4044 55.066 44.5888V49.4655C55.066 50.6346 56.0138 51.5824 57.1829 51.5824C58.352 51.5824 59.2998 50.6346 59.2998 49.4655V44.5885C59.2998 44.5165 59.3472 44.455 59.4104 44.4454C62.139 44.0341 67.5534 43.3996 73.1631 43.7736C79.7644 44.2131 84.5457 45.8702 87.3741 48.6989C88.2008 49.5256 89.5412 49.5256 90.3677 48.6989C91.1944 47.8722 91.1944 46.5318 90.3677 45.7053Z" fill="white"/>
<path d="M48.1295 112.988C46.9604 112.988 46.0126 113.936 46.0126 115.105V124.159C46.0126 125.328 46.9604 126.276 48.1295 126.276C49.2986 126.276 50.2464 125.328 50.2464 124.159V115.105C50.2464 113.936 49.2986 112.988 48.1295 112.988Z" fill="white"/>
<path d="M97.9247 112.988C96.7556 112.988 95.8078 113.936 95.8078 115.105V124.159C95.8078 125.328 96.7556 126.276 97.9247 126.276C99.0938 126.276 100.042 125.328 100.042 124.159V115.105C100.042 113.936 99.0938 112.988 97.9247 112.988Z" fill="white"/>
</g>
<defs>
<clipPath id="clip0">
<rect width="144.512" height="144.512" fill="white" transform="translate(0.743835 0.975586)"/>
</clipPath>
</defs>
</svg>
