<svg width="145" height="146" viewBox="0 0 145 146" fill="none" xmlns="http://www.w3.org/2000/svg">
<g clip-path="url(#clip0)">
<path d="M141.475 136.725H3.08591C1.39527 136.725 0.0245361 135.355 0.0245361 133.664C0.0245361 131.973 1.39527 130.603 3.08591 130.603H141.475C143.166 130.603 144.537 131.973 144.537 133.664C144.537 135.355 143.166 136.725 141.475 136.725ZM135.861 122.772C134.17 122.772 132.799 121.401 132.799 119.711V52.0596H56.5697C54.879 52.0596 53.5083 50.6888 53.5083 48.9982C53.5083 47.3075 54.879 45.9368 56.5697 45.9368H135.861C137.552 45.9368 138.923 47.3075 138.923 48.9982V119.71C138.922 121.401 137.552 122.772 135.861 122.772ZM29.532 122.772C27.8413 122.772 26.4706 121.401 26.4706 119.711V69.5538C26.4706 67.8631 27.8413 66.4924 29.532 66.4924C31.2226 66.4924 32.5934 67.8631 32.5934 69.5538V119.71C32.5934 121.401 31.2226 122.772 29.532 122.772ZM122.854 116.678H110.385C108.694 116.678 107.323 115.307 107.323 113.617V95.8101C107.323 94.1194 108.694 92.7487 110.385 92.7487H122.854C124.544 92.7487 125.915 94.1194 125.915 95.8101V113.617C125.915 115.308 124.544 116.678 122.854 116.678ZM113.446 110.555H119.792V98.8714H113.446V110.555ZM97.8665 116.678H85.3975C83.7069 116.678 82.3361 115.307 82.3361 113.617V95.8101C82.3361 94.1194 83.7069 92.7487 85.3975 92.7487H97.8665C99.5571 92.7487 100.928 94.1194 100.928 95.8101V113.617C100.928 115.308 99.5571 116.678 97.8665 116.678ZM88.4589 110.555H94.8051V98.8714H88.4589V110.555ZM72.8788 116.678H60.4094C58.7188 116.678 57.348 115.307 57.348 113.617V95.8101C57.348 94.1194 58.7188 92.7487 60.4094 92.7487H72.8788C74.5694 92.7487 75.9401 94.1194 75.9401 95.8101V113.617C75.9401 115.308 74.5694 116.678 72.8788 116.678ZM63.4708 110.555H69.8174V98.8714H63.4708V110.555ZM15.9915 104.057C14.9947 104.057 14.0169 103.571 13.4292 102.675C11.5242 99.7719 10.4512 96.4396 10.3027 92.9894C4.07818 89.6789 0.0245361 83.0885 0.0245361 75.9743C0.0245361 68.8604 4.07818 62.27 10.3023 58.9591C10.7382 48.7299 19.1968 40.5419 29.532 40.5419C39.8668 40.5419 48.325 48.7295 48.7613 58.9587C54.9858 62.2692 59.0394 68.86 59.0394 75.9739C59.0394 83.0877 54.9854 89.6785 48.7609 92.989C48.6132 96.4223 47.5486 99.7416 45.6597 102.636C44.7359 104.052 42.839 104.451 41.4231 103.527C40.0073 102.602 39.6081 100.706 40.5323 99.2901C41.9218 97.1605 42.6561 94.695 42.6561 92.1594C42.6561 91.8689 42.6454 91.5731 42.6236 91.2555C42.5317 89.9234 43.3139 88.6851 44.5565 88.196C49.5568 86.228 52.9167 81.316 52.9167 75.9739C52.9167 70.6318 49.5568 65.7194 44.5565 63.7517C43.3139 63.2627 42.5314 62.0247 42.6236 60.6922C42.6454 60.3746 42.6561 60.0788 42.6561 59.7884C42.6561 52.5517 36.7687 46.6643 29.5324 46.6643C22.2957 46.6643 16.4079 52.5517 16.4079 59.7884C16.4079 60.0811 16.4186 60.385 16.44 60.6907C16.5326 62.0236 15.7504 63.2623 14.5071 63.7517C9.50677 65.7202 6.14729 70.6318 6.14729 75.9743C6.14729 81.3171 9.50677 86.2287 14.5071 88.1964C15.7497 88.6855 16.5322 89.9234 16.44 91.2559C16.4182 91.5735 16.4075 91.8693 16.4075 92.1598C16.4075 94.7068 17.148 97.1815 18.5485 99.3165C19.4761 100.73 19.082 102.628 17.6684 103.556C17.1503 103.895 16.5678 104.057 15.9915 104.057ZM122.854 84.6582H110.385C108.694 84.6582 107.323 83.2875 107.323 81.5969V63.7904C107.323 62.0997 108.694 60.729 110.385 60.729H122.854C124.544 60.729 125.915 62.0997 125.915 63.7904V81.5969C125.915 83.2875 124.544 84.6582 122.854 84.6582ZM113.446 78.5355H119.792V66.8517H113.446V78.5355ZM97.8665 84.6582H85.3975C83.7069 84.6582 82.3361 83.2875 82.3361 81.5969V63.7904C82.3361 62.0997 83.7069 60.729 85.3975 60.729H97.8665C99.5571 60.729 100.928 62.0997 100.928 63.7904V81.5969C100.928 83.2875 99.5571 84.6582 97.8665 84.6582ZM88.4589 78.5355H94.8051V66.8517H88.4589V78.5355ZM72.8788 84.6582H67.0801C65.3895 84.6582 64.0188 83.2875 64.0188 81.5969C64.0188 79.9062 65.3895 78.5355 67.0801 78.5355H69.8174V66.8517H67.0801C65.3895 66.8517 64.0188 65.481 64.0188 63.7904C64.0188 62.0997 65.3895 60.729 67.0801 60.729H72.8788C74.5694 60.729 75.9401 62.0997 75.9401 63.7904V81.5969C75.9401 83.2875 74.5694 84.6582 72.8788 84.6582ZM126.872 40.411C125.182 40.411 123.811 39.0403 123.811 37.3496V15.863H80.298V37.3496C80.298 39.0403 78.9273 40.411 77.2366 40.411C75.546 40.411 74.1753 39.0403 74.1753 37.3496V12.8016C74.1753 11.111 75.546 9.74023 77.2366 9.74023H126.872C128.563 9.74023 129.934 11.111 129.934 12.8016V37.3496C129.934 39.0407 128.563 40.411 126.872 40.411ZM114.137 35.4279C112.446 35.4279 111.076 34.0571 111.076 32.3665V26.4136C111.076 24.723 112.446 23.3523 114.137 23.3523C115.828 23.3523 117.198 24.723 117.198 26.4136V32.3661C117.198 34.0571 115.828 35.4279 114.137 35.4279ZM102.054 35.4279C100.363 35.4279 98.9927 34.0571 98.9927 32.3665V26.4136C98.9927 24.723 100.363 23.3523 102.054 23.3523C103.745 23.3523 105.115 24.723 105.115 26.4136V32.3661C105.115 34.0571 103.745 35.4279 102.054 35.4279ZM89.9724 35.4279C88.2817 35.4279 86.911 34.0571 86.911 32.3665V26.4136C86.911 24.723 88.2817 23.3523 89.9724 23.3523C91.663 23.3523 93.0337 24.723 93.0337 26.4136V32.3661C93.0337 34.0571 91.663 35.4279 89.9724 35.4279Z" fill="white"/>
</g>
<defs>
<clipPath id="clip0">
<rect width="144.512" height="144.512" fill="white" transform="translate(0.0245972 0.975586)"/>
</clipPath>
</defs>
</svg>
