<svg width="146" height="146" viewBox="0 0 146 146" fill="none" xmlns="http://www.w3.org/2000/svg">
<g clip-path="url(#clip0)">
<path d="M126.36 54.9248H59.1844C58.0153 54.9248 57.0675 55.8726 57.0675 57.0417C57.0675 58.2108 58.0153 59.1586 59.1844 59.1586H126.36C127.529 59.1586 128.477 58.2108 128.477 57.0417C128.477 55.8726 127.529 54.9248 126.36 54.9248Z" fill="white"/>
<path d="M126.36 71.1074H59.1844C58.0153 71.1074 57.0675 72.0552 57.0675 73.2243C57.0675 74.3934 58.0153 75.3412 59.1844 75.3412H126.36C127.529 75.3412 128.477 74.3934 128.477 73.2243C128.477 72.0552 127.529 71.1074 126.36 71.1074Z" fill="white"/>
<path d="M126.36 87.2891H59.1844C58.0153 87.2891 57.0675 88.2369 57.0675 89.4059C57.0675 90.575 58.0153 91.5228 59.1844 91.5228H126.36C127.529 91.5228 128.477 90.575 128.477 89.4059C128.477 88.2369 127.529 87.2891 126.36 87.2891Z" fill="white"/>
<path d="M133.084 36.4111H52.4603C45.6714 36.4111 40.148 41.9342 40.148 48.7235V99.4204C40.148 106.209 45.6711 111.733 52.4603 111.733H108.97C109.574 111.733 110.136 112.005 110.511 112.479L128.759 135.582C129.479 136.493 130.528 136.989 131.627 136.989C132.035 136.989 132.451 136.92 132.858 136.779C134.362 136.256 135.333 134.891 135.333 133.299V111.523C141.042 110.456 145.396 105.409 145.396 99.4204V48.7232C145.396 41.9342 139.873 36.4111 133.084 36.4111ZM141.163 99.4204C141.163 103.817 137.586 107.44 133.189 107.496C132.031 107.511 131.099 108.454 131.099 109.613V131.714L113.833 109.855C112.651 108.357 110.878 107.499 108.97 107.499H52.4603C48.0059 107.499 44.3818 103.875 44.3818 99.4202V48.7232C44.3818 44.2687 48.0056 40.6446 52.4603 40.6446H133.084C137.539 40.6446 141.163 44.2687 141.163 48.7232V99.4204Z" fill="white"/>
<path d="M32.0712 71.4138C30.6233 71.6193 29.3266 72.3647 28.42 73.5123L13.8782 91.9224V73.4714C13.8782 72.3128 12.9468 71.3695 11.7884 71.3545C8.11039 71.3077 5.11797 68.2771 5.11797 64.5989V20.4659C5.11797 16.7393 8.14991 13.7074 11.8765 13.7074H82.0617C85.7883 13.7074 88.8202 16.7393 88.8202 20.4659V28.632C88.8202 29.801 89.768 30.7488 90.9371 30.7488C92.1062 30.7488 93.054 29.801 93.054 28.632V20.4659C93.054 14.4048 88.1228 9.47363 82.0617 9.47363H11.8765C5.81541 9.47363 0.884216 14.4048 0.884216 20.4659V64.5989C0.884216 69.8676 4.65819 74.319 9.64471 75.3594V94.0912C9.64471 95.595 10.5626 96.8858 11.9834 97.3792C12.3687 97.5129 12.761 97.5779 13.1472 97.5779C14.185 97.5779 15.1771 97.1087 15.8565 96.2487L31.7427 76.1367C31.9719 75.8463 32.3001 75.6577 32.6665 75.6055C33.824 75.4412 34.6292 74.3695 34.4647 73.212C34.3004 72.0545 33.2304 71.2487 32.0712 71.4138Z" fill="white"/>
</g>
<defs>
<clipPath id="clip0">
<rect width="144.512" height="144.512" fill="white" transform="translate(0.884094 0.975586)"/>
</clipPath>
</defs>
</svg>
