<svg width="147" height="146" viewBox="0 0 147 146" fill="none" xmlns="http://www.w3.org/2000/svg">
<path d="M12.6364 64.8305H86.047C87.2316 64.8305 88.1914 63.8708 88.1914 62.6863C88.1914 61.5018 87.2316 60.541 86.047 60.541H12.6364C11.4518 60.541 10.4909 61.5018 10.4909 62.6863C10.4909 63.8708 11.4518 64.8305 12.6364 64.8305Z" fill="white"/>
<path d="M12.6364 73.1333H50.4257C51.6103 73.1333 52.5712 72.1725 52.5712 70.988C52.5712 69.8035 51.6114 68.8427 50.4257 68.8427H12.6364C11.4518 68.8427 10.4909 69.8035 10.4909 70.988C10.4909 72.1725 11.4518 73.1333 12.6364 73.1333Z" fill="white"/>
<path fill-rule="evenodd" clip-rule="evenodd" d="M135.641 36.0545H130.833V32.9439C134.436 30.5581 136.818 26.4699 136.818 21.8348V8.94277C136.818 4.55036 133.244 0.976704 128.851 0.976704H118.148C113.754 0.976704 110.181 4.55036 110.181 8.94277V21.8348C110.181 26.3547 112.445 30.3523 115.897 32.7605V36.0545H98.4223V9.57474C98.4223 4.83335 94.5642 0.975586 89.8223 0.975586H8.85886C4.11703 0.975586 0.258911 4.83335 0.258911 9.57474V75.0952C0.258911 79.8377 4.11703 83.6954 8.85886 83.6954H12.8154C11.4462 85.5041 10.6319 87.7556 10.6319 90.194V92.6547C10.6319 92.6693 10.633 92.6838 10.633 92.6984V101.601C10.633 106.342 13.0056 110.728 16.9017 113.336V116.989H15.2976C7.00531 116.989 0.258911 123.735 0.258911 132.026V140.194C0.258911 143.113 2.63486 145.488 5.55558 145.488H43.9421C45.1234 145.488 46.2118 145.095 47.0933 144.44C47.9748 145.095 49.0632 145.488 50.2433 145.488H88.6321C89.8145 145.488 90.9029 145.094 91.7855 144.436C92.667 145.094 93.7565 145.488 94.9378 145.488H133.328C136.246 145.488 138.621 143.113 138.621 140.194V132.026C138.621 128.772 137.558 125.601 135.615 123.009C134.05 120.875 132.103 119.536 131.325 119.133C129.015 117.745 126.35 116.989 123.586 116.989H121.982V113.331C122.074 113.269 122.168 113.21 122.259 113.146C126.011 110.501 128.25 106.184 128.25 101.601V92.6659V92.6547V90.1929C128.25 87.7355 127.422 85.4683 126.033 83.6518H135.907C141.957 83.6518 146.879 78.7303 146.879 72.6814V47.2911C146.879 41.0956 141.838 36.0545 135.641 36.0545ZM94.1324 9.57474C94.1324 7.19901 92.1983 5.26509 89.8223 5.26509H8.85886C6.48291 5.26509 4.54882 7.19901 4.54882 9.57474V75.0963C4.54882 77.472 6.48291 79.4059 8.85886 79.4059H21.4098H21.421H28.0779H28.0891H66.0975H66.1087H72.7645H72.7757H89.8212C92.1983 79.4059 94.1312 77.472 94.1312 75.0963V59.7748C94.1312 58.5903 95.0921 57.6306 96.2768 57.6306C97.4614 57.6306 98.4212 58.5903 98.4212 59.7748V75.0963C98.4212 79.8377 94.5642 83.6954 89.8212 83.6954H81.3712C82.7403 85.5041 83.5547 87.7545 83.5547 90.1929V101.602C83.5547 106.343 81.1821 110.728 77.2859 113.336V116.99H78.8901C84.359 116.99 89.1534 119.926 91.7844 124.304C94.4165 119.926 99.2109 116.99 104.68 116.99H106.284V113.351C102.388 110.796 100.015 106.408 100.015 101.601V90.1929C100.015 85.5913 102.984 81.5042 107.239 80.011V51.1634H74.4022C70.2767 51.1634 66.9197 47.809 66.9197 43.685V38.3575C64.8715 37.3799 63.4486 35.2939 63.4486 32.8768C63.4486 31.9283 63.6735 31.0335 64.0627 30.2337L59.9664 25.9073C59.2426 26.2115 58.4473 26.3816 57.6139 26.3816C56.9394 26.3816 56.2906 26.2652 55.6832 26.0605L50.6628 32.2124C51.183 33.1083 51.4861 34.1441 51.4861 35.2525C51.4861 38.6013 48.7611 41.3272 45.412 41.3272C42.0617 41.3272 39.3368 38.6013 39.3368 35.2525C39.3368 34.9818 39.3603 34.7167 39.3949 34.4561L33.7526 31.4261C32.6843 32.3567 31.2928 32.9249 29.7681 32.9249C28.805 32.9249 27.8967 32.6945 27.0868 32.2929L20.9836 38.0018C21.2789 38.7154 21.4433 39.495 21.4433 40.3138C21.4433 43.6626 18.7184 46.3873 15.3692 46.3873C12.019 46.3873 9.294 43.6626 9.294 40.3138C9.294 36.9638 12.019 34.2391 15.3692 34.2391C16.3324 34.2391 17.2407 34.4707 18.0506 34.8711L24.1526 29.1633C23.8584 28.4497 23.6929 27.6701 23.6929 26.8513C23.6929 23.5014 26.419 20.7767 29.7681 20.7767C33.1172 20.7767 35.8433 23.5014 35.8433 26.8513C35.8433 27.122 35.8187 27.386 35.7852 27.6477L41.4275 30.6778C42.4958 29.746 43.8873 29.1778 45.412 29.1778C46.0865 29.1778 46.7342 29.2931 47.3416 29.4977L52.3631 23.3448C51.8429 22.45 51.5398 21.4142 51.5398 20.3069C51.5398 16.9569 54.2659 14.2322 57.615 14.2322C60.9642 14.2322 63.6902 16.9569 63.6902 20.3069C63.6902 21.2554 63.4654 22.1502 63.0761 22.9511L67.1714 27.2764C67.8951 26.971 68.6905 26.8021 69.5238 26.8021C70.1861 26.8021 70.8226 26.9117 71.4199 27.1086L79.1227 17.5587C78.6026 16.6628 78.3005 15.6281 78.3005 14.5208C78.3005 11.1709 81.0255 8.44615 84.3758 8.44615C87.7249 8.44615 90.4499 11.1709 90.4499 14.5208C90.4499 17.8696 87.7249 20.5944 84.3758 20.5944C83.699 20.5944 83.0513 20.4791 82.4428 20.2745L74.7568 29.8053C75.2881 30.708 75.5991 31.7549 75.5991 32.8768C75.5991 34.0423 75.2624 35.1283 74.6908 36.0545H94.1324V9.57474ZM118.148 5.26621C116.121 5.26621 114.471 6.91491 114.471 8.94277V12.3117C115.568 11.7391 116.815 11.4136 118.135 11.4113V11.2492C118.135 10.0646 119.094 9.10496 120.279 9.10496C121.465 9.10496 122.424 10.0646 122.424 11.2492V11.4113H128.852C130.177 11.4113 131.428 11.7368 132.529 12.3117V8.94277C132.529 6.91602 130.879 5.26621 128.852 5.26621H118.148ZM118.148 15.7008C116.121 15.7008 114.471 17.3507 114.471 19.3774V21.8348C114.471 26.8133 118.522 30.8634 123.499 30.8634C128.478 30.8634 132.529 26.8133 132.529 21.8348V19.3774C132.529 17.3507 130.879 15.7008 128.852 15.7008H118.148ZM126.543 34.7973C125.564 35.0277 124.547 35.153 123.499 35.153C122.356 35.153 121.247 35.0075 120.188 34.7357V38.0902C120.189 38.117 120.191 38.1439 120.191 38.1707C120.214 39.8943 121.638 41.297 123.365 41.297C125.092 41.297 126.516 39.8943 126.541 38.1696C126.541 38.1563 126.541 38.1428 126.542 38.129C126.542 38.1162 126.543 38.1032 126.543 38.0902V34.7973ZM86.16 14.5208C86.16 13.5365 85.359 12.7357 84.3746 12.7357C83.3914 12.7357 82.5904 13.5365 82.5904 14.5208C82.5904 15.0644 82.8354 15.551 83.2202 15.8787C83.2225 15.8809 83.2258 15.8832 83.2281 15.8843C83.237 15.891 83.2437 15.8988 83.2515 15.9055C83.5592 16.155 83.9496 16.3048 84.3746 16.3048C85.359 16.3048 86.16 15.5051 86.16 14.5208ZM70.6413 31.4898L70.6279 31.4764C70.3237 31.237 69.94 31.0916 69.5227 31.0916C68.5395 31.0916 67.7385 31.8925 67.7385 32.8768C67.7385 33.8611 68.5395 34.6608 69.5227 34.6608C70.5071 34.6608 71.3081 33.8611 71.3081 32.8768C71.3081 32.3242 71.0564 31.831 70.6615 31.5032C70.6581 31.5004 70.6548 31.4985 70.6514 31.4965L70.6497 31.4955C70.6469 31.4939 70.6441 31.4921 70.6413 31.4898ZM13.5839 40.3127C13.5839 41.297 14.3848 42.0978 15.3681 42.0978C16.3525 42.0978 17.1534 41.297 17.1534 40.3127C17.1534 39.3284 16.3525 38.5286 15.3681 38.5286C14.3837 38.5286 13.5839 39.3284 13.5839 40.3127ZM27.9828 26.8502C27.9828 27.8345 28.7837 28.6354 29.7681 28.6354C30.7514 28.6354 31.5523 27.8345 31.5523 26.8502C31.5523 25.867 30.7514 25.0662 29.7681 25.0662C28.7837 25.0662 27.9828 25.867 27.9828 26.8502ZM43.6267 35.2514C43.6267 36.2357 44.4276 37.0365 45.412 37.0365C46.3953 37.0365 47.1962 36.2357 47.1962 35.2514C47.1962 34.2682 46.3953 33.4674 45.412 33.4674C44.4276 33.4674 43.6267 34.2682 43.6267 35.2514ZM57.615 18.5217C56.6306 18.5217 55.8297 19.3215 55.8297 20.3058C55.8297 21.2901 56.6306 22.0909 57.615 22.0909C58.5994 22.0909 59.3992 21.2901 59.3992 20.3058C59.3992 19.3215 58.5994 18.5217 57.615 18.5217ZM109.436 83.8397C106.46 84.4773 104.305 87.1483 104.305 90.1918V92.6547C104.305 98.0728 108.714 102.481 114.133 102.481C119.549 102.481 123.954 98.0784 123.96 92.6659V90.1918C123.96 86.6092 121.044 83.6943 117.459 83.6943H110.803C110.337 83.6943 109.877 83.7435 109.436 83.8397ZM47.0933 124.296C49.7265 119.922 54.5187 116.989 59.9843 116.989H61.5895V113.336C57.6922 110.728 55.3196 106.342 55.3196 101.601V90.1929C55.3196 89.0554 55.4975 87.9592 55.8252 86.9291C56.2 85.7501 56.7727 84.6596 57.5032 83.6943H36.6845C38.0537 85.5029 38.8681 87.7545 38.8681 90.1918V101.601C38.8681 106.342 36.4955 110.727 32.5982 113.335V116.989H34.2001C39.6668 116.989 44.4612 119.922 47.0933 124.296ZM21.1816 111.913C21.1872 111.967 21.1905 112.03 21.1916 112.102L21.1917 112.108L21.1917 112.109C21.1918 112.113 21.192 112.117 21.1922 112.121C21.1925 112.127 21.1928 112.133 21.1928 112.139V119.134C21.1928 119.779 21.7174 120.304 22.3628 120.304H27.1393C27.7837 120.304 28.3083 119.779 28.3083 119.134V112.139C28.3061 111.375 28.7121 110.636 29.4303 110.246C32.2335 108.722 34.0972 105.962 34.4954 102.853C31.9595 105.277 28.5276 106.772 24.75 106.772C20.9735 106.772 17.5416 105.278 15.0057 102.856C15.405 105.963 17.2686 108.723 20.0719 110.246C20.7185 110.597 21.1111 111.232 21.1816 111.913ZM21.421 83.6943C17.838 83.6943 14.9229 86.6092 14.9229 90.1918H14.924V92.6984C14.9475 98.0963 19.3459 102.481 24.75 102.481C30.1686 102.481 34.577 98.0728 34.577 92.6547V90.1929C34.577 87.8015 33.2772 85.7088 31.3487 84.5802C30.3867 84.0187 29.2692 83.6943 28.0767 83.6943H21.421ZM59.9026 88.2623C59.7124 88.8719 59.6106 89.5207 59.6106 90.1918V92.6659C59.6162 98.0795 64.0225 102.481 69.4377 102.481C74.8563 102.481 79.2648 98.0728 79.2648 92.6547V90.194C79.2648 87.1707 77.1898 84.6216 74.3876 83.9001C74.3753 83.8969 74.363 83.8938 74.3506 83.8908C74.3339 83.8868 74.3171 83.8829 74.3003 83.8791L74.2792 83.8743C74.2674 83.8716 74.2555 83.8689 74.2436 83.8661L74.231 83.8632C74.1795 83.8509 74.127 83.8386 74.0744 83.8274C73.6516 83.7402 73.2153 83.6954 72.7667 83.6954H66.1087C65.4364 83.6954 64.7887 83.7972 64.178 83.9874C64.1355 84.0008 64.0939 84.0152 64.0524 84.0296L64.0268 84.0385C64.0146 84.0427 64.0023 84.0469 63.99 84.0511C63.9725 84.0573 63.9549 84.063 63.9374 84.0687C63.9171 84.0754 63.8969 84.0819 63.8771 84.0891C62.0861 84.7468 60.6621 86.1707 60.0055 87.9614C60.0009 87.9731 59.9967 87.9848 59.9926 87.9966C59.989 88.0068 59.9856 88.0171 59.9822 88.0273L59.9821 88.0276L59.9803 88.0329C59.9758 88.0464 59.9712 88.0599 59.9664 88.0733C59.9451 88.1359 59.9227 88.1986 59.9026 88.2623ZM65.8794 112.124V112.139V119.134C65.8794 119.78 66.404 120.304 67.0483 120.304H71.8249C72.4703 120.304 72.9949 119.78 72.9949 119.134V112.121C72.996 112.053 72.9983 111.995 73.0039 111.946C73.0643 111.253 73.4592 110.602 74.1169 110.246C76.9202 108.723 78.7838 105.963 79.182 102.854C76.6461 105.278 73.2142 106.772 69.4377 106.772C65.6613 106.772 62.2282 105.278 59.6923 102.854C60.0916 105.963 61.9553 108.723 64.7585 110.246C65.3704 110.578 65.753 111.165 65.8525 111.804C65.8704 111.869 65.8794 111.972 65.8794 112.124ZM37.3255 141.198H43.9421C44.497 141.198 44.9489 140.748 44.9489 140.195V132.028C44.9489 126.101 40.1265 121.28 34.2001 121.28H32.1586C31.323 123.227 29.3878 124.594 27.1382 124.594H22.3617C20.1122 124.594 18.1781 123.226 17.3425 121.28H15.2976C9.37119 121.28 4.54882 126.101 4.54882 132.028V140.195C4.54882 140.749 5.00074 141.198 5.55558 141.198H12.3288V136.444C12.3288 135.259 13.2886 134.299 14.4732 134.299C15.6589 134.299 16.6187 135.259 16.6187 136.444V141.198H33.0356V136.444C33.0356 135.259 33.9954 134.299 35.18 134.299C36.3657 134.299 37.3255 135.259 37.3255 136.444V141.198ZM88.6321 141.198C89.1858 141.198 89.6355 140.748 89.6355 140.194V132.026C89.6355 126.101 84.8154 121.28 78.8901 121.28H76.8452C76.0096 123.226 74.0755 124.594 71.826 124.594H67.0495C64.7999 124.594 62.8647 123.226 62.0291 121.28H59.9843C54.0589 121.28 49.2388 126.101 49.2388 132.026V140.194C49.2388 140.748 49.6896 141.198 50.2433 141.198H57.0166V136.444C57.0166 135.259 57.9763 134.298 59.161 134.298C60.3467 134.298 61.3065 135.259 61.3065 136.444V141.198H77.7233V136.444C77.7233 135.259 78.6831 134.298 79.8677 134.298C81.0535 134.298 82.0132 135.259 82.0132 136.444V141.198H88.6321ZM134.331 132.026C134.331 129.505 133.442 127.056 131.826 125.127C129.777 122.681 126.773 121.28 123.586 121.279H121.541C120.705 123.226 118.77 124.594 116.52 124.594H111.744C109.749 124.594 107.913 123.506 106.954 121.754C106.87 121.6 106.796 121.44 106.727 121.279H104.68C98.7545 121.279 93.9344 126.101 93.9344 132.026V140.194C93.9344 140.748 94.3852 141.197 94.9378 141.197H101.711V136.444C101.711 135.259 102.672 134.298 103.857 134.298C105.041 134.298 106.002 135.259 106.002 136.444V141.197H122.419V136.444C122.419 135.259 123.379 134.298 124.563 134.298C125.749 134.298 126.709 135.259 126.709 136.444V141.197H133.328C133.881 141.197 134.331 140.748 134.331 140.194V132.026ZM118.927 110.182C119.222 110.015 119.514 109.832 119.791 109.636C122.055 108.04 123.527 105.566 123.878 102.854C121.342 105.278 117.91 106.772 114.133 106.772C110.353 106.772 106.919 105.276 104.382 102.849C104.761 106.032 106.585 108.737 109.427 110.229C110.046 110.553 110.437 111.138 110.544 111.779C110.546 111.788 110.548 111.799 110.549 111.81L110.549 111.811L110.551 111.819C110.551 111.824 110.552 111.828 110.553 111.832L110.554 111.838L110.556 111.853C110.559 111.869 110.561 111.885 110.563 111.9C110.565 111.919 110.567 111.94 110.568 111.962C110.57 111.987 110.571 112.014 110.572 112.041C110.572 112.05 110.572 112.059 110.573 112.068L110.573 112.068L110.574 112.085C110.574 112.091 110.575 112.098 110.575 112.104C110.575 112.109 110.575 112.114 110.575 112.119V112.128V118.404C110.658 118.632 110.705 118.877 110.705 119.134C110.705 119.284 110.689 119.431 110.66 119.572C110.677 119.614 110.697 119.657 110.719 119.698C110.923 120.071 111.317 120.304 111.744 120.304H116.52C117.166 120.304 117.69 119.779 117.69 119.134V112.05C117.69 111.859 117.715 111.747 117.762 111.693C117.921 111.076 118.346 110.508 118.927 110.182ZM135.907 79.3623C139.591 79.3623 142.589 76.3647 142.589 72.6814V47.2911C142.589 43.4602 139.472 40.344 135.642 40.344H130.489C129.536 43.3729 126.69 45.5865 123.365 45.5865C120.041 45.5865 117.195 43.3729 116.242 40.344H71.2107V43.685C71.2107 45.4433 72.6426 46.8739 74.4022 46.8739H108.556C110.196 46.8739 111.53 48.2083 111.53 49.848V79.3623H131.324V54.3545C131.324 53.17 132.284 52.2092 133.47 52.2092C134.654 52.2092 135.614 53.17 135.614 54.3545V79.3623H135.907Z" fill="white"/>
</svg>
