<svg width="146" height="146" viewBox="0 0 146 146" fill="none" xmlns="http://www.w3.org/2000/svg">
<g clip-path="url(#clip0)">
<path d="M74.2478 21.5898H105.715C106.884 21.5898 107.832 20.6427 107.832 19.4729C107.832 18.3042 106.884 17.3571 105.715 17.3571H74.2478C73.078 17.3571 72.1309 18.3042 72.1309 19.4729C72.1309 20.6427 73.078 21.5898 74.2478 21.5898Z" fill="white"/>
<path d="M90.6404 13.7562H105.715C106.885 13.7562 107.832 12.8081 107.832 11.6394C107.832 10.4707 106.884 9.52248 105.715 9.52248H90.6404C89.4706 9.52248 88.5235 10.4707 88.5235 11.6394C88.5235 12.8081 89.4706 13.7562 90.6404 13.7562Z" fill="white"/>
<path d="M68.1926 29.8467H99.7937L105.167 35.2205C105.697 35.7497 106.399 36.0309 107.116 36.0309C107.472 36.0309 107.831 35.9614 108.174 35.8192C109.209 35.3903 109.879 34.3903 109.879 33.269V29.8467H111.771C114.617 29.8467 116.934 27.5314 116.934 24.6835V6.13879C116.934 3.29202 114.617 0.975586 111.771 0.975586H68.1926C65.3459 0.975586 63.0294 3.29202 63.0294 6.13879V24.6835C63.0294 27.5314 65.3459 29.8467 68.1926 29.8467ZM67.2621 6.13879C67.2621 5.6261 67.68 5.20934 68.1926 5.20934H111.771C112.283 5.20934 112.7 5.6261 112.7 6.13879V24.6835C112.7 25.1962 112.283 25.6141 111.771 25.6141H109.721C107.473 25.6141 105.645 27.4421 105.645 29.6891V29.7111L102.741 26.8081C101.971 26.0385 100.947 25.6141 99.8587 25.6141H68.1926C67.68 25.6141 67.2621 25.1962 67.2621 24.6835V6.13879Z" fill="white"/>
<path d="M47.7184 53.8314H79.1861C80.3559 53.8314 81.3029 52.8832 81.3029 51.7145C81.3029 50.5458 80.3548 49.5976 79.1861 49.5976H47.7184C46.5486 49.5976 45.6016 50.5458 45.6016 51.7145C45.6016 52.8832 46.5486 53.8314 47.7184 53.8314Z" fill="white"/>
<path d="M47.7184 45.9967H62.7935C63.9633 45.9967 64.9104 45.0497 64.9104 43.881C64.9104 42.7112 63.9622 41.7641 62.7935 41.7641H47.7184C46.5486 41.7641 45.6016 42.7112 45.6016 43.881C45.6016 45.0497 46.5486 45.9967 47.7184 45.9967Z" fill="white"/>
<path fill-rule="evenodd" clip-rule="evenodd" d="M41.6633 62.0883H43.5553V65.5106C43.5553 66.6308 44.2245 67.6319 45.2598 68.0608C45.6027 68.203 45.9621 68.2714 46.3182 68.2714C47.0349 68.2714 47.7372 67.9913 48.2664 67.4621L53.6402 62.0883H85.2412C88.0891 62.0883 90.4044 59.7719 90.4044 56.9251V38.3804C90.4044 35.5336 88.0891 33.2172 85.2412 33.2172H41.6633C38.8165 33.2172 36.5001 35.5325 36.5001 38.3804V56.9251C36.5001 59.7719 38.8165 62.0883 41.6633 62.0883ZM86.1718 38.3804C86.1718 37.8677 85.7539 37.4498 85.2412 37.4498H41.6633C41.1506 37.4498 40.7327 37.8666 40.7327 38.3804V56.9251C40.7327 57.4378 41.1506 57.8546 41.6633 57.8546H43.7129C45.9599 57.8546 47.789 59.6837 47.789 61.9307V61.9527L50.6931 59.0486C51.4627 58.2791 52.4858 57.8546 53.5751 57.8546H85.2412C85.7539 57.8546 86.1718 57.4378 86.1718 56.9251V38.3804Z" fill="white"/>
<path fill-rule="evenodd" clip-rule="evenodd" d="M139.794 114.877C139.794 113.707 138.846 112.76 137.677 112.76H137.251C138.245 111.362 138.895 109.693 139.072 107.864L139.784 100.504C139.786 100.48 139.786 100.457 139.787 100.434C139.789 100.396 139.793 100.359 139.793 100.32C139.793 100.278 139.792 100.237 139.789 100.197C139.788 100.176 139.789 100.155 139.787 100.134L137.732 74.0873C137.568 71.8778 136.337 69.8745 134.442 68.7278L134.121 68.5338L133.248 62.1424C134.375 61.2019 135.298 60.0244 135.938 58.687C135.961 58.6385 135.983 58.59 136.003 58.5415C136.6 57.2438 136.935 55.8038 136.935 54.2856V46.5546C136.935 42.1566 133.357 38.58 128.959 38.58H124.449C120.052 38.58 116.474 42.1566 116.474 46.5546V54.2856C116.474 57.8799 118.34 61.0453 121.151 62.8711L120.574 68.6231C120.55 68.6407 120.526 68.6595 120.503 68.6782L114.061 74.1567L95.3063 75.6606C95.2038 75.6694 95.1024 75.6849 95.0009 75.708C91.3526 76.5471 88.6613 79.4368 88.0152 83.0057H57.4627C56.8166 79.4368 54.1253 76.5471 50.4759 75.708C50.3756 75.6849 50.2741 75.6694 50.1716 75.6606L31.4174 74.1567L24.9752 68.6793C24.9521 68.6595 24.9278 68.6418 24.9047 68.6231L24.3269 62.8711C27.1384 61.0453 29.0039 57.8799 29.0039 54.2856V46.5546C29.0039 42.1566 25.4262 38.58 21.0292 38.58H16.5187C12.1218 38.58 8.54406 42.1566 8.54406 46.5546V54.2856C8.54406 55.8038 8.87813 57.2438 9.4735 58.5392C9.49445 58.59 9.5176 58.6396 9.54186 58.6892C10.1813 60.0255 11.1031 61.203 12.2299 62.1424L11.3577 68.5338L11.0358 68.7278C9.13943 69.8745 7.9101 71.8778 7.74692 74.0774L5.69068 100.134C5.68848 100.158 5.68958 100.182 5.68848 100.206L5.68836 100.21C5.6873 100.237 5.68627 100.264 5.68627 100.291C5.68517 100.348 5.68848 100.405 5.69178 100.461C5.69289 100.476 5.69289 100.49 5.69399 100.504L6.40623 107.864C6.58374 109.693 7.23314 111.362 8.22763 112.76H7.80095C6.63225 112.76 5.68407 113.708 5.68407 114.877C5.68407 116.046 6.63225 116.994 7.80095 116.994H10.0964L5.71384 143.019C5.51979 144.173 6.29708 145.264 7.44923 145.458C7.56831 145.478 7.68628 145.488 7.80315 145.488C8.81749 145.488 9.71385 144.756 9.88806 143.722L14.3886 116.994H35.9433L39.2862 143.634C39.4196 144.705 40.3314 145.488 41.3832 145.488C41.4714 145.488 41.5597 145.482 41.6501 145.471C42.8088 145.326 43.6313 144.267 43.4869 143.107L43.4086 142.485C43.4163 142.459 43.4274 142.437 43.434 142.412L50.5024 115.37C51.2554 112.489 50.7063 109.438 48.9952 107C47.284 104.563 44.6016 103.008 41.6357 102.737L27.8363 101.477L26.8937 88.2957C27.9223 92.2461 31.5188 95.1701 35.7867 95.1701H66.8949V130.639C66.8949 132.498 65.562 134.054 63.7251 134.342L55.3668 135.648C52.9412 136.026 51.1804 138.083 51.1804 140.539C51.1804 143.267 53.4009 145.488 56.1308 145.488H89.013C91.7429 145.488 93.9623 143.267 93.9623 140.539C93.9623 138.083 92.2027 136.027 89.7771 135.648L81.4176 134.342C79.5819 134.054 78.2489 132.498 78.2489 130.639V95.1701H111.896C114.375 95.1701 116.625 94.1822 118.28 92.5824L117.644 101.477L103.844 102.738C100.879 103.008 98.1961 104.563 96.4849 107C94.7738 109.438 94.2247 112.489 94.9778 115.37L102.046 142.412C102.053 142.437 102.065 142.459 102.072 142.485L101.993 143.107C101.848 144.267 102.67 145.326 103.83 145.471C103.92 145.482 104.009 145.488 104.097 145.488C105.149 145.488 106.061 144.705 106.194 143.634L109.537 116.994H131.09L135.591 143.722C135.765 144.756 136.662 145.488 137.676 145.488C137.793 145.488 137.912 145.478 138.03 145.458C139.183 145.264 139.96 144.173 139.766 143.019L135.384 116.994H137.679C138.846 116.994 139.794 116.046 139.794 114.877ZM111.896 90.9363C114.194 90.9363 116.132 89.3641 116.69 87.2384H30.9929C31.5508 89.3641 33.4879 90.9363 35.7867 90.9363H111.896ZM14.3346 58.3033C15.4327 59.515 17.0138 60.2824 18.7734 60.2824C22.08 60.2824 24.7713 57.5922 24.7702 54.2856V48.7046L19.124 50.9405V52.8446C19.124 54.1578 18.4835 55.3904 17.4085 56.1456L14.3346 58.3033ZM21.0292 42.8126H16.5187C14.4559 42.8126 12.7767 44.4918 12.7767 46.5546V54.2239L14.8914 52.7399V50.8038C14.8914 49.139 15.8914 47.6671 17.4405 47.0541L24.0965 44.419C23.4195 43.4499 22.2983 42.8126 21.0292 42.8126ZM20.2266 64.4103C19.7514 64.4786 19.2674 64.5161 18.7734 64.5161C17.8936 64.5161 17.038 64.4037 16.2222 64.1942L15.8958 66.5878C17.403 66.2868 18.9498 66.2945 20.4471 66.6098L20.2266 64.4103ZM13.2266 72.3508C12.5011 72.7885 12.0303 73.5559 11.9686 74.4004L10.0623 98.5427L23.5485 100.874L22.3578 84.2274L20.1726 83.2108C19.1119 82.718 18.6522 81.4589 19.1461 80.3993C19.6389 79.3387 20.898 78.88 21.9576 79.3729L25.2299 80.8944C25.2575 80.9065 25.285 80.9197 25.3115 80.933L29.768 83.0057H53.0955C52.5586 81.4831 51.2984 80.2913 49.6644 79.8668L30.3975 78.321C29.9543 78.2858 29.5342 78.1116 29.1958 77.8238L22.2927 71.955C19.9631 70.2714 16.8782 70.1424 14.414 71.6319L13.2266 72.3508ZM46.4053 114.299C46.843 112.623 46.5244 110.849 45.5288 109.433C44.5343 108.015 42.9742 107.111 41.2498 106.953L24.4008 105.414C24.3402 105.407 24.2795 105.399 24.22 105.39L10.1769 102.876L10.6201 107.456C10.9123 110.48 13.4239 112.76 16.4625 112.76H41.3855C42.5541 112.76 43.5012 113.707 43.5012 114.877C43.5012 116.046 42.5541 116.994 41.3855 116.994H40.2256L42.0668 130.898L46.4053 114.299ZM89.1233 139.831L80.7638 138.524C76.8531 137.913 74.0141 134.597 74.0141 130.639V95.1701H71.1276V130.639C71.1276 134.597 68.2886 137.913 64.3778 138.524L56.0195 139.831C55.6678 139.886 55.4131 140.182 55.4131 140.539C55.4131 140.933 55.735 141.254 56.1297 141.254H89.0119C89.4077 141.254 89.7286 140.933 89.7286 140.539C89.7286 140.182 89.4739 139.885 89.1233 139.831ZM128.959 42.8126H124.449C123.18 42.8126 122.058 43.4499 121.381 44.4179L128.037 47.0541C129.587 47.6671 130.587 49.139 130.587 50.8038V52.7399L132.701 54.2239V46.5546C132.701 44.4918 131.022 42.8126 128.959 42.8126ZM126.353 50.9394L120.707 48.7046V54.2856C120.707 57.5922 123.398 60.2824 126.704 60.2824C128.464 60.2824 130.045 59.515 131.143 58.3033L128.069 56.1456C126.994 55.3904 126.353 54.1567 126.353 52.8446V50.9394ZM129.256 64.1942C128.44 64.4037 127.584 64.5161 126.704 64.5161C126.211 64.5161 125.727 64.4786 125.251 64.4103L125.031 66.6098C126.528 66.2945 128.075 66.2857 129.582 66.5878L129.256 64.1942ZM101.976 114.877C101.976 113.708 102.924 112.76 104.092 112.76H129.015C132.054 112.76 134.566 110.48 134.858 107.456L135.552 100.28L133.51 74.4103C133.448 73.5559 132.977 72.7885 132.251 72.3508L131.064 71.6319C128.6 70.1424 125.516 70.2703 123.186 71.955L116.283 77.8238C115.945 78.1116 115.524 78.2858 115.082 78.321L95.8135 79.8668C94.1795 80.2913 92.9193 81.4831 92.3824 83.0057H115.711L120.186 80.9241C120.207 80.9131 120.228 80.9032 120.25 80.8944L123.52 79.3729C124.58 78.88 125.839 79.3387 126.332 80.3993C126.826 81.4589 126.366 82.718 125.305 83.2108L123.12 84.2274L121.924 100.969L128.152 99.8548C129.302 99.6486 130.402 100.415 130.609 101.565C130.815 102.716 130.049 103.815 128.897 104.021L121.258 105.388C121.198 105.399 121.138 105.407 121.078 105.413L119.838 105.526C119.833 105.527 119.829 105.527 119.825 105.527L104.228 106.953C102.504 107.111 100.944 108.015 99.9491 109.431C98.9535 110.849 98.6349 112.623 99.0726 114.299L103.411 130.898L105.252 116.994H104.092C102.924 116.994 101.976 116.046 101.976 114.877Z" fill="white"/>
</g>
<defs>
<clipPath id="clip0">
<rect width="144.512" height="144.512" fill="white" transform="translate(0.603516 0.975586)"/>
</clipPath>
</defs>
</svg>
