<svg width="74" height="26" viewBox="0 0 74 26" fill="none" xmlns="http://www.w3.org/2000/svg">
<path fill-rule="evenodd" clip-rule="evenodd" d="M8.87838 20.3259H1.89888L2.38677 19.8584C2.44709 19.8006 2.52822 19.7598 2.58623 19.733C2.6529 19.7022 2.73139 19.6714 2.81242 19.6416C2.8924 19.6122 2.99384 19.5769 3.09635 19.5413C3.18449 19.5107 3.27343 19.4798 3.35019 19.4521C3.53567 19.3851 3.698 19.3203 3.81098 19.2588C3.84616 19.2396 3.87109 19.2237 3.88796 19.2115V2.7969C3.87109 2.7847 3.84619 2.7688 3.81112 2.74973C3.6981 2.68826 3.53574 2.62352 3.35025 2.55657C3.27351 2.52888 3.18483 2.49809 3.09691 2.46758C2.99429 2.43196 2.89272 2.39671 2.81246 2.36716C2.73142 2.33733 2.65293 2.30663 2.58627 2.27584C2.52825 2.24905 2.44714 2.20823 2.38681 2.15044L1.89868 1.68286H8.80969L8.32104 2.15053C8.26029 2.20867 8.17459 2.24757 8.12351 2.2698C8.05929 2.29774 7.9819 2.32668 7.90101 2.35548C7.82827 2.38137 7.74791 2.40883 7.66597 2.43682C7.65602 2.44022 7.64604 2.44363 7.63605 2.44704C7.54294 2.47887 7.4476 2.51161 7.35392 2.54533C7.16323 2.61396 6.99351 2.68171 6.87467 2.74589C6.83556 2.76701 6.80792 2.78462 6.78939 2.7981V19.2108C6.80525 19.2219 6.82832 19.2363 6.86051 19.2535C6.97103 19.3127 7.13084 19.3747 7.31673 19.4399C7.38906 19.4653 7.46856 19.4923 7.54838 19.5193C7.65879 19.5568 7.76984 19.5944 7.86348 19.6285C7.94792 19.6592 8.03005 19.6911 8.10154 19.7238C8.16837 19.7544 8.24601 19.7945 8.30757 19.8462L8.87838 20.3259Z" fill="#3B3B46"/>
<path fill-rule="evenodd" clip-rule="evenodd" d="M29.5529 20.3259H26.62V11.2285C26.62 10.1954 26.2914 9.53847 25.8117 9.13504C25.325 8.72578 24.6395 8.54082 23.8572 8.54082C22.8439 8.54082 22.1701 8.78437 21.7457 9.20862C21.3192 9.63492 21.0944 10.2935 21.0944 11.2285V20.3259H18.1616V11.2149L18.163 11.2014C18.2001 10.843 18.154 10.4811 18.028 10.1419C17.9021 9.80274 17.6994 9.49468 17.4346 9.24001C17.1698 8.98533 16.8496 8.79039 16.4969 8.66924C16.1443 8.5481 15.7681 8.50377 15.3955 8.53947L15.3814 8.54082H15.3673C14.2816 8.54082 13.5782 8.79779 13.1536 9.04094C12.9403 9.16313 12.7944 9.28352 12.7041 9.37C12.6762 9.39681 12.6535 9.42038 12.6358 9.43976V20.3259H9.73446V8.07282C9.7057 7.83445 9.60838 7.60843 9.45334 7.42021L9.18799 7.0981L11.8404 6.38062L12.4551 7.9389C12.8736 7.54574 13.3608 7.22472 13.8957 6.99122C14.5731 6.69548 15.3101 6.54746 16.054 6.55774C17.5805 6.55807 19.2159 6.92356 20.2025 8.234C20.541 7.83047 20.9813 7.45421 21.5685 7.16071C22.3124 6.78891 23.2766 6.55774 24.5412 6.55774C26.2198 6.55774 27.4828 7.06414 28.3247 7.92248C29.1635 8.77775 29.5529 9.9505 29.5529 11.2285V20.3259Z" fill="#3B3B46"/>
<path fill-rule="evenodd" clip-rule="evenodd" d="M44.9185 19.1803V20.4452H44.6339C44.5108 20.4452 44.3843 20.4463 44.2553 20.4474C43.5313 20.4536 42.7304 20.4605 42.0151 20.2793C41.2595 20.0879 40.5856 19.6853 40.1421 18.8805C39.7489 19.2809 39.2863 19.6143 38.7739 19.865C38.1247 20.1828 37.4111 20.3604 36.6831 20.3853L36.678 20.3855H36.673C35.4219 20.3855 34.0925 20.1889 33.0671 19.5779C32.0205 18.9544 31.3192 17.9154 31.3192 16.3134C31.3192 14.6837 32.2981 13.6932 33.5122 13.0797C34.7119 12.4736 36.1779 12.214 37.2459 12.0353L37.2473 12.0351C38.5313 11.8267 39.1607 11.6512 39.4628 11.535C39.5324 11.5083 39.5814 11.4859 39.6152 11.4686L39.5907 11.0263V11.019C39.5907 10.4291 39.4443 9.90569 39.1021 9.53225C38.7663 9.16574 38.2019 8.90033 37.2664 8.89975C35.9148 8.92873 34.6215 9.43479 33.6327 10.3216L33.3915 10.538L32.4604 9.2395L32.5972 9.08009C33.1636 8.42021 33.8789 7.89316 34.6887 7.53902C35.4974 7.18538 36.3792 7.01343 37.2672 7.03617C40.4111 7.03761 42.5236 8.7842 42.5236 11.019V16.3716C42.5393 17.7527 42.7746 18.428 43.1075 18.7694C43.4294 19.0994 43.9045 19.1803 44.6339 19.1803H44.9185ZM39.6221 17.0834V12.952C39.6065 12.9602 39.5904 12.9686 39.5738 12.9771C39.1756 13.1805 38.5006 13.4487 37.3673 13.7362L37.3627 13.7374C36.4009 13.9651 35.6276 14.1644 35.086 14.539C34.5778 14.8904 34.2536 15.413 34.2521 16.3665C34.2841 16.9691 34.551 17.5381 34.9999 17.9599C35.4503 18.3832 36.0506 18.6269 36.6801 18.6421L36.6863 18.6422L36.6925 18.6427C37.2964 18.6826 37.8991 18.5506 38.4256 18.2632C38.9327 17.9864 39.3474 17.5771 39.6221 17.0834Z" fill="#3B3B46"/>
<path fill-rule="evenodd" clip-rule="evenodd" d="M53.7261 9.88711H53.7157C53.3411 9.88711 53.0645 9.77837 52.8533 9.59871C52.6552 9.43019 52.5319 9.21158 52.4356 9.04083C52.3302 8.85404 52.2549 8.72098 52.1503 8.6248C52.0617 8.54336 51.9424 8.48096 51.7254 8.48096C50.9247 8.48096 50.2754 8.81153 49.8225 9.20953C49.596 9.40862 49.423 9.62101 49.3084 9.80944C49.1883 10.0067 49.1496 10.1487 49.1496 10.2115V20.3257H46.2168V8.33224C46.208 8.10966 46.1221 7.89625 45.9727 7.726L45.5775 7.27579H48.5583L48.9698 8.24047C49.1663 8.07142 49.4495 7.84648 49.7987 7.62127C50.4899 7.1754 51.4671 6.71045 52.5547 6.70736C52.955 6.67921 53.3563 6.74742 53.7224 6.90588C54.0864 7.06346 54.4041 7.30531 54.6471 7.6097C54.8274 7.79111 54.9516 8.01741 55.0055 8.26318C55.0607 8.51485 55.0399 8.77646 54.9455 9.01714C54.8512 9.25782 54.6873 9.46754 54.4731 9.62156C54.2589 9.77558 54.0033 9.86747 53.7366 9.88637L53.7261 9.88711Z" fill="#3B3B46"/>
<path fill-rule="evenodd" clip-rule="evenodd" d="M55.9786 7.21606H59.5368V20.3257H56.6354V8.28372C56.6048 8.05595 56.5086 7.84084 56.3575 7.66274L55.9786 7.21606Z" fill="#3B3B46"/>
<path fill-rule="evenodd" clip-rule="evenodd" d="M58.1662 4.53298C57.9279 4.53546 57.6915 4.4922 57.4708 4.40573C57.2497 4.31908 57.0489 4.1908 56.8801 4.02843C56.7113 3.86606 56.5779 3.67288 56.4878 3.46023C56.3984 3.24909 56.3534 3.02299 56.3555 2.79505C56.3505 2.5659 56.3935 2.33811 56.4821 2.1253C56.5713 1.91098 56.7048 1.71631 56.8746 1.55309C57.0443 1.38988 57.2468 1.26152 57.4697 1.17581C57.691 1.09071 57.9279 1.0494 58.1661 1.05435C58.403 1.05242 58.638 1.09571 58.8574 1.18172C59.0783 1.26835 59.2791 1.39658 59.4478 1.55887C59.6165 1.72116 59.7498 1.91424 59.8399 2.12677C59.9297 2.33886 59.9747 2.56605 59.9722 2.79506C59.9713 3.25552 59.7807 3.6969 59.4423 4.02262C59.1038 4.34835 58.6449 4.53185 58.1662 4.53298Z" fill="#3B3B46"/>
<path d="M3.54568 23.0533C3.54064 22.8241 3.58369 22.5963 3.67227 22.3835C3.76148 22.1692 3.89501 21.9746 4.06478 21.8113C4.23455 21.6481 4.43701 21.5198 4.6599 21.4341C4.8812 21.349 5.11806 21.3077 5.35631 21.3127C5.5932 21.3107 5.82814 21.354 6.04754 21.44C6.26851 21.5266 6.46925 21.6548 6.63798 21.8171C6.8067 21.9794 6.94001 22.1725 7.03006 22.385C7.11993 22.5971 7.16492 22.8243 7.16241 23.0533C7.16147 23.5138 6.97094 23.9551 6.63247 24.2809C6.29399 24.6066 5.83514 24.7901 5.35634 24.7912C5.11808 24.7937 4.8817 24.7504 4.66103 24.664C4.43993 24.5773 4.23907 24.449 4.07025 24.2867C3.90144 24.1243 3.76808 23.9311 3.678 23.7185C3.58857 23.5073 3.5436 23.2812 3.54568 23.0533Z" fill="#FF5C39"/>
<path d="M66.9593 20.5647C65.2519 20.5332 63.5901 20.0291 62.1729 19.1126L61.9606 18.9753L63.1599 16.7905L63.4296 17.1359C63.8463 17.6695 64.3805 18.1081 64.9939 18.4202C65.6053 18.7312 66.2805 18.9089 66.9714 18.9407C68.024 18.9396 68.6222 18.6758 68.9589 18.3488C69.2975 18.0201 69.417 17.5838 69.417 17.1504C69.417 16.6861 69.1028 16.3439 68.4717 16.0121C68.0437 15.787 67.5282 15.5957 66.9621 15.3856C66.6836 15.2822 66.3929 15.1743 66.0943 15.0556C65.2126 14.7051 64.2942 14.2697 63.5967 13.6009C62.8887 12.9219 62.4198 12.0134 62.4198 10.7498C62.4198 9.34765 63.0295 8.34022 63.9157 7.69071C64.7919 7.04853 65.9215 6.76712 66.9646 6.76709C68.5045 6.76566 70.0131 7.18487 71.315 7.97595L71.5396 8.11246L70.3742 10.1885L70.1049 9.87808C69.7175 9.43159 69.2368 9.0685 68.694 8.8124C68.1522 8.55676 67.5607 8.41342 66.9576 8.39164C66.47 8.38608 65.9994 8.56461 65.6469 8.88902C65.2947 9.2132 65.0886 9.65717 65.0727 10.1257C65.074 10.9024 65.4454 11.3985 66.0424 11.7924C66.5816 12.1482 67.2798 12.4045 68.0397 12.6836L68.0398 12.6836C68.155 12.726 68.2716 12.7688 68.3894 12.8126C69.262 13.1371 70.1829 13.511 70.8824 14.1159C71.5975 14.7344 72.07 15.5838 72.07 16.8215C72.07 17.9321 71.4394 18.8747 70.4984 19.5296C69.5586 20.1836 68.2936 20.5647 66.9647 20.5647L66.9593 20.5647Z" fill="#3B3B46"/>
</svg>
