<svg width="156" height="57" viewBox="0 0 156 57" fill="none" xmlns="http://www.w3.org/2000/svg">
<path fill-rule="evenodd" clip-rule="evenodd" d="M18.7167 44.5608H4.00317L5.03168 43.5358C5.15886 43.4091 5.32988 43.3196 5.45218 43.2608C5.59273 43.1933 5.75819 43.126 5.92902 43.0605C6.0976 42.996 6.31145 42.9187 6.52755 42.8407C6.71337 42.7736 6.90086 42.7059 7.06267 42.6451C7.45369 42.4982 7.7959 42.3562 8.03409 42.2213C8.10823 42.1793 8.16079 42.1443 8.19636 42.1175V6.13177C8.16079 6.10503 8.10831 6.07017 8.03438 6.02836C7.79611 5.8936 7.45384 5.75167 7.0628 5.60489C6.90104 5.54418 6.71408 5.47669 6.52875 5.4098C6.3124 5.33172 6.09828 5.25443 5.92908 5.18965C5.75825 5.12425 5.59279 5.05694 5.45225 4.98945C5.32995 4.93072 5.15895 4.84122 5.03177 4.71453L4.00275 3.68945H18.5719L17.5418 4.71472C17.4137 4.84218 17.233 4.92746 17.1253 4.97619C16.99 5.03745 16.8268 5.10091 16.6563 5.16404C16.503 5.2208 16.3336 5.28099 16.1608 5.34236C16.1398 5.34981 16.1188 5.35728 16.0977 5.36477C15.9014 5.43455 15.7005 5.50633 15.503 5.58024C15.101 5.7307 14.7432 5.87924 14.4927 6.01993C14.4102 6.06623 14.3519 6.10485 14.3129 6.13439V42.116C14.3463 42.1404 14.3949 42.172 14.4628 42.2098C14.6958 42.3394 15.0327 42.4753 15.4246 42.6184C15.5771 42.6741 15.7446 42.7332 15.9129 42.7925C16.1457 42.8746 16.3798 42.9571 16.5772 43.0318C16.7552 43.0992 16.9283 43.1691 17.079 43.2408C17.2199 43.3078 17.3836 43.3956 17.5134 43.5091L18.7167 44.5608Z" fill="white"/>
<path fill-rule="evenodd" clip-rule="evenodd" d="M62.3006 44.5606H56.1179V24.6164C56.1179 22.3515 55.4251 20.9113 54.4138 20.0268C53.3878 19.1296 51.9427 18.7241 50.2935 18.7241C48.1573 18.7241 46.7369 19.258 45.8422 20.1881C44.9432 21.1227 44.4692 22.5665 44.4692 24.6164V44.5606H38.2865V24.5866L38.2895 24.5569C38.3678 23.7712 38.2706 22.9779 38.0051 22.2342C37.7395 21.4906 37.3122 20.8153 36.754 20.2569C36.1958 19.6986 35.5207 19.2712 34.7773 19.0057C34.0339 18.7401 33.2409 18.6429 32.4554 18.7212L32.4257 18.7241H32.3959C30.1071 18.7241 28.6243 19.2875 27.7293 19.8205C27.2795 20.0884 26.972 20.3523 26.7817 20.5419C26.7227 20.6007 26.6749 20.6524 26.6377 20.6949V44.5606H20.5213V17.6981C20.4606 17.1755 20.2555 16.68 19.9286 16.2674L19.3693 15.5612L24.9608 13.9883L26.2568 17.4045C27.1389 16.5426 28.1661 15.8388 29.2936 15.3269C30.7217 14.6786 32.2754 14.354 33.8435 14.3766C37.0617 14.3773 40.5093 15.1786 42.589 18.0515C43.3027 17.1668 44.2308 16.3419 45.4687 15.6985C47.037 14.8834 49.0695 14.3766 51.7354 14.3766C55.2742 14.3766 57.9367 15.4868 59.7115 17.3685C61.4798 19.2435 62.3006 21.8146 62.3006 24.6164V44.5606Z" fill="white"/>
<path fill-rule="evenodd" clip-rule="evenodd" d="M94.6931 42.0489V44.822H94.0931C93.8335 44.822 93.5669 44.8244 93.295 44.8268C91.7687 44.8404 90.0804 44.8555 88.5723 44.4582C86.9794 44.0386 85.5589 43.156 84.6238 41.3918C83.7949 42.2696 82.8198 43.0003 81.7397 43.5501C80.371 44.2467 78.8667 44.636 77.3319 44.6907L77.3212 44.691H77.3105C74.6731 44.691 71.8708 44.26 69.709 42.9207C67.5027 41.5537 66.0243 39.2758 66.0243 35.7639C66.0243 32.1911 68.0878 30.0195 70.6473 28.6746C73.1765 27.3457 76.2669 26.7768 78.5184 26.385L78.5214 26.3844C81.2282 25.9276 82.555 25.5428 83.1918 25.2882C83.3385 25.2295 83.4418 25.1804 83.513 25.1425L83.4615 24.1728V24.1568C83.4615 22.8637 83.1528 21.7161 82.4315 20.8974C81.7236 20.0939 80.5337 19.5121 78.5617 19.5108C75.7124 19.5743 72.9859 20.6838 70.9013 22.628L70.3928 23.1023L68.43 20.2556L68.7184 19.9062C69.9124 18.4595 71.4203 17.3041 73.1276 16.5277C74.8324 15.7524 76.6913 15.3754 78.5633 15.4253C85.1911 15.4284 89.6443 19.2575 89.6443 24.1568V35.8915C89.6774 38.9192 90.1735 40.3997 90.8754 41.1481C91.5539 41.8716 92.5554 42.0489 94.0931 42.0489H94.6931ZM83.5277 37.4519V28.3945C83.4947 28.4126 83.4607 28.431 83.4258 28.4495C82.5865 28.8954 81.1634 29.4836 78.7743 30.1138L78.7647 30.1163C76.7371 30.6155 75.1068 31.0526 73.9651 31.8737C72.8937 32.6441 72.2103 33.7898 72.2071 35.8802C72.2745 37.2013 72.8373 38.4487 73.7835 39.3734C74.7331 40.3014 75.9985 40.8357 77.3256 40.869L77.3387 40.8693L77.3517 40.8702C78.6248 40.9577 79.8955 40.6684 81.0053 40.0384C82.0744 39.4315 82.9486 38.5343 83.5277 37.4519Z" fill="white"/>
<path fill-rule="evenodd" clip-rule="evenodd" d="M113.26 21.676H113.238C112.449 21.676 111.866 21.4376 111.42 21.0437C111.003 20.6743 110.743 20.195 110.54 19.8207C110.317 19.4111 110.159 19.1194 109.938 18.9086C109.752 18.73 109.5 18.5933 109.043 18.5933C107.355 18.5933 105.986 19.318 105.031 20.1905C104.554 20.627 104.189 21.0926 103.947 21.5057C103.694 21.9382 103.613 22.2495 103.613 22.3872V44.5607H97.4297V18.2672C97.4113 17.7792 97.2302 17.3114 96.9152 16.9381L96.0821 15.9511H102.366L103.233 18.066C103.648 17.6954 104.245 17.2023 104.981 16.7085C106.438 15.7311 108.498 14.7118 110.791 14.705C111.635 14.6433 112.481 14.7928 113.252 15.1402C114.02 15.4857 114.69 16.0159 115.202 16.6832C115.582 17.0809 115.844 17.577 115.957 18.1158C116.074 18.6676 116.03 19.2411 115.831 19.7687C115.632 20.2964 115.286 20.7561 114.835 21.0938C114.383 21.4315 113.845 21.6329 113.282 21.6743L113.26 21.676Z" fill="white"/>
<path fill-rule="evenodd" clip-rule="evenodd" d="M118.009 15.8193H125.51V44.5598H119.394V18.16C119.329 17.6606 119.126 17.189 118.808 16.7986L118.009 15.8193Z" fill="white"/>
<path fill-rule="evenodd" clip-rule="evenodd" d="M122.621 9.93763C122.118 9.94307 121.62 9.84824 121.155 9.65866C120.689 9.46871 120.265 9.18748 119.909 8.83151C119.553 8.47555 119.272 8.05203 119.082 7.58584C118.894 7.12296 118.799 6.62729 118.804 6.12755C118.793 5.62519 118.884 5.12581 119.07 4.65926C119.258 4.18941 119.54 3.76263 119.898 3.40481C120.256 3.04699 120.682 2.7656 121.152 2.57769C121.619 2.39112 122.118 2.30057 122.621 2.31142C123.12 2.30718 123.615 2.40208 124.078 2.59065C124.544 2.78058 124.967 3.06169 125.322 3.41748C125.678 3.77327 125.959 4.19656 126.149 4.66249C126.338 5.12746 126.433 5.62553 126.428 6.12758C126.426 7.13704 126.024 8.1047 125.311 8.81878C124.597 9.53287 123.63 9.93516 122.621 9.93763Z" fill="white"/>
<path d="M7.47459 50.5395C7.46396 50.0372 7.55471 49.5378 7.74144 49.0712C7.92951 48.6014 8.21101 48.1746 8.5689 47.8168C8.92679 47.459 9.35361 47.1776 9.82348 46.9898C10.29 46.8032 10.7893 46.7127 11.2916 46.7235C11.791 46.7193 12.2863 46.8142 12.7488 47.0027C13.2146 47.1926 13.6378 47.4737 13.9935 47.8295C14.3492 48.1853 14.6302 48.6086 14.82 49.0745C15.0095 49.5394 15.1043 50.0375 15.099 50.5396C15.097 51.549 14.6954 52.5167 13.9819 53.2307C13.2683 53.9448 12.301 54.3471 11.2917 54.3496C10.7894 54.355 10.291 54.2602 9.82586 54.0706C9.35975 53.8807 8.93632 53.5994 8.58044 53.2435C8.22456 52.8875 7.94342 52.464 7.75354 51.9978C7.56499 51.5349 7.4702 51.0392 7.47459 50.5395Z" fill="#FF5C39"/>
<path d="M141.157 45.0845C137.558 45.0156 134.055 43.9103 131.067 41.9011L130.62 41.6001L133.148 36.8104L133.716 37.5674C134.595 38.7375 135.721 39.6989 137.014 40.383C138.303 41.065 139.726 41.4546 141.183 41.5243C143.402 41.5218 144.663 40.9434 145.373 40.2266C146.087 39.5059 146.339 38.5495 146.339 37.5994C146.339 36.5815 145.676 35.8311 144.346 35.1038C143.443 34.6103 142.357 34.1909 141.163 33.7303L141.163 33.7302C140.576 33.5036 139.963 33.267 139.334 33.0068C137.475 32.2384 135.539 31.284 134.069 29.8177C132.576 28.3292 131.588 26.3375 131.588 23.5673C131.588 20.4933 132.873 18.2847 134.741 16.8608C136.588 15.4529 138.97 14.836 141.169 14.8359C144.415 14.8328 147.595 15.7519 150.34 17.4861L150.813 17.7854L148.356 22.3367L147.789 21.6562C146.972 20.6774 145.959 19.8813 144.814 19.3199C143.672 18.7595 142.425 18.4452 141.154 18.3975C140.126 18.3853 139.134 18.7767 138.391 19.4879C137.648 20.1986 137.214 21.1719 137.18 22.1991C137.183 23.9017 137.966 24.9895 139.225 25.8531C140.361 26.6329 141.833 27.195 143.435 27.8067L143.435 27.8069C143.678 27.8996 143.924 27.9935 144.172 28.0895C146.012 28.8009 147.953 29.6207 149.428 30.9468C150.935 32.3027 151.931 34.1648 151.931 36.8784C151.931 39.313 150.602 41.3795 148.618 42.8153C146.637 44.2491 143.97 45.0846 141.169 45.0846L141.157 45.0845Z" fill="white"/>
</svg>
